G75*
G70*
%OFA0B0*%
%FSLAX24Y24*%
%IPPOS*%
%LPD*%
%AMOC8*
5,1,8,0,0,1.08239X$1,22.5*
%
%ADD10C,0.0000*%
%ADD11C,0.0050*%
%ADD12C,0.0070*%
%ADD13C,0.0090*%
%ADD14C,0.0160*%
%ADD15C,0.0130*%
%ADD16C,0.0060*%
%ADD17C,0.0240*%
%ADD18C,0.0120*%
%ADD19C,0.0040*%
%ADD20C,0.0080*%
%ADD21C,0.0030*%
%ADD22C,0.0100*%
%ADD23R,0.0200X0.0200*%
%ADD24C,0.0010*%
%ADD25R,0.0197X0.0197*%
%ADD26C,0.0020*%
%ADD27R,0.0787X0.0394*%
%ADD28C,0.0200*%
%ADD29R,0.0200X0.1000*%
%ADD30R,0.0300X0.0200*%
%ADD31R,0.0340X0.0240*%
%ADD32R,0.0240X0.0340*%
%ADD33C,0.0335*%
%ADD34R,0.0200X0.0736*%
%ADD35R,0.0250X0.0335*%
D10*
X000220Y010063D02*
X000220Y028173D01*
X042543Y028173D01*
X042543Y030141D01*
X049826Y030141D01*
X049826Y038409D01*
X053370Y038409D01*
X053370Y000220D01*
X049433Y000220D01*
X049433Y010063D01*
X000220Y010063D01*
X049826Y011196D02*
X049828Y011235D01*
X049834Y011274D01*
X049844Y011312D01*
X049857Y011349D01*
X049874Y011384D01*
X049894Y011418D01*
X049918Y011449D01*
X049945Y011478D01*
X049974Y011504D01*
X050006Y011527D01*
X050040Y011547D01*
X050076Y011563D01*
X050113Y011575D01*
X050152Y011584D01*
X050191Y011589D01*
X050230Y011590D01*
X050269Y011587D01*
X050308Y011580D01*
X050345Y011569D01*
X050382Y011555D01*
X050417Y011537D01*
X050450Y011516D01*
X050481Y011491D01*
X050509Y011464D01*
X050534Y011434D01*
X050556Y011401D01*
X050575Y011367D01*
X050590Y011331D01*
X050602Y011293D01*
X050610Y011255D01*
X050614Y011216D01*
X050614Y011176D01*
X050610Y011137D01*
X050602Y011099D01*
X050590Y011061D01*
X050575Y011025D01*
X050556Y010991D01*
X050534Y010958D01*
X050509Y010928D01*
X050481Y010901D01*
X050450Y010876D01*
X050417Y010855D01*
X050382Y010837D01*
X050345Y010823D01*
X050308Y010812D01*
X050269Y010805D01*
X050230Y010802D01*
X050191Y010803D01*
X050152Y010808D01*
X050113Y010817D01*
X050076Y010829D01*
X050040Y010845D01*
X050006Y010865D01*
X049974Y010888D01*
X049945Y010914D01*
X049918Y010943D01*
X049894Y010974D01*
X049874Y011008D01*
X049857Y011043D01*
X049844Y011080D01*
X049834Y011118D01*
X049828Y011157D01*
X049826Y011196D01*
X049826Y023299D02*
X049828Y023338D01*
X049834Y023377D01*
X049844Y023415D01*
X049857Y023452D01*
X049874Y023487D01*
X049894Y023521D01*
X049918Y023552D01*
X049945Y023581D01*
X049974Y023607D01*
X050006Y023630D01*
X050040Y023650D01*
X050076Y023666D01*
X050113Y023678D01*
X050152Y023687D01*
X050191Y023692D01*
X050230Y023693D01*
X050269Y023690D01*
X050308Y023683D01*
X050345Y023672D01*
X050382Y023658D01*
X050417Y023640D01*
X050450Y023619D01*
X050481Y023594D01*
X050509Y023567D01*
X050534Y023537D01*
X050556Y023504D01*
X050575Y023470D01*
X050590Y023434D01*
X050602Y023396D01*
X050610Y023358D01*
X050614Y023319D01*
X050614Y023279D01*
X050610Y023240D01*
X050602Y023202D01*
X050590Y023164D01*
X050575Y023128D01*
X050556Y023094D01*
X050534Y023061D01*
X050509Y023031D01*
X050481Y023004D01*
X050450Y022979D01*
X050417Y022958D01*
X050382Y022940D01*
X050345Y022926D01*
X050308Y022915D01*
X050269Y022908D01*
X050230Y022905D01*
X050191Y022906D01*
X050152Y022911D01*
X050113Y022920D01*
X050076Y022932D01*
X050040Y022948D01*
X050006Y022968D01*
X049974Y022991D01*
X049945Y023017D01*
X049918Y023046D01*
X049894Y023077D01*
X049874Y023111D01*
X049857Y023146D01*
X049844Y023183D01*
X049834Y023221D01*
X049828Y023260D01*
X049826Y023299D01*
D11*
X046344Y023747D02*
X046074Y023747D01*
X046074Y023882D01*
X046119Y023927D01*
X046209Y023927D01*
X046254Y023882D01*
X046254Y023747D01*
X046254Y023837D02*
X046344Y023927D01*
X046344Y024042D02*
X046164Y024222D01*
X046119Y024222D01*
X046074Y024177D01*
X046074Y024087D01*
X046119Y024042D01*
X046344Y024042D02*
X046344Y024222D01*
X046299Y024337D02*
X046344Y024382D01*
X046344Y024472D01*
X046299Y024517D01*
X046254Y024517D01*
X046209Y024472D01*
X046209Y024427D01*
X046209Y024472D02*
X046164Y024517D01*
X046119Y024517D01*
X046074Y024472D01*
X046074Y024382D01*
X046119Y024337D01*
X044966Y024222D02*
X044966Y024042D01*
X044786Y024222D01*
X044741Y024222D01*
X044696Y024177D01*
X044696Y024087D01*
X044741Y024042D01*
X044741Y023927D02*
X044831Y023927D01*
X044876Y023882D01*
X044876Y023747D01*
X044966Y023747D02*
X044696Y023747D01*
X044696Y023882D01*
X044741Y023927D01*
X044876Y023837D02*
X044966Y023927D01*
X044831Y024337D02*
X044831Y024517D01*
X044966Y024472D02*
X044696Y024472D01*
X044831Y024337D01*
X043588Y024337D02*
X043408Y024517D01*
X043363Y024517D01*
X043318Y024472D01*
X043318Y024382D01*
X043363Y024337D01*
X043363Y024222D02*
X043318Y024177D01*
X043318Y024087D01*
X043363Y024042D01*
X043363Y023927D02*
X043453Y023927D01*
X043498Y023882D01*
X043498Y023747D01*
X043588Y023747D02*
X043318Y023747D01*
X043318Y023882D01*
X043363Y023927D01*
X043498Y023837D02*
X043588Y023927D01*
X043588Y024042D02*
X043408Y024222D01*
X043363Y024222D01*
X043588Y024222D02*
X043588Y024042D01*
X043588Y024337D02*
X043588Y024517D01*
X042185Y024558D02*
X042185Y024738D01*
X042185Y024648D02*
X041915Y024648D01*
X042005Y024558D01*
X042005Y024444D02*
X041960Y024444D01*
X041915Y024398D01*
X041915Y024308D01*
X041960Y024263D01*
X041960Y024149D02*
X042050Y024149D01*
X042095Y024104D01*
X042095Y023969D01*
X042095Y024059D02*
X042185Y024149D01*
X042185Y024263D02*
X042005Y024444D01*
X042185Y024444D02*
X042185Y024263D01*
X041960Y024149D02*
X041915Y024104D01*
X041915Y023969D01*
X042185Y023969D01*
X040832Y023927D02*
X040742Y023837D01*
X040742Y023882D02*
X040742Y023747D01*
X040832Y023747D02*
X040562Y023747D01*
X040562Y023882D01*
X040607Y023927D01*
X040697Y023927D01*
X040742Y023882D01*
X040832Y024042D02*
X040652Y024222D01*
X040607Y024222D01*
X040562Y024177D01*
X040562Y024087D01*
X040607Y024042D01*
X040832Y024042D02*
X040832Y024222D01*
X040787Y024337D02*
X040607Y024517D01*
X040787Y024517D01*
X040832Y024472D01*
X040832Y024382D01*
X040787Y024337D01*
X040607Y024337D01*
X040562Y024382D01*
X040562Y024472D01*
X040607Y024517D01*
X039552Y023980D02*
X039552Y023889D01*
X039507Y023844D01*
X039417Y023889D02*
X039417Y024025D01*
X039327Y024025D02*
X039282Y023980D01*
X039282Y023889D01*
X039327Y023844D01*
X039372Y023844D01*
X039417Y023889D01*
X039507Y024025D02*
X039327Y024025D01*
X039507Y024025D02*
X039552Y023980D01*
X039552Y023730D02*
X039552Y023550D01*
X039552Y023640D02*
X039282Y023640D01*
X039372Y023550D01*
X039327Y023435D02*
X039417Y023435D01*
X039462Y023390D01*
X039462Y023255D01*
X039462Y023345D02*
X039552Y023435D01*
X039552Y023255D02*
X039282Y023255D01*
X039282Y023390D01*
X039327Y023435D01*
X038101Y023485D02*
X038011Y023394D01*
X038011Y023439D02*
X038011Y023304D01*
X038101Y023304D02*
X037830Y023304D01*
X037830Y023439D01*
X037875Y023485D01*
X037966Y023485D01*
X038011Y023439D01*
X038101Y023599D02*
X038101Y023779D01*
X038101Y023689D02*
X037830Y023689D01*
X037920Y023599D01*
X037830Y023894D02*
X037830Y024074D01*
X037875Y024074D01*
X038056Y023894D01*
X038101Y023894D01*
X036489Y023871D02*
X036308Y024051D01*
X036263Y024051D01*
X036218Y024006D01*
X036218Y023916D01*
X036263Y023871D01*
X036218Y023667D02*
X036489Y023667D01*
X036489Y023577D02*
X036489Y023757D01*
X036489Y023871D02*
X036489Y024051D01*
X036489Y024166D02*
X036218Y024166D01*
X036308Y024301D02*
X036399Y024166D01*
X036489Y024301D01*
X036489Y024412D02*
X036489Y024592D01*
X036489Y024502D02*
X036218Y024502D01*
X036308Y024412D01*
X036218Y023667D02*
X036308Y023577D01*
X035308Y023601D02*
X035308Y023781D01*
X035308Y023691D02*
X035037Y023691D01*
X035127Y023601D01*
X035037Y023896D02*
X035308Y023896D01*
X035217Y023896D02*
X035127Y024031D01*
X035217Y023896D02*
X035308Y024031D01*
X034028Y024060D02*
X033758Y024060D01*
X033848Y023970D01*
X034028Y023970D02*
X034028Y024151D01*
X034028Y024265D02*
X033758Y024265D01*
X033848Y024400D02*
X033938Y024265D01*
X034028Y024400D01*
X033983Y024511D02*
X034028Y024556D01*
X034028Y024646D01*
X033983Y024691D01*
X033893Y024691D01*
X033848Y024646D01*
X033848Y024601D01*
X033893Y024511D01*
X033758Y024511D01*
X033758Y024691D01*
X032748Y024031D02*
X032658Y023896D01*
X032568Y024031D01*
X032478Y023896D02*
X032748Y023896D01*
X032748Y023781D02*
X032748Y023601D01*
X032568Y023781D01*
X032523Y023781D01*
X032478Y023736D01*
X032478Y023646D01*
X032523Y023601D01*
X031272Y023618D02*
X031002Y023618D01*
X031092Y023527D01*
X031272Y023527D02*
X031272Y023708D01*
X031227Y023822D02*
X031272Y023867D01*
X031272Y023957D01*
X031227Y024002D01*
X031137Y024002D01*
X031092Y023957D01*
X031092Y023912D01*
X031137Y023822D01*
X031002Y023822D01*
X031002Y024002D01*
X031002Y024117D02*
X031272Y024117D01*
X031182Y024117D02*
X031092Y024252D01*
X031182Y024117D02*
X031272Y024252D01*
X029796Y024191D02*
X029525Y024191D01*
X029571Y024076D02*
X029751Y023896D01*
X029796Y023941D01*
X029796Y024031D01*
X029751Y024076D01*
X029571Y024076D01*
X029525Y024031D01*
X029525Y023941D01*
X029571Y023896D01*
X029751Y023896D01*
X029796Y023781D02*
X029796Y023601D01*
X029796Y023691D02*
X029525Y023691D01*
X029616Y023601D01*
X029706Y024191D02*
X029616Y024326D01*
X029706Y024191D02*
X029796Y024326D01*
X028615Y024277D02*
X028615Y024187D01*
X028570Y024141D01*
X028479Y024141D02*
X028434Y024232D01*
X028434Y024277D01*
X028479Y024322D01*
X028570Y024322D01*
X028615Y024277D01*
X028479Y024141D02*
X028344Y024141D01*
X028344Y024322D01*
X028434Y024031D02*
X028525Y023896D01*
X028615Y024031D01*
X028615Y023896D02*
X028344Y023896D01*
X028344Y023691D02*
X028615Y023691D01*
X028615Y023601D02*
X028615Y023781D01*
X028434Y023601D02*
X028344Y023691D01*
X026582Y023683D02*
X026582Y023593D01*
X026537Y023548D01*
X026402Y023548D01*
X026402Y023458D02*
X026402Y023728D01*
X026537Y023728D01*
X026582Y023683D01*
X026288Y023593D02*
X026243Y023548D01*
X026153Y023548D01*
X026108Y023593D01*
X026288Y023773D01*
X026288Y023593D01*
X026288Y023773D02*
X026243Y023818D01*
X026153Y023818D01*
X026108Y023773D01*
X026108Y023593D01*
X025993Y023593D02*
X025993Y023773D01*
X025948Y023818D01*
X025858Y023818D01*
X025813Y023773D01*
X025813Y023728D01*
X025858Y023683D01*
X025993Y023683D01*
X025993Y023593D02*
X025948Y023548D01*
X025858Y023548D01*
X025813Y023593D01*
X025698Y023593D02*
X025653Y023548D01*
X025563Y023548D01*
X025518Y023593D01*
X025608Y023683D02*
X025653Y023683D01*
X025698Y023638D01*
X025698Y023593D01*
X025653Y023683D02*
X025698Y023728D01*
X025698Y023773D01*
X025653Y023818D01*
X025563Y023818D01*
X025518Y023773D01*
X025284Y024720D02*
X025194Y024720D01*
X025149Y024765D01*
X025149Y024810D01*
X025194Y024855D01*
X025284Y024855D01*
X025329Y024810D01*
X025329Y024765D01*
X025284Y024720D01*
X025284Y024855D02*
X025329Y024900D01*
X025329Y024945D01*
X025284Y024990D01*
X025194Y024990D01*
X025149Y024945D01*
X025149Y024900D01*
X025194Y024855D01*
X025034Y024765D02*
X024989Y024720D01*
X024899Y024720D01*
X024854Y024765D01*
X024854Y024945D01*
X024899Y024990D01*
X024989Y024990D01*
X025034Y024945D01*
X025507Y025842D02*
X024507Y025842D01*
X023706Y025797D02*
X023616Y025707D01*
X023616Y025752D02*
X023616Y025617D01*
X023706Y025617D02*
X023436Y025617D01*
X023436Y025752D01*
X023481Y025797D01*
X023571Y025797D01*
X023616Y025752D01*
X023706Y025912D02*
X023526Y026092D01*
X023481Y026092D01*
X023436Y026047D01*
X023436Y025957D01*
X023481Y025912D01*
X023706Y025912D02*
X023706Y026092D01*
X023661Y026207D02*
X023616Y026207D01*
X023571Y026252D01*
X023571Y026342D01*
X023616Y026387D01*
X023661Y026387D01*
X023706Y026342D01*
X023706Y026252D01*
X023661Y026207D01*
X023571Y026252D02*
X023526Y026207D01*
X023481Y026207D01*
X023436Y026252D01*
X023436Y026342D01*
X023481Y026387D01*
X023526Y026387D01*
X023571Y026342D01*
X022328Y026350D02*
X022328Y026440D01*
X022283Y026485D01*
X022238Y026485D01*
X022193Y026440D01*
X022193Y026305D01*
X022283Y026305D01*
X022328Y026350D01*
X022193Y026305D02*
X022103Y026395D01*
X022058Y026485D01*
X022103Y026191D02*
X022058Y026146D01*
X022058Y026055D01*
X022103Y026010D01*
X022103Y025896D02*
X022193Y025896D01*
X022238Y025851D01*
X022238Y025716D01*
X022238Y025806D02*
X022328Y025896D01*
X022328Y026010D02*
X022148Y026191D01*
X022103Y026191D01*
X022328Y026191D02*
X022328Y026010D01*
X022103Y025896D02*
X022058Y025851D01*
X022058Y025716D01*
X022328Y025716D01*
X020950Y025797D02*
X020860Y025707D01*
X020860Y025752D02*
X020860Y025617D01*
X020950Y025617D02*
X020680Y025617D01*
X020680Y025752D01*
X020725Y025797D01*
X020815Y025797D01*
X020860Y025752D01*
X020950Y025912D02*
X020770Y026092D01*
X020725Y026092D01*
X020680Y026047D01*
X020680Y025957D01*
X020725Y025912D01*
X020950Y025912D02*
X020950Y026092D01*
X020950Y026207D02*
X020905Y026207D01*
X020725Y026387D01*
X020680Y026387D01*
X020680Y026207D01*
X019733Y026200D02*
X019463Y026200D01*
X019463Y026335D01*
X019508Y026381D01*
X019598Y026381D01*
X019643Y026335D01*
X019643Y026200D01*
X019643Y026290D02*
X019733Y026381D01*
X019688Y026086D02*
X019733Y026041D01*
X019733Y025951D01*
X019688Y025906D01*
X019508Y026086D01*
X019688Y026086D01*
X019508Y026086D02*
X019463Y026041D01*
X019463Y025951D01*
X019508Y025906D01*
X019688Y025906D01*
X019688Y025791D02*
X019643Y025791D01*
X019598Y025746D01*
X019598Y025611D01*
X019688Y025611D01*
X019733Y025656D01*
X019733Y025746D01*
X019688Y025791D01*
X019508Y025701D02*
X019598Y025611D01*
X019598Y025497D02*
X019688Y025497D01*
X019733Y025452D01*
X019733Y025361D01*
X019688Y025316D01*
X019598Y025316D02*
X019553Y025406D01*
X019553Y025452D01*
X019598Y025497D01*
X019463Y025497D02*
X019463Y025316D01*
X019598Y025316D01*
X019508Y025701D02*
X019463Y025791D01*
X018194Y025912D02*
X017924Y025912D01*
X017924Y026047D01*
X017969Y026092D01*
X018059Y026092D01*
X018104Y026047D01*
X018104Y025912D01*
X018104Y026002D02*
X018194Y026092D01*
X018149Y026207D02*
X018194Y026252D01*
X018194Y026342D01*
X018149Y026387D01*
X018104Y026387D01*
X018059Y026342D01*
X018059Y026297D01*
X018059Y026342D02*
X018014Y026387D01*
X017969Y026387D01*
X017924Y026342D01*
X017924Y026252D01*
X017969Y026207D01*
X018001Y024620D02*
X018091Y024485D01*
X018182Y024620D01*
X018182Y024485D02*
X017911Y024485D01*
X017956Y024371D02*
X018136Y024191D01*
X018182Y024236D01*
X018182Y024326D01*
X018136Y024371D01*
X017956Y024371D01*
X017911Y024326D01*
X017911Y024236D01*
X017956Y024191D01*
X018136Y024191D01*
X018136Y024076D02*
X018182Y024031D01*
X018182Y023941D01*
X018136Y023896D01*
X017956Y024076D01*
X018136Y024076D01*
X017956Y024076D02*
X017911Y024031D01*
X017911Y023941D01*
X017956Y023896D01*
X018136Y023896D01*
X018182Y023781D02*
X018182Y023601D01*
X018182Y023691D02*
X017911Y023691D01*
X018001Y023601D01*
X019450Y023595D02*
X019450Y023730D01*
X019495Y023775D01*
X019585Y023775D01*
X019631Y023730D01*
X019631Y023595D01*
X019721Y023595D02*
X019450Y023595D01*
X019631Y023685D02*
X019721Y023775D01*
X019585Y023890D02*
X019585Y024070D01*
X019450Y024025D02*
X019585Y023890D01*
X019450Y024025D02*
X019721Y024025D01*
X020667Y024031D02*
X020667Y023941D01*
X020712Y023896D01*
X020757Y023896D01*
X020802Y023941D01*
X020802Y024031D01*
X020847Y024076D01*
X020892Y024076D01*
X020937Y024031D01*
X020937Y023941D01*
X020892Y023896D01*
X020847Y023896D01*
X020802Y023941D01*
X020802Y024031D02*
X020757Y024076D01*
X020712Y024076D01*
X020667Y024031D01*
X020667Y024191D02*
X020937Y024191D01*
X020847Y024191D02*
X020937Y024326D01*
X020847Y024191D02*
X020757Y024326D01*
X020667Y023781D02*
X020712Y023691D01*
X020802Y023601D01*
X020802Y023736D01*
X020847Y023781D01*
X020892Y023781D01*
X020937Y023736D01*
X020937Y023646D01*
X020892Y023601D01*
X020802Y023601D01*
X022045Y023880D02*
X022090Y023790D01*
X022180Y023700D01*
X022180Y023835D01*
X022225Y023880D01*
X022270Y023880D01*
X022315Y023835D01*
X022315Y023745D01*
X022270Y023700D01*
X022180Y023700D01*
X022135Y023994D02*
X022090Y023994D01*
X022045Y024039D01*
X022045Y024129D01*
X022090Y024175D01*
X022135Y024175D01*
X022180Y024129D01*
X022180Y024039D01*
X022135Y023994D01*
X022180Y024039D02*
X022225Y023994D01*
X022270Y023994D01*
X022315Y024039D01*
X022315Y024129D01*
X022270Y024175D01*
X022225Y024175D01*
X022180Y024129D01*
X022225Y024289D02*
X022135Y024424D01*
X022045Y024289D02*
X022315Y024289D01*
X022225Y024289D02*
X022315Y024424D01*
X023620Y024485D02*
X023890Y024485D01*
X023800Y024485D02*
X023710Y024620D01*
X023800Y024485D02*
X023890Y024620D01*
X023845Y024371D02*
X023890Y024326D01*
X023890Y024236D01*
X023845Y024191D01*
X023665Y024371D01*
X023845Y024371D01*
X023665Y024371D02*
X023620Y024326D01*
X023620Y024236D01*
X023665Y024191D01*
X023845Y024191D01*
X023845Y024076D02*
X023890Y024031D01*
X023890Y023941D01*
X023845Y023896D01*
X023665Y024076D01*
X023845Y024076D01*
X023665Y024076D02*
X023620Y024031D01*
X023620Y023941D01*
X023665Y023896D01*
X023845Y023896D01*
X023890Y023781D02*
X023890Y023601D01*
X023890Y023691D02*
X023620Y023691D01*
X023710Y023601D01*
X024732Y021886D02*
X024867Y021886D01*
X024912Y021841D01*
X024912Y021751D01*
X024867Y021706D01*
X024732Y021706D01*
X024822Y021706D02*
X024912Y021616D01*
X025026Y021616D02*
X025206Y021616D01*
X025116Y021616D02*
X025116Y021886D01*
X025026Y021796D01*
X025321Y021841D02*
X025366Y021886D01*
X025456Y021886D01*
X025501Y021841D01*
X025501Y021796D01*
X025321Y021616D01*
X025501Y021616D01*
X024732Y021616D02*
X024732Y021886D01*
X026645Y021787D02*
X026825Y021787D01*
X026780Y021922D02*
X026645Y021787D01*
X026780Y021652D02*
X026780Y021922D01*
X026940Y021877D02*
X026985Y021922D01*
X027075Y021922D01*
X027120Y021877D01*
X027120Y021832D01*
X026940Y021652D01*
X027120Y021652D01*
X027234Y021652D02*
X027414Y021832D01*
X027414Y021877D01*
X027369Y021922D01*
X027279Y021922D01*
X027234Y021877D01*
X027234Y021652D02*
X027414Y021652D01*
X027529Y021652D02*
X027529Y021922D01*
X027664Y021832D02*
X027529Y021742D01*
X027664Y021652D01*
X027406Y020446D02*
X027406Y020175D01*
X027406Y020265D02*
X027541Y020355D01*
X027406Y020265D02*
X027541Y020175D01*
X027291Y020220D02*
X027246Y020175D01*
X027156Y020175D01*
X027111Y020220D01*
X027291Y020401D01*
X027291Y020220D01*
X027111Y020220D02*
X027111Y020401D01*
X027156Y020446D01*
X027246Y020446D01*
X027291Y020401D01*
X026997Y020175D02*
X026817Y020175D01*
X026907Y020175D02*
X026907Y020446D01*
X026817Y020355D01*
X026919Y019267D02*
X027009Y019267D01*
X027054Y019222D01*
X027054Y019177D01*
X027009Y019132D01*
X027054Y019087D01*
X027054Y019042D01*
X027009Y018997D01*
X026919Y018997D01*
X026874Y019042D01*
X026759Y019042D02*
X026714Y018997D01*
X026624Y018997D01*
X026579Y019042D01*
X026759Y019222D01*
X026759Y019042D01*
X026579Y019042D02*
X026579Y019222D01*
X026624Y019267D01*
X026714Y019267D01*
X026759Y019222D01*
X026874Y019222D02*
X026919Y019267D01*
X026964Y019132D02*
X027009Y019132D01*
X026465Y019132D02*
X026285Y019132D01*
X026285Y019177D02*
X026375Y019267D01*
X026465Y019177D01*
X026465Y018997D01*
X026285Y018997D02*
X026285Y019177D01*
X026170Y019267D02*
X026170Y018997D01*
X025990Y019267D01*
X025990Y018997D01*
X025875Y018997D02*
X025875Y019177D01*
X025785Y019267D01*
X025695Y019177D01*
X025695Y018997D01*
X025581Y018997D02*
X025401Y018997D01*
X025581Y019177D01*
X025581Y019222D01*
X025536Y019267D01*
X025446Y019267D01*
X025401Y019222D01*
X025286Y019222D02*
X025241Y019267D01*
X025151Y019267D01*
X025106Y019222D01*
X024991Y019222D02*
X024946Y019267D01*
X024856Y019267D01*
X024811Y019222D01*
X024811Y019177D01*
X024856Y019132D01*
X024946Y019132D01*
X024991Y019087D01*
X024991Y019042D01*
X024946Y018997D01*
X024856Y018997D01*
X024811Y019042D01*
X024697Y018997D02*
X024697Y019267D01*
X024607Y019177D01*
X024517Y019267D01*
X024517Y018997D01*
X025106Y018997D02*
X025286Y019177D01*
X025286Y019222D01*
X025286Y018997D02*
X025106Y018997D01*
X025695Y019132D02*
X025875Y019132D01*
X025251Y020188D02*
X025071Y020188D01*
X025251Y020368D01*
X025251Y020413D01*
X025206Y020458D01*
X025116Y020458D01*
X025071Y020413D01*
X024956Y020413D02*
X024956Y020323D01*
X024911Y020278D01*
X024776Y020278D01*
X024776Y020188D02*
X024776Y020458D01*
X024911Y020458D01*
X024956Y020413D01*
X024866Y020278D02*
X024956Y020188D01*
X024098Y019493D02*
X024098Y015003D01*
X029098Y015003D01*
X029098Y019493D01*
X024098Y019493D01*
X022655Y018404D02*
X022475Y018404D01*
X022655Y018404D02*
X022655Y018269D01*
X022610Y018224D01*
X022475Y018224D01*
X022430Y018110D02*
X022610Y017929D01*
X022655Y017974D01*
X022655Y018065D01*
X022610Y018110D01*
X022430Y018110D01*
X022385Y018065D01*
X022385Y017974D01*
X022430Y017929D01*
X022610Y017929D01*
X022655Y017815D02*
X022655Y017635D01*
X022655Y017725D02*
X022385Y017725D01*
X022475Y017635D01*
X020279Y018019D02*
X020281Y018093D01*
X020287Y018168D01*
X020297Y018241D01*
X020311Y018315D01*
X020328Y018387D01*
X020350Y018458D01*
X020375Y018528D01*
X020404Y018597D01*
X020436Y018664D01*
X020473Y018729D01*
X020512Y018792D01*
X020555Y018853D01*
X020601Y018911D01*
X020650Y018967D01*
X020702Y019021D01*
X020756Y019071D01*
X020814Y019119D01*
X020873Y019163D01*
X020935Y019204D01*
X021000Y019242D01*
X021066Y019276D01*
X021133Y019307D01*
X021203Y019334D01*
X021273Y019357D01*
X021345Y019377D01*
X021418Y019393D01*
X021491Y019405D01*
X021565Y019413D01*
X021640Y019417D01*
X021714Y019417D01*
X021789Y019413D01*
X021863Y019405D01*
X021936Y019393D01*
X022009Y019377D01*
X022081Y019357D01*
X022151Y019334D01*
X022221Y019307D01*
X022288Y019276D01*
X022354Y019242D01*
X022419Y019204D01*
X022481Y019163D01*
X022540Y019119D01*
X022598Y019071D01*
X022652Y019021D01*
X022704Y018967D01*
X022753Y018911D01*
X022799Y018853D01*
X022842Y018792D01*
X022881Y018729D01*
X022918Y018664D01*
X022950Y018597D01*
X022979Y018528D01*
X023004Y018458D01*
X023026Y018387D01*
X023043Y018315D01*
X023057Y018241D01*
X023067Y018168D01*
X023073Y018093D01*
X023075Y018019D01*
X023073Y017945D01*
X023067Y017870D01*
X023057Y017797D01*
X023043Y017723D01*
X023026Y017651D01*
X023004Y017580D01*
X022979Y017510D01*
X022950Y017441D01*
X022918Y017374D01*
X022881Y017309D01*
X022842Y017246D01*
X022799Y017185D01*
X022753Y017127D01*
X022704Y017071D01*
X022652Y017017D01*
X022598Y016967D01*
X022540Y016919D01*
X022481Y016875D01*
X022419Y016834D01*
X022354Y016796D01*
X022288Y016762D01*
X022221Y016731D01*
X022151Y016704D01*
X022081Y016681D01*
X022009Y016661D01*
X021936Y016645D01*
X021863Y016633D01*
X021789Y016625D01*
X021714Y016621D01*
X021640Y016621D01*
X021565Y016625D01*
X021491Y016633D01*
X021418Y016645D01*
X021345Y016661D01*
X021273Y016681D01*
X021203Y016704D01*
X021133Y016731D01*
X021066Y016762D01*
X021000Y016796D01*
X020935Y016834D01*
X020873Y016875D01*
X020814Y016919D01*
X020756Y016967D01*
X020702Y017017D01*
X020650Y017071D01*
X020601Y017127D01*
X020555Y017185D01*
X020512Y017246D01*
X020473Y017309D01*
X020436Y017374D01*
X020404Y017441D01*
X020375Y017510D01*
X020350Y017580D01*
X020328Y017651D01*
X020311Y017723D01*
X020297Y017797D01*
X020287Y017870D01*
X020281Y017945D01*
X020279Y018019D01*
X020608Y018118D02*
X020608Y018298D01*
X020653Y018298D01*
X020834Y018118D01*
X020879Y018118D01*
X020879Y018004D02*
X020879Y017824D01*
X020879Y017914D02*
X020608Y017914D01*
X020698Y017824D01*
X020653Y017709D02*
X020608Y017664D01*
X020608Y017574D01*
X020653Y017529D01*
X020834Y017529D01*
X020879Y017574D01*
X020879Y017664D01*
X020834Y017709D01*
X019572Y018235D02*
X019302Y018235D01*
X019302Y018371D01*
X019347Y018416D01*
X019437Y018416D01*
X019482Y018371D01*
X019482Y018235D01*
X019482Y018326D02*
X019572Y018416D01*
X019572Y018530D02*
X019572Y018710D01*
X019572Y018620D02*
X019302Y018620D01*
X019392Y018530D01*
X019437Y018825D02*
X019437Y019005D01*
X019572Y018960D02*
X019302Y018960D01*
X019437Y018825D01*
X018194Y018870D02*
X018149Y018825D01*
X018194Y018870D02*
X018194Y018960D01*
X018149Y019005D01*
X018059Y019005D01*
X018014Y018960D01*
X018014Y018915D01*
X018059Y018825D01*
X017924Y018825D01*
X017924Y019005D01*
X017924Y018620D02*
X018194Y018620D01*
X018194Y018530D02*
X018194Y018710D01*
X018014Y018530D02*
X017924Y018620D01*
X017969Y018416D02*
X018059Y018416D01*
X018104Y018371D01*
X018104Y018235D01*
X018194Y018235D02*
X017924Y018235D01*
X017924Y018371D01*
X017969Y018416D01*
X018104Y018326D02*
X018194Y018416D01*
X018182Y016944D02*
X018091Y016809D01*
X018001Y016944D01*
X017911Y016809D02*
X018182Y016809D01*
X018182Y016694D02*
X018182Y016514D01*
X018001Y016694D01*
X017956Y016694D01*
X017911Y016649D01*
X017911Y016559D01*
X017956Y016514D01*
X017956Y016400D02*
X017911Y016355D01*
X017911Y016264D01*
X017956Y016219D01*
X017956Y016400D02*
X018001Y016400D01*
X018182Y016219D01*
X018182Y016400D01*
X019289Y016355D02*
X019424Y016219D01*
X019424Y016400D01*
X019469Y016514D02*
X019379Y016649D01*
X019289Y016760D02*
X019289Y016940D01*
X019334Y016940D01*
X019514Y016760D01*
X019559Y016760D01*
X019559Y016649D02*
X019469Y016514D01*
X019559Y016514D02*
X019289Y016514D01*
X019289Y016355D02*
X019559Y016355D01*
X017035Y015910D02*
X017035Y015775D01*
X016990Y015730D01*
X016855Y015730D01*
X016855Y015910D02*
X017035Y015910D01*
X017035Y015615D02*
X017035Y015435D01*
X017035Y015525D02*
X016764Y015525D01*
X016855Y015435D01*
X017088Y013851D02*
X017088Y013581D01*
X016998Y013581D02*
X017178Y013581D01*
X017293Y013581D02*
X017293Y013851D01*
X017428Y013761D02*
X017293Y013671D01*
X017428Y013581D01*
X017088Y013851D02*
X016998Y013761D01*
X015408Y013774D02*
X015363Y013729D01*
X015408Y013684D01*
X015408Y013638D01*
X015363Y013593D01*
X015273Y013593D01*
X015228Y013638D01*
X015113Y013593D02*
X014933Y013593D01*
X015023Y013593D02*
X015023Y013864D01*
X014933Y013774D01*
X014818Y013819D02*
X014818Y013729D01*
X014773Y013684D01*
X014638Y013684D01*
X014728Y013684D02*
X014818Y013593D01*
X014638Y013593D02*
X014638Y013864D01*
X014773Y013864D01*
X014818Y013819D01*
X015228Y013819D02*
X015273Y013864D01*
X015363Y013864D01*
X015408Y013819D01*
X015408Y013774D01*
X015363Y013729D02*
X015318Y013729D01*
X013744Y015386D02*
X013789Y015431D01*
X013789Y015521D01*
X013744Y015566D01*
X013789Y015680D02*
X013789Y015860D01*
X013789Y015770D02*
X013518Y015770D01*
X013608Y015680D01*
X013563Y015566D02*
X013518Y015521D01*
X013518Y015431D01*
X013563Y015386D01*
X013744Y015386D01*
X012704Y015435D02*
X012704Y015615D01*
X012704Y015525D02*
X012434Y015525D01*
X012524Y015435D01*
X012524Y015730D02*
X012659Y015730D01*
X012704Y015775D01*
X012704Y015910D01*
X012524Y015910D01*
X011486Y013949D02*
X011486Y013679D01*
X011486Y013769D02*
X011621Y013859D01*
X011486Y013769D02*
X011621Y013679D01*
X011371Y013904D02*
X011191Y013724D01*
X011191Y013679D01*
X011031Y013679D02*
X011031Y013949D01*
X010896Y013814D01*
X011077Y013814D01*
X011191Y013949D02*
X011371Y013949D01*
X011371Y013904D01*
X010881Y012394D02*
X009931Y012394D01*
X009556Y013692D02*
X009601Y013737D01*
X009601Y013782D01*
X009556Y013827D01*
X009421Y013827D01*
X009421Y013737D01*
X009466Y013692D01*
X009556Y013692D01*
X009421Y013827D02*
X009511Y013917D01*
X009601Y013962D01*
X009216Y013962D02*
X009216Y013692D01*
X009126Y013692D02*
X009306Y013692D01*
X009126Y013872D02*
X009216Y013962D01*
X009011Y013917D02*
X009011Y013827D01*
X008966Y013782D01*
X008831Y013782D01*
X008831Y013692D02*
X008831Y013962D01*
X008966Y013962D01*
X009011Y013917D01*
X008921Y013782D02*
X009011Y013692D01*
X009036Y015386D02*
X009216Y015386D01*
X009261Y015431D01*
X009261Y015521D01*
X009216Y015566D01*
X009216Y015680D02*
X009261Y015725D01*
X009261Y015815D01*
X009216Y015860D01*
X009036Y015860D01*
X008991Y015815D01*
X008991Y015725D01*
X009036Y015680D01*
X009081Y015680D01*
X009126Y015725D01*
X009126Y015860D01*
X009036Y015566D02*
X008991Y015521D01*
X008991Y015431D01*
X009036Y015386D01*
X008176Y015419D02*
X008176Y015238D01*
X008176Y015328D02*
X007906Y015328D01*
X007996Y015238D01*
X007996Y015533D02*
X008131Y015533D01*
X008176Y015578D01*
X008176Y015713D01*
X007996Y015713D01*
X004930Y015673D02*
X004660Y015673D01*
X004750Y015582D01*
X004705Y015468D02*
X004660Y015423D01*
X004660Y015333D01*
X004705Y015288D01*
X004885Y015288D01*
X004930Y015333D01*
X004930Y015423D01*
X004885Y015468D01*
X004930Y015582D02*
X004930Y015763D01*
X004885Y015877D02*
X004705Y016057D01*
X004885Y016057D01*
X004930Y016012D01*
X004930Y015922D01*
X004885Y015877D01*
X004705Y015877D01*
X004660Y015922D01*
X004660Y016012D01*
X004705Y016057D01*
X004078Y016133D02*
X004033Y016088D01*
X004078Y016133D02*
X004078Y016223D01*
X004033Y016268D01*
X003988Y016268D01*
X003943Y016223D01*
X003943Y016178D01*
X003943Y016223D02*
X003898Y016268D01*
X003853Y016268D01*
X003808Y016223D01*
X003808Y016133D01*
X003853Y016088D01*
X003853Y015973D02*
X003943Y015973D01*
X003988Y015928D01*
X003988Y015793D01*
X004078Y015793D02*
X003808Y015793D01*
X003808Y015928D01*
X003853Y015973D01*
X003988Y015883D02*
X004078Y015973D01*
X004033Y016382D02*
X003853Y016563D01*
X004033Y016563D01*
X004078Y016518D01*
X004078Y016427D01*
X004033Y016382D01*
X003853Y016382D01*
X003808Y016427D01*
X003808Y016518D01*
X003853Y016563D01*
X003734Y017051D02*
X003554Y017051D01*
X003644Y017051D02*
X003644Y017321D01*
X003554Y017231D01*
X003439Y017276D02*
X003394Y017321D01*
X003259Y017321D01*
X003259Y017051D01*
X003394Y017051D01*
X003439Y017096D01*
X003439Y017276D01*
X000773Y018733D02*
X000503Y018733D01*
X000503Y018868D01*
X000548Y018913D01*
X000638Y018913D01*
X000683Y018868D01*
X000683Y018733D01*
X000683Y018823D02*
X000773Y018913D01*
X000773Y019028D02*
X000593Y019208D01*
X000548Y019208D01*
X000503Y019163D01*
X000503Y019073D01*
X000548Y019028D01*
X000773Y019028D02*
X000773Y019208D01*
X000728Y019322D02*
X000773Y019368D01*
X000773Y019458D01*
X000728Y019503D01*
X000548Y019503D01*
X000503Y019458D01*
X000503Y019368D01*
X000548Y019322D01*
X000593Y019322D01*
X000638Y019368D01*
X000638Y019503D01*
X004444Y014359D02*
X004399Y014314D01*
X004399Y014134D01*
X004444Y014089D01*
X004534Y014089D01*
X004579Y014134D01*
X004694Y014089D02*
X004874Y014089D01*
X004784Y014089D02*
X004784Y014359D01*
X004694Y014269D01*
X004579Y014314D02*
X004534Y014359D01*
X004444Y014359D01*
X004988Y014269D02*
X005078Y014359D01*
X005078Y014089D01*
X004988Y014089D02*
X005168Y014089D01*
X005149Y013349D02*
X005058Y013349D01*
X005013Y013304D01*
X005149Y013349D02*
X005194Y013304D01*
X005194Y013259D01*
X005013Y013079D01*
X005194Y013079D01*
X004899Y013079D02*
X004899Y013214D01*
X004854Y013259D01*
X004719Y013259D01*
X004719Y013079D01*
X004604Y013079D02*
X004424Y013079D01*
X004604Y013259D01*
X004604Y013304D01*
X004559Y013349D01*
X004469Y013349D01*
X004424Y013304D01*
X004505Y012394D02*
X004255Y012394D01*
X005005Y012394D02*
X005255Y012394D01*
X006005Y012394D02*
X006155Y012394D01*
X005755Y010244D02*
X005755Y010094D01*
X005655Y010094D01*
X005255Y010094D02*
X004255Y010094D01*
X010281Y010094D02*
X010381Y010094D01*
X010381Y010244D01*
X019072Y010261D02*
X019117Y010215D01*
X019298Y010215D01*
X019343Y010261D01*
X019343Y010351D01*
X019298Y010396D01*
X019117Y010396D01*
X019072Y010351D01*
X019072Y010261D01*
X019072Y010510D02*
X019072Y010645D01*
X019117Y010690D01*
X019208Y010690D01*
X019253Y010645D01*
X019253Y010510D01*
X019343Y010510D02*
X019072Y010510D01*
X019162Y010805D02*
X019072Y010895D01*
X019162Y010985D01*
X019343Y010985D01*
X019298Y011099D02*
X019253Y011099D01*
X019208Y011144D01*
X019208Y011235D01*
X019253Y011280D01*
X019298Y011280D01*
X019343Y011235D01*
X019343Y011144D01*
X019298Y011099D01*
X019208Y011144D02*
X019162Y011099D01*
X019117Y011099D01*
X019072Y011144D01*
X019072Y011235D01*
X019117Y011280D01*
X019162Y011280D01*
X019208Y011235D01*
X019117Y011394D02*
X019072Y011439D01*
X019072Y011529D01*
X019117Y011574D01*
X019162Y011574D01*
X019343Y011394D01*
X019343Y011574D01*
X019298Y011689D02*
X019253Y011689D01*
X019208Y011734D01*
X019208Y011824D01*
X019253Y011869D01*
X019298Y011869D01*
X019343Y011824D01*
X019343Y011734D01*
X019298Y011689D01*
X019208Y011734D02*
X019162Y011689D01*
X019117Y011689D01*
X019072Y011734D01*
X019072Y011824D01*
X019117Y011869D01*
X019162Y011869D01*
X019208Y011824D01*
X019253Y012278D02*
X019162Y012278D01*
X019072Y012368D01*
X019072Y012474D02*
X019072Y012610D01*
X019117Y012655D01*
X019162Y012655D01*
X019208Y012610D01*
X019208Y012474D01*
X019343Y012474D02*
X019072Y012474D01*
X019208Y012610D02*
X019253Y012655D01*
X019298Y012655D01*
X019343Y012610D01*
X019343Y012474D01*
X019343Y012368D02*
X019253Y012278D01*
X019298Y012769D02*
X019162Y012769D01*
X019298Y012769D02*
X019343Y012814D01*
X019343Y012949D01*
X019162Y012949D01*
X019208Y013064D02*
X019208Y013154D01*
X019117Y013109D02*
X019072Y013154D01*
X019117Y013109D02*
X019343Y013109D01*
X019343Y013305D02*
X019117Y013305D01*
X019072Y013350D01*
X019208Y013350D02*
X019208Y013260D01*
X019208Y013457D02*
X019162Y013502D01*
X019162Y013592D01*
X019208Y013637D01*
X019253Y013637D01*
X019253Y013457D01*
X019298Y013457D02*
X019208Y013457D01*
X019298Y013457D02*
X019343Y013502D01*
X019343Y013592D01*
X019343Y013751D02*
X019162Y013751D01*
X019162Y013841D02*
X019162Y013886D01*
X019162Y013841D02*
X019253Y013751D01*
X019343Y013997D02*
X019253Y014087D01*
X019162Y014087D01*
X019072Y013997D01*
X021038Y012355D02*
X021128Y012355D01*
X021083Y012355D02*
X021083Y012084D01*
X021038Y012084D02*
X021128Y012084D01*
X021234Y012129D02*
X021279Y012084D01*
X021370Y012084D01*
X021415Y012129D01*
X021529Y012084D02*
X021709Y012084D01*
X021619Y012084D02*
X021619Y012355D01*
X021529Y012265D01*
X021415Y012310D02*
X021370Y012355D01*
X021279Y012355D01*
X021234Y012310D01*
X021234Y012129D01*
X019343Y010805D02*
X019162Y010805D01*
X019208Y010805D02*
X019208Y010985D01*
X024191Y011092D02*
X024281Y011182D01*
X024461Y011182D01*
X024416Y011296D02*
X024371Y011296D01*
X024326Y011341D01*
X024326Y011431D01*
X024371Y011476D01*
X024416Y011476D01*
X024461Y011431D01*
X024461Y011341D01*
X024416Y011296D01*
X024326Y011341D02*
X024281Y011296D01*
X024236Y011296D01*
X024191Y011341D01*
X024191Y011431D01*
X024236Y011476D01*
X024281Y011476D01*
X024326Y011431D01*
X024236Y011591D02*
X024191Y011636D01*
X024191Y011726D01*
X024236Y011771D01*
X024281Y011771D01*
X024461Y011591D01*
X024461Y011771D01*
X024416Y011886D02*
X024371Y011886D01*
X024326Y011931D01*
X024326Y012021D01*
X024371Y012066D01*
X024416Y012066D01*
X024461Y012021D01*
X024461Y011931D01*
X024416Y011886D01*
X024326Y011931D02*
X024281Y011886D01*
X024236Y011886D01*
X024191Y011931D01*
X024191Y012021D01*
X024236Y012066D01*
X024281Y012066D01*
X024326Y012021D01*
X024371Y012475D02*
X024281Y012475D01*
X024191Y012565D01*
X024236Y012671D02*
X024416Y012671D01*
X024461Y012716D01*
X024461Y012806D01*
X024416Y012851D01*
X024326Y012851D01*
X024326Y012761D01*
X024236Y012671D02*
X024191Y012716D01*
X024191Y012806D01*
X024236Y012851D01*
X024281Y013011D02*
X024281Y013101D01*
X024326Y013146D01*
X024461Y013146D01*
X024461Y013011D01*
X024416Y012966D01*
X024371Y013011D01*
X024371Y013146D01*
X024461Y013261D02*
X024461Y013351D01*
X024461Y013306D02*
X024281Y013306D01*
X024281Y013261D01*
X024191Y013306D02*
X024145Y013306D01*
X024281Y013457D02*
X024281Y013592D01*
X024326Y013637D01*
X024461Y013637D01*
X024461Y013752D02*
X024371Y013842D01*
X024281Y013842D01*
X024191Y013752D01*
X024281Y013457D02*
X024461Y013457D01*
X024461Y012565D02*
X024371Y012475D01*
X026255Y012355D02*
X026345Y012355D01*
X026300Y012355D02*
X026300Y012084D01*
X026255Y012084D02*
X026345Y012084D01*
X026451Y012129D02*
X026496Y012084D01*
X026586Y012084D01*
X026631Y012129D01*
X026746Y012084D02*
X026926Y012265D01*
X026926Y012310D01*
X026881Y012355D01*
X026791Y012355D01*
X026746Y012310D01*
X026631Y012310D02*
X026586Y012355D01*
X026496Y012355D01*
X026451Y012310D01*
X026451Y012129D01*
X026746Y012084D02*
X026926Y012084D01*
X024461Y011002D02*
X024281Y011002D01*
X024191Y011092D01*
X024326Y011002D02*
X024326Y011182D01*
X024326Y010887D02*
X024371Y010842D01*
X024371Y010707D01*
X024461Y010707D02*
X024191Y010707D01*
X024191Y010842D01*
X024236Y010887D01*
X024326Y010887D01*
X024416Y010592D02*
X024236Y010592D01*
X024191Y010547D01*
X024191Y010457D01*
X024236Y010412D01*
X024416Y010412D01*
X024461Y010457D01*
X024461Y010547D01*
X024416Y010592D01*
X031349Y012084D02*
X031439Y012084D01*
X031394Y012084D02*
X031394Y012355D01*
X031349Y012355D02*
X031439Y012355D01*
X031545Y012310D02*
X031545Y012129D01*
X031590Y012084D01*
X031681Y012084D01*
X031726Y012129D01*
X031840Y012129D02*
X031885Y012084D01*
X031975Y012084D01*
X032020Y012129D01*
X032020Y012175D01*
X031975Y012220D01*
X031930Y012220D01*
X031975Y012220D02*
X032020Y012265D01*
X032020Y012310D01*
X031975Y012355D01*
X031885Y012355D01*
X031840Y012310D01*
X031726Y012310D02*
X031681Y012355D01*
X031590Y012355D01*
X031545Y012310D01*
X034447Y012364D02*
X034447Y012184D01*
X034582Y012184D01*
X034537Y012274D01*
X034537Y012319D01*
X034582Y012364D01*
X034672Y012364D01*
X034717Y012319D01*
X034717Y012229D01*
X034672Y012184D01*
X034672Y012479D02*
X034717Y012524D01*
X034717Y012614D01*
X034672Y012659D01*
X034627Y012659D01*
X034582Y012614D01*
X034582Y012479D01*
X034672Y012479D01*
X034582Y012479D02*
X034492Y012569D01*
X034447Y012659D01*
X034492Y012773D02*
X034447Y012818D01*
X034447Y012908D01*
X034492Y012953D01*
X034672Y012773D01*
X034717Y012818D01*
X034717Y012908D01*
X034672Y012953D01*
X034492Y012953D01*
X034447Y013068D02*
X034447Y013203D01*
X034492Y013248D01*
X034582Y013248D01*
X034627Y013203D01*
X034627Y013068D01*
X034717Y013068D02*
X034447Y013068D01*
X034627Y013158D02*
X034717Y013248D01*
X034672Y012773D02*
X034492Y012773D01*
X035825Y012814D02*
X036095Y012814D01*
X036095Y012724D02*
X036095Y012904D01*
X036095Y013019D02*
X036095Y013199D01*
X036095Y013109D02*
X035825Y013109D01*
X035915Y013019D01*
X035825Y012814D02*
X035915Y012724D01*
X035915Y012614D02*
X036005Y012479D01*
X036095Y012614D01*
X036095Y012479D02*
X035825Y012479D01*
X035825Y012364D02*
X035825Y012184D01*
X035960Y012184D01*
X035915Y012274D01*
X035915Y012319D01*
X035960Y012364D01*
X036050Y012364D01*
X036095Y012319D01*
X036095Y012229D01*
X036050Y012184D01*
X037733Y013863D02*
X037733Y013953D01*
X037778Y013998D01*
X037823Y013998D01*
X037868Y013953D01*
X037913Y013998D01*
X037958Y013998D01*
X038003Y013953D01*
X038003Y013863D01*
X037958Y013818D01*
X037868Y013908D02*
X037868Y013953D01*
X037778Y013818D02*
X037733Y013863D01*
X037778Y014113D02*
X037823Y014113D01*
X037868Y014158D01*
X037868Y014293D01*
X037958Y014293D02*
X037778Y014293D01*
X037733Y014248D01*
X037733Y014158D01*
X037778Y014113D01*
X037958Y014113D02*
X038003Y014158D01*
X038003Y014248D01*
X037958Y014293D01*
X037958Y014408D02*
X037778Y014588D01*
X037958Y014588D01*
X038003Y014543D01*
X038003Y014453D01*
X037958Y014408D01*
X037778Y014408D01*
X037733Y014453D01*
X037733Y014543D01*
X037778Y014588D01*
X037823Y014702D02*
X037823Y014837D01*
X037868Y014882D01*
X038003Y014882D01*
X038003Y014702D02*
X037823Y014702D01*
X039151Y014639D02*
X039151Y014549D01*
X039196Y014503D01*
X039376Y014503D01*
X039421Y014549D01*
X039421Y014639D01*
X039376Y014684D01*
X039376Y014798D02*
X039421Y014843D01*
X039421Y014933D01*
X039376Y014978D01*
X039331Y014978D01*
X039286Y014933D01*
X039286Y014798D01*
X039376Y014798D01*
X039286Y014798D02*
X039196Y014888D01*
X039151Y014978D01*
X039196Y014684D02*
X039151Y014639D01*
X041796Y014400D02*
X041976Y014400D01*
X041931Y014535D02*
X041796Y014400D01*
X041931Y014265D02*
X041931Y014535D01*
X042090Y014310D02*
X042135Y014310D01*
X042135Y014265D01*
X042090Y014265D01*
X042090Y014310D01*
X042238Y014310D02*
X042238Y014265D01*
X042238Y014310D02*
X042418Y014490D01*
X042418Y014535D01*
X042238Y014535D01*
X042532Y014445D02*
X042532Y014310D01*
X042577Y014265D01*
X042713Y014265D01*
X042713Y014445D01*
X042565Y013722D02*
X042385Y013722D01*
X042385Y013586D01*
X042475Y013631D01*
X042520Y013631D01*
X042565Y013586D01*
X042565Y013496D01*
X042520Y013451D01*
X042430Y013451D01*
X042385Y013496D01*
X042271Y013451D02*
X042090Y013451D01*
X042181Y013451D02*
X042181Y013722D01*
X042090Y013631D01*
X041976Y013676D02*
X041931Y013722D01*
X041841Y013722D01*
X041796Y013676D01*
X041796Y013496D01*
X041841Y013451D01*
X041931Y013451D01*
X041976Y013496D01*
X044496Y012394D02*
X044746Y012394D01*
X045246Y012394D02*
X045496Y012394D01*
X046246Y012394D02*
X046396Y012394D01*
X045996Y010244D02*
X045996Y010094D01*
X045896Y010094D01*
X045496Y010094D02*
X044496Y010094D01*
X049685Y008791D02*
X049685Y008491D01*
X049910Y008491D01*
X049835Y008641D01*
X049835Y008716D01*
X049910Y008791D01*
X050060Y008791D01*
X050136Y008716D01*
X050136Y008566D01*
X050060Y008491D01*
X051475Y008577D02*
X051557Y008577D01*
X051516Y008577D02*
X051516Y008822D01*
X051475Y008822D02*
X051557Y008822D01*
X051657Y008781D02*
X051657Y008618D01*
X051697Y008577D01*
X051779Y008577D01*
X051820Y008618D01*
X051928Y008618D02*
X051969Y008577D01*
X052051Y008577D01*
X052092Y008618D01*
X052092Y008659D01*
X052051Y008699D01*
X051969Y008699D01*
X051928Y008740D01*
X051928Y008781D01*
X051969Y008822D01*
X052051Y008822D01*
X052092Y008781D01*
X052200Y008822D02*
X052323Y008822D01*
X052364Y008781D01*
X052364Y008699D01*
X052323Y008659D01*
X052200Y008659D01*
X052200Y008577D02*
X052200Y008822D01*
X052472Y008781D02*
X052472Y008618D01*
X052513Y008577D01*
X052595Y008577D01*
X052636Y008618D01*
X052744Y008577D02*
X052908Y008577D01*
X053016Y008577D02*
X053016Y008822D01*
X053057Y008699D02*
X053180Y008577D01*
X053016Y008659D02*
X053180Y008822D01*
X052744Y008822D02*
X052744Y008577D01*
X052636Y008781D02*
X052595Y008822D01*
X052513Y008822D01*
X052472Y008781D01*
X051820Y008781D02*
X051779Y008822D01*
X051697Y008822D01*
X051657Y008781D01*
X051697Y007838D02*
X051657Y007797D01*
X051657Y007633D01*
X051697Y007592D01*
X051779Y007592D01*
X051820Y007633D01*
X051928Y007633D02*
X051969Y007592D01*
X052051Y007592D01*
X052092Y007633D01*
X052092Y007674D01*
X052051Y007715D01*
X051969Y007715D01*
X051928Y007756D01*
X051928Y007797D01*
X051969Y007838D01*
X052051Y007838D01*
X052092Y007797D01*
X052200Y007838D02*
X052323Y007838D01*
X052364Y007797D01*
X052364Y007715D01*
X052323Y007674D01*
X052200Y007674D01*
X052200Y007592D02*
X052200Y007838D01*
X052472Y007838D02*
X052595Y007838D01*
X052636Y007797D01*
X052636Y007633D01*
X052595Y007592D01*
X052472Y007592D01*
X052472Y007838D01*
X052744Y007756D02*
X052744Y007592D01*
X052744Y007715D02*
X052908Y007715D01*
X052908Y007756D02*
X052908Y007592D01*
X052908Y007756D02*
X052826Y007838D01*
X052744Y007756D01*
X053016Y007838D02*
X053180Y007838D01*
X053098Y007838D02*
X053098Y007592D01*
X052245Y006769D02*
X052200Y006814D01*
X052110Y006814D01*
X052065Y006769D01*
X052065Y006724D01*
X052110Y006679D01*
X052200Y006679D01*
X052245Y006634D01*
X052245Y006589D01*
X052200Y006544D01*
X052110Y006544D01*
X052065Y006589D01*
X051950Y006589D02*
X051905Y006544D01*
X051815Y006544D01*
X051770Y006589D01*
X051815Y006679D02*
X051905Y006679D01*
X051950Y006634D01*
X051950Y006589D01*
X051815Y006679D02*
X051770Y006724D01*
X051770Y006769D01*
X051815Y006814D01*
X051905Y006814D01*
X051950Y006769D01*
X051655Y006814D02*
X051655Y006634D01*
X051565Y006544D01*
X051475Y006634D01*
X051475Y006814D01*
X051475Y007592D02*
X051557Y007592D01*
X051516Y007592D02*
X051516Y007838D01*
X051475Y007838D02*
X051557Y007838D01*
X051697Y007838D02*
X051779Y007838D01*
X051820Y007797D01*
X051770Y005830D02*
X051905Y005830D01*
X051950Y005785D01*
X051950Y005605D01*
X051905Y005560D01*
X051770Y005560D01*
X051770Y005830D01*
X051655Y005830D02*
X051655Y005650D01*
X051565Y005560D01*
X051475Y005650D01*
X051475Y005830D01*
X052065Y005830D02*
X052065Y005560D01*
X052200Y005560D01*
X052245Y005605D01*
X052245Y005785D01*
X052200Y005830D01*
X052065Y005830D01*
X052065Y004846D02*
X052065Y004576D01*
X052245Y004576D01*
X052359Y004576D02*
X052359Y004846D01*
X052494Y004846D01*
X052539Y004801D01*
X052539Y004711D01*
X052494Y004666D01*
X052359Y004666D01*
X052449Y004666D02*
X052539Y004576D01*
X052629Y004946D02*
X051450Y004946D01*
X051475Y004846D02*
X051565Y004756D01*
X051655Y004846D01*
X051655Y004576D01*
X051770Y004621D02*
X051815Y004576D01*
X051905Y004576D01*
X051950Y004621D01*
X051950Y004801D02*
X051905Y004846D01*
X051815Y004846D01*
X051770Y004801D01*
X051770Y004621D01*
X051475Y004576D02*
X051475Y004846D01*
X050136Y004791D02*
X050136Y004491D01*
X050136Y004641D02*
X049685Y004641D01*
X049835Y004491D01*
X039121Y010814D02*
X038941Y010814D01*
X039121Y010994D01*
X039121Y011039D01*
X039076Y011084D01*
X038986Y011084D01*
X038941Y011039D01*
X038826Y011039D02*
X038781Y011084D01*
X038691Y011084D01*
X038646Y011039D01*
X038646Y010859D01*
X038691Y010814D01*
X038781Y010814D01*
X038826Y010859D01*
X038781Y011824D02*
X038781Y012094D01*
X038646Y011959D01*
X038826Y011959D01*
X038941Y011869D02*
X038986Y011869D01*
X038986Y011824D01*
X038941Y011824D01*
X038941Y011869D01*
X039088Y011869D02*
X039088Y011824D01*
X039088Y011869D02*
X039268Y012049D01*
X039268Y012094D01*
X039088Y012094D01*
X039383Y012004D02*
X039383Y011869D01*
X039428Y011824D01*
X039563Y011824D01*
X039563Y012004D01*
X036108Y014495D02*
X035837Y014495D01*
X035837Y014630D01*
X035882Y014675D01*
X035972Y014675D01*
X036017Y014630D01*
X036017Y014495D01*
X036017Y014585D02*
X036108Y014675D01*
X036062Y014789D02*
X036108Y014834D01*
X036108Y014924D01*
X036062Y014969D01*
X035972Y014969D01*
X035927Y014924D01*
X035927Y014879D01*
X035972Y014789D01*
X035837Y014789D01*
X035837Y014969D01*
X034730Y014924D02*
X034730Y014834D01*
X034685Y014789D01*
X034594Y014789D02*
X034549Y014879D01*
X034549Y014924D01*
X034594Y014969D01*
X034685Y014969D01*
X034730Y014924D01*
X034594Y014789D02*
X034459Y014789D01*
X034459Y014969D01*
X034504Y014675D02*
X034459Y014630D01*
X034459Y014540D01*
X034504Y014495D01*
X034504Y014380D02*
X034594Y014380D01*
X034639Y014335D01*
X034639Y014200D01*
X034639Y014290D02*
X034730Y014380D01*
X034730Y014495D02*
X034549Y014675D01*
X034504Y014675D01*
X034730Y014675D02*
X034730Y014495D01*
X034504Y014380D02*
X034459Y014335D01*
X034459Y014200D01*
X034730Y014200D01*
X035154Y017017D02*
X035334Y017017D01*
X035379Y017062D01*
X035379Y017152D01*
X035334Y017197D01*
X035379Y017312D02*
X035379Y017492D01*
X035379Y017402D02*
X035109Y017402D01*
X035199Y017312D01*
X035154Y017197D02*
X035109Y017152D01*
X035109Y017062D01*
X035154Y017017D01*
X035154Y017606D02*
X035109Y017651D01*
X035109Y017741D01*
X035154Y017786D01*
X035199Y017786D01*
X035379Y017606D01*
X035379Y017786D01*
X036785Y017513D02*
X036785Y017332D01*
X036830Y017218D02*
X036785Y017173D01*
X036785Y017083D01*
X036830Y017038D01*
X036830Y017218D02*
X036875Y017218D01*
X037055Y017038D01*
X037055Y017218D01*
X037055Y017332D02*
X037010Y017332D01*
X036830Y017513D01*
X036785Y017513D01*
X036875Y017627D02*
X036875Y017762D01*
X036920Y017807D01*
X037055Y017807D01*
X037055Y017627D02*
X036875Y017627D01*
X039078Y018060D02*
X039258Y018060D01*
X039168Y018060D02*
X039168Y018330D01*
X039078Y018240D01*
X039372Y018240D02*
X039372Y018105D01*
X039417Y018060D01*
X039552Y018060D01*
X039552Y018240D01*
X040341Y018350D02*
X040386Y018260D01*
X040476Y018170D01*
X040476Y018305D01*
X040521Y018350D01*
X040566Y018350D01*
X040611Y018305D01*
X040611Y018215D01*
X040566Y018170D01*
X040476Y018170D01*
X040431Y018464D02*
X040386Y018464D01*
X040341Y018509D01*
X040341Y018599D01*
X040386Y018645D01*
X040431Y018645D01*
X040476Y018599D01*
X040476Y018509D01*
X040431Y018464D01*
X040476Y018509D02*
X040521Y018464D01*
X040566Y018464D01*
X040611Y018509D01*
X040611Y018599D01*
X040566Y018645D01*
X040521Y018645D01*
X040476Y018599D01*
X040431Y018759D02*
X040431Y018894D01*
X040476Y018939D01*
X040611Y018939D01*
X040611Y018759D02*
X040431Y018759D01*
X039847Y019342D02*
X039802Y019297D01*
X039712Y019297D01*
X039667Y019342D01*
X039667Y019432D01*
X039802Y019432D01*
X039847Y019387D01*
X039847Y019342D01*
X039667Y019432D02*
X039757Y019523D01*
X039847Y019568D01*
X039462Y019568D02*
X039462Y019297D01*
X039372Y019297D02*
X039552Y019297D01*
X039372Y019478D02*
X039462Y019568D01*
X039258Y019523D02*
X039213Y019568D01*
X039123Y019568D01*
X039078Y019523D01*
X039078Y019342D01*
X039123Y019297D01*
X039213Y019297D01*
X039258Y019342D01*
X039360Y021141D02*
X039270Y021231D01*
X039540Y021231D01*
X039540Y021141D02*
X039540Y021321D01*
X039495Y021435D02*
X039540Y021480D01*
X039540Y021570D01*
X039495Y021615D01*
X039405Y021615D01*
X039360Y021570D01*
X039360Y021525D01*
X039405Y021435D01*
X039270Y021435D01*
X039270Y021615D01*
X039270Y021730D02*
X039540Y021730D01*
X039450Y021730D02*
X039360Y021865D01*
X039450Y021730D02*
X039540Y021865D01*
X040549Y021866D02*
X040594Y021911D01*
X040639Y021911D01*
X040684Y021866D01*
X040729Y021911D01*
X040774Y021911D01*
X040819Y021866D01*
X040819Y021776D01*
X040774Y021731D01*
X040684Y021821D02*
X040684Y021866D01*
X040549Y021866D02*
X040549Y021776D01*
X040594Y021731D01*
X040594Y022026D02*
X040639Y022026D01*
X040684Y022071D01*
X040684Y022206D01*
X040594Y022206D02*
X040549Y022161D01*
X040549Y022071D01*
X040594Y022026D01*
X040594Y022206D02*
X040774Y022206D01*
X040819Y022161D01*
X040819Y022071D01*
X040774Y022026D01*
X040819Y022321D02*
X040639Y022501D01*
X040594Y022501D01*
X040549Y022456D01*
X040549Y022366D01*
X040594Y022321D01*
X040819Y022321D02*
X040819Y022501D01*
X040819Y022615D02*
X040549Y022615D01*
X040639Y022750D02*
X040729Y022615D01*
X040819Y022750D01*
X041927Y022407D02*
X041927Y022316D01*
X041972Y022271D01*
X042017Y022271D01*
X042062Y022316D01*
X042062Y022407D01*
X042107Y022452D01*
X042152Y022452D01*
X042197Y022407D01*
X042197Y022316D01*
X042152Y022271D01*
X042107Y022271D01*
X042062Y022316D01*
X042062Y022407D02*
X042017Y022452D01*
X041972Y022452D01*
X041927Y022407D01*
X042017Y022161D02*
X042107Y022026D01*
X042197Y022161D01*
X042197Y022026D02*
X041927Y022026D01*
X041927Y021821D02*
X042197Y021821D01*
X042197Y021731D02*
X042197Y021911D01*
X042017Y021731D02*
X041927Y021821D01*
X043305Y021821D02*
X043575Y021821D01*
X043575Y021731D02*
X043575Y021911D01*
X043530Y022026D02*
X043350Y022206D01*
X043530Y022206D01*
X043575Y022161D01*
X043575Y022071D01*
X043530Y022026D01*
X043350Y022026D01*
X043305Y022071D01*
X043305Y022161D01*
X043350Y022206D01*
X043350Y022321D02*
X043305Y022366D01*
X043305Y022456D01*
X043350Y022501D01*
X043530Y022321D01*
X043575Y022366D01*
X043575Y022456D01*
X043530Y022501D01*
X043350Y022501D01*
X043305Y022615D02*
X043575Y022615D01*
X043485Y022615D02*
X043395Y022750D01*
X043485Y022615D02*
X043575Y022750D01*
X043530Y022321D02*
X043350Y022321D01*
X043305Y021821D02*
X043395Y021731D01*
X044683Y021821D02*
X044953Y021821D01*
X044953Y021731D02*
X044953Y021911D01*
X044908Y022026D02*
X044728Y022206D01*
X044908Y022206D01*
X044953Y022161D01*
X044953Y022071D01*
X044908Y022026D01*
X044728Y022026D01*
X044683Y022071D01*
X044683Y022161D01*
X044728Y022206D01*
X044728Y022321D02*
X044683Y022366D01*
X044683Y022456D01*
X044728Y022501D01*
X044908Y022321D01*
X044953Y022366D01*
X044953Y022456D01*
X044908Y022501D01*
X044728Y022501D01*
X044683Y022615D02*
X044953Y022615D01*
X044863Y022615D02*
X044773Y022750D01*
X044863Y022615D02*
X044953Y022750D01*
X044908Y022321D02*
X044728Y022321D01*
X044683Y021821D02*
X044773Y021731D01*
X046061Y022383D02*
X046196Y022248D01*
X046196Y022428D01*
X046241Y022543D02*
X046151Y022678D01*
X046061Y022788D02*
X046061Y022968D01*
X046106Y022968D01*
X046286Y022788D01*
X046331Y022788D01*
X046331Y022678D02*
X046241Y022543D01*
X046331Y022543D02*
X046061Y022543D01*
X046061Y022383D02*
X046331Y022383D01*
X044321Y018919D02*
X044186Y018919D01*
X044141Y018874D01*
X044141Y018739D01*
X044321Y018739D01*
X044276Y018625D02*
X044321Y018580D01*
X044321Y018490D01*
X044276Y018445D01*
X044096Y018625D01*
X044276Y018625D01*
X044096Y018625D02*
X044051Y018580D01*
X044051Y018490D01*
X044096Y018445D01*
X044276Y018445D01*
X044276Y018330D02*
X044321Y018285D01*
X044321Y018195D01*
X044276Y018150D01*
X044096Y018330D01*
X044276Y018330D01*
X044096Y018330D02*
X044051Y018285D01*
X044051Y018195D01*
X044096Y018150D01*
X044276Y018150D01*
X044321Y018036D02*
X044321Y017855D01*
X044321Y017945D02*
X044051Y017945D01*
X044141Y017855D01*
X042928Y018321D02*
X042928Y018411D01*
X042883Y018456D01*
X042883Y018571D02*
X042928Y018616D01*
X042928Y018706D01*
X042883Y018751D01*
X042838Y018751D01*
X042793Y018706D01*
X042793Y018661D01*
X042793Y018706D02*
X042748Y018751D01*
X042703Y018751D01*
X042658Y018706D01*
X042658Y018616D01*
X042703Y018571D01*
X042703Y018456D02*
X042658Y018411D01*
X042658Y018321D01*
X042703Y018276D01*
X042883Y018276D01*
X042928Y018321D01*
X041724Y018538D02*
X041724Y018628D01*
X041679Y018673D01*
X041724Y018538D02*
X041679Y018493D01*
X041499Y018493D01*
X041454Y018538D01*
X041454Y018628D01*
X041499Y018673D01*
X041589Y018787D02*
X041589Y018968D01*
X041724Y018922D02*
X041454Y018922D01*
X041589Y018787D01*
X038162Y021141D02*
X037982Y021321D01*
X037937Y021321D01*
X037892Y021276D01*
X037892Y021186D01*
X037937Y021141D01*
X038162Y021141D02*
X038162Y021321D01*
X038162Y021435D02*
X038117Y021435D01*
X037937Y021615D01*
X037892Y021615D01*
X037892Y021435D01*
X037892Y021730D02*
X038162Y021730D01*
X038072Y021730D02*
X037982Y021865D01*
X038072Y021730D02*
X038162Y021865D01*
X034336Y019718D02*
X034201Y019718D01*
X034156Y019673D01*
X034156Y019538D01*
X034336Y019538D01*
X034291Y019423D02*
X034336Y019378D01*
X034336Y019288D01*
X034291Y019243D01*
X034246Y019243D01*
X034201Y019288D01*
X034201Y019378D01*
X034246Y019423D01*
X034291Y019423D01*
X034201Y019378D02*
X034156Y019423D01*
X034111Y019423D01*
X034066Y019378D01*
X034066Y019288D01*
X034111Y019243D01*
X034156Y019243D01*
X034201Y019288D01*
X034246Y019129D02*
X034201Y019084D01*
X034201Y018949D01*
X034291Y018949D01*
X034336Y018994D01*
X034336Y019084D01*
X034291Y019129D01*
X034246Y019129D01*
X034111Y019039D02*
X034201Y018949D01*
X034111Y019039D02*
X034066Y019129D01*
X033199Y019187D02*
X033199Y019277D01*
X033154Y019322D01*
X033154Y019436D02*
X033199Y019481D01*
X033199Y019572D01*
X033154Y019617D01*
X033063Y019617D01*
X033018Y019572D01*
X033018Y019526D01*
X033063Y019436D01*
X032928Y019436D01*
X032928Y019617D01*
X032973Y019322D02*
X032928Y019277D01*
X032928Y019187D01*
X032973Y019142D01*
X033154Y019142D01*
X033199Y019187D01*
X032195Y019888D02*
X032150Y019843D01*
X032105Y019843D01*
X032060Y019888D01*
X032060Y019978D01*
X032105Y020023D01*
X032150Y020023D01*
X032195Y019978D01*
X032195Y019888D01*
X032060Y019888D02*
X032015Y019843D01*
X031970Y019843D01*
X031925Y019888D01*
X031925Y019978D01*
X031970Y020023D01*
X032015Y020023D01*
X032060Y019978D01*
X031970Y020138D02*
X031925Y020183D01*
X031925Y020273D01*
X031970Y020318D01*
X032015Y020318D01*
X032195Y020138D01*
X032195Y020318D01*
X032195Y020432D02*
X032015Y020432D01*
X032015Y020567D01*
X032060Y020612D01*
X032195Y020612D01*
X030802Y020264D02*
X030757Y020264D01*
X030577Y020444D01*
X030532Y020444D01*
X030532Y020264D01*
X030577Y020149D02*
X030532Y020104D01*
X030532Y020014D01*
X030577Y019969D01*
X030757Y019969D01*
X030802Y020014D01*
X030802Y020104D01*
X030757Y020149D01*
X031014Y025716D02*
X031014Y025851D01*
X031059Y025896D01*
X031150Y025896D01*
X031195Y025851D01*
X031195Y025716D01*
X031285Y025716D02*
X031014Y025716D01*
X031195Y025806D02*
X031285Y025896D01*
X031285Y026010D02*
X031285Y026191D01*
X031285Y026100D02*
X031014Y026100D01*
X031105Y026010D01*
X031105Y026305D02*
X031014Y026395D01*
X031285Y026395D01*
X031285Y026305D02*
X031285Y026485D01*
X032491Y026342D02*
X032491Y026252D01*
X032536Y026207D01*
X032716Y026207D01*
X032536Y026387D01*
X032716Y026387D01*
X032761Y026342D01*
X032761Y026252D01*
X032716Y026207D01*
X032761Y026092D02*
X032761Y025912D01*
X032761Y026002D02*
X032491Y026002D01*
X032581Y025912D01*
X032626Y025797D02*
X032671Y025752D01*
X032671Y025617D01*
X032761Y025617D02*
X032491Y025617D01*
X032491Y025752D01*
X032536Y025797D01*
X032626Y025797D01*
X032671Y025707D02*
X032761Y025797D01*
X032491Y026342D02*
X032536Y026387D01*
X033770Y026350D02*
X033770Y026440D01*
X033815Y026485D01*
X033860Y026485D01*
X033905Y026440D01*
X033905Y026350D01*
X033860Y026305D01*
X033815Y026305D01*
X033770Y026350D01*
X033905Y026350D02*
X033951Y026305D01*
X033996Y026305D01*
X034041Y026350D01*
X034041Y026440D01*
X033996Y026485D01*
X033951Y026485D01*
X033905Y026440D01*
X033905Y026191D02*
X033951Y026146D01*
X033951Y026010D01*
X034041Y026010D02*
X033770Y026010D01*
X033770Y026146D01*
X033815Y026191D01*
X033905Y026191D01*
X033951Y026100D02*
X034041Y026191D01*
X035148Y026146D02*
X035193Y026191D01*
X035283Y026191D01*
X035328Y026146D01*
X035328Y026010D01*
X035328Y026100D02*
X035419Y026191D01*
X035374Y026305D02*
X035419Y026350D01*
X035419Y026440D01*
X035374Y026485D01*
X035193Y026485D01*
X035148Y026440D01*
X035148Y026350D01*
X035193Y026305D01*
X035238Y026305D01*
X035283Y026350D01*
X035283Y026485D01*
X035148Y026146D02*
X035148Y026010D01*
X035419Y026010D01*
X036526Y026002D02*
X036796Y026002D01*
X036796Y025912D02*
X036796Y026092D01*
X036751Y026207D02*
X036706Y026207D01*
X036661Y026252D01*
X036661Y026342D01*
X036706Y026387D01*
X036751Y026387D01*
X036796Y026342D01*
X036796Y026252D01*
X036751Y026207D01*
X036661Y026252D02*
X036616Y026207D01*
X036571Y026207D01*
X036526Y026252D01*
X036526Y026342D01*
X036571Y026387D01*
X036616Y026387D01*
X036661Y026342D01*
X036526Y026002D02*
X036616Y025912D01*
X036571Y025797D02*
X036661Y025797D01*
X036706Y025752D01*
X036706Y025617D01*
X036706Y025707D02*
X036796Y025797D01*
X036796Y025617D02*
X036526Y025617D01*
X036526Y025752D01*
X036571Y025797D01*
X037607Y025842D02*
X037757Y025842D01*
X038507Y025842D02*
X038757Y025842D01*
X039257Y025842D02*
X039507Y025842D01*
X040727Y026310D02*
X040727Y026355D01*
X040772Y026400D01*
X040862Y026400D01*
X040907Y026355D01*
X040907Y026310D01*
X040862Y026265D01*
X040772Y026265D01*
X040727Y026310D01*
X040772Y026400D02*
X040727Y026445D01*
X040727Y026490D01*
X040772Y026535D01*
X040862Y026535D01*
X040907Y026490D01*
X040907Y026445D01*
X040862Y026400D01*
X041022Y026490D02*
X041067Y026535D01*
X041157Y026535D01*
X041202Y026490D01*
X041202Y026445D01*
X041022Y026265D01*
X041202Y026265D01*
X041317Y026310D02*
X041497Y026490D01*
X041497Y026310D01*
X041452Y026265D01*
X041362Y026265D01*
X041317Y026310D01*
X041317Y026490D01*
X041362Y026535D01*
X041452Y026535D01*
X041497Y026490D01*
X041611Y026445D02*
X041746Y026445D01*
X041791Y026400D01*
X041791Y026310D01*
X041746Y026265D01*
X041611Y026265D01*
X041611Y026175D02*
X041611Y026445D01*
X041549Y027675D02*
X041458Y027675D01*
X041413Y027720D01*
X041299Y027675D02*
X041119Y027675D01*
X041209Y027675D02*
X041209Y027945D01*
X041119Y027855D01*
X041004Y027900D02*
X040959Y027945D01*
X040869Y027945D01*
X040824Y027900D01*
X040824Y027720D01*
X040869Y027675D01*
X040959Y027675D01*
X041004Y027720D01*
X041413Y027900D02*
X041458Y027945D01*
X041549Y027945D01*
X041594Y027900D01*
X041594Y027855D01*
X041549Y027810D01*
X041594Y027765D01*
X041594Y027720D01*
X041549Y027675D01*
X041549Y027810D02*
X041504Y027810D01*
X039507Y028142D02*
X038507Y028142D01*
X038107Y028142D02*
X038007Y028142D01*
X038007Y027992D01*
X029808Y026342D02*
X029808Y026252D01*
X029763Y026207D01*
X029673Y026207D01*
X029673Y026342D01*
X029718Y026387D01*
X029763Y026387D01*
X029808Y026342D01*
X029673Y026207D02*
X029583Y026297D01*
X029538Y026387D01*
X029583Y026092D02*
X029673Y026092D01*
X029718Y026047D01*
X029718Y025912D01*
X029718Y026002D02*
X029808Y026092D01*
X029808Y025912D02*
X029538Y025912D01*
X029538Y026047D01*
X029583Y026092D01*
X028627Y026092D02*
X028537Y026002D01*
X028537Y026047D02*
X028537Y025912D01*
X028627Y025912D02*
X028357Y025912D01*
X028357Y026047D01*
X028402Y026092D01*
X028492Y026092D01*
X028537Y026047D01*
X028582Y026207D02*
X028627Y026207D01*
X028582Y026207D02*
X028402Y026387D01*
X028357Y026387D01*
X028357Y026207D01*
X025757Y025842D02*
X025507Y025842D01*
X025007Y027992D02*
X025007Y028142D01*
X025107Y028142D01*
X021722Y021356D02*
X021722Y021086D01*
X021722Y021176D02*
X021857Y021266D01*
X021722Y021176D02*
X021857Y021086D01*
X021607Y021131D02*
X021562Y021086D01*
X021472Y021086D01*
X021427Y021131D01*
X021607Y021311D01*
X021607Y021131D01*
X021427Y021131D02*
X021427Y021311D01*
X021472Y021356D01*
X021562Y021356D01*
X021607Y021311D01*
X021313Y021311D02*
X021133Y021131D01*
X021178Y021086D01*
X021268Y021086D01*
X021313Y021131D01*
X021313Y021311D01*
X021268Y021356D01*
X021178Y021356D01*
X021133Y021311D01*
X021133Y021131D01*
X021018Y021086D02*
X020838Y021086D01*
X020928Y021086D02*
X020928Y021356D01*
X020838Y021266D01*
X019542Y021098D02*
X019362Y021098D01*
X019452Y021098D02*
X019452Y021369D01*
X019362Y021279D01*
X019248Y021324D02*
X019248Y021233D01*
X019203Y021188D01*
X019067Y021188D01*
X019067Y021098D02*
X019067Y021369D01*
X019203Y021369D01*
X019248Y021324D01*
X019158Y021188D02*
X019248Y021098D01*
X014931Y025842D02*
X014681Y025842D01*
X013681Y025842D01*
X014181Y027992D02*
X014181Y028142D01*
X014281Y028142D01*
X010600Y025842D02*
X010350Y025842D01*
X009350Y025842D01*
X009850Y027992D02*
X009850Y028142D01*
X009950Y028142D01*
X006269Y025842D02*
X006019Y025842D01*
X005019Y025842D01*
X005519Y027992D02*
X005519Y028142D01*
X005619Y028142D01*
X045031Y016975D02*
X045167Y016840D01*
X045167Y017020D01*
X045302Y016975D02*
X045031Y016975D01*
X045031Y016635D02*
X045302Y016635D01*
X045302Y016545D02*
X045302Y016725D01*
X045122Y016545D02*
X045031Y016635D01*
X045077Y016431D02*
X045031Y016386D01*
X045031Y016296D01*
X045077Y016251D01*
X045257Y016251D01*
X045302Y016296D01*
X045302Y016386D01*
X045257Y016431D01*
X046394Y016414D02*
X046439Y016459D01*
X046484Y016459D01*
X046529Y016414D01*
X046574Y016459D01*
X046619Y016459D01*
X046664Y016414D01*
X046664Y016324D01*
X046619Y016279D01*
X046529Y016369D02*
X046529Y016414D01*
X046394Y016414D02*
X046394Y016324D01*
X046439Y016279D01*
X046484Y016574D02*
X046484Y016709D01*
X046529Y016754D01*
X046664Y016754D01*
X046619Y016868D02*
X046664Y016913D01*
X046664Y017003D01*
X046619Y017048D01*
X046439Y017048D01*
X046394Y017003D01*
X046394Y016913D01*
X046439Y016868D01*
X046484Y016868D01*
X046529Y016913D01*
X046529Y017048D01*
X046484Y016574D02*
X046664Y016574D01*
D12*
X046603Y011480D02*
X046531Y011408D01*
X046603Y011480D02*
X046746Y011480D01*
X046818Y011408D01*
X046818Y011336D01*
X046531Y011049D01*
X046818Y011049D01*
X044068Y011019D02*
X043781Y011019D01*
X043924Y011019D02*
X043924Y011450D01*
X043781Y011306D01*
X028886Y014527D02*
X028886Y014857D01*
X028776Y014747D01*
X028666Y014857D01*
X028666Y014527D01*
X028518Y014582D02*
X028518Y014802D01*
X028463Y014857D01*
X028353Y014857D01*
X028298Y014802D01*
X028298Y014582D01*
X028353Y014527D01*
X028463Y014527D01*
X028518Y014582D01*
X028150Y014582D02*
X028150Y014802D01*
X028095Y014857D01*
X027985Y014857D01*
X027930Y014802D01*
X027930Y014582D01*
X027985Y014527D01*
X028095Y014527D01*
X028150Y014582D01*
X027781Y014527D02*
X027671Y014637D01*
X027726Y014637D02*
X027561Y014637D01*
X027561Y014527D02*
X027561Y014857D01*
X027726Y014857D01*
X027781Y014802D01*
X027781Y014692D01*
X027726Y014637D01*
X027413Y014582D02*
X027413Y014802D01*
X027358Y014857D01*
X027193Y014857D01*
X027193Y014527D01*
X027358Y014527D01*
X027413Y014582D01*
X027045Y014527D02*
X027045Y014747D01*
X026935Y014857D01*
X026825Y014747D01*
X026825Y014527D01*
X026676Y014527D02*
X026456Y014527D01*
X026456Y014857D01*
X026676Y014857D01*
X026566Y014692D02*
X026456Y014692D01*
X026308Y014692D02*
X026088Y014692D01*
X026088Y014527D02*
X026088Y014857D01*
X026308Y014857D02*
X026308Y014527D01*
X026825Y014692D02*
X027045Y014692D01*
X025572Y014527D02*
X025572Y014857D01*
X025351Y014857D02*
X025572Y014527D01*
X025351Y014527D02*
X025351Y014857D01*
X025216Y014857D02*
X025106Y014857D01*
X025161Y014857D02*
X025161Y014527D01*
X025106Y014527D02*
X025216Y014527D01*
X024958Y014527D02*
X024958Y014747D01*
X024848Y014857D01*
X024737Y014747D01*
X024737Y014527D01*
X024589Y014582D02*
X024589Y014692D01*
X024479Y014692D01*
X024369Y014802D02*
X024369Y014582D01*
X024424Y014527D01*
X024534Y014527D01*
X024589Y014582D01*
X024737Y014692D02*
X024958Y014692D01*
X024589Y014802D02*
X024534Y014857D01*
X024424Y014857D01*
X024369Y014802D01*
X011204Y011264D02*
X010917Y011264D01*
X011132Y011480D01*
X011132Y011049D01*
X006578Y011049D02*
X006291Y011049D01*
X006578Y011336D01*
X006578Y011408D01*
X006506Y011480D01*
X006362Y011480D01*
X006291Y011408D01*
X006217Y011356D02*
X006360Y011500D01*
X006360Y011069D01*
X006217Y011069D02*
X006504Y011069D01*
X003828Y011019D02*
X003541Y011019D01*
X003684Y011019D02*
X003684Y011450D01*
X003541Y011306D01*
X003562Y019974D02*
X003454Y020082D01*
X003562Y020190D01*
X003778Y020190D01*
X003778Y020337D02*
X003778Y020499D01*
X003724Y020553D01*
X003616Y020553D01*
X003562Y020499D01*
X003562Y020337D01*
X003454Y020337D02*
X003778Y020337D01*
X003616Y020190D02*
X003616Y019974D01*
X003562Y019974D02*
X003778Y019974D01*
X003724Y020699D02*
X003778Y020753D01*
X003778Y020915D01*
X003562Y020915D01*
X003562Y020699D02*
X003724Y020699D01*
X003454Y021424D02*
X003454Y021640D01*
X003454Y021532D02*
X003778Y021532D01*
X003724Y021787D02*
X003670Y021841D01*
X003670Y022003D01*
X003616Y022003D02*
X003778Y022003D01*
X003778Y021841D01*
X003724Y021787D01*
X003562Y021841D02*
X003562Y021949D01*
X003616Y022003D01*
X003670Y022149D02*
X003562Y022257D01*
X003562Y022311D01*
X003616Y022451D02*
X003562Y022505D01*
X003562Y022613D01*
X003616Y022667D01*
X003670Y022667D01*
X003670Y022451D01*
X003724Y022451D02*
X003616Y022451D01*
X003724Y022451D02*
X003778Y022505D01*
X003778Y022613D01*
X003778Y022814D02*
X003454Y022814D01*
X003562Y022976D02*
X003670Y022814D01*
X003778Y022976D01*
X003778Y023479D02*
X003562Y023479D01*
X003454Y023587D01*
X003562Y023695D01*
X003778Y023695D01*
X003778Y023841D02*
X003454Y023841D01*
X003562Y024003D02*
X003670Y023841D01*
X003778Y024003D01*
X003778Y024143D02*
X003562Y024143D01*
X003670Y024143D02*
X003562Y024251D01*
X003562Y024305D01*
X003562Y024499D02*
X003562Y024607D01*
X003616Y024661D01*
X003778Y024661D01*
X003778Y024499D01*
X003724Y024445D01*
X003670Y024499D01*
X003670Y024661D01*
X003778Y024808D02*
X003562Y024808D01*
X003562Y024862D01*
X003616Y024916D01*
X003562Y024970D01*
X003616Y025024D01*
X003778Y025024D01*
X003778Y024916D02*
X003616Y024916D01*
X003562Y025533D02*
X003616Y025587D01*
X003616Y025695D01*
X003670Y025749D01*
X003724Y025749D01*
X003778Y025695D01*
X003778Y025587D01*
X003724Y025533D01*
X003562Y025533D02*
X003508Y025533D01*
X003454Y025587D01*
X003454Y025695D01*
X003508Y025749D01*
X003562Y025949D02*
X003562Y026057D01*
X003616Y026111D01*
X003778Y026111D01*
X003778Y025949D01*
X003724Y025895D01*
X003670Y025949D01*
X003670Y026111D01*
X003724Y026258D02*
X003616Y026258D01*
X003562Y026312D01*
X003562Y026474D01*
X003454Y026474D02*
X003778Y026474D01*
X003778Y026312D01*
X003724Y026258D01*
X003724Y026620D02*
X003616Y026620D01*
X003562Y026674D01*
X003562Y026782D01*
X003616Y026836D01*
X003670Y026836D01*
X003670Y026620D01*
X003724Y026620D02*
X003778Y026674D01*
X003778Y026782D01*
X003778Y026983D02*
X003454Y026983D01*
X003562Y027145D02*
X003670Y026983D01*
X003778Y027145D01*
X004594Y027115D02*
X004665Y027186D01*
X004809Y027186D01*
X004881Y027115D01*
X004881Y027043D01*
X004809Y026971D01*
X004881Y026900D01*
X004881Y026828D01*
X004809Y026756D01*
X004665Y026756D01*
X004594Y026828D01*
X004737Y026971D02*
X004809Y026971D01*
X002477Y024855D02*
X002477Y024745D01*
X002422Y024690D01*
X002312Y024690D01*
X002257Y024745D01*
X002257Y024855D01*
X002312Y024910D01*
X002367Y024910D01*
X002367Y024690D01*
X002257Y024542D02*
X002477Y024432D01*
X002257Y024322D01*
X002257Y024131D02*
X002477Y024131D01*
X002477Y024076D02*
X002477Y024186D01*
X002257Y024131D02*
X002257Y024076D01*
X002147Y024131D02*
X002092Y024131D01*
X001877Y024131D02*
X001822Y024076D01*
X001712Y024076D01*
X001657Y024131D01*
X001657Y024241D01*
X001712Y024296D01*
X001767Y024296D01*
X001767Y024076D01*
X001877Y024131D02*
X001877Y024241D01*
X001877Y024444D02*
X001657Y024444D01*
X001657Y024609D01*
X001712Y024664D01*
X001877Y024664D01*
X001822Y024868D02*
X001602Y024868D01*
X001657Y024813D02*
X001657Y024923D01*
X001822Y024868D02*
X001877Y024923D01*
X001657Y023934D02*
X001657Y023879D01*
X001767Y023769D01*
X001877Y023769D02*
X001657Y023769D01*
X001712Y023621D02*
X001877Y023621D01*
X001877Y023456D01*
X001822Y023401D01*
X001767Y023456D01*
X001767Y023621D01*
X001712Y023621D02*
X001657Y023566D01*
X001657Y023456D01*
X001712Y023253D02*
X001822Y023253D01*
X001877Y023198D01*
X001877Y023032D01*
X001987Y023032D02*
X001657Y023032D01*
X001657Y023198D01*
X001712Y023253D01*
X001657Y022884D02*
X001657Y022719D01*
X001712Y022664D01*
X001767Y022719D01*
X001767Y022829D01*
X001822Y022884D01*
X001877Y022829D01*
X001877Y022664D01*
X001877Y022516D02*
X001712Y022516D01*
X001657Y022461D01*
X001657Y022296D01*
X001877Y022296D01*
X001877Y022148D02*
X001877Y021983D01*
X001822Y021927D01*
X001767Y021983D01*
X001767Y022148D01*
X001712Y022148D02*
X001877Y022148D01*
X001712Y022148D02*
X001657Y022093D01*
X001657Y021983D01*
X001657Y021786D02*
X001657Y021731D01*
X001767Y021621D01*
X001877Y021621D02*
X001657Y021621D01*
X001547Y021472D02*
X001547Y021252D01*
X001547Y021362D02*
X001877Y021362D01*
X002202Y021989D02*
X002422Y021989D01*
X002477Y022044D01*
X002477Y022154D01*
X002422Y022209D01*
X002202Y022209D01*
X002147Y022154D01*
X002147Y022044D01*
X002202Y021989D01*
X002257Y022357D02*
X002477Y022467D01*
X002257Y022577D01*
X002312Y022725D02*
X002257Y022781D01*
X002257Y022891D01*
X002312Y022946D01*
X002367Y022946D01*
X002367Y022725D01*
X002422Y022725D02*
X002312Y022725D01*
X002422Y022725D02*
X002477Y022781D01*
X002477Y022891D01*
X002477Y023094D02*
X002257Y023094D01*
X002367Y023094D02*
X002257Y023204D01*
X002257Y023259D01*
X002312Y023401D02*
X002257Y023456D01*
X002257Y023621D01*
X002147Y023621D02*
X002477Y023621D01*
X002477Y023456D01*
X002422Y023401D01*
X002312Y023401D01*
X002367Y023769D02*
X002257Y023879D01*
X002257Y023934D01*
X002257Y023769D02*
X002477Y023769D01*
X003616Y023695D02*
X003616Y023479D01*
X003562Y022149D02*
X003778Y022149D01*
X008294Y026736D02*
X008581Y026736D01*
X008437Y026736D02*
X008437Y027166D01*
X008294Y027023D01*
X008924Y027115D02*
X008996Y027186D01*
X009140Y027186D01*
X009211Y027115D01*
X009211Y027043D01*
X009140Y026971D01*
X009211Y026900D01*
X009211Y026828D01*
X009140Y026756D01*
X008996Y026756D01*
X008924Y026828D01*
X009068Y026971D02*
X009140Y026971D01*
X012624Y027023D02*
X012768Y027166D01*
X012768Y026736D01*
X012911Y026736D02*
X012624Y026736D01*
X013255Y026828D02*
X013327Y026756D01*
X013470Y026756D01*
X013542Y026828D01*
X013542Y026900D01*
X013470Y026971D01*
X013398Y026971D01*
X013470Y026971D02*
X013542Y027043D01*
X013542Y027115D01*
X013470Y027186D01*
X013327Y027186D01*
X013255Y027115D01*
X016955Y027023D02*
X017098Y027166D01*
X017098Y026736D01*
X016955Y026736D02*
X017242Y026736D01*
X024082Y026828D02*
X024154Y026756D01*
X024297Y026756D01*
X024369Y026828D01*
X024369Y026900D01*
X024297Y026971D01*
X024225Y026971D01*
X024297Y026971D02*
X024369Y027043D01*
X024369Y027115D01*
X024297Y027186D01*
X024154Y027186D01*
X024082Y027115D01*
X027782Y027023D02*
X027925Y027166D01*
X027925Y026736D01*
X027782Y026736D02*
X028069Y026736D01*
X037082Y026756D02*
X037369Y027043D01*
X037369Y027115D01*
X037297Y027186D01*
X037154Y027186D01*
X037082Y027115D01*
X037082Y026756D02*
X037369Y026756D01*
X039832Y026786D02*
X040119Y026786D01*
X039975Y026786D02*
X039975Y027216D01*
X039832Y027073D01*
X048262Y024590D02*
X048262Y024374D01*
X048316Y024320D01*
X048424Y024320D01*
X048478Y024374D01*
X048624Y024320D02*
X048624Y024644D01*
X048478Y024590D02*
X048424Y024644D01*
X048316Y024644D01*
X048262Y024590D01*
X048624Y024320D02*
X048840Y024320D01*
X048987Y024320D02*
X049095Y024320D01*
X049041Y024320D02*
X049041Y024644D01*
X048987Y024644D02*
X049095Y024644D01*
X049229Y024644D02*
X049391Y024644D01*
X049445Y024590D01*
X049445Y024482D01*
X049391Y024428D01*
X049229Y024428D01*
X049229Y024320D02*
X049229Y024644D01*
X049591Y024644D02*
X049591Y024320D01*
X049591Y024428D02*
X049753Y024428D01*
X049807Y024482D01*
X049807Y024590D01*
X049753Y024644D01*
X049591Y024644D01*
X049954Y024644D02*
X050062Y024644D01*
X050008Y024644D02*
X050008Y024320D01*
X049954Y024320D02*
X050062Y024320D01*
X050195Y024320D02*
X050195Y024644D01*
X050411Y024320D01*
X050411Y024644D01*
X050558Y024590D02*
X050558Y024374D01*
X050612Y024320D01*
X050720Y024320D01*
X050774Y024374D01*
X050774Y024482D01*
X050666Y024482D01*
X050774Y024590D02*
X050720Y024644D01*
X050612Y024644D01*
X050558Y024590D01*
X050548Y024886D02*
X050494Y024940D01*
X050494Y025048D01*
X050548Y025102D01*
X050656Y025102D01*
X050710Y025048D01*
X050710Y024940D01*
X050656Y024886D01*
X050548Y024886D01*
X050348Y024940D02*
X050294Y024886D01*
X050186Y024886D01*
X050132Y024940D01*
X050186Y025048D02*
X050294Y025048D01*
X050348Y024994D01*
X050348Y024940D01*
X050186Y025048D02*
X050132Y025102D01*
X050132Y025156D01*
X050186Y025210D01*
X050294Y025210D01*
X050348Y025156D01*
X050857Y025048D02*
X050965Y025048D01*
X050911Y025156D02*
X050911Y024886D01*
X051153Y024940D02*
X051207Y024886D01*
X051153Y024940D02*
X051153Y025156D01*
X051099Y025102D02*
X051207Y025102D01*
X050965Y025210D02*
X050911Y025156D01*
X051928Y025210D02*
X051928Y024886D01*
X051928Y025048D02*
X052144Y025048D01*
X052144Y025210D02*
X052144Y024886D01*
X052291Y024940D02*
X052345Y024994D01*
X052507Y024994D01*
X052507Y025048D02*
X052507Y024886D01*
X052345Y024886D01*
X052291Y024940D01*
X052345Y025102D02*
X052453Y025102D01*
X052507Y025048D01*
X052653Y025102D02*
X052653Y024886D01*
X052653Y024994D02*
X052761Y025102D01*
X052815Y025102D01*
X052955Y025048D02*
X053009Y025102D01*
X053171Y025102D01*
X053171Y025210D02*
X053171Y024886D01*
X053009Y024886D01*
X052955Y024940D01*
X052955Y025048D01*
X053029Y024644D02*
X052975Y024590D01*
X052975Y024536D01*
X053029Y024482D01*
X053137Y024482D01*
X053191Y024428D01*
X053191Y024374D01*
X053137Y024320D01*
X053029Y024320D01*
X052975Y024374D01*
X052828Y024320D02*
X052612Y024320D01*
X052612Y024644D01*
X052828Y024644D01*
X052720Y024482D02*
X052612Y024482D01*
X052466Y024590D02*
X052412Y024644D01*
X052250Y024644D01*
X052250Y024320D01*
X052412Y024320D01*
X052466Y024374D01*
X052466Y024590D01*
X052103Y024590D02*
X052049Y024644D01*
X051941Y024644D01*
X051887Y024590D01*
X051887Y024374D01*
X051941Y024320D01*
X052049Y024320D01*
X052103Y024374D01*
X052103Y024590D01*
X051753Y024644D02*
X051645Y024644D01*
X051699Y024644D02*
X051699Y024320D01*
X051645Y024320D02*
X051753Y024320D01*
X051499Y024374D02*
X051499Y024590D01*
X051445Y024644D01*
X051283Y024644D01*
X051283Y024320D01*
X051445Y024320D01*
X051499Y024374D01*
X053029Y024644D02*
X053137Y024644D01*
X053191Y024590D01*
X052602Y031456D02*
X052492Y031566D01*
X052492Y031786D01*
X052344Y031786D02*
X052124Y031786D01*
X052124Y031621D01*
X052234Y031676D01*
X052289Y031676D01*
X052344Y031621D01*
X052344Y031511D01*
X052289Y031456D01*
X052179Y031456D01*
X052124Y031511D01*
X051975Y031456D02*
X051755Y031456D01*
X051865Y031456D02*
X051865Y031786D01*
X051755Y031676D01*
X051607Y031621D02*
X051387Y031621D01*
X051497Y031731D02*
X051497Y031511D01*
X051755Y032219D02*
X051975Y032219D01*
X051865Y032219D02*
X051865Y032549D01*
X051755Y032439D01*
X051607Y032384D02*
X051387Y032384D01*
X051810Y032981D02*
X051755Y033036D01*
X051810Y032981D02*
X051920Y032981D01*
X051975Y033036D01*
X051975Y033147D01*
X051920Y033202D01*
X051865Y033202D01*
X051755Y033147D01*
X051755Y033312D01*
X051975Y033312D01*
X052124Y033312D02*
X052124Y033091D01*
X052234Y032981D01*
X052344Y033091D01*
X052344Y033312D01*
X052234Y033744D02*
X052344Y033854D01*
X052344Y034074D01*
X052124Y034074D02*
X052124Y033854D01*
X052234Y033744D01*
X051975Y033799D02*
X051920Y033744D01*
X051810Y033744D01*
X051755Y033799D01*
X051755Y033909D02*
X051865Y033964D01*
X051920Y033964D01*
X051975Y033909D01*
X051975Y033799D01*
X051755Y033909D02*
X051755Y034074D01*
X051975Y034074D01*
X051607Y033909D02*
X051387Y033909D01*
X051497Y034019D02*
X051497Y033799D01*
X051387Y033147D02*
X051607Y033147D01*
X052124Y032549D02*
X052124Y032384D01*
X052234Y032439D01*
X052289Y032439D01*
X052344Y032384D01*
X052344Y032274D01*
X052289Y032219D01*
X052179Y032219D01*
X052124Y032274D01*
X052124Y032549D02*
X052344Y032549D01*
X052492Y032549D02*
X052492Y032329D01*
X052602Y032219D01*
X052712Y032329D01*
X052712Y032549D01*
X052712Y031786D02*
X052712Y031566D01*
X052602Y031456D01*
X052289Y034482D02*
X052344Y034537D01*
X052344Y034758D01*
X052289Y034813D01*
X052124Y034813D01*
X052124Y034482D01*
X052289Y034482D01*
X051975Y034537D02*
X051975Y034758D01*
X051920Y034813D01*
X051755Y034813D01*
X051755Y034482D01*
X051920Y034482D01*
X051975Y034537D01*
X051607Y034592D02*
X051607Y034813D01*
X051387Y034813D02*
X051387Y034592D01*
X051497Y034482D01*
X051607Y034592D01*
D13*
X029711Y019330D02*
X029437Y019330D01*
X029300Y019466D02*
X029300Y019193D01*
X029300Y019006D02*
X029300Y018732D01*
X029300Y018869D02*
X029711Y018869D01*
X029574Y019006D01*
X029574Y019193D02*
X029574Y019466D01*
X029506Y018546D02*
X029574Y018409D01*
X029574Y018340D01*
X029506Y018272D01*
X029369Y018272D01*
X029300Y018340D01*
X029300Y018477D01*
X029369Y018546D01*
X029506Y018546D02*
X029711Y018546D01*
X029711Y018272D01*
X029711Y018085D02*
X029437Y018085D01*
X029300Y017948D01*
X029437Y017812D01*
X029711Y017812D01*
X029711Y017164D02*
X029300Y017164D01*
X029300Y017028D01*
X029369Y016857D02*
X029300Y016789D01*
X029300Y016652D01*
X029369Y016584D01*
X029437Y016584D01*
X029506Y016652D01*
X029506Y016721D01*
X029506Y016652D02*
X029574Y016584D01*
X029642Y016584D01*
X029711Y016652D01*
X029711Y016789D01*
X029642Y016857D01*
X029711Y017028D02*
X029711Y017164D01*
X029642Y016397D02*
X029369Y016397D01*
X029642Y016123D01*
X029369Y016123D01*
X029300Y016192D01*
X029300Y016329D01*
X029369Y016397D01*
X029642Y016397D02*
X029711Y016329D01*
X029711Y016192D01*
X029642Y016123D01*
X029711Y015937D02*
X029437Y015937D01*
X029300Y015800D01*
X029437Y015663D01*
X029711Y015663D01*
X029711Y015476D02*
X029711Y015339D01*
X029300Y015339D01*
X029300Y015476D01*
X023895Y015499D02*
X023895Y015226D01*
X023759Y015362D02*
X023485Y015362D01*
X023622Y015226D02*
X023622Y015499D01*
X023690Y015686D02*
X023622Y015823D01*
X023622Y015891D01*
X023690Y015960D01*
X023827Y015960D01*
X023895Y015891D01*
X023895Y015754D01*
X023827Y015686D01*
X023690Y015686D02*
X023485Y015686D01*
X023485Y015960D01*
X023485Y016146D02*
X023759Y016146D01*
X023895Y016283D01*
X023759Y016420D01*
X023485Y016420D01*
X023485Y017067D02*
X023485Y017204D01*
X023485Y017067D02*
X023895Y017067D01*
X023895Y017204D01*
X023895Y017374D02*
X023895Y017648D01*
X023895Y017511D02*
X023485Y017511D01*
X023622Y017374D01*
X023554Y017835D02*
X023485Y017903D01*
X023485Y018040D01*
X023554Y018108D01*
X023827Y017835D01*
X023895Y017903D01*
X023895Y018040D01*
X023827Y018108D01*
X023554Y018108D01*
X023485Y018295D02*
X023759Y018295D01*
X023895Y018432D01*
X023759Y018568D01*
X023485Y018568D01*
X023485Y018755D02*
X023485Y018892D01*
X023895Y018892D01*
X023895Y018755D01*
X023827Y017835D02*
X023554Y017835D01*
X049734Y007391D02*
X049734Y007186D01*
X050144Y007186D01*
X050007Y007186D02*
X050007Y007391D01*
X049939Y007459D01*
X049802Y007459D01*
X049734Y007391D01*
X049802Y006999D02*
X049734Y006930D01*
X049734Y006794D01*
X049802Y006725D01*
X049870Y006725D01*
X049939Y006794D01*
X049939Y006930D01*
X050007Y006999D01*
X050076Y006999D01*
X050144Y006930D01*
X050144Y006794D01*
X050076Y006725D01*
X050076Y006538D02*
X050144Y006470D01*
X050144Y006333D01*
X050076Y006265D01*
X049802Y006265D01*
X049734Y006333D01*
X049734Y006470D01*
X049802Y006538D01*
X049734Y006095D02*
X049734Y005958D01*
X049734Y006026D02*
X050144Y006026D01*
X050144Y005958D02*
X050144Y006095D01*
D14*
X039106Y016081D02*
X038606Y016081D01*
X038106Y016081D01*
X038106Y016431D02*
X038606Y016431D01*
X039106Y016431D01*
X040566Y016391D02*
X041066Y016391D01*
X041566Y016391D01*
X041566Y016741D02*
X041066Y016741D01*
X040566Y016741D01*
X042909Y016761D02*
X043409Y016761D01*
X043909Y016761D01*
X043909Y016411D02*
X043409Y016411D01*
X042909Y016411D01*
X045389Y018541D02*
X045889Y018541D01*
X046389Y018541D01*
X046389Y018891D02*
X045889Y018891D01*
X045389Y018891D01*
X036547Y018414D02*
X036047Y018414D01*
X035547Y018414D01*
X035547Y018064D02*
X036047Y018064D01*
X036547Y018064D01*
X034185Y020214D02*
X033685Y020214D01*
X033185Y020214D01*
X033185Y020564D02*
X033685Y020564D01*
X034185Y020564D01*
X031822Y018414D02*
X031322Y018414D01*
X030822Y018414D01*
X030822Y018064D02*
X031322Y018064D01*
X031822Y018064D01*
X029944Y019610D02*
X023350Y019610D01*
X023251Y019610D02*
X023251Y014393D01*
X029944Y014393D01*
X029944Y019610D01*
X015931Y022555D02*
X015181Y022555D01*
X014431Y022555D01*
X014431Y022905D02*
X015181Y022905D01*
X015931Y022905D01*
X011600Y022905D02*
X010850Y022905D01*
X010100Y022905D01*
X010100Y022555D02*
X010850Y022555D01*
X011600Y022555D01*
X007269Y022555D02*
X006519Y022555D01*
X005769Y022555D01*
X005769Y022905D02*
X006519Y022905D01*
X007269Y022905D01*
X006090Y014204D02*
X006090Y013704D01*
X006090Y013204D01*
X005740Y013204D02*
X005740Y013704D01*
X005740Y014204D01*
D15*
X001142Y020018D02*
X001247Y020123D01*
X001247Y020333D01*
X001142Y020438D01*
X001037Y020438D01*
X000932Y020333D01*
X000932Y020123D01*
X000827Y020018D01*
X000722Y020018D01*
X000617Y020123D01*
X000617Y020333D01*
X000722Y020438D01*
X000617Y020718D02*
X000617Y020928D01*
X000617Y020823D02*
X001247Y020823D01*
X001247Y020718D02*
X001247Y020928D01*
X001247Y021184D02*
X000617Y021184D01*
X000617Y021499D01*
X000722Y021605D01*
X000932Y021605D01*
X001037Y021499D01*
X001037Y021184D01*
X001037Y021394D02*
X001247Y021605D01*
X001247Y021884D02*
X001247Y022094D01*
X001247Y021989D02*
X000617Y021989D01*
X000617Y021884D02*
X000617Y022094D01*
X000617Y022350D02*
X001142Y022350D01*
X001247Y022456D01*
X001247Y022666D01*
X001142Y022771D01*
X000617Y022771D01*
X000722Y023050D02*
X000827Y023050D01*
X000932Y023155D01*
X000932Y023366D01*
X001037Y023471D01*
X001142Y023471D01*
X001247Y023366D01*
X001247Y023155D01*
X001142Y023050D01*
X000722Y023050D02*
X000617Y023155D01*
X000617Y023366D01*
X000722Y023471D01*
X000617Y024450D02*
X001247Y024450D01*
X001037Y024450D02*
X000617Y024870D01*
X000932Y024555D02*
X001247Y024870D01*
D16*
X002846Y024850D02*
X003140Y024850D01*
X003140Y024948D02*
X003140Y024751D01*
X003140Y024622D02*
X003140Y024425D01*
X002944Y024622D01*
X002895Y024622D01*
X002846Y024573D01*
X002846Y024474D01*
X002895Y024425D01*
X002895Y024295D02*
X003091Y024099D01*
X003140Y024148D01*
X003140Y024246D01*
X003091Y024295D01*
X002895Y024295D01*
X002846Y024246D01*
X002846Y024148D01*
X002895Y024099D01*
X003091Y024099D01*
X003140Y023969D02*
X003140Y023773D01*
X002944Y023969D01*
X002895Y023969D01*
X002846Y023920D01*
X002846Y023822D01*
X002895Y023773D01*
X002944Y024751D02*
X002846Y024850D01*
X004419Y024955D02*
X004419Y014855D01*
X004421Y014829D01*
X004426Y014803D01*
X004434Y014778D01*
X004446Y014755D01*
X004460Y014733D01*
X004478Y014714D01*
X004497Y014696D01*
X004519Y014682D01*
X004542Y014670D01*
X004567Y014662D01*
X004593Y014657D01*
X004619Y014655D01*
X008419Y014655D01*
X008445Y014657D01*
X008471Y014662D01*
X008496Y014670D01*
X008519Y014682D01*
X008541Y014696D01*
X008560Y014714D01*
X008578Y014733D01*
X008592Y014755D01*
X008604Y014778D01*
X008612Y014803D01*
X008617Y014829D01*
X008619Y014855D01*
X008619Y024955D01*
X008750Y024955D02*
X008750Y014855D01*
X008752Y014829D01*
X008757Y014803D01*
X008765Y014778D01*
X008777Y014755D01*
X008791Y014733D01*
X008809Y014714D01*
X008828Y014696D01*
X008850Y014682D01*
X008873Y014670D01*
X008898Y014662D01*
X008924Y014657D01*
X008950Y014655D01*
X012750Y014655D01*
X012776Y014657D01*
X012802Y014662D01*
X012827Y014670D01*
X012850Y014682D01*
X012872Y014696D01*
X012891Y014714D01*
X012909Y014733D01*
X012923Y014755D01*
X012935Y014778D01*
X012943Y014803D01*
X012948Y014829D01*
X012950Y014855D01*
X012950Y024955D01*
X013081Y024955D02*
X013081Y014855D01*
X013083Y014829D01*
X013088Y014803D01*
X013096Y014778D01*
X013108Y014755D01*
X013122Y014733D01*
X013140Y014714D01*
X013159Y014696D01*
X013181Y014682D01*
X013204Y014670D01*
X013229Y014662D01*
X013255Y014657D01*
X013281Y014655D01*
X017081Y014655D01*
X017107Y014657D01*
X017133Y014662D01*
X017158Y014670D01*
X017181Y014682D01*
X017203Y014696D01*
X017222Y014714D01*
X017240Y014733D01*
X017254Y014755D01*
X017266Y014778D01*
X017274Y014803D01*
X017279Y014829D01*
X017281Y014855D01*
X017281Y024955D01*
X017279Y024981D01*
X017274Y025007D01*
X017266Y025032D01*
X017254Y025055D01*
X017240Y025077D01*
X017222Y025096D01*
X017203Y025114D01*
X017181Y025128D01*
X017158Y025140D01*
X017133Y025148D01*
X017107Y025153D01*
X017081Y025155D01*
X013281Y025155D01*
X013255Y025153D01*
X013229Y025148D01*
X013204Y025140D01*
X013181Y025128D01*
X013159Y025114D01*
X013140Y025096D01*
X013122Y025077D01*
X013108Y025055D01*
X013096Y025032D01*
X013088Y025007D01*
X013083Y024981D01*
X013081Y024955D01*
X012950Y024955D02*
X012948Y024981D01*
X012943Y025007D01*
X012935Y025032D01*
X012923Y025055D01*
X012909Y025077D01*
X012891Y025096D01*
X012872Y025114D01*
X012850Y025128D01*
X012827Y025140D01*
X012802Y025148D01*
X012776Y025153D01*
X012750Y025155D01*
X008950Y025155D01*
X008924Y025153D01*
X008898Y025148D01*
X008873Y025140D01*
X008850Y025128D01*
X008828Y025114D01*
X008809Y025096D01*
X008791Y025077D01*
X008777Y025055D01*
X008765Y025032D01*
X008757Y025007D01*
X008752Y024981D01*
X008750Y024955D01*
X008619Y024955D02*
X008617Y024981D01*
X008612Y025007D01*
X008604Y025032D01*
X008592Y025055D01*
X008578Y025077D01*
X008560Y025096D01*
X008541Y025114D01*
X008519Y025128D01*
X008496Y025140D01*
X008471Y025148D01*
X008445Y025153D01*
X008419Y025155D01*
X004619Y025155D01*
X004593Y025153D01*
X004567Y025148D01*
X004542Y025140D01*
X004519Y025128D01*
X004497Y025114D01*
X004478Y025096D01*
X004460Y025077D01*
X004446Y025055D01*
X004434Y025032D01*
X004426Y025007D01*
X004421Y024981D01*
X004419Y024955D01*
X005552Y025396D02*
X005552Y025690D01*
X005699Y025690D01*
X005748Y025641D01*
X005748Y025445D01*
X005699Y025396D01*
X005552Y025396D01*
X005878Y025445D02*
X005927Y025396D01*
X006025Y025396D01*
X006075Y025445D01*
X006075Y025641D02*
X006025Y025690D01*
X005927Y025690D01*
X005878Y025641D01*
X005878Y025445D01*
X006531Y025445D02*
X006580Y025396D01*
X006629Y025396D01*
X006678Y025445D01*
X006678Y025690D01*
X006629Y025690D02*
X006727Y025690D01*
X006906Y025592D02*
X007004Y025592D01*
X007053Y025543D01*
X007053Y025396D01*
X006906Y025396D01*
X006857Y025445D01*
X006906Y025494D01*
X007053Y025494D01*
X007183Y025543D02*
X007183Y025445D01*
X007232Y025396D01*
X007380Y025396D01*
X007510Y025396D02*
X007510Y025690D01*
X007380Y025592D02*
X007232Y025592D01*
X007183Y025543D01*
X007510Y025494D02*
X007657Y025592D01*
X007510Y025494D02*
X007657Y025396D01*
X006519Y023705D02*
X006519Y022905D01*
X006519Y022555D02*
X006519Y016105D01*
X007140Y014504D02*
X003340Y014504D01*
X003323Y014502D01*
X003306Y014498D01*
X003290Y014491D01*
X003276Y014481D01*
X003263Y014468D01*
X003253Y014454D01*
X003246Y014438D01*
X003242Y014421D01*
X003240Y014404D01*
X003240Y013004D01*
X003242Y012987D01*
X003246Y012970D01*
X003253Y012954D01*
X003263Y012940D01*
X003276Y012927D01*
X003290Y012917D01*
X003306Y012910D01*
X003323Y012906D01*
X003340Y012904D01*
X007140Y012904D01*
X007157Y012906D01*
X007174Y012910D01*
X007190Y012917D01*
X007204Y012927D01*
X007217Y012940D01*
X007227Y012954D01*
X007234Y012970D01*
X007238Y012987D01*
X007240Y013004D01*
X007240Y014404D01*
X007238Y014421D01*
X007234Y014438D01*
X007227Y014454D01*
X007217Y014468D01*
X007204Y014481D01*
X007190Y014491D01*
X007174Y014498D01*
X007157Y014502D01*
X007140Y014504D01*
X006290Y013704D02*
X006090Y013704D01*
X005740Y013704D02*
X004190Y013704D01*
X004337Y012828D02*
X004484Y012828D01*
X004533Y012779D01*
X004533Y012729D01*
X004484Y012680D01*
X004337Y012680D01*
X004337Y012533D02*
X004484Y012533D01*
X004533Y012582D01*
X004533Y012631D01*
X004484Y012680D01*
X004663Y012582D02*
X004712Y012631D01*
X004859Y012631D01*
X004859Y012680D02*
X004859Y012533D01*
X004712Y012533D01*
X004663Y012582D01*
X004712Y012729D02*
X004810Y012729D01*
X004859Y012680D01*
X004989Y012729D02*
X005087Y012729D01*
X005038Y012779D02*
X005038Y012582D01*
X005087Y012533D01*
X005256Y012582D02*
X005305Y012533D01*
X005256Y012582D02*
X005256Y012779D01*
X005207Y012729D02*
X005305Y012729D01*
X005424Y012680D02*
X005473Y012729D01*
X005572Y012729D01*
X005621Y012680D01*
X005621Y012631D01*
X005424Y012631D01*
X005424Y012582D02*
X005424Y012680D01*
X005424Y012582D02*
X005473Y012533D01*
X005572Y012533D01*
X005751Y012533D02*
X005751Y012729D01*
X005849Y012729D02*
X005898Y012729D01*
X005849Y012729D02*
X005751Y012631D01*
X006022Y012582D02*
X006071Y012533D01*
X006219Y012533D01*
X006219Y012484D02*
X006170Y012435D01*
X006121Y012435D01*
X006219Y012484D02*
X006219Y012729D01*
X006022Y012729D02*
X006022Y012582D01*
X006926Y012533D02*
X006926Y012828D01*
X007073Y012828D01*
X007123Y012779D01*
X007123Y012729D01*
X007073Y012680D01*
X006926Y012680D01*
X006926Y012533D02*
X007073Y012533D01*
X007123Y012582D01*
X007123Y012631D01*
X007073Y012680D01*
X007252Y012729D02*
X007252Y012582D01*
X007301Y012533D01*
X007449Y012533D01*
X007449Y012484D02*
X007400Y012435D01*
X007351Y012435D01*
X007449Y012484D02*
X007449Y012729D01*
X007579Y012729D02*
X007726Y012729D01*
X007775Y012680D01*
X007775Y012582D01*
X007726Y012533D01*
X007579Y012533D01*
X007579Y012435D02*
X007579Y012729D01*
X007905Y012582D02*
X007954Y012631D01*
X008101Y012631D01*
X008101Y012680D02*
X008101Y012533D01*
X007954Y012533D01*
X007905Y012582D01*
X007954Y012729D02*
X008052Y012729D01*
X008101Y012680D01*
X008231Y012680D02*
X008280Y012729D01*
X008428Y012729D01*
X008378Y012631D02*
X008280Y012631D01*
X008231Y012680D01*
X008231Y012533D02*
X008378Y012533D01*
X008428Y012582D01*
X008378Y012631D01*
X008557Y012680D02*
X008607Y012729D01*
X008754Y012729D01*
X008705Y012631D02*
X008607Y012631D01*
X008557Y012680D01*
X008557Y012533D02*
X008705Y012533D01*
X008754Y012582D01*
X008705Y012631D01*
X009210Y012582D02*
X009259Y012533D01*
X009357Y012533D01*
X009406Y012582D01*
X009406Y012631D01*
X009357Y012680D01*
X009259Y012680D01*
X009210Y012729D01*
X009210Y012779D01*
X009259Y012828D01*
X009357Y012828D01*
X009406Y012779D01*
X009536Y012680D02*
X009585Y012729D01*
X009684Y012729D01*
X009733Y012680D01*
X009733Y012631D01*
X009536Y012631D01*
X009536Y012582D02*
X009536Y012680D01*
X009536Y012582D02*
X009585Y012533D01*
X009684Y012533D01*
X009862Y012533D02*
X009961Y012533D01*
X009912Y012533D02*
X009912Y012828D01*
X009862Y012828D01*
X010080Y012680D02*
X010129Y012729D01*
X010227Y012729D01*
X010276Y012680D01*
X010276Y012631D01*
X010080Y012631D01*
X010080Y012582D02*
X010080Y012680D01*
X010080Y012582D02*
X010129Y012533D01*
X010227Y012533D01*
X010406Y012582D02*
X010455Y012533D01*
X010603Y012533D01*
X010782Y012582D02*
X010782Y012779D01*
X010733Y012729D02*
X010831Y012729D01*
X010782Y012582D02*
X010831Y012533D01*
X010603Y012729D02*
X010455Y012729D01*
X010406Y012680D01*
X010406Y012582D01*
X011461Y013253D02*
X008861Y013253D01*
X008811Y013203D01*
X008561Y013203D01*
X008544Y013205D01*
X008527Y013209D01*
X008511Y013216D01*
X008497Y013226D01*
X008484Y013239D01*
X008474Y013253D01*
X008467Y013269D01*
X008463Y013286D01*
X008461Y013303D01*
X008461Y014303D01*
X008463Y014320D01*
X008467Y014337D01*
X008474Y014353D01*
X008484Y014367D01*
X008497Y014380D01*
X008511Y014390D01*
X008527Y014397D01*
X008544Y014401D01*
X008561Y014403D01*
X008811Y014403D01*
X008861Y014353D01*
X011461Y014353D01*
X011511Y014403D01*
X011761Y014403D01*
X011778Y014401D01*
X011795Y014397D01*
X011811Y014390D01*
X011825Y014380D01*
X011838Y014367D01*
X011848Y014353D01*
X011855Y014337D01*
X011859Y014320D01*
X011861Y014303D01*
X011861Y013303D01*
X011859Y013286D01*
X011855Y013269D01*
X011848Y013253D01*
X011838Y013239D01*
X011825Y013226D01*
X011811Y013216D01*
X011795Y013209D01*
X011778Y013205D01*
X011761Y013203D01*
X011511Y013203D01*
X011461Y013253D01*
X013617Y012492D02*
X013617Y012198D01*
X013617Y012345D02*
X013715Y012345D01*
X013617Y012492D02*
X013813Y012492D01*
X013943Y012345D02*
X013943Y012247D01*
X013992Y012198D01*
X014090Y012198D01*
X014139Y012247D01*
X014139Y012345D01*
X014090Y012394D01*
X013992Y012394D01*
X013943Y012345D01*
X014269Y012345D02*
X014269Y012247D01*
X014318Y012198D01*
X014417Y012198D01*
X014466Y012247D01*
X014466Y012345D01*
X014417Y012394D01*
X014318Y012394D01*
X014269Y012345D01*
X014596Y012394D02*
X014694Y012394D01*
X014645Y012443D02*
X014645Y012247D01*
X014694Y012198D01*
X015139Y012247D02*
X015188Y012198D01*
X015287Y012198D01*
X015336Y012247D01*
X015336Y012296D01*
X015287Y012345D01*
X015188Y012345D01*
X015139Y012394D01*
X015139Y012443D01*
X015188Y012492D01*
X015287Y012492D01*
X015336Y012443D01*
X015466Y012394D02*
X015466Y012247D01*
X015515Y012198D01*
X015564Y012247D01*
X015613Y012198D01*
X015662Y012247D01*
X015662Y012394D01*
X015792Y012394D02*
X015841Y012394D01*
X015841Y012198D01*
X015792Y012198D02*
X015890Y012198D01*
X016058Y012247D02*
X016108Y012198D01*
X016058Y012247D02*
X016058Y012443D01*
X016009Y012394D02*
X016108Y012394D01*
X016227Y012345D02*
X016276Y012394D01*
X016423Y012394D01*
X016553Y012345D02*
X016602Y012394D01*
X016700Y012394D01*
X016750Y012345D01*
X016750Y012198D01*
X016553Y012198D02*
X016553Y012492D01*
X016423Y012198D02*
X016276Y012198D01*
X016227Y012247D01*
X016227Y012345D01*
X015841Y012492D02*
X015841Y012542D01*
X014766Y013253D02*
X017366Y013253D01*
X017416Y013203D01*
X017666Y013203D01*
X017683Y013205D01*
X017700Y013209D01*
X017716Y013216D01*
X017730Y013226D01*
X017743Y013239D01*
X017753Y013253D01*
X017760Y013269D01*
X017764Y013286D01*
X017766Y013303D01*
X017766Y014303D01*
X017764Y014320D01*
X017760Y014337D01*
X017753Y014353D01*
X017743Y014367D01*
X017730Y014380D01*
X017716Y014390D01*
X017700Y014397D01*
X017683Y014401D01*
X017666Y014403D01*
X017416Y014403D01*
X017366Y014353D01*
X014766Y014353D01*
X014716Y014403D01*
X014466Y014403D01*
X014449Y014401D01*
X014432Y014397D01*
X014416Y014390D01*
X014402Y014380D01*
X014389Y014367D01*
X014379Y014353D01*
X014372Y014337D01*
X014368Y014320D01*
X014366Y014303D01*
X014366Y013303D01*
X014368Y013286D01*
X014372Y013269D01*
X014379Y013253D01*
X014389Y013239D01*
X014402Y013226D01*
X014416Y013216D01*
X014432Y013209D01*
X014449Y013205D01*
X014466Y013203D01*
X014716Y013203D01*
X014766Y013253D01*
X015181Y016105D02*
X015181Y022555D01*
X015181Y022905D02*
X015181Y023705D01*
X015114Y025408D02*
X015065Y025457D01*
X015065Y025653D01*
X015016Y025604D02*
X015114Y025604D01*
X014886Y025604D02*
X014886Y025408D01*
X014739Y025408D01*
X014690Y025457D01*
X014690Y025604D01*
X014560Y025555D02*
X014560Y025457D01*
X014511Y025408D01*
X014363Y025408D01*
X014363Y025310D02*
X014363Y025604D01*
X014511Y025604D01*
X014560Y025555D01*
X014234Y025555D02*
X014234Y025408D01*
X014234Y025555D02*
X014184Y025604D01*
X014037Y025604D01*
X014037Y025408D01*
X013918Y025408D02*
X013820Y025408D01*
X013869Y025408D02*
X013869Y025702D01*
X013820Y025702D02*
X013918Y025702D01*
X015560Y025457D02*
X015609Y025408D01*
X015658Y025408D01*
X015707Y025457D01*
X015707Y025702D01*
X015658Y025702D02*
X015756Y025702D01*
X015935Y025604D02*
X016033Y025604D01*
X016082Y025555D01*
X016082Y025408D01*
X015935Y025408D01*
X015886Y025457D01*
X015935Y025506D01*
X016082Y025506D01*
X016212Y025555D02*
X016212Y025457D01*
X016261Y025408D01*
X016409Y025408D01*
X016538Y025408D02*
X016538Y025702D01*
X016409Y025604D02*
X016261Y025604D01*
X016212Y025555D01*
X016538Y025506D02*
X016686Y025604D01*
X016538Y025506D02*
X016686Y025408D01*
X017583Y026323D02*
X017583Y023723D01*
X017533Y023673D01*
X017533Y023423D01*
X017535Y023406D01*
X017539Y023389D01*
X017546Y023373D01*
X017556Y023359D01*
X017569Y023346D01*
X017583Y023336D01*
X017599Y023329D01*
X017616Y023325D01*
X017633Y023323D01*
X018633Y023323D01*
X018650Y023325D01*
X018667Y023329D01*
X018683Y023336D01*
X018697Y023346D01*
X018710Y023359D01*
X018720Y023373D01*
X018727Y023389D01*
X018731Y023406D01*
X018733Y023423D01*
X018733Y023673D01*
X018683Y023723D01*
X018683Y026323D01*
X018733Y026373D01*
X018733Y026623D01*
X018731Y026640D01*
X018727Y026657D01*
X018720Y026673D01*
X018710Y026687D01*
X018697Y026700D01*
X018683Y026710D01*
X018667Y026717D01*
X018650Y026721D01*
X018633Y026723D01*
X017633Y026723D01*
X017616Y026721D01*
X017599Y026717D01*
X017583Y026710D01*
X017569Y026700D01*
X017556Y026687D01*
X017546Y026673D01*
X017539Y026657D01*
X017535Y026640D01*
X017533Y026623D01*
X017533Y026373D01*
X017583Y026323D01*
X018911Y026373D02*
X018911Y026623D01*
X018913Y026640D01*
X018917Y026657D01*
X018924Y026673D01*
X018934Y026687D01*
X018947Y026700D01*
X018961Y026710D01*
X018977Y026717D01*
X018994Y026721D01*
X019011Y026723D01*
X020011Y026723D01*
X020028Y026721D01*
X020045Y026717D01*
X020061Y026710D01*
X020075Y026700D01*
X020088Y026687D01*
X020098Y026673D01*
X020105Y026657D01*
X020109Y026640D01*
X020111Y026623D01*
X020111Y026373D01*
X020061Y026323D01*
X020061Y023723D01*
X020111Y023673D01*
X020111Y023423D01*
X020109Y023406D01*
X020105Y023389D01*
X020098Y023373D01*
X020088Y023359D01*
X020075Y023346D01*
X020061Y023336D01*
X020045Y023329D01*
X020028Y023325D01*
X020011Y023323D01*
X019011Y023323D01*
X018994Y023325D01*
X018977Y023329D01*
X018961Y023336D01*
X018947Y023346D01*
X018934Y023359D01*
X018924Y023373D01*
X018917Y023389D01*
X018913Y023406D01*
X018911Y023423D01*
X018911Y023673D01*
X018961Y023723D01*
X018961Y026323D01*
X018911Y026373D01*
X020289Y026373D02*
X020339Y026323D01*
X020339Y023723D01*
X020289Y023673D01*
X020289Y023423D01*
X020291Y023406D01*
X020295Y023389D01*
X020302Y023373D01*
X020312Y023359D01*
X020325Y023346D01*
X020339Y023336D01*
X020355Y023329D01*
X020372Y023325D01*
X020389Y023323D01*
X021389Y023323D01*
X021406Y023325D01*
X021423Y023329D01*
X021439Y023336D01*
X021453Y023346D01*
X021466Y023359D01*
X021476Y023373D01*
X021483Y023389D01*
X021487Y023406D01*
X021489Y023423D01*
X021489Y023673D01*
X021439Y023723D01*
X021439Y026323D01*
X021489Y026373D01*
X021489Y026623D01*
X021487Y026640D01*
X021483Y026657D01*
X021476Y026673D01*
X021466Y026687D01*
X021453Y026700D01*
X021439Y026710D01*
X021423Y026717D01*
X021406Y026721D01*
X021389Y026723D01*
X020389Y026723D01*
X020372Y026721D01*
X020355Y026717D01*
X020339Y026710D01*
X020325Y026700D01*
X020312Y026687D01*
X020302Y026673D01*
X020295Y026657D01*
X020291Y026640D01*
X020289Y026623D01*
X020289Y026373D01*
X021667Y026373D02*
X021667Y026623D01*
X021669Y026640D01*
X021673Y026657D01*
X021680Y026673D01*
X021690Y026687D01*
X021703Y026700D01*
X021717Y026710D01*
X021733Y026717D01*
X021750Y026721D01*
X021767Y026723D01*
X022767Y026723D01*
X022784Y026721D01*
X022801Y026717D01*
X022817Y026710D01*
X022831Y026700D01*
X022844Y026687D01*
X022854Y026673D01*
X022861Y026657D01*
X022865Y026640D01*
X022867Y026623D01*
X022867Y026373D01*
X022817Y026323D01*
X022817Y023723D01*
X022867Y023673D01*
X022867Y023423D01*
X022865Y023406D01*
X022861Y023389D01*
X022854Y023373D01*
X022844Y023359D01*
X022831Y023346D01*
X022817Y023336D01*
X022801Y023329D01*
X022784Y023325D01*
X022767Y023323D01*
X021767Y023323D01*
X021750Y023325D01*
X021733Y023329D01*
X021717Y023336D01*
X021703Y023346D01*
X021690Y023359D01*
X021680Y023373D01*
X021673Y023389D01*
X021669Y023406D01*
X021667Y023423D01*
X021667Y023673D01*
X021717Y023723D01*
X021717Y026323D01*
X021667Y026373D01*
X023045Y026373D02*
X023045Y026623D01*
X023047Y026640D01*
X023051Y026657D01*
X023058Y026673D01*
X023068Y026687D01*
X023081Y026700D01*
X023095Y026710D01*
X023111Y026717D01*
X023128Y026721D01*
X023145Y026723D01*
X024145Y026723D01*
X024162Y026721D01*
X024179Y026717D01*
X024195Y026710D01*
X024209Y026700D01*
X024222Y026687D01*
X024232Y026673D01*
X024239Y026657D01*
X024243Y026640D01*
X024245Y026623D01*
X024245Y026373D01*
X024195Y026323D01*
X024195Y023723D01*
X024245Y023673D01*
X024245Y023423D01*
X024243Y023406D01*
X024239Y023389D01*
X024232Y023373D01*
X024222Y023359D01*
X024209Y023346D01*
X024195Y023336D01*
X024179Y023329D01*
X024162Y023325D01*
X024145Y023323D01*
X023145Y023323D01*
X023128Y023325D01*
X023111Y023329D01*
X023095Y023336D01*
X023081Y023346D01*
X023068Y023359D01*
X023058Y023373D01*
X023051Y023389D01*
X023047Y023406D01*
X023045Y023423D01*
X023045Y023673D01*
X023095Y023723D01*
X023095Y026323D01*
X023045Y026373D01*
X024559Y025136D02*
X027259Y025136D01*
X027276Y025134D01*
X027293Y025130D01*
X027309Y025123D01*
X027323Y025113D01*
X027336Y025100D01*
X027346Y025086D01*
X027353Y025070D01*
X027357Y025053D01*
X027359Y025036D01*
X027359Y023436D01*
X027357Y023419D01*
X027353Y023402D01*
X027346Y023386D01*
X027336Y023372D01*
X027323Y023359D01*
X027309Y023349D01*
X027293Y023342D01*
X027276Y023338D01*
X027259Y023336D01*
X024559Y023336D01*
X024542Y023338D01*
X024525Y023342D01*
X024509Y023349D01*
X024495Y023359D01*
X024482Y023372D01*
X024472Y023386D01*
X024465Y023402D01*
X024461Y023419D01*
X024459Y023436D01*
X024459Y025036D01*
X024461Y025053D01*
X024465Y025070D01*
X024472Y025086D01*
X024482Y025100D01*
X024495Y025113D01*
X024509Y025123D01*
X024525Y025130D01*
X024542Y025134D01*
X024559Y025136D01*
X025311Y025427D02*
X025311Y025722D01*
X025409Y025722D02*
X025212Y025722D01*
X025539Y025624D02*
X025539Y025427D01*
X025539Y025525D02*
X025637Y025624D01*
X025686Y025624D01*
X025811Y025574D02*
X025811Y025476D01*
X025860Y025427D01*
X025958Y025427D01*
X026007Y025525D02*
X025811Y025525D01*
X025811Y025574D02*
X025860Y025624D01*
X025958Y025624D01*
X026007Y025574D01*
X026007Y025525D01*
X026137Y025427D02*
X026137Y025722D01*
X026137Y025624D02*
X026284Y025624D01*
X026333Y025574D01*
X026333Y025476D01*
X026284Y025427D01*
X026137Y025427D01*
X026463Y025427D02*
X026561Y025427D01*
X026512Y025427D02*
X026512Y025722D01*
X026463Y025722D01*
X026681Y025574D02*
X026730Y025624D01*
X026828Y025624D01*
X026877Y025574D01*
X026877Y025525D01*
X026681Y025525D01*
X026681Y025476D02*
X026681Y025574D01*
X026681Y025476D02*
X026730Y025427D01*
X026828Y025427D01*
X026509Y024236D02*
X026039Y024236D01*
X025789Y024236D02*
X025309Y024236D01*
X027770Y023673D02*
X027770Y023423D01*
X027772Y023406D01*
X027776Y023389D01*
X027783Y023373D01*
X027793Y023359D01*
X027806Y023346D01*
X027820Y023336D01*
X027836Y023329D01*
X027853Y023325D01*
X027870Y023323D01*
X028870Y023323D01*
X028887Y023325D01*
X028904Y023329D01*
X028920Y023336D01*
X028934Y023346D01*
X028947Y023359D01*
X028957Y023373D01*
X028964Y023389D01*
X028968Y023406D01*
X028970Y023423D01*
X028970Y023673D01*
X028920Y023723D01*
X028920Y026323D01*
X028970Y026373D01*
X028970Y026623D01*
X028968Y026640D01*
X028964Y026657D01*
X028957Y026673D01*
X028947Y026687D01*
X028934Y026700D01*
X028920Y026710D01*
X028904Y026717D01*
X028887Y026721D01*
X028870Y026723D01*
X027870Y026723D01*
X027853Y026721D01*
X027836Y026717D01*
X027820Y026710D01*
X027806Y026700D01*
X027793Y026687D01*
X027783Y026673D01*
X027776Y026657D01*
X027772Y026640D01*
X027770Y026623D01*
X027770Y026373D01*
X027820Y026323D01*
X027820Y023723D01*
X027770Y023673D01*
X029148Y023673D02*
X029148Y023423D01*
X029150Y023406D01*
X029154Y023389D01*
X029161Y023373D01*
X029171Y023359D01*
X029184Y023346D01*
X029198Y023336D01*
X029214Y023329D01*
X029231Y023325D01*
X029248Y023323D01*
X030248Y023323D01*
X030265Y023325D01*
X030282Y023329D01*
X030298Y023336D01*
X030312Y023346D01*
X030325Y023359D01*
X030335Y023373D01*
X030342Y023389D01*
X030346Y023406D01*
X030348Y023423D01*
X030348Y023673D01*
X030298Y023723D01*
X030298Y026323D01*
X030348Y026373D01*
X030348Y026623D01*
X030346Y026640D01*
X030342Y026657D01*
X030335Y026673D01*
X030325Y026687D01*
X030312Y026700D01*
X030298Y026710D01*
X030282Y026717D01*
X030265Y026721D01*
X030248Y026723D01*
X029248Y026723D01*
X029231Y026721D01*
X029214Y026717D01*
X029198Y026710D01*
X029184Y026700D01*
X029171Y026687D01*
X029161Y026673D01*
X029154Y026657D01*
X029150Y026640D01*
X029148Y026623D01*
X029148Y026373D01*
X029198Y026323D01*
X029198Y023723D01*
X029148Y023673D01*
X030526Y023673D02*
X030526Y023423D01*
X030528Y023406D01*
X030532Y023389D01*
X030539Y023373D01*
X030549Y023359D01*
X030562Y023346D01*
X030576Y023336D01*
X030592Y023329D01*
X030609Y023325D01*
X030626Y023323D01*
X031626Y023323D01*
X031643Y023325D01*
X031660Y023329D01*
X031676Y023336D01*
X031690Y023346D01*
X031703Y023359D01*
X031713Y023373D01*
X031720Y023389D01*
X031724Y023406D01*
X031726Y023423D01*
X031726Y023673D01*
X031676Y023723D01*
X031676Y026323D01*
X031726Y026373D01*
X031726Y026623D01*
X031724Y026640D01*
X031720Y026657D01*
X031713Y026673D01*
X031703Y026687D01*
X031690Y026700D01*
X031676Y026710D01*
X031660Y026717D01*
X031643Y026721D01*
X031626Y026723D01*
X030626Y026723D01*
X030609Y026721D01*
X030592Y026717D01*
X030576Y026710D01*
X030562Y026700D01*
X030549Y026687D01*
X030539Y026673D01*
X030532Y026657D01*
X030528Y026640D01*
X030526Y026623D01*
X030526Y026373D01*
X030576Y026323D01*
X030576Y023723D01*
X030526Y023673D01*
X031903Y023673D02*
X031903Y023423D01*
X031905Y023406D01*
X031909Y023389D01*
X031916Y023373D01*
X031926Y023359D01*
X031939Y023346D01*
X031953Y023336D01*
X031969Y023329D01*
X031986Y023325D01*
X032003Y023323D01*
X033003Y023323D01*
X033020Y023325D01*
X033037Y023329D01*
X033053Y023336D01*
X033067Y023346D01*
X033080Y023359D01*
X033090Y023373D01*
X033097Y023389D01*
X033101Y023406D01*
X033103Y023423D01*
X033103Y023673D01*
X033053Y023723D01*
X033053Y026323D01*
X033103Y026373D01*
X033103Y026623D01*
X033101Y026640D01*
X033097Y026657D01*
X033090Y026673D01*
X033080Y026687D01*
X033067Y026700D01*
X033053Y026710D01*
X033037Y026717D01*
X033020Y026721D01*
X033003Y026723D01*
X032003Y026723D01*
X031986Y026721D01*
X031969Y026717D01*
X031953Y026710D01*
X031939Y026700D01*
X031926Y026687D01*
X031916Y026673D01*
X031909Y026657D01*
X031905Y026640D01*
X031903Y026623D01*
X031903Y026373D01*
X031953Y026323D01*
X031953Y023723D01*
X031903Y023673D01*
X033281Y023673D02*
X033281Y023423D01*
X033283Y023406D01*
X033287Y023389D01*
X033294Y023373D01*
X033304Y023359D01*
X033317Y023346D01*
X033331Y023336D01*
X033347Y023329D01*
X033364Y023325D01*
X033381Y023323D01*
X034381Y023323D01*
X034398Y023325D01*
X034415Y023329D01*
X034431Y023336D01*
X034445Y023346D01*
X034458Y023359D01*
X034468Y023373D01*
X034475Y023389D01*
X034479Y023406D01*
X034481Y023423D01*
X034481Y023673D01*
X034431Y023723D01*
X034431Y026323D01*
X034481Y026373D01*
X034481Y026623D01*
X034479Y026640D01*
X034475Y026657D01*
X034468Y026673D01*
X034458Y026687D01*
X034445Y026700D01*
X034431Y026710D01*
X034415Y026717D01*
X034398Y026721D01*
X034381Y026723D01*
X033381Y026723D01*
X033364Y026721D01*
X033347Y026717D01*
X033331Y026710D01*
X033317Y026700D01*
X033304Y026687D01*
X033294Y026673D01*
X033287Y026657D01*
X033283Y026640D01*
X033281Y026623D01*
X033281Y026373D01*
X033331Y026323D01*
X033331Y023723D01*
X033281Y023673D01*
X034659Y023673D02*
X034659Y023423D01*
X034661Y023406D01*
X034665Y023389D01*
X034672Y023373D01*
X034682Y023359D01*
X034695Y023346D01*
X034709Y023336D01*
X034725Y023329D01*
X034742Y023325D01*
X034759Y023323D01*
X035759Y023323D01*
X035776Y023325D01*
X035793Y023329D01*
X035809Y023336D01*
X035823Y023346D01*
X035836Y023359D01*
X035846Y023373D01*
X035853Y023389D01*
X035857Y023406D01*
X035859Y023423D01*
X035859Y023673D01*
X035809Y023723D01*
X035809Y026323D01*
X035859Y026373D01*
X035859Y026623D01*
X035857Y026640D01*
X035853Y026657D01*
X035846Y026673D01*
X035836Y026687D01*
X035823Y026700D01*
X035809Y026710D01*
X035793Y026717D01*
X035776Y026721D01*
X035759Y026723D01*
X034759Y026723D01*
X034742Y026721D01*
X034725Y026717D01*
X034709Y026710D01*
X034695Y026700D01*
X034682Y026687D01*
X034672Y026673D01*
X034665Y026657D01*
X034661Y026640D01*
X034659Y026623D01*
X034659Y026373D01*
X034709Y026323D01*
X034709Y023723D01*
X034659Y023673D01*
X036037Y023673D02*
X036037Y023423D01*
X036039Y023406D01*
X036043Y023389D01*
X036050Y023373D01*
X036060Y023359D01*
X036073Y023346D01*
X036087Y023336D01*
X036103Y023329D01*
X036120Y023325D01*
X036137Y023323D01*
X037137Y023323D01*
X037154Y023325D01*
X037171Y023329D01*
X037187Y023336D01*
X037201Y023346D01*
X037214Y023359D01*
X037224Y023373D01*
X037231Y023389D01*
X037235Y023406D01*
X037237Y023423D01*
X037237Y023673D01*
X037187Y023723D01*
X037187Y026323D01*
X037237Y026373D01*
X037237Y026623D01*
X037235Y026640D01*
X037231Y026657D01*
X037224Y026673D01*
X037214Y026687D01*
X037201Y026700D01*
X037187Y026710D01*
X037171Y026717D01*
X037154Y026721D01*
X037137Y026723D01*
X036137Y026723D01*
X036120Y026721D01*
X036103Y026717D01*
X036087Y026710D01*
X036073Y026700D01*
X036060Y026687D01*
X036050Y026673D01*
X036043Y026657D01*
X036039Y026640D01*
X036037Y026623D01*
X036037Y026373D01*
X036087Y026323D01*
X036087Y023723D01*
X036037Y023673D01*
X037415Y023913D02*
X037465Y023863D01*
X037465Y021263D01*
X037415Y021213D01*
X037415Y020963D01*
X037417Y020946D01*
X037421Y020929D01*
X037428Y020913D01*
X037438Y020899D01*
X037451Y020886D01*
X037465Y020876D01*
X037481Y020869D01*
X037498Y020865D01*
X037515Y020863D01*
X038515Y020863D01*
X038532Y020865D01*
X038549Y020869D01*
X038565Y020876D01*
X038579Y020886D01*
X038592Y020899D01*
X038602Y020913D01*
X038609Y020929D01*
X038613Y020946D01*
X038615Y020963D01*
X038615Y021213D01*
X038565Y021263D01*
X038565Y023863D01*
X038615Y023913D01*
X038615Y024163D01*
X038613Y024180D01*
X038609Y024197D01*
X038602Y024213D01*
X038592Y024227D01*
X038579Y024240D01*
X038565Y024250D01*
X038549Y024257D01*
X038532Y024261D01*
X038515Y024263D01*
X037515Y024263D01*
X037498Y024261D01*
X037481Y024257D01*
X037465Y024250D01*
X037451Y024240D01*
X037438Y024227D01*
X037428Y024213D01*
X037421Y024197D01*
X037417Y024180D01*
X037415Y024163D01*
X037415Y023913D01*
X038793Y023913D02*
X038843Y023863D01*
X038843Y021263D01*
X038793Y021213D01*
X038793Y020963D01*
X038795Y020946D01*
X038799Y020929D01*
X038806Y020913D01*
X038816Y020899D01*
X038829Y020886D01*
X038843Y020876D01*
X038859Y020869D01*
X038876Y020865D01*
X038893Y020863D01*
X039893Y020863D01*
X039910Y020865D01*
X039927Y020869D01*
X039943Y020876D01*
X039957Y020886D01*
X039970Y020899D01*
X039980Y020913D01*
X039987Y020929D01*
X039991Y020946D01*
X039993Y020963D01*
X039993Y021213D01*
X039943Y021263D01*
X039943Y023863D01*
X039993Y023913D01*
X039993Y024163D01*
X039991Y024180D01*
X039987Y024197D01*
X039980Y024213D01*
X039970Y024227D01*
X039957Y024240D01*
X039943Y024250D01*
X039927Y024257D01*
X039910Y024261D01*
X039893Y024263D01*
X038893Y024263D01*
X038876Y024261D01*
X038859Y024257D01*
X038843Y024250D01*
X038829Y024240D01*
X038816Y024227D01*
X038806Y024213D01*
X038799Y024197D01*
X038795Y024180D01*
X038793Y024163D01*
X038793Y023913D01*
X040171Y024503D02*
X040171Y024753D01*
X040173Y024770D01*
X040177Y024787D01*
X040184Y024803D01*
X040194Y024817D01*
X040207Y024830D01*
X040221Y024840D01*
X040237Y024847D01*
X040254Y024851D01*
X040271Y024853D01*
X041271Y024853D01*
X041288Y024851D01*
X041305Y024847D01*
X041321Y024840D01*
X041335Y024830D01*
X041348Y024817D01*
X041358Y024803D01*
X041365Y024787D01*
X041369Y024770D01*
X041371Y024753D01*
X041371Y024503D01*
X041321Y024453D01*
X041321Y021853D01*
X041371Y021803D01*
X041371Y021553D01*
X041369Y021536D01*
X041365Y021519D01*
X041358Y021503D01*
X041348Y021489D01*
X041335Y021476D01*
X041321Y021466D01*
X041305Y021459D01*
X041288Y021455D01*
X041271Y021453D01*
X040271Y021453D01*
X040254Y021455D01*
X040237Y021459D01*
X040221Y021466D01*
X040207Y021476D01*
X040194Y021489D01*
X040184Y021503D01*
X040177Y021519D01*
X040173Y021536D01*
X040171Y021553D01*
X040171Y021803D01*
X040221Y021853D01*
X040221Y024453D01*
X040171Y024503D01*
X040173Y025481D02*
X040026Y025481D01*
X039977Y025530D01*
X039977Y025629D01*
X040026Y025678D01*
X040173Y025678D01*
X040303Y025776D02*
X040303Y025481D01*
X040303Y025579D02*
X040450Y025481D01*
X040303Y025579D02*
X040450Y025678D01*
X039847Y025629D02*
X039847Y025481D01*
X039700Y025481D01*
X039650Y025530D01*
X039700Y025579D01*
X039847Y025579D01*
X039847Y025629D02*
X039798Y025678D01*
X039700Y025678D01*
X039521Y025776D02*
X039422Y025776D01*
X039471Y025776D02*
X039471Y025530D01*
X039422Y025481D01*
X039373Y025481D01*
X039324Y025530D01*
X038879Y025481D02*
X038830Y025530D01*
X038830Y025727D01*
X038879Y025678D02*
X038780Y025678D01*
X038651Y025678D02*
X038651Y025481D01*
X038503Y025481D01*
X038454Y025530D01*
X038454Y025678D01*
X038324Y025629D02*
X038324Y025530D01*
X038275Y025481D01*
X038128Y025481D01*
X038128Y025383D02*
X038128Y025678D01*
X038275Y025678D01*
X038324Y025629D01*
X038009Y025678D02*
X037910Y025678D01*
X037959Y025727D02*
X037959Y025530D01*
X038009Y025481D01*
X037781Y025481D02*
X037781Y025678D01*
X037781Y025481D02*
X037633Y025481D01*
X037584Y025530D01*
X037584Y025678D01*
X037454Y025727D02*
X037405Y025776D01*
X037307Y025776D01*
X037258Y025727D01*
X037258Y025530D01*
X037307Y025481D01*
X037405Y025481D01*
X037454Y025530D01*
X037454Y025727D01*
X039715Y026190D02*
X039715Y027990D01*
X039717Y028007D01*
X039721Y028024D01*
X039728Y028040D01*
X039738Y028054D01*
X039751Y028067D01*
X039765Y028077D01*
X039781Y028084D01*
X039798Y028088D01*
X039815Y028090D01*
X042515Y028090D01*
X042532Y028088D01*
X042549Y028084D01*
X042565Y028077D01*
X042579Y028067D01*
X042592Y028054D01*
X042602Y028040D01*
X042609Y028024D01*
X042613Y028007D01*
X042615Y027990D01*
X042615Y026190D01*
X042613Y026173D01*
X042609Y026156D01*
X042602Y026140D01*
X042592Y026126D01*
X042579Y026113D01*
X042565Y026103D01*
X042549Y026096D01*
X042532Y026092D01*
X042515Y026090D01*
X039815Y026090D01*
X039798Y026092D01*
X039781Y026096D01*
X039765Y026103D01*
X039751Y026113D01*
X039738Y026126D01*
X039728Y026140D01*
X039721Y026156D01*
X039717Y026173D01*
X039715Y026190D01*
X040565Y027090D02*
X041045Y027090D01*
X041295Y027090D02*
X041765Y027090D01*
X043493Y027036D02*
X043493Y026839D01*
X043542Y026790D01*
X043640Y026790D01*
X043689Y026839D01*
X043689Y026938D01*
X043591Y026938D01*
X043689Y027036D02*
X043640Y027085D01*
X043542Y027085D01*
X043493Y027036D01*
X043868Y026987D02*
X043966Y026987D01*
X044015Y026938D01*
X044015Y026790D01*
X043868Y026790D01*
X043819Y026839D01*
X043868Y026889D01*
X044015Y026889D01*
X044145Y026987D02*
X044194Y026987D01*
X044194Y026790D01*
X044145Y026790D02*
X044243Y026790D01*
X044363Y026790D02*
X044363Y026987D01*
X044510Y026987D01*
X044559Y026938D01*
X044559Y026790D01*
X044194Y027085D02*
X044194Y027134D01*
X044027Y024853D02*
X043027Y024853D01*
X043010Y024851D01*
X042993Y024847D01*
X042977Y024840D01*
X042963Y024830D01*
X042950Y024817D01*
X042940Y024803D01*
X042933Y024787D01*
X042929Y024770D01*
X042927Y024753D01*
X042927Y024503D01*
X042977Y024453D01*
X042977Y021853D01*
X042927Y021803D01*
X042927Y021553D01*
X042929Y021536D01*
X042933Y021519D01*
X042940Y021503D01*
X042950Y021489D01*
X042963Y021476D01*
X042977Y021466D01*
X042993Y021459D01*
X043010Y021455D01*
X043027Y021453D01*
X044027Y021453D01*
X044044Y021455D01*
X044061Y021459D01*
X044077Y021466D01*
X044091Y021476D01*
X044104Y021489D01*
X044114Y021503D01*
X044121Y021519D01*
X044125Y021536D01*
X044127Y021553D01*
X044127Y021803D01*
X044077Y021853D01*
X044077Y024453D01*
X044127Y024503D01*
X044127Y024753D01*
X044125Y024770D01*
X044121Y024787D01*
X044114Y024803D01*
X044104Y024817D01*
X044091Y024830D01*
X044077Y024840D01*
X044061Y024847D01*
X044044Y024851D01*
X044027Y024853D01*
X044305Y024753D02*
X044305Y024503D01*
X044355Y024453D01*
X044355Y021853D01*
X044305Y021803D01*
X044305Y021553D01*
X044307Y021536D01*
X044311Y021519D01*
X044318Y021503D01*
X044328Y021489D01*
X044341Y021476D01*
X044355Y021466D01*
X044371Y021459D01*
X044388Y021455D01*
X044405Y021453D01*
X045405Y021453D01*
X045422Y021455D01*
X045439Y021459D01*
X045455Y021466D01*
X045469Y021476D01*
X045482Y021489D01*
X045492Y021503D01*
X045499Y021519D01*
X045503Y021536D01*
X045505Y021553D01*
X045505Y021803D01*
X045455Y021853D01*
X045455Y024453D01*
X045505Y024503D01*
X045505Y024753D01*
X045503Y024770D01*
X045499Y024787D01*
X045492Y024803D01*
X045482Y024817D01*
X045469Y024830D01*
X045455Y024840D01*
X045439Y024847D01*
X045422Y024851D01*
X045405Y024853D01*
X044405Y024853D01*
X044388Y024851D01*
X044371Y024847D01*
X044355Y024840D01*
X044341Y024830D01*
X044328Y024817D01*
X044318Y024803D01*
X044311Y024787D01*
X044307Y024770D01*
X044305Y024753D01*
X045683Y024753D02*
X045683Y024503D01*
X045733Y024453D01*
X045733Y021853D01*
X045683Y021803D01*
X045683Y021553D01*
X045685Y021536D01*
X045689Y021519D01*
X045696Y021503D01*
X045706Y021489D01*
X045719Y021476D01*
X045733Y021466D01*
X045749Y021459D01*
X045766Y021455D01*
X045783Y021453D01*
X046783Y021453D01*
X046800Y021455D01*
X046817Y021459D01*
X046833Y021466D01*
X046847Y021476D01*
X046860Y021489D01*
X046870Y021503D01*
X046877Y021519D01*
X046881Y021536D01*
X046883Y021553D01*
X046883Y021803D01*
X046833Y021853D01*
X046833Y024453D01*
X046883Y024503D01*
X046883Y024753D01*
X046881Y024770D01*
X046877Y024787D01*
X046870Y024803D01*
X046860Y024817D01*
X046847Y024830D01*
X046833Y024840D01*
X046817Y024847D01*
X046800Y024851D01*
X046783Y024853D01*
X045783Y024853D01*
X045766Y024851D01*
X045749Y024847D01*
X045733Y024840D01*
X045719Y024830D01*
X045706Y024817D01*
X045696Y024803D01*
X045689Y024787D01*
X045685Y024770D01*
X045683Y024753D01*
X042749Y024753D02*
X042749Y024503D01*
X042699Y024453D01*
X042699Y021853D01*
X042749Y021803D01*
X042749Y021553D01*
X042747Y021536D01*
X042743Y021519D01*
X042736Y021503D01*
X042726Y021489D01*
X042713Y021476D01*
X042699Y021466D01*
X042683Y021459D01*
X042666Y021455D01*
X042649Y021453D01*
X041649Y021453D01*
X041632Y021455D01*
X041615Y021459D01*
X041599Y021466D01*
X041585Y021476D01*
X041572Y021489D01*
X041562Y021503D01*
X041555Y021519D01*
X041551Y021536D01*
X041549Y021553D01*
X041549Y021803D01*
X041599Y021853D01*
X041599Y024453D01*
X041549Y024503D01*
X041549Y024753D01*
X041551Y024770D01*
X041555Y024787D01*
X041562Y024803D01*
X041572Y024817D01*
X041585Y024830D01*
X041599Y024840D01*
X041615Y024847D01*
X041632Y024851D01*
X041649Y024853D01*
X042649Y024853D01*
X042666Y024851D01*
X042683Y024847D01*
X042699Y024840D01*
X042713Y024830D01*
X042726Y024817D01*
X042736Y024803D01*
X042743Y024787D01*
X042747Y024770D01*
X042749Y024753D01*
X037247Y021714D02*
X037247Y016914D01*
X037245Y016888D01*
X037240Y016862D01*
X037232Y016837D01*
X037220Y016814D01*
X037206Y016792D01*
X037188Y016773D01*
X037169Y016755D01*
X037147Y016741D01*
X037124Y016729D01*
X037099Y016721D01*
X037073Y016716D01*
X037047Y016714D01*
X035047Y016714D01*
X035021Y016716D01*
X034995Y016721D01*
X034970Y016729D01*
X034947Y016741D01*
X034925Y016755D01*
X034906Y016773D01*
X034888Y016792D01*
X034874Y016814D01*
X034862Y016837D01*
X034854Y016862D01*
X034849Y016888D01*
X034847Y016914D01*
X034847Y021714D01*
X034685Y021714D02*
X034685Y016914D01*
X034683Y016888D01*
X034678Y016862D01*
X034670Y016837D01*
X034658Y016814D01*
X034644Y016792D01*
X034626Y016773D01*
X034607Y016755D01*
X034585Y016741D01*
X034562Y016729D01*
X034537Y016721D01*
X034511Y016716D01*
X034485Y016714D01*
X032885Y016714D01*
X032859Y016716D01*
X032833Y016721D01*
X032808Y016729D01*
X032785Y016741D01*
X032763Y016755D01*
X032744Y016773D01*
X032726Y016792D01*
X032712Y016814D01*
X032700Y016837D01*
X032692Y016862D01*
X032687Y016888D01*
X032685Y016914D01*
X032685Y021714D01*
X032522Y021714D02*
X032522Y016914D01*
X032520Y016888D01*
X032515Y016862D01*
X032507Y016837D01*
X032495Y016814D01*
X032481Y016792D01*
X032463Y016773D01*
X032444Y016755D01*
X032422Y016741D01*
X032399Y016729D01*
X032374Y016721D01*
X032348Y016716D01*
X032322Y016714D01*
X030322Y016714D01*
X030296Y016716D01*
X030270Y016721D01*
X030245Y016729D01*
X030222Y016741D01*
X030200Y016755D01*
X030181Y016773D01*
X030163Y016792D01*
X030149Y016814D01*
X030137Y016837D01*
X030129Y016862D01*
X030124Y016888D01*
X030122Y016914D01*
X030122Y021714D01*
X030124Y021740D01*
X030129Y021766D01*
X030137Y021791D01*
X030149Y021814D01*
X030163Y021836D01*
X030181Y021855D01*
X030200Y021873D01*
X030222Y021887D01*
X030245Y021899D01*
X030270Y021907D01*
X030296Y021912D01*
X030322Y021914D01*
X032322Y021914D01*
X032348Y021912D01*
X032374Y021907D01*
X032399Y021899D01*
X032422Y021887D01*
X032444Y021873D01*
X032463Y021855D01*
X032481Y021836D01*
X032495Y021814D01*
X032507Y021791D01*
X032515Y021766D01*
X032520Y021740D01*
X032522Y021714D01*
X032685Y021714D02*
X032687Y021740D01*
X032692Y021766D01*
X032700Y021791D01*
X032712Y021814D01*
X032726Y021836D01*
X032744Y021855D01*
X032763Y021873D01*
X032785Y021887D01*
X032808Y021899D01*
X032833Y021907D01*
X032859Y021912D01*
X032885Y021914D01*
X034485Y021914D01*
X034511Y021912D01*
X034537Y021907D01*
X034562Y021899D01*
X034585Y021887D01*
X034607Y021873D01*
X034626Y021855D01*
X034644Y021836D01*
X034658Y021814D01*
X034670Y021791D01*
X034678Y021766D01*
X034683Y021740D01*
X034685Y021714D01*
X034847Y021714D02*
X034849Y021740D01*
X034854Y021766D01*
X034862Y021791D01*
X034874Y021814D01*
X034888Y021836D01*
X034906Y021855D01*
X034925Y021873D01*
X034947Y021887D01*
X034970Y021899D01*
X034995Y021907D01*
X035021Y021912D01*
X035047Y021914D01*
X037047Y021914D01*
X037073Y021912D01*
X037099Y021907D01*
X037124Y021899D01*
X037147Y021887D01*
X037169Y021873D01*
X037188Y021855D01*
X037206Y021836D01*
X037220Y021814D01*
X037232Y021791D01*
X037240Y021766D01*
X037245Y021740D01*
X037247Y021714D01*
X036047Y020814D02*
X036047Y018414D01*
X036047Y018064D02*
X036047Y017814D01*
X037406Y017581D02*
X037406Y012781D01*
X037408Y012755D01*
X037413Y012729D01*
X037421Y012704D01*
X037433Y012681D01*
X037447Y012659D01*
X037465Y012640D01*
X037484Y012622D01*
X037506Y012608D01*
X037529Y012596D01*
X037554Y012588D01*
X037580Y012583D01*
X037606Y012581D01*
X039606Y012581D01*
X039632Y012583D01*
X039658Y012588D01*
X039683Y012596D01*
X039706Y012608D01*
X039728Y012622D01*
X039747Y012640D01*
X039765Y012659D01*
X039779Y012681D01*
X039791Y012704D01*
X039799Y012729D01*
X039804Y012755D01*
X039806Y012781D01*
X039806Y017581D01*
X039804Y017607D01*
X039799Y017633D01*
X039791Y017658D01*
X039779Y017681D01*
X039765Y017703D01*
X039747Y017722D01*
X039728Y017740D01*
X039706Y017754D01*
X039683Y017766D01*
X039658Y017774D01*
X039632Y017779D01*
X039606Y017781D01*
X037606Y017781D01*
X037580Y017779D01*
X037554Y017774D01*
X037529Y017766D01*
X037506Y017754D01*
X037484Y017740D01*
X037465Y017722D01*
X037447Y017703D01*
X037433Y017681D01*
X037421Y017658D01*
X037413Y017633D01*
X037408Y017607D01*
X037406Y017581D01*
X037803Y018722D02*
X037803Y018922D01*
X037703Y018822D02*
X037903Y018822D01*
X038903Y018372D02*
X038934Y018416D01*
X038961Y018462D01*
X038985Y018510D01*
X039006Y018560D01*
X039023Y018610D01*
X039036Y018662D01*
X039045Y018715D01*
X039051Y018768D01*
X039053Y018822D01*
X039051Y018876D01*
X039045Y018929D01*
X039036Y018982D01*
X039023Y019034D01*
X039006Y019084D01*
X038985Y019134D01*
X038961Y019182D01*
X038934Y019228D01*
X038903Y019272D01*
X038869Y019314D01*
X038833Y019353D01*
X038794Y019389D01*
X038752Y019423D01*
X038708Y019453D01*
X038662Y019481D01*
X038614Y019504D01*
X038565Y019525D01*
X038514Y019542D01*
X038462Y019555D01*
X038409Y019564D01*
X038356Y019570D01*
X038303Y019572D01*
X038249Y019570D01*
X038196Y019564D01*
X038143Y019555D01*
X038091Y019542D01*
X038041Y019525D01*
X037991Y019504D01*
X037943Y019480D01*
X037897Y019453D01*
X037853Y019422D01*
X037812Y019389D01*
X037773Y019352D01*
X037736Y019313D01*
X037702Y019271D01*
X037672Y019227D01*
X037645Y019181D01*
X037621Y019133D01*
X037600Y019084D01*
X037583Y019033D01*
X037570Y018981D01*
X037561Y018929D01*
X037555Y018875D01*
X037553Y018822D01*
X037555Y018769D01*
X037561Y018715D01*
X037570Y018663D01*
X037583Y018611D01*
X037600Y018560D01*
X037621Y018511D01*
X037645Y018463D01*
X037672Y018417D01*
X037702Y018373D01*
X037736Y018331D01*
X037773Y018292D01*
X037812Y018255D01*
X037853Y018222D01*
X037897Y018191D01*
X037943Y018164D01*
X037991Y018140D01*
X038041Y018119D01*
X038091Y018102D01*
X038143Y018089D01*
X038196Y018080D01*
X038249Y018074D01*
X038303Y018072D01*
X038356Y018074D01*
X038409Y018080D01*
X038462Y018089D01*
X038514Y018102D01*
X038565Y018119D01*
X038614Y018140D01*
X038662Y018163D01*
X038708Y018191D01*
X038752Y018221D01*
X038794Y018255D01*
X038833Y018291D01*
X038869Y018330D01*
X038903Y018372D01*
X038606Y016681D02*
X038606Y016431D01*
X038606Y016081D02*
X038606Y013681D01*
X038227Y012421D02*
X038177Y012371D01*
X042077Y012371D01*
X042027Y012421D01*
X042027Y012401D01*
X038227Y012401D01*
X038227Y012421D02*
X042027Y012421D01*
X042077Y012371D02*
X042127Y012321D01*
X042127Y012301D01*
X042277Y012301D01*
X042277Y012321D01*
X042327Y012371D01*
X042577Y012371D01*
X042527Y012421D01*
X042527Y012401D01*
X042377Y012401D01*
X042377Y012421D02*
X042527Y012421D01*
X042577Y012371D02*
X042627Y012321D01*
X042627Y010521D01*
X042277Y010521D01*
X042127Y010521D01*
X038127Y010521D01*
X038127Y012321D01*
X038177Y012371D01*
X038327Y011421D02*
X041127Y011421D01*
X041627Y011421D02*
X041627Y010921D01*
X041427Y010921D01*
X041427Y011921D01*
X041627Y011921D01*
X041627Y011421D01*
X041977Y011421D01*
X041877Y011171D02*
X041877Y010971D01*
X041977Y011071D02*
X041777Y011071D01*
X042127Y010621D02*
X042127Y012271D01*
X042277Y012271D01*
X042277Y012301D01*
X042277Y012321D02*
X042127Y012321D01*
X042127Y012301D02*
X042127Y012271D01*
X042277Y012271D02*
X042277Y010621D01*
X042127Y010621D01*
X042127Y010521D01*
X042027Y010421D01*
X038227Y010421D01*
X038127Y010521D01*
X036547Y011906D02*
X035547Y011906D01*
X035530Y011908D01*
X035513Y011912D01*
X035497Y011919D01*
X035483Y011929D01*
X035470Y011942D01*
X035460Y011956D01*
X035453Y011972D01*
X035449Y011989D01*
X035447Y012006D01*
X035447Y012256D01*
X035497Y012306D01*
X035497Y014906D01*
X035447Y014956D01*
X035447Y015206D01*
X035449Y015223D01*
X035453Y015240D01*
X035460Y015256D01*
X035470Y015270D01*
X035483Y015283D01*
X035497Y015293D01*
X035513Y015300D01*
X035530Y015304D01*
X035547Y015306D01*
X036547Y015306D01*
X036564Y015304D01*
X036581Y015300D01*
X036597Y015293D01*
X036611Y015283D01*
X036624Y015270D01*
X036634Y015256D01*
X036641Y015240D01*
X036645Y015223D01*
X036647Y015206D01*
X036647Y014956D01*
X036597Y014906D01*
X036597Y012306D01*
X036647Y012256D01*
X036647Y012006D01*
X036645Y011989D01*
X036641Y011972D01*
X036634Y011956D01*
X036624Y011942D01*
X036611Y011929D01*
X036597Y011919D01*
X036581Y011912D01*
X036564Y011908D01*
X036547Y011906D01*
X035269Y012006D02*
X035269Y012256D01*
X035219Y012306D01*
X035219Y014906D01*
X035269Y014956D01*
X035269Y015206D01*
X035267Y015223D01*
X035263Y015240D01*
X035256Y015256D01*
X035246Y015270D01*
X035233Y015283D01*
X035219Y015293D01*
X035203Y015300D01*
X035186Y015304D01*
X035169Y015306D01*
X034169Y015306D01*
X034152Y015304D01*
X034135Y015300D01*
X034119Y015293D01*
X034105Y015283D01*
X034092Y015270D01*
X034082Y015256D01*
X034075Y015240D01*
X034071Y015223D01*
X034069Y015206D01*
X034069Y014956D01*
X034119Y014906D01*
X034119Y012306D01*
X034069Y012256D01*
X034069Y012006D01*
X034071Y011989D01*
X034075Y011972D01*
X034082Y011956D01*
X034092Y011942D01*
X034105Y011929D01*
X034119Y011919D01*
X034135Y011912D01*
X034152Y011908D01*
X034169Y011906D01*
X035169Y011906D01*
X035186Y011908D01*
X035203Y011912D01*
X035219Y011919D01*
X035233Y011929D01*
X035246Y011942D01*
X035256Y011956D01*
X035263Y011972D01*
X035267Y011989D01*
X035269Y012006D01*
X033716Y010228D02*
X032716Y010228D01*
X030716Y010228D01*
X029716Y010228D01*
X029716Y014228D01*
X030716Y014228D01*
X031316Y014228D01*
X031318Y014189D01*
X031324Y014150D01*
X031333Y014112D01*
X031346Y014075D01*
X031363Y014039D01*
X031383Y014006D01*
X031407Y013974D01*
X031433Y013945D01*
X031462Y013919D01*
X031494Y013895D01*
X031527Y013875D01*
X031563Y013858D01*
X031600Y013845D01*
X031638Y013836D01*
X031677Y013830D01*
X031716Y013828D01*
X031755Y013830D01*
X031794Y013836D01*
X031832Y013845D01*
X031869Y013858D01*
X031905Y013875D01*
X031938Y013895D01*
X031970Y013919D01*
X031999Y013945D01*
X032025Y013974D01*
X032049Y014006D01*
X032069Y014039D01*
X032086Y014075D01*
X032099Y014112D01*
X032108Y014150D01*
X032114Y014189D01*
X032116Y014228D01*
X032716Y014228D01*
X032716Y010228D01*
X033716Y010228D02*
X033716Y014228D01*
X032716Y014228D01*
X030716Y014228D02*
X030716Y010228D01*
X028598Y010228D02*
X027598Y010228D01*
X025598Y010228D01*
X024598Y010228D01*
X024598Y014228D01*
X025598Y014228D01*
X026198Y014228D01*
X026200Y014189D01*
X026206Y014150D01*
X026215Y014112D01*
X026228Y014075D01*
X026245Y014039D01*
X026265Y014006D01*
X026289Y013974D01*
X026315Y013945D01*
X026344Y013919D01*
X026376Y013895D01*
X026409Y013875D01*
X026445Y013858D01*
X026482Y013845D01*
X026520Y013836D01*
X026559Y013830D01*
X026598Y013828D01*
X026637Y013830D01*
X026676Y013836D01*
X026714Y013845D01*
X026751Y013858D01*
X026787Y013875D01*
X026820Y013895D01*
X026852Y013919D01*
X026881Y013945D01*
X026907Y013974D01*
X026931Y014006D01*
X026951Y014039D01*
X026968Y014075D01*
X026981Y014112D01*
X026990Y014150D01*
X026996Y014189D01*
X026998Y014228D01*
X027598Y014228D01*
X027598Y010228D01*
X028598Y010228D02*
X028598Y014228D01*
X027598Y014228D01*
X025598Y014228D02*
X025598Y010228D01*
X023480Y010228D02*
X022480Y010228D01*
X020480Y010228D01*
X019480Y010228D01*
X019480Y014228D01*
X020480Y014228D01*
X021080Y014228D01*
X021082Y014189D01*
X021088Y014150D01*
X021097Y014112D01*
X021110Y014075D01*
X021127Y014039D01*
X021147Y014006D01*
X021171Y013974D01*
X021197Y013945D01*
X021226Y013919D01*
X021258Y013895D01*
X021291Y013875D01*
X021327Y013858D01*
X021364Y013845D01*
X021402Y013836D01*
X021441Y013830D01*
X021480Y013828D01*
X021519Y013830D01*
X021558Y013836D01*
X021596Y013845D01*
X021633Y013858D01*
X021669Y013875D01*
X021702Y013895D01*
X021734Y013919D01*
X021763Y013945D01*
X021789Y013974D01*
X021813Y014006D01*
X021833Y014039D01*
X021850Y014075D01*
X021863Y014112D01*
X021872Y014150D01*
X021878Y014189D01*
X021880Y014228D01*
X022480Y014228D01*
X022480Y010228D01*
X023480Y010228D02*
X023480Y014228D01*
X022480Y014228D01*
X020480Y014228D02*
X020480Y010228D01*
X020011Y015941D02*
X019011Y015941D01*
X018994Y015943D01*
X018977Y015947D01*
X018961Y015954D01*
X018947Y015964D01*
X018934Y015977D01*
X018924Y015991D01*
X018917Y016007D01*
X018913Y016024D01*
X018911Y016041D01*
X018911Y016291D01*
X018961Y016341D01*
X018961Y018941D01*
X018911Y018991D01*
X018911Y019241D01*
X018913Y019258D01*
X018917Y019275D01*
X018924Y019291D01*
X018934Y019305D01*
X018947Y019318D01*
X018961Y019328D01*
X018977Y019335D01*
X018994Y019339D01*
X019011Y019341D01*
X020011Y019341D01*
X020028Y019339D01*
X020045Y019335D01*
X020061Y019328D01*
X020075Y019318D01*
X020088Y019305D01*
X020098Y019291D01*
X020105Y019275D01*
X020109Y019258D01*
X020111Y019241D01*
X020111Y018991D01*
X020061Y018941D01*
X020061Y016341D01*
X020111Y016291D01*
X020111Y016041D01*
X020109Y016024D01*
X020105Y016007D01*
X020098Y015991D01*
X020088Y015977D01*
X020075Y015964D01*
X020061Y015954D01*
X020045Y015947D01*
X020028Y015943D01*
X020011Y015941D01*
X018635Y016041D02*
X018635Y016291D01*
X018585Y016341D01*
X018585Y018941D01*
X018635Y018991D01*
X018635Y019241D01*
X018633Y019258D01*
X018629Y019275D01*
X018622Y019291D01*
X018612Y019305D01*
X018599Y019318D01*
X018585Y019328D01*
X018569Y019335D01*
X018552Y019339D01*
X018535Y019341D01*
X017535Y019341D01*
X017518Y019339D01*
X017501Y019335D01*
X017485Y019328D01*
X017471Y019318D01*
X017458Y019305D01*
X017448Y019291D01*
X017441Y019275D01*
X017437Y019258D01*
X017435Y019241D01*
X017435Y018991D01*
X017485Y018941D01*
X017485Y016341D01*
X017435Y016291D01*
X017435Y016041D01*
X017437Y016024D01*
X017441Y016007D01*
X017448Y015991D01*
X017458Y015977D01*
X017471Y015964D01*
X017485Y015954D01*
X017501Y015947D01*
X017518Y015943D01*
X017535Y015941D01*
X018535Y015941D01*
X018552Y015943D01*
X018569Y015947D01*
X018585Y015954D01*
X018599Y015964D01*
X018612Y015977D01*
X018622Y015991D01*
X018629Y016007D01*
X018633Y016024D01*
X018635Y016041D01*
X021477Y017019D02*
X021877Y017019D01*
X021677Y016819D02*
X021677Y017219D01*
X024504Y019897D02*
X024504Y020897D01*
X024506Y020914D01*
X024510Y020931D01*
X024517Y020947D01*
X024527Y020961D01*
X024540Y020974D01*
X024554Y020984D01*
X024570Y020991D01*
X024587Y020995D01*
X024604Y020997D01*
X024854Y020997D01*
X024904Y020947D01*
X027504Y020947D01*
X027554Y020997D01*
X027804Y020997D01*
X027821Y020995D01*
X027838Y020991D01*
X027854Y020984D01*
X027868Y020974D01*
X027881Y020961D01*
X027891Y020947D01*
X027898Y020931D01*
X027902Y020914D01*
X027904Y020897D01*
X027904Y019897D01*
X027902Y019880D01*
X027898Y019863D01*
X027891Y019847D01*
X027881Y019833D01*
X027868Y019820D01*
X027854Y019810D01*
X027838Y019803D01*
X027821Y019799D01*
X027804Y019797D01*
X027554Y019797D01*
X027504Y019847D01*
X024904Y019847D01*
X024854Y019797D01*
X024604Y019797D01*
X024587Y019799D01*
X024570Y019803D01*
X024554Y019810D01*
X024540Y019820D01*
X024527Y019833D01*
X024517Y019847D01*
X024510Y019863D01*
X024506Y019880D01*
X024504Y019897D01*
X024604Y021175D02*
X024854Y021175D01*
X024904Y021225D01*
X027504Y021225D01*
X027554Y021175D01*
X027804Y021175D01*
X027821Y021177D01*
X027838Y021181D01*
X027854Y021188D01*
X027868Y021198D01*
X027881Y021211D01*
X027891Y021225D01*
X027898Y021241D01*
X027902Y021258D01*
X027904Y021275D01*
X027904Y022275D01*
X027902Y022292D01*
X027898Y022309D01*
X027891Y022325D01*
X027881Y022339D01*
X027868Y022352D01*
X027854Y022362D01*
X027838Y022369D01*
X027821Y022373D01*
X027804Y022375D01*
X027554Y022375D01*
X027504Y022325D01*
X024904Y022325D01*
X024854Y022375D01*
X024604Y022375D01*
X024587Y022373D01*
X024570Y022369D01*
X024554Y022362D01*
X024540Y022352D01*
X024527Y022339D01*
X024517Y022325D01*
X024510Y022309D01*
X024506Y022292D01*
X024504Y022275D01*
X024504Y021275D01*
X024506Y021258D01*
X024510Y021241D01*
X024517Y021225D01*
X024527Y021211D01*
X024540Y021198D01*
X024554Y021188D01*
X024570Y021181D01*
X024587Y021177D01*
X024604Y021175D01*
X022097Y020709D02*
X022097Y021709D01*
X022095Y021726D01*
X022091Y021743D01*
X022084Y021759D01*
X022074Y021773D01*
X022061Y021786D01*
X022047Y021796D01*
X022031Y021803D01*
X022014Y021807D01*
X021997Y021809D01*
X021747Y021809D01*
X021697Y021759D01*
X019097Y021759D01*
X019047Y021809D01*
X018797Y021809D01*
X018780Y021807D01*
X018763Y021803D01*
X018747Y021796D01*
X018733Y021786D01*
X018720Y021773D01*
X018710Y021759D01*
X018703Y021743D01*
X018699Y021726D01*
X018697Y021709D01*
X018697Y020709D01*
X018699Y020692D01*
X018703Y020675D01*
X018710Y020659D01*
X018720Y020645D01*
X018733Y020632D01*
X018747Y020622D01*
X018763Y020615D01*
X018780Y020611D01*
X018797Y020609D01*
X019047Y020609D01*
X019097Y020659D01*
X021697Y020659D01*
X021747Y020609D01*
X021997Y020609D01*
X022014Y020611D01*
X022031Y020615D01*
X022047Y020622D01*
X022061Y020632D01*
X022074Y020645D01*
X022084Y020659D01*
X022091Y020675D01*
X022095Y020692D01*
X022097Y020709D01*
X031322Y020814D02*
X031322Y018414D01*
X031322Y018064D02*
X031322Y017814D01*
X033685Y017814D02*
X033685Y020214D01*
X033685Y020564D02*
X033685Y020814D01*
X040066Y020041D02*
X040066Y015241D01*
X040068Y015215D01*
X040073Y015189D01*
X040081Y015164D01*
X040093Y015141D01*
X040107Y015119D01*
X040125Y015100D01*
X040144Y015082D01*
X040166Y015068D01*
X040189Y015056D01*
X040214Y015048D01*
X040240Y015043D01*
X040266Y015041D01*
X041866Y015041D01*
X041892Y015043D01*
X041918Y015048D01*
X041943Y015056D01*
X041966Y015068D01*
X041988Y015082D01*
X042007Y015100D01*
X042025Y015119D01*
X042039Y015141D01*
X042051Y015164D01*
X042059Y015189D01*
X042064Y015215D01*
X042066Y015241D01*
X042066Y020041D01*
X042209Y020061D02*
X042209Y015261D01*
X042211Y015235D01*
X042216Y015209D01*
X042224Y015184D01*
X042236Y015161D01*
X042250Y015139D01*
X042268Y015120D01*
X042287Y015102D01*
X042309Y015088D01*
X042332Y015076D01*
X042357Y015068D01*
X042383Y015063D01*
X042409Y015061D01*
X044409Y015061D01*
X044435Y015063D01*
X044461Y015068D01*
X044486Y015076D01*
X044509Y015088D01*
X044531Y015102D01*
X044550Y015120D01*
X044568Y015139D01*
X044582Y015161D01*
X044594Y015184D01*
X044602Y015209D01*
X044607Y015235D01*
X044609Y015261D01*
X044609Y020061D01*
X044689Y020041D02*
X044689Y015241D01*
X044691Y015215D01*
X044696Y015189D01*
X044704Y015164D01*
X044716Y015141D01*
X044730Y015119D01*
X044748Y015100D01*
X044767Y015082D01*
X044789Y015068D01*
X044812Y015056D01*
X044837Y015048D01*
X044863Y015043D01*
X044889Y015041D01*
X046889Y015041D01*
X046915Y015043D01*
X046941Y015048D01*
X046966Y015056D01*
X046989Y015068D01*
X047011Y015082D01*
X047030Y015100D01*
X047048Y015119D01*
X047062Y015141D01*
X047074Y015164D01*
X047082Y015189D01*
X047087Y015215D01*
X047089Y015241D01*
X047089Y020041D01*
X047087Y020067D01*
X047082Y020093D01*
X047074Y020118D01*
X047062Y020141D01*
X047048Y020163D01*
X047030Y020182D01*
X047011Y020200D01*
X046989Y020214D01*
X046966Y020226D01*
X046941Y020234D01*
X046915Y020239D01*
X046889Y020241D01*
X044889Y020241D01*
X044863Y020239D01*
X044837Y020234D01*
X044812Y020226D01*
X044789Y020214D01*
X044767Y020200D01*
X044748Y020182D01*
X044730Y020163D01*
X044716Y020141D01*
X044704Y020118D01*
X044696Y020093D01*
X044691Y020067D01*
X044689Y020041D01*
X044609Y020061D02*
X044607Y020087D01*
X044602Y020113D01*
X044594Y020138D01*
X044582Y020161D01*
X044568Y020183D01*
X044550Y020202D01*
X044531Y020220D01*
X044509Y020234D01*
X044486Y020246D01*
X044461Y020254D01*
X044435Y020259D01*
X044409Y020261D01*
X042409Y020261D01*
X042383Y020259D01*
X042357Y020254D01*
X042332Y020246D01*
X042309Y020234D01*
X042287Y020220D01*
X042268Y020202D01*
X042250Y020183D01*
X042236Y020161D01*
X042224Y020138D01*
X042216Y020113D01*
X042211Y020087D01*
X042209Y020061D01*
X042066Y020041D02*
X042064Y020067D01*
X042059Y020093D01*
X042051Y020118D01*
X042039Y020141D01*
X042025Y020163D01*
X042007Y020182D01*
X041988Y020200D01*
X041966Y020214D01*
X041943Y020226D01*
X041918Y020234D01*
X041892Y020239D01*
X041866Y020241D01*
X040266Y020241D01*
X040240Y020239D01*
X040214Y020234D01*
X040189Y020226D01*
X040166Y020214D01*
X040144Y020200D01*
X040125Y020182D01*
X040107Y020163D01*
X040093Y020141D01*
X040081Y020118D01*
X040073Y020093D01*
X040068Y020067D01*
X040066Y020041D01*
X041066Y019141D02*
X041066Y016741D01*
X041066Y016391D02*
X041066Y016141D01*
X041377Y014901D02*
X041327Y014851D01*
X045227Y014851D01*
X045177Y014901D01*
X045177Y014881D01*
X041377Y014881D01*
X041377Y014901D02*
X045177Y014901D01*
X045227Y014851D02*
X045277Y014801D01*
X045277Y014781D01*
X045427Y014781D01*
X045427Y014801D01*
X045477Y014851D01*
X045727Y014851D01*
X045677Y014901D01*
X045677Y014881D01*
X045527Y014881D01*
X045527Y014901D02*
X045677Y014901D01*
X045727Y014851D02*
X045777Y014801D01*
X045777Y013001D01*
X045427Y013001D01*
X045277Y013001D01*
X041277Y013001D01*
X041277Y014801D01*
X041327Y014851D01*
X041477Y013901D02*
X044277Y013901D01*
X044777Y013901D02*
X044777Y013401D01*
X044577Y013401D01*
X044577Y014401D01*
X044777Y014401D01*
X044777Y013901D01*
X045127Y013901D01*
X045027Y013651D02*
X045027Y013451D01*
X045127Y013551D02*
X044927Y013551D01*
X045277Y013101D02*
X045277Y014751D01*
X045427Y014751D01*
X045427Y014781D01*
X045427Y014801D02*
X045277Y014801D01*
X045277Y014781D02*
X045277Y014751D01*
X045427Y014751D02*
X045427Y013101D01*
X045277Y013101D01*
X045277Y013001D01*
X045177Y012901D01*
X041377Y012901D01*
X041277Y013001D01*
X042327Y012371D02*
X042377Y012421D01*
X043592Y012594D02*
X043642Y012545D01*
X043740Y012545D01*
X043789Y012594D01*
X043789Y012644D01*
X043740Y012693D01*
X043642Y012693D01*
X043592Y012742D01*
X043592Y012791D01*
X043642Y012840D01*
X043740Y012840D01*
X043789Y012791D01*
X043919Y012693D02*
X043919Y012594D01*
X043968Y012545D01*
X044066Y012545D01*
X044115Y012594D01*
X044115Y012693D01*
X044066Y012742D01*
X043968Y012742D01*
X043919Y012693D01*
X044245Y012693D02*
X044343Y012693D01*
X044294Y012791D02*
X044294Y012545D01*
X044512Y012594D02*
X044512Y012791D01*
X044561Y012742D02*
X044462Y012742D01*
X044343Y012840D02*
X044294Y012791D01*
X044512Y012594D02*
X044561Y012545D01*
X045006Y012594D02*
X045055Y012545D01*
X045154Y012545D01*
X045203Y012594D01*
X045333Y012545D02*
X045431Y012545D01*
X045382Y012545D02*
X045382Y012840D01*
X045333Y012840D01*
X045203Y012791D02*
X045154Y012840D01*
X045055Y012840D01*
X045006Y012791D01*
X045006Y012594D01*
X045550Y012545D02*
X045648Y012545D01*
X045599Y012545D02*
X045599Y012742D01*
X045550Y012742D01*
X045599Y012840D02*
X045599Y012889D01*
X045527Y012901D02*
X045677Y012901D01*
X045777Y013001D01*
X045768Y012742D02*
X045915Y012742D01*
X045964Y012693D01*
X045964Y012594D01*
X045915Y012545D01*
X045768Y012545D01*
X045768Y012447D02*
X045768Y012742D01*
X045527Y012901D02*
X045427Y013001D01*
X045427Y013101D01*
X046094Y012742D02*
X046241Y012742D01*
X046290Y012693D01*
X046290Y012594D01*
X046241Y012545D01*
X046094Y012545D01*
X046094Y012447D02*
X046094Y012742D01*
X046420Y012742D02*
X046469Y012742D01*
X046469Y012545D01*
X046420Y012545D02*
X046518Y012545D01*
X046638Y012545D02*
X046638Y012742D01*
X046785Y012742D01*
X046834Y012693D01*
X046834Y012545D01*
X046964Y012594D02*
X047013Y012545D01*
X047160Y012545D01*
X047160Y012496D02*
X047160Y012742D01*
X047013Y012742D01*
X046964Y012693D01*
X046964Y012594D01*
X047062Y012447D02*
X047111Y012447D01*
X047160Y012496D01*
X046469Y012840D02*
X046469Y012889D01*
X045477Y014851D02*
X045527Y014901D01*
X045889Y016141D02*
X045889Y018541D01*
X045889Y018891D02*
X045889Y019141D01*
X043409Y019161D02*
X043409Y016761D01*
X043409Y016411D02*
X043409Y016161D01*
X042277Y010621D02*
X042277Y010521D01*
X042377Y010421D01*
X042527Y010421D01*
X042627Y010521D01*
X050311Y008966D02*
X050311Y008466D01*
X050561Y008216D01*
X050311Y007966D01*
X050311Y007466D01*
X050561Y007216D01*
X050311Y006966D01*
X050311Y006466D01*
X050561Y006216D01*
X050311Y005966D01*
X050311Y005466D01*
X050561Y005216D01*
X050311Y004966D01*
X050311Y004466D01*
X050561Y004216D01*
X051061Y004216D01*
X051311Y004466D01*
X051311Y004966D01*
X051061Y005216D01*
X051311Y005466D01*
X051311Y005966D01*
X051061Y006216D01*
X051311Y006466D01*
X051311Y006966D01*
X051061Y007216D01*
X051311Y007466D01*
X051311Y007966D01*
X051061Y008216D01*
X051311Y008466D01*
X051311Y008966D01*
X051061Y009216D01*
X050561Y009216D01*
X050311Y008966D01*
X011725Y025518D02*
X011528Y025518D01*
X011528Y025469D02*
X011528Y025568D01*
X011577Y025617D01*
X011676Y025617D01*
X011725Y025568D01*
X011725Y025518D01*
X011676Y025420D02*
X011577Y025420D01*
X011528Y025469D01*
X011398Y025420D02*
X011398Y025568D01*
X011349Y025617D01*
X011300Y025568D01*
X011300Y025420D01*
X011202Y025420D02*
X011202Y025617D01*
X011251Y025617D01*
X011300Y025568D01*
X011072Y025617D02*
X011072Y025420D01*
X010925Y025420D01*
X010876Y025469D01*
X010876Y025617D01*
X010707Y025715D02*
X010707Y025420D01*
X010658Y025420D02*
X010756Y025420D01*
X010528Y025469D02*
X010528Y025568D01*
X010479Y025617D01*
X010381Y025617D01*
X010332Y025568D01*
X010332Y025469D01*
X010381Y025420D01*
X010479Y025420D01*
X010528Y025469D01*
X010658Y025715D02*
X010707Y025715D01*
X010202Y025715D02*
X010202Y025518D01*
X010104Y025420D01*
X010006Y025518D01*
X010006Y025715D01*
X010850Y023705D02*
X010850Y022905D01*
X010850Y022555D02*
X010850Y016105D01*
X004337Y012828D02*
X004337Y012533D01*
X002885Y015165D02*
X002385Y015165D01*
X001635Y015915D01*
X001385Y016165D01*
X001385Y016665D01*
X001785Y016265D01*
X002885Y015165D01*
X003385Y015665D01*
X003385Y016165D01*
X003135Y016415D01*
X002385Y017165D01*
X001885Y017165D01*
X001385Y016665D01*
X001885Y017165D02*
X002985Y016065D01*
X003385Y015665D01*
X003107Y017377D02*
X001467Y017377D01*
X001467Y018102D01*
X003107Y018102D01*
X003107Y017377D01*
X002887Y017740D02*
X002287Y017740D01*
X002287Y017490D01*
X002287Y017740D02*
X002287Y017990D01*
X002287Y017740D02*
X002037Y017740D01*
X002287Y017740D02*
X002687Y017990D01*
X002687Y017490D01*
X002287Y017740D01*
X001335Y018418D02*
X003435Y018418D01*
X003474Y018420D01*
X003513Y018426D01*
X003551Y018435D01*
X003588Y018448D01*
X003624Y018465D01*
X003657Y018485D01*
X003689Y018509D01*
X003718Y018535D01*
X003744Y018564D01*
X003768Y018596D01*
X003788Y018629D01*
X003805Y018665D01*
X003818Y018702D01*
X003827Y018740D01*
X003833Y018779D01*
X003835Y018818D01*
X003835Y019418D01*
X003833Y019457D01*
X003827Y019496D01*
X003818Y019534D01*
X003805Y019571D01*
X003788Y019607D01*
X003768Y019640D01*
X003744Y019672D01*
X003718Y019701D01*
X003689Y019727D01*
X003657Y019751D01*
X003624Y019771D01*
X003588Y019788D01*
X003551Y019801D01*
X003513Y019810D01*
X003474Y019816D01*
X003435Y019818D01*
X001335Y019818D01*
X001296Y019816D01*
X001257Y019810D01*
X001219Y019801D01*
X001182Y019788D01*
X001146Y019771D01*
X001113Y019751D01*
X001081Y019727D01*
X001052Y019701D01*
X001026Y019672D01*
X001002Y019640D01*
X000982Y019607D01*
X000965Y019571D01*
X000952Y019534D01*
X000943Y019496D01*
X000937Y019457D01*
X000935Y019418D01*
X000935Y018818D01*
X000937Y018779D01*
X000943Y018740D01*
X000952Y018702D01*
X000965Y018665D01*
X000982Y018629D01*
X001002Y018596D01*
X001026Y018564D01*
X001052Y018535D01*
X001081Y018509D01*
X001113Y018485D01*
X001146Y018465D01*
X001182Y018448D01*
X001219Y018435D01*
X001257Y018426D01*
X001296Y018420D01*
X001335Y018418D01*
D17*
X007661Y013803D02*
X008161Y013803D01*
X012161Y013803D02*
X012661Y013803D01*
X013566Y013803D02*
X014066Y013803D01*
X018066Y013803D02*
X018566Y013803D01*
X018035Y015141D02*
X018035Y015641D01*
X019511Y015641D02*
X019511Y015141D01*
X021677Y018019D02*
X021677Y018619D01*
X021677Y018669D02*
X021677Y019389D01*
X021677Y019469D02*
X021677Y020019D01*
X022397Y021209D02*
X022897Y021209D01*
X023704Y021775D02*
X024204Y021775D01*
X023645Y022523D02*
X023645Y023023D01*
X022267Y023023D02*
X022267Y022523D01*
X020889Y022523D02*
X020889Y023023D01*
X019511Y023023D02*
X019511Y022523D01*
X018133Y022523D02*
X018133Y023023D01*
X017897Y021209D02*
X018397Y021209D01*
X018035Y020141D02*
X018035Y019641D01*
X019511Y019641D02*
X019511Y020141D01*
X023704Y020397D02*
X024204Y020397D01*
X028204Y020397D02*
X028704Y020397D01*
X028704Y021775D02*
X028204Y021775D01*
X028370Y022523D02*
X028370Y023023D01*
X029748Y023023D02*
X029748Y022523D01*
X031126Y022523D02*
X031126Y023023D01*
X032503Y023023D02*
X032503Y022523D01*
X033881Y022523D02*
X033881Y023023D01*
X035259Y023023D02*
X035259Y022523D01*
X036637Y022523D02*
X036637Y023023D01*
X038015Y024563D02*
X038015Y025063D01*
X039393Y025063D02*
X039393Y024563D01*
X040771Y025153D02*
X040771Y025653D01*
X042149Y025653D02*
X042149Y025153D01*
X043527Y025153D02*
X043527Y025653D01*
X044905Y025653D02*
X044905Y025153D01*
X046283Y025153D02*
X046283Y025653D01*
X050196Y026426D02*
X050198Y026439D01*
X050203Y026451D01*
X050212Y026462D01*
X050222Y026470D01*
X050235Y026474D01*
X050248Y026475D01*
X050261Y026472D01*
X050273Y026466D01*
X050283Y026457D01*
X050290Y026446D01*
X050294Y026433D01*
X050294Y026419D01*
X050290Y026406D01*
X050283Y026395D01*
X050273Y026386D01*
X050261Y026380D01*
X050248Y026377D01*
X050235Y026378D01*
X050222Y026382D01*
X050212Y026390D01*
X050203Y026401D01*
X050198Y026413D01*
X050196Y026426D01*
X050196Y027016D02*
X050198Y027029D01*
X050203Y027041D01*
X050212Y027052D01*
X050222Y027060D01*
X050235Y027064D01*
X050248Y027065D01*
X050261Y027062D01*
X050273Y027056D01*
X050283Y027047D01*
X050290Y027036D01*
X050294Y027023D01*
X050294Y027009D01*
X050290Y026996D01*
X050283Y026985D01*
X050273Y026976D01*
X050261Y026970D01*
X050248Y026967D01*
X050235Y026968D01*
X050222Y026972D01*
X050212Y026980D01*
X050203Y026991D01*
X050198Y027003D01*
X050196Y027016D01*
X050196Y027607D02*
X050198Y027620D01*
X050203Y027632D01*
X050212Y027643D01*
X050222Y027651D01*
X050235Y027655D01*
X050248Y027656D01*
X050261Y027653D01*
X050273Y027647D01*
X050283Y027638D01*
X050290Y027627D01*
X050294Y027614D01*
X050294Y027600D01*
X050290Y027587D01*
X050283Y027576D01*
X050273Y027567D01*
X050261Y027561D01*
X050248Y027558D01*
X050235Y027559D01*
X050222Y027563D01*
X050212Y027571D01*
X050203Y027582D01*
X050198Y027594D01*
X050196Y027607D01*
X050196Y028197D02*
X050198Y028210D01*
X050203Y028222D01*
X050212Y028233D01*
X050222Y028241D01*
X050235Y028245D01*
X050248Y028246D01*
X050261Y028243D01*
X050273Y028237D01*
X050283Y028228D01*
X050290Y028217D01*
X050294Y028204D01*
X050294Y028190D01*
X050290Y028177D01*
X050283Y028166D01*
X050273Y028157D01*
X050261Y028151D01*
X050248Y028148D01*
X050235Y028149D01*
X050222Y028153D01*
X050212Y028161D01*
X050203Y028172D01*
X050198Y028184D01*
X050196Y028197D01*
X050196Y028788D02*
X050198Y028801D01*
X050203Y028813D01*
X050212Y028824D01*
X050222Y028832D01*
X050235Y028836D01*
X050248Y028837D01*
X050261Y028834D01*
X050273Y028828D01*
X050283Y028819D01*
X050290Y028808D01*
X050294Y028795D01*
X050294Y028781D01*
X050290Y028768D01*
X050283Y028757D01*
X050273Y028748D01*
X050261Y028742D01*
X050248Y028739D01*
X050235Y028740D01*
X050222Y028744D01*
X050212Y028752D01*
X050203Y028763D01*
X050198Y028775D01*
X050196Y028788D01*
X050196Y029378D02*
X050198Y029391D01*
X050203Y029403D01*
X050212Y029414D01*
X050222Y029422D01*
X050235Y029426D01*
X050248Y029427D01*
X050261Y029424D01*
X050273Y029418D01*
X050283Y029409D01*
X050290Y029398D01*
X050294Y029385D01*
X050294Y029371D01*
X050290Y029358D01*
X050283Y029347D01*
X050273Y029338D01*
X050261Y029332D01*
X050248Y029329D01*
X050235Y029330D01*
X050222Y029334D01*
X050212Y029342D01*
X050203Y029353D01*
X050198Y029365D01*
X050196Y029378D01*
X050196Y029969D02*
X050198Y029982D01*
X050203Y029994D01*
X050212Y030005D01*
X050222Y030013D01*
X050235Y030017D01*
X050248Y030018D01*
X050261Y030015D01*
X050273Y030009D01*
X050283Y030000D01*
X050290Y029989D01*
X050294Y029976D01*
X050294Y029962D01*
X050290Y029949D01*
X050283Y029938D01*
X050273Y029929D01*
X050261Y029923D01*
X050248Y029920D01*
X050235Y029921D01*
X050222Y029925D01*
X050212Y029933D01*
X050203Y029944D01*
X050198Y029956D01*
X050196Y029969D01*
X050196Y030560D02*
X050198Y030573D01*
X050203Y030585D01*
X050212Y030596D01*
X050222Y030604D01*
X050235Y030608D01*
X050248Y030609D01*
X050261Y030606D01*
X050273Y030600D01*
X050283Y030591D01*
X050290Y030580D01*
X050294Y030567D01*
X050294Y030553D01*
X050290Y030540D01*
X050283Y030529D01*
X050273Y030520D01*
X050261Y030514D01*
X050248Y030511D01*
X050235Y030512D01*
X050222Y030516D01*
X050212Y030524D01*
X050203Y030535D01*
X050198Y030547D01*
X050196Y030560D01*
X053025Y030560D02*
X053027Y030573D01*
X053032Y030585D01*
X053041Y030596D01*
X053051Y030604D01*
X053064Y030608D01*
X053077Y030609D01*
X053090Y030606D01*
X053102Y030600D01*
X053112Y030591D01*
X053119Y030580D01*
X053123Y030567D01*
X053123Y030553D01*
X053119Y030540D01*
X053112Y030529D01*
X053102Y030520D01*
X053090Y030514D01*
X053077Y030511D01*
X053064Y030512D01*
X053051Y030516D01*
X053041Y030524D01*
X053032Y030535D01*
X053027Y030547D01*
X053025Y030560D01*
X053025Y029969D02*
X053027Y029982D01*
X053032Y029994D01*
X053041Y030005D01*
X053051Y030013D01*
X053064Y030017D01*
X053077Y030018D01*
X053090Y030015D01*
X053102Y030009D01*
X053112Y030000D01*
X053119Y029989D01*
X053123Y029976D01*
X053123Y029962D01*
X053119Y029949D01*
X053112Y029938D01*
X053102Y029929D01*
X053090Y029923D01*
X053077Y029920D01*
X053064Y029921D01*
X053051Y029925D01*
X053041Y029933D01*
X053032Y029944D01*
X053027Y029956D01*
X053025Y029969D01*
X053025Y029378D02*
X053027Y029391D01*
X053032Y029403D01*
X053041Y029414D01*
X053051Y029422D01*
X053064Y029426D01*
X053077Y029427D01*
X053090Y029424D01*
X053102Y029418D01*
X053112Y029409D01*
X053119Y029398D01*
X053123Y029385D01*
X053123Y029371D01*
X053119Y029358D01*
X053112Y029347D01*
X053102Y029338D01*
X053090Y029332D01*
X053077Y029329D01*
X053064Y029330D01*
X053051Y029334D01*
X053041Y029342D01*
X053032Y029353D01*
X053027Y029365D01*
X053025Y029378D01*
X053025Y028788D02*
X053027Y028801D01*
X053032Y028813D01*
X053041Y028824D01*
X053051Y028832D01*
X053064Y028836D01*
X053077Y028837D01*
X053090Y028834D01*
X053102Y028828D01*
X053112Y028819D01*
X053119Y028808D01*
X053123Y028795D01*
X053123Y028781D01*
X053119Y028768D01*
X053112Y028757D01*
X053102Y028748D01*
X053090Y028742D01*
X053077Y028739D01*
X053064Y028740D01*
X053051Y028744D01*
X053041Y028752D01*
X053032Y028763D01*
X053027Y028775D01*
X053025Y028788D01*
X053025Y028197D02*
X053027Y028210D01*
X053032Y028222D01*
X053041Y028233D01*
X053051Y028241D01*
X053064Y028245D01*
X053077Y028246D01*
X053090Y028243D01*
X053102Y028237D01*
X053112Y028228D01*
X053119Y028217D01*
X053123Y028204D01*
X053123Y028190D01*
X053119Y028177D01*
X053112Y028166D01*
X053102Y028157D01*
X053090Y028151D01*
X053077Y028148D01*
X053064Y028149D01*
X053051Y028153D01*
X053041Y028161D01*
X053032Y028172D01*
X053027Y028184D01*
X053025Y028197D01*
X053025Y027607D02*
X053027Y027620D01*
X053032Y027632D01*
X053041Y027643D01*
X053051Y027651D01*
X053064Y027655D01*
X053077Y027656D01*
X053090Y027653D01*
X053102Y027647D01*
X053112Y027638D01*
X053119Y027627D01*
X053123Y027614D01*
X053123Y027600D01*
X053119Y027587D01*
X053112Y027576D01*
X053102Y027567D01*
X053090Y027561D01*
X053077Y027558D01*
X053064Y027559D01*
X053051Y027563D01*
X053041Y027571D01*
X053032Y027582D01*
X053027Y027594D01*
X053025Y027607D01*
X053025Y027016D02*
X053027Y027029D01*
X053032Y027041D01*
X053041Y027052D01*
X053051Y027060D01*
X053064Y027064D01*
X053077Y027065D01*
X053090Y027062D01*
X053102Y027056D01*
X053112Y027047D01*
X053119Y027036D01*
X053123Y027023D01*
X053123Y027009D01*
X053119Y026996D01*
X053112Y026985D01*
X053102Y026976D01*
X053090Y026970D01*
X053077Y026967D01*
X053064Y026968D01*
X053051Y026972D01*
X053041Y026980D01*
X053032Y026991D01*
X053027Y027003D01*
X053025Y027016D01*
X053025Y026426D02*
X053027Y026439D01*
X053032Y026451D01*
X053041Y026462D01*
X053051Y026470D01*
X053064Y026474D01*
X053077Y026475D01*
X053090Y026472D01*
X053102Y026466D01*
X053112Y026457D01*
X053119Y026446D01*
X053123Y026433D01*
X053123Y026419D01*
X053119Y026406D01*
X053112Y026395D01*
X053102Y026386D01*
X053090Y026380D01*
X053077Y026377D01*
X053064Y026378D01*
X053051Y026382D01*
X053041Y026390D01*
X053032Y026401D01*
X053027Y026413D01*
X053025Y026426D01*
X046283Y021153D02*
X046283Y020653D01*
X044905Y020653D02*
X044905Y021153D01*
X043527Y021153D02*
X043527Y020653D01*
X042149Y020653D02*
X042149Y021153D01*
X040771Y021153D02*
X040771Y020653D01*
X039393Y020563D02*
X039393Y020063D01*
X039303Y018822D02*
X038303Y018822D01*
X038753Y018822D02*
X038833Y018822D01*
X038015Y020063D02*
X038015Y020563D01*
X036047Y016106D02*
X036047Y015606D01*
X034669Y015606D02*
X034669Y016106D01*
X034669Y011606D02*
X034669Y011106D01*
X036047Y011106D02*
X036047Y011606D01*
X036637Y027023D02*
X036637Y027523D01*
X035259Y027523D02*
X035259Y027023D01*
X033881Y027023D02*
X033881Y027523D01*
X032503Y027523D02*
X032503Y027023D01*
X031126Y027023D02*
X031126Y027523D01*
X029748Y027523D02*
X029748Y027023D01*
X028370Y027023D02*
X028370Y027523D01*
X023645Y027523D02*
X023645Y027023D01*
X022267Y027023D02*
X022267Y027523D01*
X020889Y027523D02*
X020889Y027023D01*
X019511Y027023D02*
X019511Y027523D01*
X018133Y027523D02*
X018133Y027023D01*
D18*
X025789Y024486D02*
X025789Y024236D01*
X025789Y023986D01*
X026039Y023986D02*
X026039Y024236D01*
X026039Y024486D01*
X041045Y026840D02*
X041045Y027090D01*
X041045Y027340D01*
X041295Y027340D02*
X041295Y027090D01*
X041295Y026840D01*
X050245Y027016D02*
X050589Y027016D01*
X050934Y027016D01*
X050934Y027312D01*
X051057Y027385D02*
X050934Y027705D01*
X050811Y027385D01*
X051057Y027385D01*
X051019Y027482D02*
X050848Y027482D01*
X050893Y027601D02*
X050974Y027601D01*
X051106Y027779D02*
X050761Y027779D01*
X050934Y027828D02*
X050934Y028271D01*
X050909Y028271D02*
X050589Y028271D01*
X050589Y028197D01*
X050269Y028197D01*
X050589Y028271D02*
X050589Y028788D01*
X050245Y028788D01*
X050663Y028714D02*
X050934Y028714D01*
X050934Y028936D01*
X050811Y029009D02*
X051057Y029009D01*
X050934Y029329D01*
X050811Y029009D01*
X050816Y029023D02*
X051052Y029023D01*
X051006Y029141D02*
X050861Y029141D01*
X050907Y029260D02*
X050960Y029260D01*
X050934Y029452D02*
X050934Y029920D01*
X050614Y029969D02*
X051401Y029969D01*
X051401Y029920D02*
X051401Y028739D01*
X051278Y028689D02*
X051401Y028370D01*
X051524Y028689D01*
X051278Y028689D01*
X051287Y028667D02*
X051516Y028667D01*
X051470Y028549D02*
X051332Y028549D01*
X051378Y028430D02*
X051424Y028430D01*
X051573Y028296D02*
X051229Y028296D01*
X051401Y028222D02*
X051401Y027041D01*
X051401Y027016D02*
X050934Y027016D01*
X050589Y027016D02*
X050589Y026426D01*
X050245Y026426D01*
X050589Y027016D02*
X050589Y027607D01*
X050245Y027607D01*
X051819Y028296D02*
X051942Y028616D01*
X052065Y028296D01*
X051819Y028296D01*
X051825Y028312D02*
X052059Y028312D01*
X052014Y028430D02*
X051871Y028430D01*
X051917Y028549D02*
X051968Y028549D01*
X052115Y028689D02*
X051770Y028689D01*
X051942Y028763D02*
X051942Y029944D01*
X051942Y029969D02*
X052754Y029969D01*
X053074Y029969D01*
X052754Y029969D02*
X052754Y029378D01*
X053074Y029378D01*
X052754Y029969D02*
X052754Y030560D01*
X053074Y030560D01*
X053296Y031027D02*
X049900Y031027D01*
X050245Y030560D02*
X050589Y030560D01*
X050589Y029969D01*
X050245Y029969D01*
X050589Y029969D02*
X050589Y029378D01*
X050245Y029378D01*
X050761Y029403D02*
X051106Y029403D01*
X052287Y028689D02*
X052410Y028370D01*
X052533Y028689D01*
X052287Y028689D01*
X052296Y028667D02*
X052524Y028667D01*
X052479Y028549D02*
X052341Y028549D01*
X052387Y028430D02*
X052433Y028430D01*
X052410Y028247D02*
X052410Y027065D01*
X052730Y027016D02*
X051942Y027016D01*
X051942Y027065D02*
X051942Y028247D01*
X052238Y028296D02*
X052582Y028296D01*
X052754Y028197D02*
X052754Y028788D01*
X053050Y028788D01*
X052410Y028763D02*
X052410Y029944D01*
X052754Y028197D02*
X053074Y028197D01*
X053074Y027607D02*
X052754Y027607D01*
X052754Y027016D01*
X053074Y027016D01*
X052754Y027016D02*
X052754Y026426D01*
X053074Y026426D01*
X052435Y025983D02*
X052262Y026229D01*
X052090Y025983D01*
X052262Y026229D02*
X052262Y025417D01*
X051204Y025983D02*
X051032Y026229D01*
X050860Y025983D01*
X051032Y026229D02*
X051032Y025417D01*
X045677Y012951D02*
X045527Y012951D01*
X045377Y013051D02*
X045327Y013051D01*
X045177Y012951D02*
X041377Y012951D01*
X042177Y010571D02*
X042227Y010571D01*
X042377Y010471D02*
X042527Y010471D01*
X042027Y010471D02*
X038227Y010471D01*
D19*
X029584Y010532D02*
X029368Y010532D01*
X029368Y010640D01*
X029404Y010676D01*
X029476Y010676D01*
X029512Y010640D01*
X029512Y010532D01*
X029548Y010441D02*
X029404Y010441D01*
X029368Y010405D01*
X029368Y010333D01*
X029404Y010297D01*
X029548Y010297D01*
X029584Y010333D01*
X029584Y010405D01*
X029548Y010441D01*
X029584Y010768D02*
X029440Y010768D01*
X029368Y010840D01*
X029440Y010912D01*
X029584Y010912D01*
X029584Y011003D02*
X029440Y011148D01*
X029404Y011148D01*
X029368Y011112D01*
X029368Y011040D01*
X029404Y011003D01*
X029476Y010912D02*
X029476Y010768D01*
X029584Y011003D02*
X029584Y011148D01*
X029584Y011239D02*
X029584Y011383D01*
X029584Y011311D02*
X029368Y011311D01*
X029440Y011239D01*
X029476Y011475D02*
X029440Y011547D01*
X029440Y011583D01*
X029476Y011619D01*
X029548Y011619D01*
X029584Y011583D01*
X029584Y011511D01*
X029548Y011475D01*
X029476Y011475D02*
X029368Y011475D01*
X029368Y011619D01*
X029476Y011710D02*
X029404Y011782D01*
X029368Y011854D01*
X029476Y011818D02*
X029476Y011710D01*
X029548Y011710D01*
X029584Y011746D01*
X029584Y011818D01*
X029548Y011854D01*
X029512Y011854D01*
X029476Y011818D01*
X029512Y012182D02*
X029440Y012182D01*
X029368Y012254D01*
X029368Y012339D02*
X029368Y012483D01*
X029368Y012411D02*
X029584Y012411D01*
X029584Y012254D02*
X029512Y012182D01*
X029548Y012574D02*
X029584Y012610D01*
X029584Y012682D01*
X029548Y012718D01*
X029476Y012718D01*
X029440Y012682D01*
X029440Y012610D01*
X029476Y012574D01*
X029548Y012574D01*
X029584Y012810D02*
X029440Y012810D01*
X029440Y012918D01*
X029476Y012954D01*
X029584Y012954D01*
X029548Y013046D02*
X029476Y013046D01*
X029440Y013082D01*
X029440Y013154D01*
X029476Y013190D01*
X029512Y013190D01*
X029512Y013046D01*
X029548Y013046D02*
X029584Y013082D01*
X029584Y013154D01*
X029584Y013281D02*
X029368Y013425D01*
X029368Y013517D02*
X029512Y013517D01*
X029584Y013589D01*
X029512Y013661D01*
X029368Y013661D01*
X029476Y013753D02*
X029440Y013789D01*
X029440Y013861D01*
X029476Y013897D01*
X029548Y013897D01*
X029584Y013861D01*
X029584Y013789D01*
X029548Y013753D01*
X029476Y013753D01*
X029584Y013988D02*
X029584Y014060D01*
X029584Y014024D02*
X029368Y014024D01*
X029368Y013988D01*
X029368Y014145D02*
X029440Y014217D01*
X029512Y014217D01*
X029584Y014145D01*
X047720Y012409D02*
X048120Y012709D01*
X049420Y012709D01*
X049420Y012409D02*
X047720Y012409D01*
X047720Y020709D01*
X048120Y020409D01*
X048120Y012709D01*
X048120Y013409D02*
X049420Y013409D01*
X049420Y013709D02*
X048120Y013709D01*
X048120Y014409D02*
X049420Y014409D01*
X049420Y014709D02*
X048120Y014709D01*
X048120Y015409D02*
X049420Y015409D01*
X049420Y015709D02*
X048120Y015709D01*
X048120Y016409D02*
X049420Y016409D01*
X049420Y016709D02*
X048120Y016709D01*
X048120Y017409D02*
X049420Y017409D01*
X049420Y017709D02*
X048120Y017709D01*
X048120Y018409D02*
X049420Y018409D01*
X049420Y018709D02*
X048120Y018709D01*
X048120Y019409D02*
X049420Y019409D01*
X049420Y019709D02*
X048120Y019709D01*
X048120Y020409D02*
X049420Y020409D01*
X049420Y020709D02*
X047720Y020709D01*
X049220Y021236D02*
X049220Y021641D01*
X049374Y021645D02*
X049063Y021645D01*
X049480Y021645D02*
X049480Y021236D01*
X049767Y021236D01*
X049889Y021236D02*
X050173Y021645D01*
X050267Y021645D02*
X050574Y021645D01*
X050425Y021637D02*
X050425Y021236D01*
X050173Y021236D02*
X049889Y021645D01*
X049755Y021645D02*
X049480Y021645D01*
X049496Y021444D02*
X049732Y021444D01*
X049420Y020709D02*
X049420Y012409D01*
X050129Y011535D02*
X050129Y011322D01*
X050130Y011322D02*
X050129Y011313D01*
X050125Y011306D01*
X050118Y011299D01*
X050111Y011295D01*
X050102Y011294D01*
X050102Y011291D02*
X049885Y011291D01*
X049867Y011289D01*
X049850Y011284D01*
X049834Y011276D01*
X049821Y011264D01*
X049809Y011251D01*
X049801Y011235D01*
X049796Y011218D01*
X049794Y011200D01*
X049796Y011182D01*
X049801Y011165D01*
X049809Y011149D01*
X049821Y011136D01*
X049834Y011124D01*
X049850Y011116D01*
X049867Y011111D01*
X049885Y011109D01*
X049885Y011110D02*
X050098Y011110D01*
X050102Y011110D02*
X050111Y011109D01*
X050118Y011105D01*
X050125Y011098D01*
X050129Y011091D01*
X050130Y011082D01*
X050129Y011082D02*
X050129Y010866D01*
X050131Y010848D01*
X050136Y010831D01*
X050144Y010815D01*
X050156Y010802D01*
X050169Y010790D01*
X050185Y010782D01*
X050202Y010777D01*
X050220Y010775D01*
X050238Y010777D01*
X050255Y010782D01*
X050271Y010790D01*
X050284Y010802D01*
X050296Y010815D01*
X050304Y010831D01*
X050309Y010848D01*
X050311Y010866D01*
X050311Y011078D01*
X050310Y011082D02*
X050311Y011091D01*
X050315Y011098D01*
X050322Y011105D01*
X050329Y011109D01*
X050338Y011110D01*
X050555Y011110D01*
X050555Y011109D02*
X050573Y011111D01*
X050590Y011116D01*
X050606Y011124D01*
X050619Y011136D01*
X050631Y011149D01*
X050639Y011165D01*
X050644Y011182D01*
X050646Y011200D01*
X050644Y011218D01*
X050639Y011235D01*
X050631Y011251D01*
X050619Y011264D01*
X050606Y011276D01*
X050590Y011284D01*
X050573Y011289D01*
X050555Y011291D01*
X050342Y011291D01*
X050338Y011290D02*
X050329Y011291D01*
X050322Y011295D01*
X050315Y011302D01*
X050311Y011309D01*
X050310Y011318D01*
X050311Y011318D02*
X050311Y011535D01*
X050309Y011553D01*
X050304Y011570D01*
X050296Y011586D01*
X050284Y011599D01*
X050271Y011611D01*
X050255Y011619D01*
X050238Y011624D01*
X050220Y011626D01*
X050202Y011624D01*
X050185Y011619D01*
X050169Y011611D01*
X050156Y011599D01*
X050144Y011586D01*
X050136Y011570D01*
X050131Y011553D01*
X050129Y011535D01*
X049618Y011200D02*
X049620Y011248D01*
X049626Y011297D01*
X049635Y011344D01*
X049649Y011391D01*
X049666Y011436D01*
X049687Y011480D01*
X049711Y011522D01*
X049739Y011562D01*
X049769Y011599D01*
X049803Y011634D01*
X049839Y011666D01*
X049878Y011695D01*
X049919Y011721D01*
X049962Y011744D01*
X050007Y011763D01*
X050053Y011778D01*
X050100Y011790D01*
X050147Y011798D01*
X050196Y011802D01*
X050244Y011802D01*
X050293Y011798D01*
X050340Y011790D01*
X050387Y011778D01*
X050433Y011763D01*
X050478Y011744D01*
X050521Y011721D01*
X050562Y011695D01*
X050601Y011666D01*
X050637Y011634D01*
X050671Y011599D01*
X050701Y011562D01*
X050729Y011522D01*
X050753Y011480D01*
X050774Y011436D01*
X050791Y011391D01*
X050805Y011344D01*
X050814Y011297D01*
X050820Y011248D01*
X050822Y011200D01*
X050820Y011152D01*
X050814Y011103D01*
X050805Y011056D01*
X050791Y011009D01*
X050774Y010964D01*
X050753Y010920D01*
X050729Y010878D01*
X050701Y010838D01*
X050671Y010801D01*
X050637Y010766D01*
X050601Y010734D01*
X050562Y010705D01*
X050521Y010679D01*
X050478Y010656D01*
X050433Y010637D01*
X050387Y010622D01*
X050340Y010610D01*
X050293Y010602D01*
X050244Y010598D01*
X050196Y010598D01*
X050147Y010602D01*
X050100Y010610D01*
X050053Y010622D01*
X050007Y010637D01*
X049962Y010656D01*
X049919Y010679D01*
X049878Y010705D01*
X049839Y010734D01*
X049803Y010766D01*
X049769Y010801D01*
X049739Y010838D01*
X049711Y010878D01*
X049687Y010920D01*
X049666Y010964D01*
X049649Y011009D01*
X049635Y011056D01*
X049626Y011103D01*
X049620Y011152D01*
X049618Y011200D01*
X051020Y012409D02*
X052720Y012409D01*
X052320Y012709D01*
X052320Y020409D01*
X052720Y020709D01*
X052720Y012409D01*
X052320Y012709D02*
X051020Y012709D01*
X051020Y012409D02*
X051020Y020709D01*
X052720Y020709D01*
X052320Y020409D02*
X051020Y020409D01*
X051020Y019709D02*
X052320Y019709D01*
X052320Y019409D02*
X051020Y019409D01*
X050720Y019359D02*
X049720Y019359D01*
X049720Y014709D01*
X050720Y014709D01*
X050720Y019359D01*
X051020Y018709D02*
X052320Y018709D01*
X052320Y018409D02*
X051020Y018409D01*
X051020Y017709D02*
X052320Y017709D01*
X052320Y017409D02*
X051020Y017409D01*
X051020Y016709D02*
X052320Y016709D01*
X052320Y016409D02*
X051020Y016409D01*
X051020Y015709D02*
X052320Y015709D01*
X052320Y015409D02*
X051020Y015409D01*
X051020Y014709D02*
X052320Y014709D01*
X052320Y014409D02*
X051020Y014409D01*
X051020Y013709D02*
X052320Y013709D01*
X052320Y013409D02*
X051020Y013409D01*
X051641Y021240D02*
X051866Y021240D01*
X051641Y021240D02*
X051641Y021653D01*
X051507Y021464D02*
X051507Y021413D01*
X051505Y021387D01*
X051500Y021361D01*
X051490Y021336D01*
X051478Y021313D01*
X051462Y021292D01*
X051443Y021273D01*
X051422Y021257D01*
X051399Y021245D01*
X051374Y021235D01*
X051348Y021230D01*
X051322Y021228D01*
X051296Y021230D01*
X051270Y021235D01*
X051245Y021245D01*
X051222Y021257D01*
X051201Y021273D01*
X051182Y021292D01*
X051166Y021313D01*
X051154Y021336D01*
X051144Y021361D01*
X051139Y021387D01*
X051137Y021413D01*
X051137Y021464D01*
X051023Y021464D02*
X051023Y021413D01*
X051021Y021387D01*
X051016Y021361D01*
X051006Y021336D01*
X050994Y021313D01*
X050978Y021292D01*
X050959Y021273D01*
X050938Y021257D01*
X050915Y021245D01*
X050890Y021235D01*
X050864Y021230D01*
X050838Y021228D01*
X050812Y021230D01*
X050786Y021235D01*
X050761Y021245D01*
X050738Y021257D01*
X050717Y021273D01*
X050698Y021292D01*
X050682Y021313D01*
X050670Y021336D01*
X050660Y021361D01*
X050655Y021387D01*
X050653Y021413D01*
X050653Y021464D01*
X050655Y021490D01*
X050660Y021516D01*
X050670Y021541D01*
X050682Y021564D01*
X050698Y021585D01*
X050717Y021604D01*
X050738Y021620D01*
X050761Y021632D01*
X050786Y021642D01*
X050812Y021647D01*
X050838Y021649D01*
X050864Y021647D01*
X050890Y021642D01*
X050915Y021632D01*
X050938Y021620D01*
X050959Y021604D01*
X050978Y021585D01*
X050994Y021564D01*
X051006Y021541D01*
X051016Y021516D01*
X051021Y021490D01*
X051023Y021464D01*
X051137Y021464D02*
X051139Y021490D01*
X051144Y021516D01*
X051154Y021541D01*
X051166Y021564D01*
X051182Y021585D01*
X051201Y021604D01*
X051222Y021620D01*
X051245Y021632D01*
X051270Y021642D01*
X051296Y021647D01*
X051322Y021649D01*
X051348Y021647D01*
X051374Y021642D01*
X051399Y021632D01*
X051422Y021620D01*
X051443Y021604D01*
X051462Y021585D01*
X051478Y021564D01*
X051490Y021541D01*
X051500Y021516D01*
X051505Y021490D01*
X051507Y021464D01*
X052086Y021327D02*
X052087Y021309D01*
X052092Y021292D01*
X052100Y021276D01*
X052111Y021262D01*
X052124Y021250D01*
X052140Y021242D01*
X052157Y021236D01*
X052311Y021275D02*
X052320Y021289D01*
X052327Y021305D01*
X052331Y021321D01*
X052332Y021337D01*
X052330Y021354D01*
X052326Y021370D01*
X052319Y021385D01*
X052236Y021433D02*
X052200Y021433D01*
X052157Y021235D02*
X052181Y021231D01*
X052206Y021230D01*
X052231Y021231D01*
X052319Y021386D02*
X052309Y021399D01*
X052297Y021411D01*
X052284Y021420D01*
X052269Y021427D01*
X052253Y021432D01*
X052236Y021433D01*
X052095Y021531D02*
X052101Y021551D01*
X052110Y021569D01*
X052122Y021586D01*
X052136Y021600D01*
X052153Y021612D01*
X052171Y021621D01*
X052191Y021627D01*
X052212Y021630D01*
X052232Y021629D01*
X052248Y021626D01*
X052263Y021620D01*
X052277Y021611D01*
X052289Y021599D01*
X052299Y021586D01*
X052307Y021479D02*
X052300Y021466D01*
X052290Y021454D01*
X052279Y021445D01*
X052265Y021438D01*
X052251Y021433D01*
X052236Y021432D01*
X052310Y021275D02*
X052298Y021262D01*
X052283Y021250D01*
X052267Y021241D01*
X052250Y021235D01*
X052232Y021232D01*
X052448Y021236D02*
X052448Y021641D01*
X052633Y021236D01*
X052822Y021645D01*
X052822Y021236D01*
X052306Y021480D02*
X052312Y021497D01*
X052315Y021515D01*
X052315Y021534D01*
X052312Y021552D01*
X052306Y021569D01*
X052298Y021586D01*
X050311Y022968D02*
X050311Y023181D01*
X050310Y023185D02*
X050311Y023194D01*
X050315Y023201D01*
X050322Y023208D01*
X050329Y023212D01*
X050338Y023213D01*
X050338Y023212D02*
X050555Y023212D01*
X050573Y023214D01*
X050590Y023219D01*
X050606Y023227D01*
X050619Y023239D01*
X050631Y023252D01*
X050639Y023268D01*
X050644Y023285D01*
X050646Y023303D01*
X050644Y023321D01*
X050639Y023338D01*
X050631Y023354D01*
X050619Y023367D01*
X050606Y023379D01*
X050590Y023387D01*
X050573Y023392D01*
X050555Y023394D01*
X050555Y023393D02*
X050342Y023393D01*
X050338Y023393D02*
X050329Y023394D01*
X050322Y023398D01*
X050315Y023405D01*
X050311Y023412D01*
X050310Y023421D01*
X050311Y023421D02*
X050311Y023637D01*
X050309Y023655D01*
X050304Y023672D01*
X050296Y023688D01*
X050284Y023701D01*
X050271Y023713D01*
X050255Y023721D01*
X050238Y023726D01*
X050220Y023728D01*
X050202Y023726D01*
X050185Y023721D01*
X050169Y023713D01*
X050156Y023701D01*
X050144Y023688D01*
X050136Y023672D01*
X050131Y023655D01*
X050129Y023637D01*
X050129Y023425D01*
X050130Y023425D02*
X050129Y023416D01*
X050125Y023409D01*
X050118Y023402D01*
X050111Y023398D01*
X050102Y023397D01*
X050102Y023393D02*
X049885Y023393D01*
X049885Y023394D02*
X049867Y023392D01*
X049850Y023387D01*
X049834Y023379D01*
X049821Y023367D01*
X049809Y023354D01*
X049801Y023338D01*
X049796Y023321D01*
X049794Y023303D01*
X049796Y023285D01*
X049801Y023268D01*
X049809Y023252D01*
X049821Y023239D01*
X049834Y023227D01*
X049850Y023219D01*
X049867Y023214D01*
X049885Y023212D01*
X050098Y023212D01*
X050102Y023213D02*
X050111Y023212D01*
X050118Y023208D01*
X050125Y023201D01*
X050129Y023194D01*
X050130Y023185D01*
X050129Y023185D02*
X050129Y022968D01*
X050131Y022950D01*
X050136Y022933D01*
X050144Y022917D01*
X050156Y022904D01*
X050169Y022892D01*
X050185Y022884D01*
X050202Y022879D01*
X050220Y022877D01*
X050238Y022879D01*
X050255Y022884D01*
X050271Y022892D01*
X050284Y022904D01*
X050296Y022917D01*
X050304Y022933D01*
X050309Y022950D01*
X050311Y022968D01*
X049618Y023303D02*
X049620Y023351D01*
X049626Y023400D01*
X049635Y023447D01*
X049649Y023494D01*
X049666Y023539D01*
X049687Y023583D01*
X049711Y023625D01*
X049739Y023665D01*
X049769Y023702D01*
X049803Y023737D01*
X049839Y023769D01*
X049878Y023798D01*
X049919Y023824D01*
X049962Y023847D01*
X050007Y023866D01*
X050053Y023881D01*
X050100Y023893D01*
X050147Y023901D01*
X050196Y023905D01*
X050244Y023905D01*
X050293Y023901D01*
X050340Y023893D01*
X050387Y023881D01*
X050433Y023866D01*
X050478Y023847D01*
X050521Y023824D01*
X050562Y023798D01*
X050601Y023769D01*
X050637Y023737D01*
X050671Y023702D01*
X050701Y023665D01*
X050729Y023625D01*
X050753Y023583D01*
X050774Y023539D01*
X050791Y023494D01*
X050805Y023447D01*
X050814Y023400D01*
X050820Y023351D01*
X050822Y023303D01*
X050820Y023255D01*
X050814Y023206D01*
X050805Y023159D01*
X050791Y023112D01*
X050774Y023067D01*
X050753Y023023D01*
X050729Y022981D01*
X050701Y022941D01*
X050671Y022904D01*
X050637Y022869D01*
X050601Y022837D01*
X050562Y022808D01*
X050521Y022782D01*
X050478Y022759D01*
X050433Y022740D01*
X050387Y022725D01*
X050340Y022713D01*
X050293Y022705D01*
X050244Y022701D01*
X050196Y022701D01*
X050147Y022705D01*
X050100Y022713D01*
X050053Y022725D01*
X050007Y022740D01*
X049962Y022759D01*
X049919Y022782D01*
X049878Y022808D01*
X049839Y022837D01*
X049803Y022869D01*
X049769Y022904D01*
X049739Y022941D01*
X049711Y022981D01*
X049687Y023023D01*
X049666Y023067D01*
X049649Y023112D01*
X049635Y023159D01*
X049626Y023206D01*
X049620Y023255D01*
X049618Y023303D01*
X002727Y018671D02*
X002727Y018604D01*
X002694Y018571D01*
X002594Y018571D01*
X002594Y018504D02*
X002594Y018704D01*
X002694Y018704D01*
X002727Y018671D01*
X002506Y018504D02*
X002373Y018504D01*
X002440Y018504D02*
X002440Y018704D01*
X002373Y018637D01*
X002285Y018504D02*
X002152Y018504D01*
X002219Y018504D02*
X002219Y018704D01*
X002152Y018637D01*
X002064Y018704D02*
X001931Y018704D01*
X001931Y018504D01*
X002064Y018504D01*
X001998Y018604D02*
X001931Y018604D01*
X001843Y018604D02*
X001843Y018537D01*
X001810Y018504D01*
X001743Y018504D01*
X001710Y018537D01*
X001710Y018604D02*
X001777Y018637D01*
X001810Y018637D01*
X001843Y018604D01*
X001843Y018704D02*
X001710Y018704D01*
X001710Y018604D01*
X001622Y018671D02*
X001622Y018537D01*
X001589Y018504D01*
X001522Y018504D01*
X001489Y018537D01*
X001622Y018671D01*
X001589Y018704D01*
X001522Y018704D01*
X001489Y018671D01*
X001489Y018537D01*
X001401Y018571D02*
X001335Y018504D01*
X001268Y018571D01*
X001268Y018704D01*
X001401Y018704D02*
X001401Y018571D01*
X001473Y017271D02*
X001473Y017071D01*
X001407Y017071D02*
X001540Y017071D01*
X001628Y017104D02*
X001661Y017071D01*
X001728Y017071D01*
X001761Y017104D01*
X001761Y017238D01*
X001728Y017271D01*
X001661Y017271D01*
X001628Y017238D01*
X001628Y017204D01*
X001661Y017171D01*
X001761Y017171D01*
X001473Y017271D02*
X001407Y017204D01*
X001319Y017204D02*
X001286Y017171D01*
X001219Y017171D01*
X001186Y017204D01*
X001186Y017238D01*
X001219Y017271D01*
X001286Y017271D01*
X001319Y017238D01*
X001319Y017204D01*
X001286Y017171D02*
X001319Y017137D01*
X001319Y017104D01*
X001286Y017071D01*
X001219Y017071D01*
X001186Y017104D01*
X001186Y017137D01*
X001219Y017171D01*
X001098Y017171D02*
X001098Y017104D01*
X001065Y017071D01*
X000998Y017071D01*
X000965Y017104D01*
X000965Y017171D02*
X001031Y017204D01*
X001065Y017204D01*
X001098Y017171D01*
X001098Y017271D02*
X000965Y017271D01*
X000965Y017171D01*
X000877Y017071D02*
X000877Y017271D01*
X000744Y017271D02*
X000877Y017071D01*
X000744Y017071D02*
X000744Y017271D01*
X000589Y017271D02*
X000589Y017071D01*
X000523Y017071D02*
X000656Y017071D01*
X000523Y017204D02*
X000589Y017271D01*
X000796Y016917D02*
X000763Y016884D01*
X000763Y016817D01*
X000796Y016783D01*
X000863Y016696D02*
X000863Y016563D01*
X000929Y016475D02*
X000963Y016442D01*
X000963Y016375D01*
X000929Y016342D01*
X000796Y016475D01*
X000929Y016475D01*
X000796Y016475D02*
X000763Y016442D01*
X000763Y016375D01*
X000796Y016342D01*
X000929Y016342D01*
X000863Y016254D02*
X000863Y016121D01*
X000763Y016221D01*
X000963Y016221D01*
X000929Y016033D02*
X000963Y016000D01*
X000963Y015933D01*
X000929Y015900D01*
X000796Y016033D01*
X000929Y016033D01*
X000796Y016033D02*
X000763Y016000D01*
X000763Y015933D01*
X000796Y015900D01*
X000929Y015900D01*
X000963Y015812D02*
X000896Y015745D01*
X000896Y015779D02*
X000896Y015679D01*
X000963Y015679D02*
X000763Y015679D01*
X000763Y015779D01*
X000796Y015812D01*
X000863Y015812D01*
X000896Y015779D01*
X000863Y015591D02*
X000863Y015458D01*
X000763Y015370D02*
X000763Y015237D01*
X000963Y015237D01*
X000963Y015149D02*
X000763Y015149D01*
X000829Y015082D01*
X000763Y015016D01*
X000963Y015016D01*
X000863Y015237D02*
X000863Y015303D01*
X000963Y016783D02*
X000829Y016917D01*
X000796Y016917D01*
X000963Y016917D02*
X000963Y016783D01*
D20*
X013271Y011992D02*
X013271Y011401D01*
X013292Y011389D01*
X013311Y011374D01*
X013329Y011357D01*
X013343Y011337D01*
X013355Y011315D01*
X013363Y011292D01*
X013368Y011268D01*
X013370Y011244D01*
X013368Y011220D01*
X013363Y011196D01*
X013355Y011173D01*
X013343Y011151D01*
X013329Y011131D01*
X013311Y011114D01*
X013292Y011099D01*
X013271Y011087D01*
X013271Y011086D02*
X013271Y010496D01*
X017090Y010496D01*
X017090Y011086D01*
X017090Y011087D02*
X017069Y011099D01*
X017050Y011114D01*
X017032Y011131D01*
X017018Y011151D01*
X017006Y011173D01*
X016998Y011196D01*
X016993Y011220D01*
X016991Y011244D01*
X016993Y011268D01*
X016998Y011292D01*
X017006Y011315D01*
X017018Y011337D01*
X017032Y011357D01*
X017050Y011374D01*
X017069Y011389D01*
X017090Y011401D01*
X017090Y011992D01*
X013271Y011992D01*
X025358Y016460D02*
X025358Y018035D01*
X025555Y018035D01*
X025555Y016460D01*
X025358Y016460D01*
X025555Y016460D02*
X025751Y016460D01*
X025751Y018035D01*
X025948Y018035D01*
X025948Y016460D01*
X025751Y016460D01*
X025948Y016460D02*
X026145Y016460D01*
X026145Y018035D01*
X026342Y018035D01*
X026342Y016460D01*
X026145Y016460D01*
X026342Y016460D02*
X026539Y016460D01*
X026539Y018035D01*
X026342Y018035D02*
X027838Y018035D01*
X027838Y016460D01*
X026539Y016460D01*
X026145Y018035D02*
X025948Y018035D01*
X025751Y018035D02*
X025555Y018035D01*
X042809Y027228D02*
X042809Y029905D01*
X046411Y029905D01*
X046411Y027228D01*
X042809Y027228D01*
X047043Y026236D02*
X047043Y028618D01*
X047045Y028657D01*
X047051Y028695D01*
X047060Y028732D01*
X047073Y028769D01*
X047090Y028804D01*
X047109Y028837D01*
X047132Y028868D01*
X047158Y028897D01*
X047187Y028923D01*
X047218Y028946D01*
X047251Y028965D01*
X047286Y028982D01*
X047323Y028995D01*
X047360Y029004D01*
X047398Y029010D01*
X047437Y029012D01*
X047437Y029011D02*
X048279Y029011D01*
X048279Y029012D02*
X048318Y029010D01*
X048356Y029004D01*
X048393Y028995D01*
X048430Y028982D01*
X048465Y028965D01*
X048498Y028946D01*
X048529Y028923D01*
X048558Y028897D01*
X048584Y028868D01*
X048607Y028837D01*
X048626Y028804D01*
X048643Y028769D01*
X048656Y028732D01*
X048665Y028695D01*
X048671Y028657D01*
X048673Y028618D01*
X048673Y026236D01*
X048671Y026197D01*
X048665Y026159D01*
X048656Y026122D01*
X048643Y026085D01*
X048626Y026050D01*
X048607Y026017D01*
X048584Y025986D01*
X048558Y025957D01*
X048529Y025931D01*
X048498Y025908D01*
X048465Y025889D01*
X048430Y025872D01*
X048393Y025859D01*
X048356Y025850D01*
X048318Y025844D01*
X048279Y025842D01*
X047437Y025842D01*
X047543Y025822D02*
X047543Y023496D01*
X047267Y023775D02*
X047269Y023814D01*
X047275Y023852D01*
X047284Y023889D01*
X047297Y023926D01*
X047314Y023961D01*
X047333Y023994D01*
X047356Y024025D01*
X047382Y024054D01*
X047411Y024080D01*
X047442Y024103D01*
X047475Y024122D01*
X047510Y024139D01*
X047547Y024152D01*
X047584Y024161D01*
X047622Y024167D01*
X047661Y024169D01*
X052779Y024169D01*
X052818Y024167D01*
X052856Y024161D01*
X052893Y024152D01*
X052930Y024139D01*
X052965Y024122D01*
X052998Y024103D01*
X053029Y024080D01*
X053058Y024054D01*
X053084Y024025D01*
X053107Y023994D01*
X053126Y023961D01*
X053143Y023926D01*
X053156Y023889D01*
X053165Y023852D01*
X053171Y023814D01*
X053173Y023775D01*
X053173Y010649D01*
X053171Y010610D01*
X053165Y010572D01*
X053156Y010535D01*
X053143Y010498D01*
X053126Y010463D01*
X053107Y010430D01*
X053084Y010399D01*
X053058Y010370D01*
X053029Y010344D01*
X052998Y010321D01*
X052965Y010302D01*
X052930Y010285D01*
X052893Y010272D01*
X052856Y010263D01*
X052818Y010257D01*
X052779Y010255D01*
X047661Y010255D01*
X047622Y010257D01*
X047584Y010263D01*
X047547Y010272D01*
X047510Y010285D01*
X047475Y010302D01*
X047442Y010321D01*
X047411Y010344D01*
X047382Y010370D01*
X047356Y010399D01*
X047333Y010430D01*
X047314Y010463D01*
X047297Y010498D01*
X047284Y010535D01*
X047275Y010572D01*
X047269Y010610D01*
X047267Y010649D01*
X047267Y023775D01*
X047042Y023476D02*
X047044Y023533D01*
X047050Y023590D01*
X047060Y023646D01*
X047074Y023701D01*
X047091Y023755D01*
X047113Y023808D01*
X047138Y023859D01*
X047166Y023908D01*
X047198Y023956D01*
X047233Y024001D01*
X047271Y024043D01*
X047312Y024082D01*
X047356Y024119D01*
X047402Y024152D01*
X047450Y024183D01*
X047500Y024209D01*
X047552Y024233D01*
X047606Y024252D01*
X047661Y024268D01*
X047716Y024280D01*
X047773Y024288D01*
X047830Y024292D01*
X047886Y024292D01*
X047943Y024288D01*
X048000Y024280D01*
X048055Y024268D01*
X048110Y024252D01*
X048164Y024233D01*
X048216Y024209D01*
X048266Y024183D01*
X048314Y024152D01*
X048360Y024119D01*
X048404Y024082D01*
X048445Y024043D01*
X048483Y024001D01*
X048518Y023956D01*
X048550Y023908D01*
X048578Y023859D01*
X048603Y023808D01*
X048625Y023755D01*
X048642Y023701D01*
X048656Y023646D01*
X048666Y023590D01*
X048672Y023533D01*
X048674Y023476D01*
X048672Y023419D01*
X048666Y023362D01*
X048656Y023306D01*
X048642Y023251D01*
X048625Y023197D01*
X048603Y023144D01*
X048578Y023093D01*
X048550Y023044D01*
X048518Y022996D01*
X048483Y022951D01*
X048445Y022909D01*
X048404Y022870D01*
X048360Y022833D01*
X048314Y022800D01*
X048266Y022769D01*
X048216Y022743D01*
X048164Y022719D01*
X048110Y022700D01*
X048055Y022684D01*
X048000Y022672D01*
X047943Y022664D01*
X047886Y022660D01*
X047830Y022660D01*
X047773Y022664D01*
X047716Y022672D01*
X047661Y022684D01*
X047606Y022700D01*
X047552Y022719D01*
X047500Y022743D01*
X047450Y022769D01*
X047402Y022800D01*
X047356Y022833D01*
X047312Y022870D01*
X047271Y022909D01*
X047233Y022951D01*
X047198Y022996D01*
X047166Y023044D01*
X047138Y023093D01*
X047113Y023144D01*
X047091Y023197D01*
X047074Y023251D01*
X047060Y023306D01*
X047050Y023362D01*
X047044Y023419D01*
X047042Y023476D01*
X047917Y022058D02*
X047972Y022062D01*
X048027Y022069D01*
X048081Y022080D01*
X048135Y022095D01*
X048187Y022113D01*
X048237Y022135D01*
X048287Y022161D01*
X048334Y022190D01*
X048379Y022222D01*
X048421Y022258D01*
X048461Y022296D01*
X048498Y022337D01*
X048533Y022380D01*
X048564Y022426D01*
X048592Y022474D01*
X048616Y022524D01*
X048637Y022575D01*
X048654Y022627D01*
X048668Y022681D01*
X048677Y022736D01*
X048683Y022791D01*
X048685Y022846D01*
X048685Y024126D01*
X048153Y023496D02*
X048153Y025822D01*
X047437Y025842D02*
X047398Y025844D01*
X047360Y025850D01*
X047323Y025859D01*
X047286Y025872D01*
X047251Y025889D01*
X047218Y025908D01*
X047187Y025931D01*
X047158Y025957D01*
X047132Y025986D01*
X047109Y026017D01*
X047090Y026050D01*
X047073Y026085D01*
X047060Y026122D01*
X047051Y026159D01*
X047045Y026197D01*
X047043Y026236D01*
X047661Y022059D02*
X047917Y022059D01*
X047661Y022058D02*
X047624Y022056D01*
X047586Y022051D01*
X047550Y022042D01*
X047514Y022030D01*
X047480Y022014D01*
X047448Y021995D01*
X047417Y021974D01*
X047389Y021949D01*
X047363Y021922D01*
X047340Y021892D01*
X047320Y021861D01*
X047302Y021827D01*
X047289Y021793D01*
X047278Y021757D01*
X047271Y021720D01*
X047267Y021682D01*
X047267Y021645D01*
D21*
X050035Y018992D02*
X050096Y019054D01*
X050343Y018807D01*
X050405Y018868D01*
X050405Y018992D01*
X050343Y019054D01*
X050096Y019054D01*
X050035Y018992D02*
X050035Y018868D01*
X050096Y018807D01*
X050343Y018807D01*
X050343Y018685D02*
X050405Y018624D01*
X050405Y018500D01*
X050343Y018438D01*
X050096Y018685D01*
X050343Y018685D01*
X050343Y018438D02*
X050096Y018438D01*
X050035Y018500D01*
X050035Y018624D01*
X050096Y018685D01*
X050220Y018317D02*
X050220Y018070D01*
X050343Y017949D02*
X050405Y017887D01*
X050405Y017764D01*
X050343Y017702D01*
X050096Y017949D01*
X050343Y017949D01*
X050096Y017949D02*
X050035Y017887D01*
X050035Y017764D01*
X050096Y017702D01*
X050343Y017702D01*
X050220Y017580D02*
X050220Y017333D01*
X050035Y017519D01*
X050405Y017519D01*
X050343Y017212D02*
X050405Y017150D01*
X050405Y017027D01*
X050343Y016965D01*
X050343Y016844D02*
X050405Y016782D01*
X050405Y016659D01*
X050343Y016597D01*
X050220Y016475D02*
X050220Y016229D01*
X050282Y016107D02*
X050220Y016045D01*
X050220Y015860D01*
X050343Y015860D01*
X050405Y015922D01*
X050405Y016045D01*
X050343Y016107D01*
X050282Y016107D01*
X050096Y015984D02*
X050220Y015860D01*
X050096Y015984D02*
X050035Y016107D01*
X050035Y015615D02*
X050405Y015615D01*
X050405Y015492D02*
X050405Y015739D01*
X050158Y015492D02*
X050035Y015615D01*
X050096Y015370D02*
X050035Y015309D01*
X050035Y015185D01*
X050096Y015124D01*
X050096Y015370D02*
X050158Y015370D01*
X050405Y015124D01*
X050405Y015370D01*
X050096Y016597D02*
X050035Y016659D01*
X050035Y016782D01*
X050096Y016844D01*
X050158Y016844D01*
X050220Y016782D01*
X050282Y016844D01*
X050343Y016844D01*
X050220Y016782D02*
X050220Y016720D01*
X050096Y016965D02*
X050035Y017027D01*
X050035Y017150D01*
X050096Y017212D01*
X050158Y017212D01*
X050220Y017150D01*
X050282Y017212D01*
X050343Y017212D01*
X050220Y017150D02*
X050220Y017089D01*
D22*
X046496Y012394D02*
X045496Y012394D01*
X045746Y012394D02*
X045246Y012394D01*
X045246Y012144D01*
X044746Y012144D01*
X044746Y012394D01*
X044496Y012394D01*
X044496Y011244D01*
X044496Y010094D01*
X044996Y010094D02*
X044996Y010494D01*
X045096Y010694D01*
X045896Y010694D01*
X045996Y010494D01*
X045896Y010494D01*
X045896Y010094D01*
X045996Y010094D02*
X045996Y010494D01*
X045896Y010494D02*
X045096Y010494D01*
X045096Y010094D01*
X045496Y010094D02*
X045996Y010094D01*
X046496Y010094D01*
X046496Y011244D01*
X046496Y012394D01*
X046246Y012394D01*
X046246Y012144D01*
X045746Y012144D01*
X045746Y012394D01*
X045246Y012394D02*
X044746Y012394D01*
X044996Y010494D02*
X045096Y010494D01*
X039507Y025842D02*
X039257Y025842D01*
X039257Y026092D01*
X038757Y026092D01*
X038757Y025842D01*
X038257Y025842D01*
X038257Y026092D01*
X037757Y026092D01*
X037757Y025842D01*
X037507Y025842D01*
X038507Y025842D01*
X038757Y025842D02*
X039257Y025842D01*
X039507Y025842D02*
X039507Y026992D01*
X039507Y028142D01*
X039007Y028142D02*
X039007Y027742D01*
X038907Y027542D01*
X038107Y027542D01*
X038007Y027742D01*
X038107Y027742D01*
X038107Y028142D01*
X038007Y028142D02*
X038507Y028142D01*
X038907Y028142D02*
X038907Y027742D01*
X039007Y027742D01*
X038907Y027742D02*
X038107Y027742D01*
X038007Y027742D02*
X038007Y028142D01*
X037507Y028142D01*
X037507Y026992D01*
X037507Y025842D01*
X027507Y025842D02*
X027257Y025842D01*
X027257Y026092D01*
X026757Y026092D01*
X026757Y025842D01*
X026257Y025842D01*
X026257Y026092D01*
X025757Y026092D01*
X025757Y025842D01*
X025257Y025842D01*
X024757Y025842D01*
X024757Y026092D01*
X025257Y026092D01*
X025257Y025842D01*
X024757Y025842D02*
X024607Y025842D01*
X024507Y025842D02*
X024507Y026992D01*
X024507Y028142D01*
X025007Y028142D01*
X025007Y027742D01*
X025107Y027542D01*
X026907Y027542D01*
X027007Y027742D01*
X027007Y028142D01*
X026907Y028142D02*
X026907Y027742D01*
X027007Y027742D01*
X026907Y027742D02*
X025107Y027742D01*
X025107Y028142D01*
X025007Y028142D02*
X025507Y028142D01*
X027507Y028142D01*
X027507Y026992D01*
X027507Y025842D01*
X027257Y025842D02*
X026757Y025842D01*
X026257Y025842D02*
X025757Y025842D01*
X025107Y027742D02*
X025007Y027742D01*
X016681Y028142D02*
X016681Y026992D01*
X016681Y025842D01*
X016431Y025842D01*
X016431Y026092D01*
X015931Y026092D01*
X015931Y025842D01*
X015431Y025842D01*
X015431Y026092D01*
X014931Y026092D01*
X014931Y025842D01*
X014431Y025842D01*
X013931Y025842D01*
X013931Y026092D01*
X014431Y026092D01*
X014431Y025842D01*
X014931Y025842D02*
X015431Y025842D01*
X015931Y025842D02*
X016431Y025842D01*
X016081Y027542D02*
X014281Y027542D01*
X014181Y027742D01*
X014281Y027742D01*
X014281Y028142D01*
X014181Y028142D02*
X014181Y027742D01*
X014281Y027742D02*
X016081Y027742D01*
X016081Y028142D01*
X016181Y028142D02*
X016181Y027742D01*
X016081Y027542D01*
X016081Y027742D02*
X016181Y027742D01*
X016681Y028142D02*
X014681Y028142D01*
X014181Y028142D01*
X013681Y028142D01*
X013681Y026992D01*
X013681Y025842D01*
X013781Y025842D02*
X013931Y025842D01*
X012350Y025842D02*
X012100Y025842D01*
X012100Y026092D01*
X011600Y026092D01*
X011600Y025842D01*
X011100Y025842D01*
X011100Y026092D01*
X010600Y026092D01*
X010600Y025842D01*
X010100Y025842D01*
X009600Y025842D01*
X009600Y026092D01*
X010100Y026092D01*
X010100Y025842D01*
X010600Y025842D02*
X011100Y025842D01*
X011600Y025842D02*
X012100Y025842D01*
X012350Y025842D02*
X012350Y026992D01*
X012350Y028142D01*
X010350Y028142D01*
X009850Y028142D01*
X009850Y027742D01*
X009950Y027542D01*
X011750Y027542D01*
X011850Y027742D01*
X011850Y028142D01*
X011750Y028142D02*
X011750Y027742D01*
X011850Y027742D01*
X011750Y027742D02*
X009950Y027742D01*
X009950Y028142D01*
X009850Y028142D02*
X009350Y028142D01*
X009350Y026992D01*
X009350Y025842D01*
X009450Y025842D02*
X009600Y025842D01*
X008019Y025842D02*
X008019Y026992D01*
X008019Y028142D01*
X006019Y028142D01*
X005519Y028142D01*
X005519Y027742D01*
X005619Y027542D01*
X007419Y027542D01*
X007519Y027742D01*
X007519Y028142D01*
X007419Y028142D02*
X007419Y027742D01*
X007519Y027742D01*
X007419Y027742D02*
X005619Y027742D01*
X005619Y028142D01*
X005519Y028142D02*
X005019Y028142D01*
X005019Y026992D01*
X005019Y025842D01*
X005119Y025842D02*
X005269Y025842D01*
X005769Y025842D01*
X006269Y025842D01*
X006269Y026092D01*
X006769Y026092D01*
X006769Y025842D01*
X007269Y025842D01*
X007269Y026092D01*
X007769Y026092D01*
X007769Y025842D01*
X008019Y025842D01*
X007769Y025842D02*
X007269Y025842D01*
X006769Y025842D02*
X006269Y025842D01*
X005769Y025842D02*
X005769Y026092D01*
X005269Y026092D01*
X005269Y025842D01*
X005519Y027742D02*
X005619Y027742D01*
X009850Y027742D02*
X009950Y027742D01*
X009931Y012394D02*
X006881Y012394D01*
X007131Y012394D01*
X007131Y012144D01*
X007631Y012144D01*
X007631Y012394D01*
X008131Y012394D01*
X008131Y012144D01*
X008631Y012144D01*
X008631Y012394D01*
X009131Y012394D01*
X010631Y012394D01*
X010631Y012144D01*
X010131Y012144D01*
X010131Y012394D01*
X009631Y012394D01*
X009631Y012144D01*
X009131Y012144D01*
X009131Y012394D01*
X010631Y012394D02*
X010781Y012394D01*
X010881Y012394D02*
X010881Y011244D01*
X010881Y010094D01*
X010381Y010094D01*
X010381Y010494D01*
X010281Y010694D01*
X007481Y010694D01*
X007381Y010494D01*
X007381Y010094D01*
X007481Y010094D02*
X007481Y010494D01*
X007381Y010494D01*
X007481Y010494D02*
X010281Y010494D01*
X010281Y010094D01*
X010381Y010094D02*
X009881Y010094D01*
X006881Y010094D01*
X006881Y011244D01*
X006881Y012394D01*
X006255Y012394D02*
X006005Y012394D01*
X006005Y012144D01*
X005505Y012144D01*
X005505Y012394D01*
X005005Y012394D01*
X005005Y012144D01*
X004505Y012144D01*
X004505Y012394D01*
X004255Y012394D01*
X004255Y011244D01*
X004255Y010094D01*
X004755Y010094D02*
X004755Y010494D01*
X004855Y010694D01*
X005655Y010694D01*
X005755Y010494D01*
X005655Y010494D01*
X005655Y010094D01*
X005755Y010094D02*
X005755Y010494D01*
X005655Y010494D02*
X004855Y010494D01*
X004855Y010094D01*
X004855Y010494D02*
X004755Y010494D01*
X005255Y010094D02*
X005755Y010094D01*
X006255Y010094D01*
X006255Y011244D01*
X006255Y012394D01*
X005255Y012394D01*
X005005Y012394D02*
X004505Y012394D01*
X010281Y010494D02*
X010381Y010494D01*
D23*
X010381Y011244D03*
X009381Y011244D03*
X008381Y011244D03*
X007381Y011244D03*
X005755Y011244D03*
X004755Y011244D03*
X005519Y026992D03*
X006519Y026992D03*
X007519Y026992D03*
X009850Y026992D03*
X010850Y026992D03*
X011850Y026992D03*
X014181Y026992D03*
X015181Y026992D03*
X016181Y026992D03*
X025007Y026992D03*
X026007Y026992D03*
X027007Y026992D03*
X038007Y026992D03*
X039007Y026992D03*
X044996Y011244D03*
X045996Y011244D03*
X050811Y008716D03*
X050811Y007716D03*
X050811Y006716D03*
X050811Y005716D03*
X050811Y004716D03*
D24*
X016979Y011818D02*
X016906Y011818D01*
X016943Y011818D02*
X016943Y011928D01*
X016906Y011891D01*
D25*
X016755Y011637D03*
X015968Y011637D03*
X015181Y011637D03*
X015181Y010850D03*
X015968Y010850D03*
X016755Y010850D03*
X014393Y010850D03*
X013606Y010850D03*
X013606Y011637D03*
X014393Y011637D03*
X043822Y028173D03*
X043822Y028960D03*
X044610Y028960D03*
X045397Y028960D03*
X045397Y028173D03*
X044610Y028173D03*
D26*
X046086Y027582D02*
X043133Y027582D01*
X043133Y029551D01*
X046086Y029551D01*
X046086Y027582D01*
X003185Y019518D02*
X001935Y019518D01*
X001935Y019418D02*
X002385Y019418D01*
X002385Y018818D02*
X002835Y018818D01*
X002835Y018718D02*
X001585Y018718D01*
D27*
X044610Y027385D03*
D28*
X046077Y013901D02*
X046527Y013901D01*
X043377Y011421D02*
X042927Y011421D01*
X040977Y013901D02*
X040527Y013901D01*
X037827Y011421D02*
X037377Y011421D01*
D29*
X041177Y011421D03*
X044327Y013901D03*
D30*
X045927Y013901D03*
X042777Y011421D03*
X041127Y013901D03*
X037977Y011421D03*
D31*
X028074Y020397D03*
X028074Y021775D03*
X024334Y021775D03*
X024334Y020397D03*
X022267Y021209D03*
X018527Y021209D03*
X017936Y013803D03*
X014196Y013803D03*
X012031Y013803D03*
X008291Y013803D03*
D32*
X018035Y015771D03*
X019511Y015771D03*
X019511Y019511D03*
X018035Y019511D03*
X018133Y023153D03*
X019511Y023153D03*
X020889Y023153D03*
X022267Y023153D03*
X023645Y023153D03*
X028370Y023153D03*
X029748Y023153D03*
X031126Y023153D03*
X032503Y023153D03*
X033881Y023153D03*
X035259Y023153D03*
X036637Y023153D03*
X038015Y024433D03*
X039393Y024433D03*
X040771Y025023D03*
X042149Y025023D03*
X043527Y025023D03*
X044905Y025023D03*
X046283Y025023D03*
X046283Y021283D03*
X044905Y021283D03*
X043527Y021283D03*
X042149Y021283D03*
X040771Y021283D03*
X039393Y020693D03*
X038015Y020693D03*
X036047Y015476D03*
X034669Y015476D03*
X034669Y011736D03*
X036047Y011736D03*
X036637Y026893D03*
X035259Y026893D03*
X033881Y026893D03*
X032503Y026893D03*
X031126Y026893D03*
X029748Y026893D03*
X028370Y026893D03*
X023645Y026893D03*
X022267Y026893D03*
X020889Y026893D03*
X019511Y026893D03*
X018133Y026893D03*
D33*
X003787Y017740D02*
X003269Y017740D01*
X001295Y017740D02*
X000787Y017740D01*
D34*
X001737Y017734D03*
D35*
X001342Y017740D03*
X003232Y017740D03*
M02*
