%
M48
M72
T01C0.0197
T02C0.0236
T03C0.0276
T04C0.0315
T05C0.0320
T06C0.0354
T07C0.0360
T08C0.0400
T09C0.0433
T10C0.0512
T11C0.0550
T12C0.0787
T13C0.1260
%
T01
X18279Y11269
X17313Y17372
X8315Y17346
X27895Y27838
X30832Y23919
X39762Y20889
X45299Y22439
X46529Y20077
X44856Y26770
X41337Y27189
X31975Y10744
T02
X31962Y15562
X33512Y16128
X32454Y17420
X35284Y18896
X36760Y20569
X38212Y23055
X36687Y23239
X36760Y24543
X34595Y22833
X33918Y23658
X33721Y25085
X33143Y25417
X31150Y24531
X31039Y25454
X30596Y27016
X30461Y27558
X29034Y26942
X25761Y24740
X23362Y24334
X23670Y26672
X24310Y27090
X19770Y24826
X17567Y23694
X14172Y24863
X11810Y25122
X12978Y26684
X9915Y24310
X11920Y23522
X11158Y19868
X7922Y20053
X6298Y20102
X11231Y16276
X9324Y15058
X7024Y15943
X6581Y12043
X14664Y18921
X17186Y16300
X19413Y17814
X20680Y18945
X23301Y18675
X24802Y17235
X22206Y16189
X23325Y14689
X21074Y14504
X18047Y12129
X23891Y10825
X28468Y17235
X26573Y20250
X29378Y21037
X36896Y15501
X39295Y14061
X43638Y17334
X45865Y17346
X46504Y17592
X49728Y18552
X46148Y21960
X46677Y23276
X48178Y24014
X52312Y23251
X43564Y21443
X41965Y23670
X42715Y25072
X43392Y25023
X41399Y25109
X43601Y26278
X40095Y22329
X37326Y26869
X45988Y14812
X44253Y13815
X46910Y11281
X4957Y25835
T03
X29009Y24187
T04
X14059Y17543
X48486Y25136
X48986Y25698
X49486Y25136
X49986Y25698
X50884Y31618
X50884Y32380
X50884Y33143
X50884Y33906
X50884Y34669
T05
X42165Y27090
X42149Y25653
X40771Y25653
X39393Y25063
X38015Y25063
X36637Y22523
X35259Y22523
X33881Y22523
X32503Y22523
X31126Y22523
X29748Y22523
X28704Y21775
X28370Y22523
X26909Y24236
X24909Y24236
X23645Y22523
X23704Y21775
X22897Y21209
X23704Y20397
X21677Y20019
X19511Y20141
X18035Y20141
X17897Y21209
X18133Y22523
X19511Y22523
X20889Y22523
X22267Y22523
X21677Y18019
X19511Y15141
X18035Y15141
X18566Y13803
X19980Y13728
X19980Y12728
X19980Y11728
X19980Y10728
X22980Y10728
X22980Y11728
X22980Y12728
X22980Y13728
X25098Y13728
X25098Y12728
X25098Y11728
X25098Y10728
X28098Y10728
X28098Y11728
X28098Y12728
X28098Y13728
X30216Y13728
X30216Y12728
X30216Y11728
X30216Y10728
X33216Y10728
X33216Y11728
X33216Y12728
X33216Y13728
X34669Y16106
X36047Y16106
X38303Y18822
X39303Y18822
X39393Y20063
X38015Y20063
X40771Y20653
X42149Y20653
X43527Y20653
X44905Y20653
X46283Y20653
X46283Y25653
X44905Y25653
X43527Y25653
X40165Y27090
X36637Y27523
X35259Y27523
X33881Y27523
X32503Y27523
X31126Y27523
X29748Y27523
X28370Y27523
X23645Y27523
X22267Y27523
X20889Y27523
X19511Y27523
X18133Y27523
X28704Y20397
X40527Y13901
X43377Y11421
X46527Y13901
X37377Y11421
X36047Y11106
X34669Y11106
X13566Y13803
X12661Y13803
X7661Y13803
X3385Y16165
X1385Y16165
T06
X13606Y10850
X14393Y10850
X14393Y11637
X13606Y11637
X15181Y11637
X15968Y11637
X15968Y10850
X15181Y10850
X16755Y10850
X16755Y11637
X48720Y13059
X48720Y14059
X48720Y15059
X48720Y16059
X48720Y17059
X48720Y18059
X48720Y19059
X48720Y20059
X51720Y20059
X51720Y19059
X51720Y18059
X51720Y17059
X51720Y16059
X51720Y15059
X51720Y14059
X51720Y13059
T07
X45397Y28173
X44610Y28173
X44610Y28960
X45397Y28960
X43822Y28960
X43822Y28173
X6740Y13704
X3740Y13704
X3385Y18868
X1385Y19368
T08
X6519Y15455
X10850Y15455
X15181Y15455
X10381Y11244
X9381Y11244
X8381Y11244
X7381Y11244
X5755Y11244
X4755Y11244
X6519Y24355
X6519Y26992
X5519Y26992
X7519Y26992
X9850Y26992
X10850Y26992
X11850Y26992
X14181Y26992
X15181Y26992
X16181Y26992
X15181Y24355
X10850Y24355
X25007Y26992
X26007Y26992
X27007Y26992
X31322Y21314
X33685Y21314
X36047Y21314
X41066Y19641
X43409Y19661
X45889Y19641
X45889Y15641
X43409Y15661
X41066Y15641
X38606Y17181
X36047Y17314
X33685Y17314
X31322Y17314
X38606Y13181
X44996Y11244
X45996Y11244
X50811Y8716
X50811Y7716
X50811Y6716
X50811Y5716
X50811Y4716
X39007Y26992
X38007Y26992
T09
X3787Y17740
X787Y17740
T10
X24748Y18193
X26598Y18193
X28448Y18193
X28448Y16303
X26598Y16303
X24748Y16303
T11
X2385Y14346
X2385Y20346
T12
X50220Y23299
X50220Y11196
T13
X51598Y1992
X51598Y36637
X1992Y26401
X1992Y11834
M30
