  0
SECTION
  2
HEADER
  9
$ACADVER
  1
AC1009
  9
$FILLMODE
 70
1
  9
$EXTMIN
 10
-0.8548
 20
-1.3548
 30
0.0000
  9
$EXTMAX
 10
18.8548
 20
29.3548
 30
0.0000
  0
ENDSEC
  0
SECTION
  2
TABLES
  0
TABLE
  2
LTYPE
 70
1
  0
LTYPE
  2
CONTINUOUS
 70
64
  3
Solid line
 72
65
 73
0
 40
0
  0
ENDTAB
  0
TABLE
  2
LAYER
 70
255
  0
LAYER
  2
1
 70
64
 62
22
  6
CONTINUOUS
  0
LAYER
  2
16
 70
64
 62
175
  6
CONTINUOUS
  0
LAYER
  2
17
 70
64
 62
82
  6
CONTINUOUS
  0
LAYER
  2
18
 70
64
 62
82
  6
CONTINUOUS
  0
LAYER
  2
19
 70
64
 62
53
  6
CONTINUOUS
  0
LAYER
  2
20
 70
64
 62
7
  6
CONTINUOUS
  0
LAYER
  2
21
 70
64
 62
253
  6
CONTINUOUS
  0
LAYER
  2
22
 70
64
 62
253
  6
CONTINUOUS
  0
LAYER
  2
23
 70
64
 62
7
  6
CONTINUOUS
  0
LAYER
  2
24
 70
64
 62
7
  6
CONTINUOUS
  0
LAYER
  2
25
 70
64
 62
253
  6
CONTINUOUS
  0
LAYER
  2
26
 70
64
 62
253
  6
CONTINUOUS
  0
LAYER
  2
27
 70
64
 62
253
  6
CONTINUOUS
  0
LAYER
  2
28
 70
64
 62
253
  6
CONTINUOUS
  0
LAYER
  2
39
 70
64
 62
22
  6
CONTINUOUS
  0
LAYER
  2
40
 70
64
 62
175
  6
CONTINUOUS
  0
LAYER
  2
41
 70
64
 62
22
  6
CONTINUOUS
  0
LAYER
  2
42
 70
64
 62
175
  6
CONTINUOUS
  0
LAYER
  2
43
 70
64
 62
82
  6
CONTINUOUS
  0
LAYER
  2
48
 70
64
 62
253
  6
CONTINUOUS
  0
LAYER
  2
49
 70
64
 62
253
  6
CONTINUOUS
  0
LAYER
  2
51
 70
64
 62
253
  6
CONTINUOUS
  0
LAYER
  2
52
 70
64
 62
253
  6
CONTINUOUS
  0
ENDTAB
  0
ENDSEC
  0
SECTION
  2
BLOCKS
  0
BLOCK
  8
0
  2
RECT
 70
64
 10
0.0000
 20
0.0000
 30
0.0000
  3
RECT
  0
SOLID
  8
0
 10
-0.5000
 20
-0.5000
 30
0.0000
 11
0.5000
 21
-0.5000
 31
0.0000
 12
-0.5000
 22
0.5000
 32
0.0000
 13
0.5000
 23
0.5000
 33
0.0000
  0
ENDBLK
  8
0
  0
BLOCK
  8
0
  2
PIE
 70
64
 10
0.0000
 20
0.0000
 30
0.0000
  3
PIE
  0
POLYLINE
  8
0
 66
1
 10
0.0000
 20
0.0000
 30
0.0000
 40
0.5000
 41
0.5000
 70
0
  0
VERTEX
  8
0
 10
0.0000
 20
-0.2500
 30
0.0000
 42
1.0000
  0
VERTEX
  8
0
 10
0.0000
 20
0.2500
 30
0.0000
 42
1.0000
  0
VERTEX
  8
0
 10
0.0000
 20
-0.2500
 30
0.0000
  0
SEQEND
  8
0
  0
ENDBLK
  8
0
  0
BLOCK
  8
0
  2
OCTAGONP
 70
64
 10
0.0000
 20
0.0000
 30
0.0000
  3
OCTAGONP
  0
POLYLINE
  8
0
 66
1
 10
0.0000
 20
0.0000
 30
0.0000
 40
0.5000
 41
0.5000
 70
0
  0
VERTEX
  8
0
 10
-0.2500
 20
-0.1036
 30
0.0000
  0
VERTEX
  8
0
 10
-0.2500
 20
0.1036
 30
0.0000
  0
VERTEX
  8
0
 10
-0.1036
 20
0.2500
 30
0.0000
  0
VERTEX
  8
0
 10
0.1036
 20
0.2500
 30
0.0000
  0
VERTEX
  8
0
 10
0.2500
 20
0.1036
 30
0.0000
  0
VERTEX
  8
0
 10
0.2500
 20
-0.1036
 30
0.0000
  0
VERTEX
  8
0
 10
0.1036
 20
-0.2500
 30
0.0000
  0
VERTEX
  8
0
 10
-0.1036
 20
-0.2500
 30
0.0000
  0
VERTEX
  8
0
 10
-0.2500
 20
-0.1036
 30
0.0000
  0
VERTEX
  8
0
 10
-0.2500
 20
0.1036
 30
0.0000
  0
SEQEND
  8
0
  0
ENDBLK
  8
0
  0
BLOCK
  8
0
  2
SQUAREP
 70
64
 10
0.0000
 20
0.0000
 30
0.0000
  3
SQUAREP
  0
SOLID
  8
0
 10
-0.5000
 20
-0.5000
 30
0.0000
 11
0.5000
 21
-0.5000
 31
0.0000
 12
-0.5000
 22
0.5000
 32
0.0000
 13
0.5000
 23
0.5000
 33
0.0000
  0
ENDBLK
  8
0
  0
BLOCK
  8
0
  2
ROUNDP
 70
64
 10
0.0000
 20
0.0000
 30
0.0000
  3
ROUNDP
  0
POLYLINE
  8
0
 66
1
 10
0.0000
 20
0.0000
 30
0.0000
 40
0.5000
 41
0.5000
 70
0
  0
VERTEX
  8
0
 10
0.0000
 20
-0.2500
 30
0.0000
 42
1.0000
  0
VERTEX
  8
0
 10
0.0000
 20
0.2500
 30
0.0000
 42
1.0000
  0
VERTEX
  8
0
 10
0.0000
 20
-0.2500
 30
0.0000
  0
SEQEND
  8
0
  0
ENDBLK
  8
0
  0
BLOCK
  8
0
  2
ANNULUSP
 70
64
 10
0.0000
 20
0.0000
 30
0.0000
  3
ANNULUSP
  0
POLYLINE
  8
0
 66
1
 10
0.0000
 20
0.0000
 30
0.0000
 40
0.5000
 41
0.5000
 70
0
  0
VERTEX
  8
0
 10
0.0000
 20
-0.2500
 30
0.0000
 42
1.0000
  0
VERTEX
  8
0
 10
0.0000
 20
0.2500
 30
0.0000
 42
1.0000
  0
VERTEX
  8
0
 10
0.0000
 20
-0.2500
 30
0.0000
  0
SEQEND
  8
0
  0
ENDBLK
  8
0
  0
BLOCK
  8
0
  2
THERMALP
 70
64
 10
0.0000
 20
0.0000
 30
0.0000
  3
THERMALP
  0
POLYLINE
  8
0
 66
1
 10
0.0000
 20
0.0000
 30
0.0000
 40
0.1000
 41
0.1000
 70
0
  0
VERTEX
  8
0
 10
-0.2379
 20
0.4500
 30
0.0000
  0
VERTEX
  8
0
 10
0.2379
 20
0.4500
 30
0.0000
  0
SEQEND
  8
0
  0
POLYLINE
  8
0
 66
1
 10
0.0000
 20
0.0000
 30
0.0000
 40
0.0500
 41
0.0500
 70
0
  0
VERTEX
  8
0
 10
0.2379
 20
0.4250
 30
0.0000
 42
1.0000
  0
VERTEX
  8
0
 10
0.2379
 20
0.4750
 30
0.0000
  0
SEQEND
  8
0
  0
POLYLINE
  8
0
 66
1
 10
0.0000
 20
0.0000
 30
0.0000
 40
0.0500
 41
0.0500
 70
0
  0
VERTEX
  8
0
 10
-0.2379
 20
0.4750
 30
0.0000
 42
1.0000
  0
VERTEX
  8
0
 10
-0.2379
 20
0.4250
 30
0.0000
  0
SEQEND
  8
0
  0
POLYLINE
  8
0
 66
1
 10
0.0000
 20
0.0000
 30
0.0000
 40
0.1000
 41
0.1000
 70
0
  0
VERTEX
  8
0
 10
0.4500
 20
0.2379
 30
0.0000
  0
VERTEX
  8
0
 10
0.4500
 20
-0.2379
 30
0.0000
  0
SEQEND
  8
0
  0
POLYLINE
  8
0
 66
1
 10
0.0000
 20
0.0000
 30
0.0000
 40
0.0500
 41
0.0500
 70
0
  0
VERTEX
  8
0
 10
0.4250
 20
-0.2379
 30
0.0000
 42
1.0000
  0
VERTEX
  8
0
 10
0.4750
 20
-0.2379
 30
0.0000
  0
SEQEND
  8
0
  0
POLYLINE
  8
0
 66
1
 10
0.0000
 20
0.0000
 30
0.0000
 40
0.0500
 41
0.0500
 70
0
  0
VERTEX
  8
0
 10
0.4750
 20
0.2379
 30
0.0000
 42
1.0000
  0
VERTEX
  8
0
 10
0.4250
 20
0.2379
 30
0.0000
  0
SEQEND
  8
0
  0
POLYLINE
  8
0
 66
1
 10
0.0000
 20
0.0000
 30
0.0000
 40
0.1000
 41
0.1000
 70
0
  0
VERTEX
  8
0
 10
0.2379
 20
-0.4500
 30
0.0000
  0
VERTEX
  8
0
 10
-0.2379
 20
-0.4500
 30
0.0000
  0
SEQEND
  8
0
  0
POLYLINE
  8
0
 66
1
 10
0.0000
 20
0.0000
 30
0.0000
 40
0.0500
 41
0.0500
 70
0
  0
VERTEX
  8
0
 10
-0.2379
 20
-0.4250
 30
0.0000
 42
1.0000
  0
VERTEX
  8
0
 10
-0.2379
 20
-0.4750
 30
0.0000
  0
SEQEND
  8
0
  0
POLYLINE
  8
0
 66
1
 10
0.0000
 20
0.0000
 30
0.0000
 40
0.0500
 41
0.0500
 70
0
  0
VERTEX
  8
0
 10
0.2379
 20
-0.4750
 30
0.0000
 42
1.0000
  0
VERTEX
  8
0
 10
0.2379
 20
-0.4250
 30
0.0000
  0
SEQEND
  8
0
  0
POLYLINE
  8
0
 66
1
 10
0.0000
 20
0.0000
 30
0.0000
 40
0.1000
 41
0.1000
 70
0
  0
VERTEX
  8
0
 10
-0.4500
 20
-0.2379
 30
0.0000
  0
VERTEX
  8
0
 10
-0.4500
 20
0.2379
 30
0.0000
  0
SEQEND
  8
0
  0
POLYLINE
  8
0
 66
1
 10
0.0000
 20
0.0000
 30
0.0000
 40
0.0500
 41
0.0500
 70
0
  0
VERTEX
  8
0
 10
-0.4250
 20
0.2379
 30
0.0000
 42
1.0000
  0
VERTEX
  8
0
 10
-0.4750
 20
0.2379
 30
0.0000
  0
SEQEND
  8
0
  0
POLYLINE
  8
0
 66
1
 10
0.0000
 20
0.0000
 30
0.0000
 40
0.0500
 41
0.0500
 70
0
  0
VERTEX
  8
0
 10
-0.4750
 20
-0.2379
 30
0.0000
 42
1.0000
  0
VERTEX
  8
0
 10
-0.4250
 20
-0.2379
 30
0.0000
  0
SEQEND
  8
0
  0
ENDBLK
  8
0
  0
BLOCK
  8
0
  2
OCTAGONV
 70
64
 10
0.0000
 20
0.0000
 30
0.0000
  3
OCTAGONV
  0
POLYLINE
  8
0
 66
1
 10
0.0000
 20
0.0000
 30
0.0000
 40
0.5000
 41
0.5000
 70
0
  0
VERTEX
  8
0
 10
-0.2500
 20
-0.1036
 30
0.0000
  0
VERTEX
  8
0
 10
-0.2500
 20
0.1036
 30
0.0000
  0
VERTEX
  8
0
 10
-0.1036
 20
0.2500
 30
0.0000
  0
VERTEX
  8
0
 10
0.1036
 20
0.2500
 30
0.0000
  0
VERTEX
  8
0
 10
0.2500
 20
0.1036
 30
0.0000
  0
VERTEX
  8
0
 10
0.2500
 20
-0.1036
 30
0.0000
  0
VERTEX
  8
0
 10
0.1036
 20
-0.2500
 30
0.0000
  0
VERTEX
  8
0
 10
-0.1036
 20
-0.2500
 30
0.0000
  0
VERTEX
  8
0
 10
-0.2500
 20
-0.1036
 30
0.0000
  0
VERTEX
  8
0
 10
-0.2500
 20
0.1036
 30
0.0000
  0
SEQEND
  8
0
  0
ENDBLK
  8
0
  0
BLOCK
  8
0
  2
SQUAREV
 70
64
 10
0.0000
 20
0.0000
 30
0.0000
  3
SQUAREV
  0
SOLID
  8
0
 10
-0.5000
 20
-0.5000
 30
0.0000
 11
0.5000
 21
-0.5000
 31
0.0000
 12
-0.5000
 22
0.5000
 32
0.0000
 13
0.5000
 23
0.5000
 33
0.0000
  0
ENDBLK
  8
0
  0
BLOCK
  8
0
  2
ROUNDV
 70
64
 10
0.0000
 20
0.0000
 30
0.0000
  3
ROUNDV
  0
POLYLINE
  8
0
 66
1
 10
0.0000
 20
0.0000
 30
0.0000
 40
0.5000
 41
0.5000
 70
0
  0
VERTEX
  8
0
 10
0.0000
 20
-0.2500
 30
0.0000
 42
1.0000
  0
VERTEX
  8
0
 10
0.0000
 20
0.2500
 30
0.0000
 42
1.0000
  0
VERTEX
  8
0
 10
0.0000
 20
-0.2500
 30
0.0000
  0
SEQEND
  8
0
  0
ENDBLK
  8
0
  0
BLOCK
  8
0
  2
ANNULUSV
 70
64
 10
0.0000
 20
0.0000
 30
0.0000
  3
ANNULUSV
  0
POLYLINE
  8
0
 66
1
 10
0.0000
 20
0.0000
 30
0.0000
 40
0.5000
 41
0.5000
 70
0
  0
VERTEX
  8
0
 10
0.0000
 20
-0.2500
 30
0.0000
 42
1.0000
  0
VERTEX
  8
0
 10
0.0000
 20
0.2500
 30
0.0000
 42
1.0000
  0
VERTEX
  8
0
 10
0.0000
 20
-0.2500
 30
0.0000
  0
SEQEND
  8
0
  0
ENDBLK
  8
0
  0
BLOCK
  8
0
  2
THERMALV
 70
64
 10
0.0000
 20
0.0000
 30
0.0000
  3
THERMALV
  0
POLYLINE
  8
0
 66
1
 10
0.0000
 20
0.0000
 30
0.0000
 40
0.1000
 41
0.1000
 70
0
  0
VERTEX
  8
0
 10
-0.2379
 20
0.4500
 30
0.0000
  0
VERTEX
  8
0
 10
0.2379
 20
0.4500
 30
0.0000
  0
SEQEND
  8
0
  0
POLYLINE
  8
0
 66
1
 10
0.0000
 20
0.0000
 30
0.0000
 40
0.0500
 41
0.0500
 70
0
  0
VERTEX
  8
0
 10
0.2379
 20
0.4250
 30
0.0000
 42
1.0000
  0
VERTEX
  8
0
 10
0.2379
 20
0.4750
 30
0.0000
  0
SEQEND
  8
0
  0
POLYLINE
  8
0
 66
1
 10
0.0000
 20
0.0000
 30
0.0000
 40
0.0500
 41
0.0500
 70
0
  0
VERTEX
  8
0
 10
-0.2379
 20
0.4750
 30
0.0000
 42
1.0000
  0
VERTEX
  8
0
 10
-0.2379
 20
0.4250
 30
0.0000
  0
SEQEND
  8
0
  0
POLYLINE
  8
0
 66
1
 10
0.0000
 20
0.0000
 30
0.0000
 40
0.1000
 41
0.1000
 70
0
  0
VERTEX
  8
0
 10
0.4500
 20
0.2379
 30
0.0000
  0
VERTEX
  8
0
 10
0.4500
 20
-0.2379
 30
0.0000
  0
SEQEND
  8
0
  0
POLYLINE
  8
0
 66
1
 10
0.0000
 20
0.0000
 30
0.0000
 40
0.0500
 41
0.0500
 70
0
  0
VERTEX
  8
0
 10
0.4250
 20
-0.2379
 30
0.0000
 42
1.0000
  0
VERTEX
  8
0
 10
0.4750
 20
-0.2379
 30
0.0000
  0
SEQEND
  8
0
  0
POLYLINE
  8
0
 66
1
 10
0.0000
 20
0.0000
 30
0.0000
 40
0.0500
 41
0.0500
 70
0
  0
VERTEX
  8
0
 10
0.4750
 20
0.2379
 30
0.0000
 42
1.0000
  0
VERTEX
  8
0
 10
0.4250
 20
0.2379
 30
0.0000
  0
SEQEND
  8
0
  0
POLYLINE
  8
0
 66
1
 10
0.0000
 20
0.0000
 30
0.0000
 40
0.1000
 41
0.1000
 70
0
  0
VERTEX
  8
0
 10
0.2379
 20
-0.4500
 30
0.0000
  0
VERTEX
  8
0
 10
-0.2379
 20
-0.4500
 30
0.0000
  0
SEQEND
  8
0
  0
POLYLINE
  8
0
 66
1
 10
0.0000
 20
0.0000
 30
0.0000
 40
0.0500
 41
0.0500
 70
0
  0
VERTEX
  8
0
 10
-0.2379
 20
-0.4250
 30
0.0000
 42
1.0000
  0
VERTEX
  8
0
 10
-0.2379
 20
-0.4750
 30
0.0000
  0
SEQEND
  8
0
  0
POLYLINE
  8
0
 66
1
 10
0.0000
 20
0.0000
 30
0.0000
 40
0.0500
 41
0.0500
 70
0
  0
VERTEX
  8
0
 10
0.2379
 20
-0.4750
 30
0.0000
 42
1.0000
  0
VERTEX
  8
0
 10
0.2379
 20
-0.4250
 30
0.0000
  0
SEQEND
  8
0
  0
POLYLINE
  8
0
 66
1
 10
0.0000
 20
0.0000
 30
0.0000
 40
0.1000
 41
0.1000
 70
0
  0
VERTEX
  8
0
 10
-0.4500
 20
-0.2379
 30
0.0000
  0
VERTEX
  8
0
 10
-0.4500
 20
0.2379
 30
0.0000
  0
SEQEND
  8
0
  0
POLYLINE
  8
0
 66
1
 10
0.0000
 20
0.0000
 30
0.0000
 40
0.0500
 41
0.0500
 70
0
  0
VERTEX
  8
0
 10
-0.4250
 20
0.2379
 30
0.0000
 42
1.0000
  0
VERTEX
  8
0
 10
-0.4750
 20
0.2379
 30
0.0000
  0
SEQEND
  8
0
  0
POLYLINE
  8
0
 66
1
 10
0.0000
 20
0.0000
 30
0.0000
 40
0.0500
 41
0.0500
 70
0
  0
VERTEX
  8
0
 10
-0.4750
 20
-0.2379
 30
0.0000
 42
1.0000
  0
VERTEX
  8
0
 10
-0.4250
 20
-0.2379
 30
0.0000
  0
SEQEND
  8
0
  0
ENDBLK
  8
0
  0
ENDSEC
  0
SECTION
  2
ENTITIES
  0
LINE
  8
20
 10
-0.5500
 20
-1.0500
 30
0.0000
 11
18.5500
 21
-1.0500
 31
0.0000
  0
LINE
  8
20
 10
18.5500
 20
-1.0500
 30
0.0000
 11
18.5500
 21
29.0500
 31
0.0000
  0
LINE
  8
20
 10
18.5500
 20
29.0500
 30
0.0000
 11
-0.5500
 21
29.0500
 31
0.0000
  0
LINE
  8
20
 10
-0.5500
 20
29.0500
 30
0.0000
 11
-0.5500
 21
-1.0500
 31
0.0000
  0
POINT
  8
23
 10
9.0000
 20
10.6500
 30
0.0000
  0
POLYLINE
  8
21
 66
1
 10
0.0000
 20
0.0000
 30
0.0000
 40
0.1524
 41
0.1524
 70
0
  0
VERTEX
  8
21
 10
17.6000
 20
20.4500
 30
0.0000
  0
VERTEX
  8
21
 10
17.6000
 20
0.8500
 30
0.0000
  0
SEQEND
  8
0
  0
POLYLINE
  8
21
 66
1
 10
0.0000
 20
0.0000
 30
0.0000
 40
0.0762
 41
0.0762
 70
0
  0
VERTEX
  8
21
 10
17.5619
 20
0.8500
 30
0.0000
 42
1.0000
  0
VERTEX
  8
21
 10
17.6381
 20
0.8500
 30
0.0000
  0
SEQEND
  8
0
  0
POLYLINE
  8
21
 66
1
 10
0.0000
 20
0.0000
 30
0.0000
 40
0.0762
 41
0.0762
 70
0
  0
VERTEX
  8
21
 10
17.6381
 20
20.4500
 30
0.0000
 42
1.0000
  0
VERTEX
  8
21
 10
17.5619
 20
20.4500
 30
0.0000
  0
SEQEND
  8
0
  0
POLYLINE
  8
21
 66
1
 10
0.0000
 20
0.0000
 30
0.0000
 40
0.1524
 41
0.1524
 70
0
  0
VERTEX
  8
21
 10
0.4000
 20
0.8500
 30
0.0000
  0
VERTEX
  8
21
 10
0.4000
 20
20.4500
 30
0.0000
  0
SEQEND
  8
0
  0
POLYLINE
  8
21
 66
1
 10
0.0000
 20
0.0000
 30
0.0000
 40
0.0762
 41
0.0762
 70
0
  0
VERTEX
  8
21
 10
0.4381
 20
20.4500
 30
0.0000
 42
1.0000
  0
VERTEX
  8
21
 10
0.3619
 20
20.4500
 30
0.0000
  0
SEQEND
  8
0
  0
POLYLINE
  8
21
 66
1
 10
0.0000
 20
0.0000
 30
0.0000
 40
0.0762
 41
0.0762
 70
0
  0
VERTEX
  8
21
 10
0.3619
 20
0.8500
 30
0.0000
 42
1.0000
  0
VERTEX
  8
21
 10
0.4381
 20
0.8500
 30
0.0000
  0
SEQEND
  8
0
  0
POLYLINE
  8
21
 66
1
 10
0.0000
 20
0.0000
 30
0.0000
 40
0.1524
 41
0.1524
 70
0
  0
VERTEX
  8
21
 10
17.6000
 20
0.8500
 30
0.0000
  0
VERTEX
  8
21
 10
0.4000
 20
0.8500
 30
0.0000
  0
SEQEND
  8
0
  0
POLYLINE
  8
21
 66
1
 10
0.0000
 20
0.0000
 30
0.0000
 40
0.0762
 41
0.0762
 70
0
  0
VERTEX
  8
21
 10
0.4000
 20
0.8881
 30
0.0000
 42
1.0000
  0
VERTEX
  8
21
 10
0.4000
 20
0.8119
 30
0.0000
  0
SEQEND
  8
0
  0
POLYLINE
  8
21
 66
1
 10
0.0000
 20
0.0000
 30
0.0000
 40
0.0762
 41
0.0762
 70
0
  0
VERTEX
  8
21
 10
17.6000
 20
0.8119
 30
0.0000
 42
1.0000
  0
VERTEX
  8
21
 10
17.6000
 20
0.8881
 30
0.0000
  0
SEQEND
  8
0
  0
POLYLINE
  8
21
 66
1
 10
0.0000
 20
0.0000
 30
0.0000
 40
0.1524
 41
0.1524
 70
0
  0
VERTEX
  8
21
 10
0.4000
 20
20.4500
 30
0.0000
  0
VERTEX
  8
21
 10
17.6000
 20
20.4500
 30
0.0000
  0
SEQEND
  8
0
  0
POLYLINE
  8
21
 66
1
 10
0.0000
 20
0.0000
 30
0.0000
 40
0.0762
 41
0.0762
 70
0
  0
VERTEX
  8
21
 10
17.6000
 20
20.4119
 30
0.0000
 42
1.0000
  0
VERTEX
  8
21
 10
17.6000
 20
20.4881
 30
0.0000
  0
SEQEND
  8
0
  0
POLYLINE
  8
21
 66
1
 10
0.0000
 20
0.0000
 30
0.0000
 40
0.0762
 41
0.0762
 70
0
  0
VERTEX
  8
21
 10
0.4000
 20
20.4881
 30
0.0000
 42
1.0000
  0
VERTEX
  8
21
 10
0.4000
 20
20.4119
 30
0.0000
  0
SEQEND
  8
0
  0
POLYLINE
  8
51
 66
1
 10
0.0000
 20
0.0000
 30
0.0000
 40
0.2032
 41
0.2032
 70
0
  0
VERTEX
  8
51
 10
3.0750
 20
11.6500
 30
0.0000
  0
VERTEX
  8
51
 10
4.0000
 20
11.6500
 30
0.0000
  0
SEQEND
  8
0
  0
POLYLINE
  8
51
 66
1
 10
0.0000
 20
0.0000
 30
0.0000
 40
0.1016
 41
0.1016
 70
0
  0
VERTEX
  8
51
 10
4.0000
 20
11.5992
 30
0.0000
 42
1.0000
  0
VERTEX
  8
51
 10
4.0000
 20
11.7008
 30
0.0000
  0
SEQEND
  8
0
  0
POLYLINE
  8
51
 66
1
 10
0.0000
 20
0.0000
 30
0.0000
 40
0.1016
 41
0.1016
 70
0
  0
VERTEX
  8
51
 10
3.0750
 20
11.7008
 30
0.0000
 42
1.0000
  0
VERTEX
  8
51
 10
3.0750
 20
11.5992
 30
0.0000
  0
SEQEND
  8
0
  0
POLYLINE
  8
51
 66
1
 10
0.0000
 20
0.0000
 30
0.0000
 40
0.2032
 41
0.2032
 70
0
  0
VERTEX
  8
51
 10
4.0000
 20
11.6500
 30
0.0000
  0
VERTEX
  8
51
 10
4.0000
 20
9.6500
 30
0.0000
  0
SEQEND
  8
0
  0
POLYLINE
  8
51
 66
1
 10
0.0000
 20
0.0000
 30
0.0000
 40
0.1016
 41
0.1016
 70
0
  0
VERTEX
  8
51
 10
3.9492
 20
9.6500
 30
0.0000
 42
1.0000
  0
VERTEX
  8
51
 10
4.0508
 20
9.6500
 30
0.0000
  0
SEQEND
  8
0
  0
POLYLINE
  8
51
 66
1
 10
0.0000
 20
0.0000
 30
0.0000
 40
0.1016
 41
0.1016
 70
0
  0
VERTEX
  8
51
 10
4.0508
 20
11.6500
 30
0.0000
 42
1.0000
  0
VERTEX
  8
51
 10
3.9492
 20
11.6500
 30
0.0000
  0
SEQEND
  8
0
  0
POLYLINE
  8
51
 66
1
 10
0.0000
 20
0.0000
 30
0.0000
 40
0.2032
 41
0.2032
 70
0
  0
VERTEX
  8
51
 10
4.0000
 20
9.6500
 30
0.0000
  0
VERTEX
  8
51
 10
3.1000
 20
9.6500
 30
0.0000
  0
SEQEND
  8
0
  0
POLYLINE
  8
51
 66
1
 10
0.0000
 20
0.0000
 30
0.0000
 40
0.1016
 41
0.1016
 70
0
  0
VERTEX
  8
51
 10
3.1000
 20
9.7008
 30
0.0000
 42
1.0000
  0
VERTEX
  8
51
 10
3.1000
 20
9.5992
 30
0.0000
  0
SEQEND
  8
0
  0
POLYLINE
  8
51
 66
1
 10
0.0000
 20
0.0000
 30
0.0000
 40
0.1016
 41
0.1016
 70
0
  0
VERTEX
  8
51
 10
4.0000
 20
9.5992
 30
0.0000
 42
1.0000
  0
VERTEX
  8
51
 10
4.0000
 20
9.7008
 30
0.0000
  0
SEQEND
  8
0
  0
POLYLINE
  8
51
 66
1
 10
0.0000
 20
0.0000
 30
0.0000
 40
0.2032
 41
0.2032
 70
0
  0
VERTEX
  8
51
 10
3.0750
 20
9.6500
 30
0.0000
 42
11.9340
  0
VERTEX
  8
51
 10
3.0750
 20
11.6500
 30
0.0000
  0
SEQEND
  8
0
  0
POLYLINE
  8
51
 66
1
 10
0.0000
 20
0.0000
 30
0.0000
 40
0.1016
 41
0.1016
 70
0
  0
VERTEX
  8
51
 10
3.1251
 20
9.6585
 30
0.0000
 42
1.0000
  0
VERTEX
  8
51
 10
3.0249
 20
9.6415
 30
0.0000
  0
SEQEND
  8
0
  0
POLYLINE
  8
51
 66
1
 10
0.0000
 20
0.0000
 30
0.0000
 40
0.1016
 41
0.1016
 70
0
  0
VERTEX
  8
51
 10
3.0249
 20
11.6585
 30
0.0000
 42
1.0000
  0
VERTEX
  8
51
 10
3.1251
 20
11.6415
 30
0.0000
  0
SEQEND
  8
0
  0
POLYLINE
  8
51
 66
1
 10
0.0000
 20
0.0000
 30
0.0000
 40
0.2032
 41
0.2032
 70
0
  0
VERTEX
  8
51
 10
9.0000
 20
2.6500
 30
0.0000
 42
1.0000
  0
VERTEX
  8
51
 10
9.0000
 20
18.6500
 30
0.0000
 42
1.0000
  0
VERTEX
  8
51
 10
9.0000
 20
2.6500
 30
0.0000
  0
SEQEND
  8
0
  0
POLYLINE
  8
51
 66
1
 10
0.0000
 20
0.0000
 30
0.0000
 40
0.2032
 41
0.2032
 70
0
  0
VERTEX
  8
51
 10
9.0000
 20
3.6500
 30
0.0000
 42
1.0000
  0
VERTEX
  8
51
 10
9.0000
 20
17.6500
 30
0.0000
 42
1.0000
  0
VERTEX
  8
51
 10
9.0000
 20
3.6500
 30
0.0000
  0
SEQEND
  8
0
  0
POLYLINE
  8
51
 66
1
 10
0.0000
 20
0.0000
 30
0.0000
 40
0.2032
 41
0.2032
 70
0
  0
VERTEX
  8
51
 10
9.0000
 20
5.6500
 30
0.0000
 42
1.0000
  0
VERTEX
  8
51
 10
9.0000
 20
15.6500
 30
0.0000
 42
1.0000
  0
VERTEX
  8
51
 10
9.0000
 20
5.6500
 30
0.0000
  0
SEQEND
  8
0
  0
INSERT
  8
17
  2
OCTAGONP
 10
13.7000
 20
15.9500
 30
0.0000
 41
3.8100
 42
3.8100
 43
1.0000
 50
270.0000
  0
INSERT
  8
17
  2
OCTAGONP
 10
13.7000
 20
15.9500
 30
0.0000
 41
3.8100
 42
3.8100
 43
1.0000
 50
270.0000
  0
INSERT
  8
17
  2
ROUNDP
 10
13.7000
 20
10.6500
 30
0.0000
 41
3.8100
 42
3.8100
 43
1.0000
 50
270.0000
  0
INSERT
  8
17
  2
ROUNDP
 10
13.7000
 20
10.6500
 30
0.0000
 41
3.8100
 42
3.8100
 43
1.0000
 50
270.0000
  0
INSERT
  8
17
  2
ROUNDP
 10
13.7000
 20
5.3500
 30
0.0000
 41
3.8100
 42
3.8100
 43
1.0000
 50
270.0000
  0
INSERT
  8
17
  2
ROUNDP
 10
13.7000
 20
5.3500
 30
0.0000
 41
3.8100
 42
3.8100
 43
1.0000
 50
270.0000
  0
INSERT
  8
17
  2
ROUNDP
 10
9.0000
 20
15.9500
 30
0.0000
 41
3.8100
 42
3.8100
 43
1.0000
 50
270.0000
  0
INSERT
  8
17
  2
ROUNDP
 10
9.0000
 20
15.9500
 30
0.0000
 41
3.8100
 42
3.8100
 43
1.0000
 50
270.0000
  0
INSERT
  8
17
  2
ROUNDP
 10
9.0000
 20
10.6500
 30
0.0000
 41
3.8100
 42
3.8100
 43
1.0000
 50
270.0000
  0
INSERT
  8
17
  2
ROUNDP
 10
9.0000
 20
10.6500
 30
0.0000
 41
3.8100
 42
3.8100
 43
1.0000
 50
270.0000
  0
INSERT
  8
17
  2
ROUNDP
 10
9.0000
 20
5.3500
 30
0.0000
 41
3.8100
 42
3.8100
 43
1.0000
 50
270.0000
  0
INSERT
  8
17
  2
ROUNDP
 10
9.0000
 20
5.3500
 30
0.0000
 41
3.8100
 42
3.8100
 43
1.0000
 50
270.0000
  0
INSERT
  8
17
  2
ROUNDP
 10
4.3000
 20
15.9500
 30
0.0000
 41
3.8100
 42
3.8100
 43
1.0000
 50
270.0000
  0
INSERT
  8
17
  2
ROUNDP
 10
4.3000
 20
15.9500
 30
0.0000
 41
3.8100
 42
3.8100
 43
1.0000
 50
270.0000
  0
INSERT
  8
17
  2
ROUNDP
 10
4.3000
 20
10.6500
 30
0.0000
 41
3.8100
 42
3.8100
 43
1.0000
 50
270.0000
  0
INSERT
  8
17
  2
ROUNDP
 10
4.3000
 20
10.6500
 30
0.0000
 41
3.8100
 42
3.8100
 43
1.0000
 50
270.0000
  0
INSERT
  8
17
  2
ROUNDP
 10
4.3000
 20
5.3500
 30
0.0000
 41
3.8100
 42
3.8100
 43
1.0000
 50
270.0000
  0
INSERT
  8
17
  2
ROUNDP
 10
4.3000
 20
5.3500
 30
0.0000
 41
3.8100
 42
3.8100
 43
1.0000
 50
270.0000
  0
POLYLINE
  8
27
 66
1
 10
0.0000
 20
0.0000
 30
0.0000
 40
0.2540
 41
0.2540
 70
0
  0
VERTEX
  8
27
 10
6.6270
 20
2.3515
 30
0.0000
  0
VERTEX
  8
27
 10
6.8219
 20
2.5464
 30
0.0000
  0
SEQEND
  8
0
  0
POLYLINE
  8
27
 66
1
 10
0.0000
 20
0.0000
 30
0.0000
 40
0.1270
 41
0.1270
 70
0
  0
VERTEX
  8
27
 10
6.8668
 20
2.5015
 30
0.0000
 42
1.0000
  0
VERTEX
  8
27
 10
6.7770
 20
2.5913
 30
0.0000
  0
SEQEND
  8
0
  0
POLYLINE
  8
27
 66
1
 10
0.0000
 20
0.0000
 30
0.0000
 40
0.1270
 41
0.1270
 70
0
  0
VERTEX
  8
27
 10
6.5821
 20
2.3964
 30
0.0000
 42
1.0000
  0
VERTEX
  8
27
 10
6.6719
 20
2.3066
 30
0.0000
  0
SEQEND
  8
0
  0
POLYLINE
  8
27
 66
1
 10
0.0000
 20
0.0000
 30
0.0000
 40
0.2540
 41
0.2540
 70
0
  0
VERTEX
  8
27
 10
6.8219
 20
2.5464
 30
0.0000
  0
VERTEX
  8
27
 10
7.2117
 20
2.5464
 30
0.0000
  0
SEQEND
  8
0
  0
POLYLINE
  8
27
 66
1
 10
0.0000
 20
0.0000
 30
0.0000
 40
0.1270
 41
0.1270
 70
0
  0
VERTEX
  8
27
 10
7.2117
 20
2.4829
 30
0.0000
 42
1.0000
  0
VERTEX
  8
27
 10
7.2117
 20
2.6099
 30
0.0000
  0
SEQEND
  8
0
  0
POLYLINE
  8
27
 66
1
 10
0.0000
 20
0.0000
 30
0.0000
 40
0.1270
 41
0.1270
 70
0
  0
VERTEX
  8
27
 10
6.8219
 20
2.6099
 30
0.0000
 42
1.0000
  0
VERTEX
  8
27
 10
6.8219
 20
2.4829
 30
0.0000
  0
SEQEND
  8
0
  0
POLYLINE
  8
27
 66
1
 10
0.0000
 20
0.0000
 30
0.0000
 40
0.2540
 41
0.2540
 70
0
  0
VERTEX
  8
27
 10
7.2117
 20
2.5464
 30
0.0000
  0
VERTEX
  8
27
 10
7.4066
 20
2.3515
 30
0.0000
  0
SEQEND
  8
0
  0
POLYLINE
  8
27
 66
1
 10
0.0000
 20
0.0000
 30
0.0000
 40
0.1270
 41
0.1270
 70
0
  0
VERTEX
  8
27
 10
7.3617
 20
2.3066
 30
0.0000
 42
1.0000
  0
VERTEX
  8
27
 10
7.4515
 20
2.3964
 30
0.0000
  0
SEQEND
  8
0
  0
POLYLINE
  8
27
 66
1
 10
0.0000
 20
0.0000
 30
0.0000
 40
0.1270
 41
0.1270
 70
0
  0
VERTEX
  8
27
 10
7.2566
 20
2.5913
 30
0.0000
 42
1.0000
  0
VERTEX
  8
27
 10
7.1668
 20
2.5015
 30
0.0000
  0
SEQEND
  8
0
  0
POLYLINE
  8
27
 66
1
 10
0.0000
 20
0.0000
 30
0.0000
 40
0.2540
 41
0.2540
 70
0
  0
VERTEX
  8
27
 10
7.4066
 20
2.3515
 30
0.0000
  0
VERTEX
  8
27
 10
7.4066
 20
2.1566
 30
0.0000
  0
SEQEND
  8
0
  0
POLYLINE
  8
27
 66
1
 10
0.0000
 20
0.0000
 30
0.0000
 40
0.1270
 41
0.1270
 70
0
  0
VERTEX
  8
27
 10
7.3431
 20
2.1566
 30
0.0000
 42
1.0000
  0
VERTEX
  8
27
 10
7.4701
 20
2.1566
 30
0.0000
  0
SEQEND
  8
0
  0
POLYLINE
  8
27
 66
1
 10
0.0000
 20
0.0000
 30
0.0000
 40
0.1270
 41
0.1270
 70
0
  0
VERTEX
  8
27
 10
7.4701
 20
2.3515
 30
0.0000
 42
1.0000
  0
VERTEX
  8
27
 10
7.3431
 20
2.3515
 30
0.0000
  0
SEQEND
  8
0
  0
POLYLINE
  8
27
 66
1
 10
0.0000
 20
0.0000
 30
0.0000
 40
0.2540
 41
0.2540
 70
0
  0
VERTEX
  8
27
 10
7.4066
 20
2.1566
 30
0.0000
  0
VERTEX
  8
27
 10
7.2117
 20
1.9617
 30
0.0000
  0
SEQEND
  8
0
  0
POLYLINE
  8
27
 66
1
 10
0.0000
 20
0.0000
 30
0.0000
 40
0.1270
 41
0.1270
 70
0
  0
VERTEX
  8
27
 10
7.1668
 20
2.0066
 30
0.0000
 42
1.0000
  0
VERTEX
  8
27
 10
7.2566
 20
1.9168
 30
0.0000
  0
SEQEND
  8
0
  0
POLYLINE
  8
27
 66
1
 10
0.0000
 20
0.0000
 30
0.0000
 40
0.1270
 41
0.1270
 70
0
  0
VERTEX
  8
27
 10
7.4515
 20
2.1117
 30
0.0000
 42
1.0000
  0
VERTEX
  8
27
 10
7.3617
 20
2.2015
 30
0.0000
  0
SEQEND
  8
0
  0
POLYLINE
  8
27
 66
1
 10
0.0000
 20
0.0000
 30
0.0000
 40
0.2540
 41
0.2540
 70
0
  0
VERTEX
  8
27
 10
7.2117
 20
1.9617
 30
0.0000
  0
VERTEX
  8
27
 10
7.0168
 20
1.9617
 30
0.0000
  0
SEQEND
  8
0
  0
POLYLINE
  8
27
 66
1
 10
0.0000
 20
0.0000
 30
0.0000
 40
0.1270
 41
0.1270
 70
0
  0
VERTEX
  8
27
 10
7.0168
 20
2.0252
 30
0.0000
 42
1.0000
  0
VERTEX
  8
27
 10
7.0168
 20
1.8982
 30
0.0000
  0
SEQEND
  8
0
  0
POLYLINE
  8
27
 66
1
 10
0.0000
 20
0.0000
 30
0.0000
 40
0.1270
 41
0.1270
 70
0
  0
VERTEX
  8
27
 10
7.2117
 20
1.8982
 30
0.0000
 42
1.0000
  0
VERTEX
  8
27
 10
7.2117
 20
2.0252
 30
0.0000
  0
SEQEND
  8
0
  0
POLYLINE
  8
27
 66
1
 10
0.0000
 20
0.0000
 30
0.0000
 40
0.2540
 41
0.2540
 70
0
  0
VERTEX
  8
27
 10
7.2117
 20
1.9617
 30
0.0000
  0
VERTEX
  8
27
 10
7.4066
 20
1.7668
 30
0.0000
  0
SEQEND
  8
0
  0
POLYLINE
  8
27
 66
1
 10
0.0000
 20
0.0000
 30
0.0000
 40
0.1270
 41
0.1270
 70
0
  0
VERTEX
  8
27
 10
7.3617
 20
1.7219
 30
0.0000
 42
1.0000
  0
VERTEX
  8
27
 10
7.4515
 20
1.8117
 30
0.0000
  0
SEQEND
  8
0
  0
POLYLINE
  8
27
 66
1
 10
0.0000
 20
0.0000
 30
0.0000
 40
0.1270
 41
0.1270
 70
0
  0
VERTEX
  8
27
 10
7.2566
 20
2.0066
 30
0.0000
 42
1.0000
  0
VERTEX
  8
27
 10
7.1668
 20
1.9168
 30
0.0000
  0
SEQEND
  8
0
  0
POLYLINE
  8
27
 66
1
 10
0.0000
 20
0.0000
 30
0.0000
 40
0.2540
 41
0.2540
 70
0
  0
VERTEX
  8
27
 10
7.4066
 20
1.7668
 30
0.0000
  0
VERTEX
  8
27
 10
7.4066
 20
1.5719
 30
0.0000
  0
SEQEND
  8
0
  0
POLYLINE
  8
27
 66
1
 10
0.0000
 20
0.0000
 30
0.0000
 40
0.1270
 41
0.1270
 70
0
  0
VERTEX
  8
27
 10
7.3431
 20
1.5719
 30
0.0000
 42
1.0000
  0
VERTEX
  8
27
 10
7.4701
 20
1.5719
 30
0.0000
  0
SEQEND
  8
0
  0
POLYLINE
  8
27
 66
1
 10
0.0000
 20
0.0000
 30
0.0000
 40
0.1270
 41
0.1270
 70
0
  0
VERTEX
  8
27
 10
7.4701
 20
1.7668
 30
0.0000
 42
1.0000
  0
VERTEX
  8
27
 10
7.3431
 20
1.7668
 30
0.0000
  0
SEQEND
  8
0
  0
POLYLINE
  8
27
 66
1
 10
0.0000
 20
0.0000
 30
0.0000
 40
0.2540
 41
0.2540
 70
0
  0
VERTEX
  8
27
 10
7.4066
 20
1.5719
 30
0.0000
  0
VERTEX
  8
27
 10
7.2117
 20
1.3770
 30
0.0000
  0
SEQEND
  8
0
  0
POLYLINE
  8
27
 66
1
 10
0.0000
 20
0.0000
 30
0.0000
 40
0.1270
 41
0.1270
 70
0
  0
VERTEX
  8
27
 10
7.1668
 20
1.4219
 30
0.0000
 42
1.0000
  0
VERTEX
  8
27
 10
7.2566
 20
1.3321
 30
0.0000
  0
SEQEND
  8
0
  0
POLYLINE
  8
27
 66
1
 10
0.0000
 20
0.0000
 30
0.0000
 40
0.1270
 41
0.1270
 70
0
  0
VERTEX
  8
27
 10
7.4515
 20
1.5270
 30
0.0000
 42
1.0000
  0
VERTEX
  8
27
 10
7.3617
 20
1.6168
 30
0.0000
  0
SEQEND
  8
0
  0
POLYLINE
  8
27
 66
1
 10
0.0000
 20
0.0000
 30
0.0000
 40
0.2540
 41
0.2540
 70
0
  0
VERTEX
  8
27
 10
7.2117
 20
1.3770
 30
0.0000
  0
VERTEX
  8
27
 10
6.8219
 20
1.3770
 30
0.0000
  0
SEQEND
  8
0
  0
POLYLINE
  8
27
 66
1
 10
0.0000
 20
0.0000
 30
0.0000
 40
0.1270
 41
0.1270
 70
0
  0
VERTEX
  8
27
 10
6.8219
 20
1.4405
 30
0.0000
 42
1.0000
  0
VERTEX
  8
27
 10
6.8219
 20
1.3135
 30
0.0000
  0
SEQEND
  8
0
  0
POLYLINE
  8
27
 66
1
 10
0.0000
 20
0.0000
 30
0.0000
 40
0.1270
 41
0.1270
 70
0
  0
VERTEX
  8
27
 10
7.2117
 20
1.3135
 30
0.0000
 42
1.0000
  0
VERTEX
  8
27
 10
7.2117
 20
1.4405
 30
0.0000
  0
SEQEND
  8
0
  0
POLYLINE
  8
27
 66
1
 10
0.0000
 20
0.0000
 30
0.0000
 40
0.2540
 41
0.2540
 70
0
  0
VERTEX
  8
27
 10
6.8219
 20
1.3770
 30
0.0000
  0
VERTEX
  8
27
 10
6.6270
 20
1.5719
 30
0.0000
  0
SEQEND
  8
0
  0
POLYLINE
  8
27
 66
1
 10
0.0000
 20
0.0000
 30
0.0000
 40
0.1270
 41
0.1270
 70
0
  0
VERTEX
  8
27
 10
6.6719
 20
1.6168
 30
0.0000
 42
1.0000
  0
VERTEX
  8
27
 10
6.5821
 20
1.5270
 30
0.0000
  0
SEQEND
  8
0
  0
POLYLINE
  8
27
 66
1
 10
0.0000
 20
0.0000
 30
0.0000
 40
0.1270
 41
0.1270
 70
0
  0
VERTEX
  8
27
 10
6.7770
 20
1.3321
 30
0.0000
 42
1.0000
  0
VERTEX
  8
27
 10
6.8668
 20
1.4219
 30
0.0000
  0
SEQEND
  8
0
  0
POLYLINE
  8
27
 66
1
 10
0.0000
 20
0.0000
 30
0.0000
 40
0.2540
 41
0.2540
 70
0
  0
VERTEX
  8
27
 10
7.9367
 20
1.3770
 30
0.0000
  0
VERTEX
  8
27
 10
7.9367
 20
2.5464
 30
0.0000
  0
SEQEND
  8
0
  0
POLYLINE
  8
27
 66
1
 10
0.0000
 20
0.0000
 30
0.0000
 40
0.1270
 41
0.1270
 70
0
  0
VERTEX
  8
27
 10
8.0002
 20
2.5464
 30
0.0000
 42
1.0000
  0
VERTEX
  8
27
 10
7.8732
 20
2.5464
 30
0.0000
  0
SEQEND
  8
0
  0
POLYLINE
  8
27
 66
1
 10
0.0000
 20
0.0000
 30
0.0000
 40
0.1270
 41
0.1270
 70
0
  0
VERTEX
  8
27
 10
7.8732
 20
1.3770
 30
0.0000
 42
1.0000
  0
VERTEX
  8
27
 10
8.0002
 20
1.3770
 30
0.0000
  0
SEQEND
  8
0
  0
POLYLINE
  8
27
 66
1
 10
0.0000
 20
0.0000
 30
0.0000
 40
0.2540
 41
0.2540
 70
0
  0
VERTEX
  8
27
 10
7.9367
 20
2.5464
 30
0.0000
  0
VERTEX
  8
27
 10
8.5214
 20
2.5464
 30
0.0000
  0
SEQEND
  8
0
  0
POLYLINE
  8
27
 66
1
 10
0.0000
 20
0.0000
 30
0.0000
 40
0.1270
 41
0.1270
 70
0
  0
VERTEX
  8
27
 10
8.5214
 20
2.4829
 30
0.0000
 42
1.0000
  0
VERTEX
  8
27
 10
8.5214
 20
2.6099
 30
0.0000
  0
SEQEND
  8
0
  0
POLYLINE
  8
27
 66
1
 10
0.0000
 20
0.0000
 30
0.0000
 40
0.1270
 41
0.1270
 70
0
  0
VERTEX
  8
27
 10
7.9367
 20
2.6099
 30
0.0000
 42
1.0000
  0
VERTEX
  8
27
 10
7.9367
 20
2.4829
 30
0.0000
  0
SEQEND
  8
0
  0
POLYLINE
  8
27
 66
1
 10
0.0000
 20
0.0000
 30
0.0000
 40
0.2540
 41
0.2540
 70
0
  0
VERTEX
  8
27
 10
8.5214
 20
2.5464
 30
0.0000
  0
VERTEX
  8
27
 10
8.7163
 20
2.3515
 30
0.0000
  0
SEQEND
  8
0
  0
POLYLINE
  8
27
 66
1
 10
0.0000
 20
0.0000
 30
0.0000
 40
0.1270
 41
0.1270
 70
0
  0
VERTEX
  8
27
 10
8.6714
 20
2.3066
 30
0.0000
 42
1.0000
  0
VERTEX
  8
27
 10
8.7612
 20
2.3964
 30
0.0000
  0
SEQEND
  8
0
  0
POLYLINE
  8
27
 66
1
 10
0.0000
 20
0.0000
 30
0.0000
 40
0.1270
 41
0.1270
 70
0
  0
VERTEX
  8
27
 10
8.5663
 20
2.5913
 30
0.0000
 42
1.0000
  0
VERTEX
  8
27
 10
8.4765
 20
2.5015
 30
0.0000
  0
SEQEND
  8
0
  0
POLYLINE
  8
27
 66
1
 10
0.0000
 20
0.0000
 30
0.0000
 40
0.2540
 41
0.2540
 70
0
  0
VERTEX
  8
27
 10
8.7163
 20
2.3515
 30
0.0000
  0
VERTEX
  8
27
 10
8.7163
 20
1.9617
 30
0.0000
  0
SEQEND
  8
0
  0
POLYLINE
  8
27
 66
1
 10
0.0000
 20
0.0000
 30
0.0000
 40
0.1270
 41
0.1270
 70
0
  0
VERTEX
  8
27
 10
8.6528
 20
1.9617
 30
0.0000
 42
1.0000
  0
VERTEX
  8
27
 10
8.7798
 20
1.9617
 30
0.0000
  0
SEQEND
  8
0
  0
POLYLINE
  8
27
 66
1
 10
0.0000
 20
0.0000
 30
0.0000
 40
0.1270
 41
0.1270
 70
0
  0
VERTEX
  8
27
 10
8.7798
 20
2.3515
 30
0.0000
 42
1.0000
  0
VERTEX
  8
27
 10
8.6528
 20
2.3515
 30
0.0000
  0
SEQEND
  8
0
  0
POLYLINE
  8
27
 66
1
 10
0.0000
 20
0.0000
 30
0.0000
 40
0.2540
 41
0.2540
 70
0
  0
VERTEX
  8
27
 10
8.7163
 20
1.9617
 30
0.0000
  0
VERTEX
  8
27
 10
8.5214
 20
1.7668
 30
0.0000
  0
SEQEND
  8
0
  0
POLYLINE
  8
27
 66
1
 10
0.0000
 20
0.0000
 30
0.0000
 40
0.1270
 41
0.1270
 70
0
  0
VERTEX
  8
27
 10
8.4765
 20
1.8117
 30
0.0000
 42
1.0000
  0
VERTEX
  8
27
 10
8.5663
 20
1.7219
 30
0.0000
  0
SEQEND
  8
0
  0
POLYLINE
  8
27
 66
1
 10
0.0000
 20
0.0000
 30
0.0000
 40
0.1270
 41
0.1270
 70
0
  0
VERTEX
  8
27
 10
8.7612
 20
1.9168
 30
0.0000
 42
1.0000
  0
VERTEX
  8
27
 10
8.6714
 20
2.0066
 30
0.0000
  0
SEQEND
  8
0
  0
POLYLINE
  8
27
 66
1
 10
0.0000
 20
0.0000
 30
0.0000
 40
0.2540
 41
0.2540
 70
0
  0
VERTEX
  8
27
 10
8.5214
 20
1.7668
 30
0.0000
  0
VERTEX
  8
27
 10
7.9367
 20
1.7668
 30
0.0000
  0
SEQEND
  8
0
  0
POLYLINE
  8
27
 66
1
 10
0.0000
 20
0.0000
 30
0.0000
 40
0.1270
 41
0.1270
 70
0
  0
VERTEX
  8
27
 10
7.9367
 20
1.8303
 30
0.0000
 42
1.0000
  0
VERTEX
  8
27
 10
7.9367
 20
1.7033
 30
0.0000
  0
SEQEND
  8
0
  0
POLYLINE
  8
27
 66
1
 10
0.0000
 20
0.0000
 30
0.0000
 40
0.1270
 41
0.1270
 70
0
  0
VERTEX
  8
27
 10
8.5214
 20
1.7033
 30
0.0000
 42
1.0000
  0
VERTEX
  8
27
 10
8.5214
 20
1.8303
 30
0.0000
  0
SEQEND
  8
0
  0
POLYLINE
  8
27
 66
1
 10
0.0000
 20
0.0000
 30
0.0000
 40
0.2540
 41
0.2540
 70
0
  0
VERTEX
  8
27
 10
9.2465
 20
2.5464
 30
0.0000
  0
VERTEX
  8
27
 10
9.2465
 20
1.3770
 30
0.0000
  0
SEQEND
  8
0
  0
POLYLINE
  8
27
 66
1
 10
0.0000
 20
0.0000
 30
0.0000
 40
0.1270
 41
0.1270
 70
0
  0
VERTEX
  8
27
 10
9.1830
 20
1.3770
 30
0.0000
 42
1.0000
  0
VERTEX
  8
27
 10
9.3100
 20
1.3770
 30
0.0000
  0
SEQEND
  8
0
  0
POLYLINE
  8
27
 66
1
 10
0.0000
 20
0.0000
 30
0.0000
 40
0.1270
 41
0.1270
 70
0
  0
VERTEX
  8
27
 10
9.3100
 20
2.5464
 30
0.0000
 42
1.0000
  0
VERTEX
  8
27
 10
9.1830
 20
2.5464
 30
0.0000
  0
SEQEND
  8
0
  0
POLYLINE
  8
27
 66
1
 10
0.0000
 20
0.0000
 30
0.0000
 40
0.2540
 41
0.2540
 70
0
  0
VERTEX
  8
27
 10
9.2465
 20
1.3770
 30
0.0000
  0
VERTEX
  8
27
 10
9.8311
 20
1.3770
 30
0.0000
  0
SEQEND
  8
0
  0
POLYLINE
  8
27
 66
1
 10
0.0000
 20
0.0000
 30
0.0000
 40
0.1270
 41
0.1270
 70
0
  0
VERTEX
  8
27
 10
9.8311
 20
1.3135
 30
0.0000
 42
1.0000
  0
VERTEX
  8
27
 10
9.8311
 20
1.4405
 30
0.0000
  0
SEQEND
  8
0
  0
POLYLINE
  8
27
 66
1
 10
0.0000
 20
0.0000
 30
0.0000
 40
0.1270
 41
0.1270
 70
0
  0
VERTEX
  8
27
 10
9.2465
 20
1.4405
 30
0.0000
 42
1.0000
  0
VERTEX
  8
27
 10
9.2465
 20
1.3135
 30
0.0000
  0
SEQEND
  8
0
  0
POLYLINE
  8
27
 66
1
 10
0.0000
 20
0.0000
 30
0.0000
 40
0.2540
 41
0.2540
 70
0
  0
VERTEX
  8
27
 10
9.8311
 20
1.3770
 30
0.0000
  0
VERTEX
  8
27
 10
10.0260
 20
1.5719
 30
0.0000
  0
SEQEND
  8
0
  0
POLYLINE
  8
27
 66
1
 10
0.0000
 20
0.0000
 30
0.0000
 40
0.1270
 41
0.1270
 70
0
  0
VERTEX
  8
27
 10
10.0709
 20
1.5270
 30
0.0000
 42
1.0000
  0
VERTEX
  8
27
 10
9.9811
 20
1.6168
 30
0.0000
  0
SEQEND
  8
0
  0
POLYLINE
  8
27
 66
1
 10
0.0000
 20
0.0000
 30
0.0000
 40
0.1270
 41
0.1270
 70
0
  0
VERTEX
  8
27
 10
9.7862
 20
1.4219
 30
0.0000
 42
1.0000
  0
VERTEX
  8
27
 10
9.8760
 20
1.3321
 30
0.0000
  0
SEQEND
  8
0
  0
POLYLINE
  8
27
 66
1
 10
0.0000
 20
0.0000
 30
0.0000
 40
0.2540
 41
0.2540
 70
0
  0
VERTEX
  8
27
 10
10.0260
 20
1.5719
 30
0.0000
  0
VERTEX
  8
27
 10
10.0260
 20
2.3515
 30
0.0000
  0
SEQEND
  8
0
  0
POLYLINE
  8
27
 66
1
 10
0.0000
 20
0.0000
 30
0.0000
 40
0.1270
 41
0.1270
 70
0
  0
VERTEX
  8
27
 10
10.0895
 20
2.3515
 30
0.0000
 42
1.0000
  0
VERTEX
  8
27
 10
9.9625
 20
2.3515
 30
0.0000
  0
SEQEND
  8
0
  0
POLYLINE
  8
27
 66
1
 10
0.0000
 20
0.0000
 30
0.0000
 40
0.1270
 41
0.1270
 70
0
  0
VERTEX
  8
27
 10
9.9625
 20
1.5719
 30
0.0000
 42
1.0000
  0
VERTEX
  8
27
 10
10.0895
 20
1.5719
 30
0.0000
  0
SEQEND
  8
0
  0
POLYLINE
  8
27
 66
1
 10
0.0000
 20
0.0000
 30
0.0000
 40
0.2540
 41
0.2540
 70
0
  0
VERTEX
  8
27
 10
10.0260
 20
2.3515
 30
0.0000
  0
VERTEX
  8
27
 10
9.8311
 20
2.5464
 30
0.0000
  0
SEQEND
  8
0
  0
POLYLINE
  8
27
 66
1
 10
0.0000
 20
0.0000
 30
0.0000
 40
0.1270
 41
0.1270
 70
0
  0
VERTEX
  8
27
 10
9.8760
 20
2.5913
 30
0.0000
 42
1.0000
  0
VERTEX
  8
27
 10
9.7862
 20
2.5015
 30
0.0000
  0
SEQEND
  8
0
  0
POLYLINE
  8
27
 66
1
 10
0.0000
 20
0.0000
 30
0.0000
 40
0.1270
 41
0.1270
 70
0
  0
VERTEX
  8
27
 10
9.9811
 20
2.3066
 30
0.0000
 42
1.0000
  0
VERTEX
  8
27
 10
10.0709
 20
2.3964
 30
0.0000
  0
SEQEND
  8
0
  0
POLYLINE
  8
27
 66
1
 10
0.0000
 20
0.0000
 30
0.0000
 40
0.2540
 41
0.2540
 70
0
  0
VERTEX
  8
27
 10
9.8311
 20
2.5464
 30
0.0000
  0
VERTEX
  8
27
 10
9.2465
 20
2.5464
 30
0.0000
  0
SEQEND
  8
0
  0
POLYLINE
  8
27
 66
1
 10
0.0000
 20
0.0000
 30
0.0000
 40
0.1270
 41
0.1270
 70
0
  0
VERTEX
  8
27
 10
9.2465
 20
2.6099
 30
0.0000
 42
1.0000
  0
VERTEX
  8
27
 10
9.2465
 20
2.4829
 30
0.0000
  0
SEQEND
  8
0
  0
POLYLINE
  8
27
 66
1
 10
0.0000
 20
0.0000
 30
0.0000
 40
0.1270
 41
0.1270
 70
0
  0
VERTEX
  8
27
 10
9.8311
 20
2.4829
 30
0.0000
 42
1.0000
  0
VERTEX
  8
27
 10
9.8311
 20
2.6099
 30
0.0000
  0
SEQEND
  8
0
  0
POLYLINE
  8
27
 66
1
 10
0.0000
 20
0.0000
 30
0.0000
 40
0.2540
 41
0.2540
 70
0
  0
VERTEX
  8
27
 10
10.9460
 20
1.3770
 30
0.0000
  0
VERTEX
  8
27
 10
10.9460
 20
2.5464
 30
0.0000
  0
SEQEND
  8
0
  0
POLYLINE
  8
27
 66
1
 10
0.0000
 20
0.0000
 30
0.0000
 40
0.1270
 41
0.1270
 70
0
  0
VERTEX
  8
27
 10
11.0095
 20
2.5464
 30
0.0000
 42
1.0000
  0
VERTEX
  8
27
 10
10.8825
 20
2.5464
 30
0.0000
  0
SEQEND
  8
0
  0
POLYLINE
  8
27
 66
1
 10
0.0000
 20
0.0000
 30
0.0000
 40
0.1270
 41
0.1270
 70
0
  0
VERTEX
  8
27
 10
10.8825
 20
1.3770
 30
0.0000
 42
1.0000
  0
VERTEX
  8
27
 10
11.0095
 20
1.3770
 30
0.0000
  0
SEQEND
  8
0
  0
POLYLINE
  8
27
 66
1
 10
0.0000
 20
0.0000
 30
0.0000
 40
0.2540
 41
0.2540
 70
0
  0
VERTEX
  8
27
 10
10.5562
 20
2.5464
 30
0.0000
  0
VERTEX
  8
27
 10
11.3358
 20
2.5464
 30
0.0000
  0
SEQEND
  8
0
  0
POLYLINE
  8
27
 66
1
 10
0.0000
 20
0.0000
 30
0.0000
 40
0.1270
 41
0.1270
 70
0
  0
VERTEX
  8
27
 10
11.3358
 20
2.4829
 30
0.0000
 42
1.0000
  0
VERTEX
  8
27
 10
11.3358
 20
2.6099
 30
0.0000
  0
SEQEND
  8
0
  0
POLYLINE
  8
27
 66
1
 10
0.0000
 20
0.0000
 30
0.0000
 40
0.1270
 41
0.1270
 70
0
  0
VERTEX
  8
27
 10
10.5562
 20
2.6099
 30
0.0000
 42
1.0000
  0
VERTEX
  8
27
 10
10.5562
 20
2.4829
 30
0.0000
  0
SEQEND
  8
0
  0
POINT
  8
23
 10
9.0000
 20
25.1500
 30
0.0000
  0
POLYLINE
  8
21
 66
1
 10
0.0000
 20
0.0000
 30
0.0000
 40
0.2032
 41
0.2032
 70
0
  0
VERTEX
  8
21
 10
13.8500
 20
27.0500
 30
0.0000
  0
VERTEX
  8
21
 10
4.1500
 20
27.0500
 30
0.0000
  0
SEQEND
  8
0
  0
POLYLINE
  8
21
 66
1
 10
0.0000
 20
0.0000
 30
0.0000
 40
0.1016
 41
0.1016
 70
0
  0
VERTEX
  8
21
 10
4.1500
 20
27.1008
 30
0.0000
 42
1.0000
  0
VERTEX
  8
21
 10
4.1500
 20
26.9992
 30
0.0000
  0
SEQEND
  8
0
  0
POLYLINE
  8
21
 66
1
 10
0.0000
 20
0.0000
 30
0.0000
 40
0.1016
 41
0.1016
 70
0
  0
VERTEX
  8
21
 10
13.8500
 20
26.9992
 30
0.0000
 42
1.0000
  0
VERTEX
  8
21
 10
13.8500
 20
27.1008
 30
0.0000
  0
SEQEND
  8
0
  0
POLYLINE
  8
21
 66
1
 10
0.0000
 20
0.0000
 30
0.0000
 40
0.2032
 41
0.2032
 70
0
  0
VERTEX
  8
21
 10
4.1500
 20
27.0500
 30
0.0000
  0
VERTEX
  8
21
 10
4.1500
 20
25.5500
 30
0.0000
  0
SEQEND
  8
0
  0
POLYLINE
  8
21
 66
1
 10
0.0000
 20
0.0000
 30
0.0000
 40
0.1016
 41
0.1016
 70
0
  0
VERTEX
  8
21
 10
4.0992
 20
25.5500
 30
0.0000
 42
1.0000
  0
VERTEX
  8
21
 10
4.2008
 20
25.5500
 30
0.0000
  0
SEQEND
  8
0
  0
POLYLINE
  8
21
 66
1
 10
0.0000
 20
0.0000
 30
0.0000
 40
0.1016
 41
0.1016
 70
0
  0
VERTEX
  8
21
 10
4.2008
 20
27.0500
 30
0.0000
 42
1.0000
  0
VERTEX
  8
21
 10
4.0992
 20
27.0500
 30
0.0000
  0
SEQEND
  8
0
  0
POLYLINE
  8
21
 66
1
 10
0.0000
 20
0.0000
 30
0.0000
 40
0.2032
 41
0.2032
 70
0
  0
VERTEX
  8
21
 10
4.1500
 20
24.7500
 30
0.0000
  0
VERTEX
  8
21
 10
4.1500
 20
23.2500
 30
0.0000
  0
SEQEND
  8
0
  0
POLYLINE
  8
21
 66
1
 10
0.0000
 20
0.0000
 30
0.0000
 40
0.1016
 41
0.1016
 70
0
  0
VERTEX
  8
21
 10
4.0992
 20
23.2500
 30
0.0000
 42
1.0000
  0
VERTEX
  8
21
 10
4.2008
 20
23.2500
 30
0.0000
  0
SEQEND
  8
0
  0
POLYLINE
  8
21
 66
1
 10
0.0000
 20
0.0000
 30
0.0000
 40
0.1016
 41
0.1016
 70
0
  0
VERTEX
  8
21
 10
4.2008
 20
24.7500
 30
0.0000
 42
1.0000
  0
VERTEX
  8
21
 10
4.0992
 20
24.7500
 30
0.0000
  0
SEQEND
  8
0
  0
POLYLINE
  8
21
 66
1
 10
0.0000
 20
0.0000
 30
0.0000
 40
0.2032
 41
0.2032
 70
0
  0
VERTEX
  8
21
 10
4.1500
 20
23.2500
 30
0.0000
  0
VERTEX
  8
21
 10
13.8500
 20
23.2500
 30
0.0000
  0
SEQEND
  8
0
  0
POLYLINE
  8
21
 66
1
 10
0.0000
 20
0.0000
 30
0.0000
 40
0.1016
 41
0.1016
 70
0
  0
VERTEX
  8
21
 10
13.8500
 20
23.1992
 30
0.0000
 42
1.0000
  0
VERTEX
  8
21
 10
13.8500
 20
23.3008
 30
0.0000
  0
SEQEND
  8
0
  0
POLYLINE
  8
21
 66
1
 10
0.0000
 20
0.0000
 30
0.0000
 40
0.1016
 41
0.1016
 70
0
  0
VERTEX
  8
21
 10
4.1500
 20
23.3008
 30
0.0000
 42
1.0000
  0
VERTEX
  8
21
 10
4.1500
 20
23.1992
 30
0.0000
  0
SEQEND
  8
0
  0
POLYLINE
  8
21
 66
1
 10
0.0000
 20
0.0000
 30
0.0000
 40
0.2032
 41
0.2032
 70
0
  0
VERTEX
  8
21
 10
13.8500
 20
23.2500
 30
0.0000
  0
VERTEX
  8
21
 10
13.8500
 20
24.7500
 30
0.0000
  0
SEQEND
  8
0
  0
POLYLINE
  8
21
 66
1
 10
0.0000
 20
0.0000
 30
0.0000
 40
0.1016
 41
0.1016
 70
0
  0
VERTEX
  8
21
 10
13.9008
 20
24.7500
 30
0.0000
 42
1.0000
  0
VERTEX
  8
21
 10
13.7992
 20
24.7500
 30
0.0000
  0
SEQEND
  8
0
  0
POLYLINE
  8
21
 66
1
 10
0.0000
 20
0.0000
 30
0.0000
 40
0.1016
 41
0.1016
 70
0
  0
VERTEX
  8
21
 10
13.7992
 20
23.2500
 30
0.0000
 42
1.0000
  0
VERTEX
  8
21
 10
13.9008
 20
23.2500
 30
0.0000
  0
SEQEND
  8
0
  0
POLYLINE
  8
21
 66
1
 10
0.0000
 20
0.0000
 30
0.0000
 40
0.2032
 41
0.2032
 70
0
  0
VERTEX
  8
21
 10
13.8500
 20
25.5500
 30
0.0000
  0
VERTEX
  8
21
 10
13.8500
 20
27.0500
 30
0.0000
  0
SEQEND
  8
0
  0
POLYLINE
  8
21
 66
1
 10
0.0000
 20
0.0000
 30
0.0000
 40
0.1016
 41
0.1016
 70
0
  0
VERTEX
  8
21
 10
13.9008
 20
27.0500
 30
0.0000
 42
1.0000
  0
VERTEX
  8
21
 10
13.7992
 20
27.0500
 30
0.0000
  0
SEQEND
  8
0
  0
POLYLINE
  8
21
 66
1
 10
0.0000
 20
0.0000
 30
0.0000
 40
0.1016
 41
0.1016
 70
0
  0
VERTEX
  8
21
 10
13.7992
 20
25.5500
 30
0.0000
 42
1.0000
  0
VERTEX
  8
21
 10
13.9008
 20
25.5500
 30
0.0000
  0
SEQEND
  8
0
  0
POLYLINE
  8
21
 66
1
 10
0.0000
 20
0.0000
 30
0.0000
 40
0.2032
 41
0.2032
 70
0
  0
VERTEX
  8
21
 10
13.8500
 20
25.5500
 30
0.0000
 42
0.6321
  0
VERTEX
  8
21
 10
13.8500
 20
24.7500
 30
0.0000
  0
SEQEND
  8
0
  0
POLYLINE
  8
21
 66
1
 10
0.0000
 20
0.0000
 30
0.0000
 40
0.1016
 41
0.1016
 70
0
  0
VERTEX
  8
21
 10
13.8718
 20
25.5041
 30
0.0000
 42
1.0000
  0
VERTEX
  8
21
 10
13.8282
 20
25.5959
 30
0.0000
  0
SEQEND
  8
0
  0
POLYLINE
  8
21
 66
1
 10
0.0000
 20
0.0000
 30
0.0000
 40
0.1016
 41
0.1016
 70
0
  0
VERTEX
  8
21
 10
13.8282
 20
24.7041
 30
0.0000
 42
1.0000
  0
VERTEX
  8
21
 10
13.8718
 20
24.7959
 30
0.0000
  0
SEQEND
  8
0
  0
POLYLINE
  8
21
 66
1
 10
0.0000
 20
0.0000
 30
0.0000
 40
0.2032
 41
0.2032
 70
0
  0
VERTEX
  8
21
 10
4.1500
 20
24.7500
 30
0.0000
 42
0.6321
  0
VERTEX
  8
21
 10
4.1500
 20
25.5500
 30
0.0000
  0
SEQEND
  8
0
  0
POLYLINE
  8
21
 66
1
 10
0.0000
 20
0.0000
 30
0.0000
 40
0.1016
 41
0.1016
 70
0
  0
VERTEX
  8
21
 10
4.1282
 20
24.7959
 30
0.0000
 42
1.0000
  0
VERTEX
  8
21
 10
4.1718
 20
24.7041
 30
0.0000
  0
SEQEND
  8
0
  0
POLYLINE
  8
21
 66
1
 10
0.0000
 20
0.0000
 30
0.0000
 40
0.1016
 41
0.1016
 70
0
  0
VERTEX
  8
21
 10
4.1718
 20
25.5959
 30
0.0000
 42
1.0000
  0
VERTEX
  8
21
 10
4.1282
 20
25.5041
 30
0.0000
  0
SEQEND
  8
0
  0
POLYLINE
  8
21
 66
1
 10
0.0000
 20
0.0000
 30
0.0000
 40
0.0254
 41
0.0254
 70
0
  0
VERTEX
  8
21
 10
13.3820
 20
26.7943
 30
0.0000
  0
VERTEX
  8
21
 10
13.4753
 20
26.8875
 30
0.0000
  0
SEQEND
  8
0
  0
POLYLINE
  8
21
 66
1
 10
0.0000
 20
0.0000
 30
0.0000
 40
0.0127
 41
0.0127
 70
0
  0
VERTEX
  8
21
 10
13.4797
 20
26.8830
 30
0.0000
 42
1.0000
  0
VERTEX
  8
21
 10
13.4708
 20
26.8920
 30
0.0000
  0
SEQEND
  8
0
  0
POLYLINE
  8
21
 66
1
 10
0.0000
 20
0.0000
 30
0.0000
 40
0.0127
 41
0.0127
 70
0
  0
VERTEX
  8
21
 10
13.3776
 20
26.7988
 30
0.0000
 42
1.0000
  0
VERTEX
  8
21
 10
13.3865
 20
26.7898
 30
0.0000
  0
SEQEND
  8
0
  0
POLYLINE
  8
21
 66
1
 10
0.0000
 20
0.0000
 30
0.0000
 40
0.0254
 41
0.0254
 70
0
  0
VERTEX
  8
21
 10
13.4753
 20
26.8875
 30
0.0000
  0
VERTEX
  8
21
 10
13.4753
 20
26.6079
 30
0.0000
  0
SEQEND
  8
0
  0
POLYLINE
  8
21
 66
1
 10
0.0000
 20
0.0000
 30
0.0000
 40
0.0127
 41
0.0127
 70
0
  0
VERTEX
  8
21
 10
13.4689
 20
26.6079
 30
0.0000
 42
1.0000
  0
VERTEX
  8
21
 10
13.4816
 20
26.6079
 30
0.0000
  0
SEQEND
  8
0
  0
POLYLINE
  8
21
 66
1
 10
0.0000
 20
0.0000
 30
0.0000
 40
0.0127
 41
0.0127
 70
0
  0
VERTEX
  8
21
 10
13.4816
 20
26.8875
 30
0.0000
 42
1.0000
  0
VERTEX
  8
21
 10
13.4689
 20
26.8875
 30
0.0000
  0
SEQEND
  8
0
  0
POLYLINE
  8
21
 66
1
 10
0.0000
 20
0.0000
 30
0.0000
 40
0.0254
 41
0.0254
 70
0
  0
VERTEX
  8
21
 10
13.3820
 20
26.6079
 30
0.0000
  0
VERTEX
  8
21
 10
13.5685
 20
26.6079
 30
0.0000
  0
SEQEND
  8
0
  0
POLYLINE
  8
21
 66
1
 10
0.0000
 20
0.0000
 30
0.0000
 40
0.0127
 41
0.0127
 70
0
  0
VERTEX
  8
21
 10
13.5685
 20
26.6015
 30
0.0000
 42
1.0000
  0
VERTEX
  8
21
 10
13.5685
 20
26.6143
 30
0.0000
  0
SEQEND
  8
0
  0
POLYLINE
  8
21
 66
1
 10
0.0000
 20
0.0000
 30
0.0000
 40
0.0127
 41
0.0127
 70
0
  0
VERTEX
  8
21
 10
13.3820
 20
26.6143
 30
0.0000
 42
1.0000
  0
VERTEX
  8
21
 10
13.3820
 20
26.6015
 30
0.0000
  0
SEQEND
  8
0
  0
INSERT
  8
51
  2
RECT
 10
13.0000
 20
26.1500
 30
0.0000
 41
0.5000
 42
0.5000
 43
1.0000
 50
180.0000
  0
INSERT
  8
51
  2
RECT
 10
13.0000
 20
24.1500
 30
0.0000
 41
0.5000
 42
0.5000
 43
1.0000
 50
180.0000
  0
INSERT
  8
51
  2
RECT
 10
11.0000
 20
26.1500
 30
0.0000
 41
0.5000
 42
0.5000
 43
1.0000
 50
180.0000
  0
INSERT
  8
51
  2
RECT
 10
11.0000
 20
24.1500
 30
0.0000
 41
0.5000
 42
0.5000
 43
1.0000
 50
180.0000
  0
INSERT
  8
51
  2
RECT
 10
9.0000
 20
26.1500
 30
0.0000
 41
0.5000
 42
0.5000
 43
1.0000
 50
180.0000
  0
INSERT
  8
51
  2
RECT
 10
9.0000
 20
24.1500
 30
0.0000
 41
0.5000
 42
0.5000
 43
1.0000
 50
180.0000
  0
INSERT
  8
51
  2
RECT
 10
7.0000
 20
26.1500
 30
0.0000
 41
0.5000
 42
0.5000
 43
1.0000
 50
180.0000
  0
INSERT
  8
51
  2
RECT
 10
7.0000
 20
24.1500
 30
0.0000
 41
0.5000
 42
0.5000
 43
1.0000
 50
180.0000
  0
INSERT
  8
51
  2
RECT
 10
5.0000
 20
26.1500
 30
0.0000
 41
0.5000
 42
0.5000
 43
1.0000
 50
180.0000
  0
INSERT
  8
51
  2
RECT
 10
5.0000
 20
24.1500
 30
0.0000
 41
0.5000
 42
0.5000
 43
1.0000
 50
180.0000
  0
INSERT
  8
17
  2
SQUAREP
 10
13.0000
 20
26.1500
 30
0.0000
 41
1.3064
 42
1.3064
 43
1.0000
 50
180.0000
  0
INSERT
  8
17
  2
SQUAREP
 10
13.0000
 20
26.1500
 30
0.0000
 41
1.3064
 42
1.3064
 43
1.0000
 50
180.0000
  0
INSERT
  8
17
  2
ROUNDP
 10
13.0000
 20
24.1500
 30
0.0000
 41
1.3064
 42
1.3064
 43
1.0000
 50
180.0000
  0
INSERT
  8
17
  2
ROUNDP
 10
13.0000
 20
24.1500
 30
0.0000
 41
1.3064
 42
1.3064
 43
1.0000
 50
180.0000
  0
INSERT
  8
17
  2
ROUNDP
 10
11.0000
 20
26.1500
 30
0.0000
 41
1.3064
 42
1.3064
 43
1.0000
 50
180.0000
  0
INSERT
  8
17
  2
ROUNDP
 10
11.0000
 20
26.1500
 30
0.0000
 41
1.3064
 42
1.3064
 43
1.0000
 50
180.0000
  0
INSERT
  8
17
  2
ROUNDP
 10
11.0000
 20
24.1500
 30
0.0000
 41
1.3064
 42
1.3064
 43
1.0000
 50
180.0000
  0
INSERT
  8
17
  2
ROUNDP
 10
11.0000
 20
24.1500
 30
0.0000
 41
1.3064
 42
1.3064
 43
1.0000
 50
180.0000
  0
INSERT
  8
17
  2
ROUNDP
 10
9.0000
 20
26.1500
 30
0.0000
 41
1.3064
 42
1.3064
 43
1.0000
 50
180.0000
  0
INSERT
  8
17
  2
ROUNDP
 10
9.0000
 20
26.1500
 30
0.0000
 41
1.3064
 42
1.3064
 43
1.0000
 50
180.0000
  0
INSERT
  8
17
  2
ROUNDP
 10
9.0000
 20
24.1500
 30
0.0000
 41
1.3064
 42
1.3064
 43
1.0000
 50
180.0000
  0
INSERT
  8
17
  2
ROUNDP
 10
9.0000
 20
24.1500
 30
0.0000
 41
1.3064
 42
1.3064
 43
1.0000
 50
180.0000
  0
INSERT
  8
17
  2
ROUNDP
 10
7.0000
 20
26.1500
 30
0.0000
 41
1.3064
 42
1.3064
 43
1.0000
 50
180.0000
  0
INSERT
  8
17
  2
ROUNDP
 10
7.0000
 20
26.1500
 30
0.0000
 41
1.3064
 42
1.3064
 43
1.0000
 50
180.0000
  0
INSERT
  8
17
  2
ROUNDP
 10
7.0000
 20
24.1500
 30
0.0000
 41
1.3064
 42
1.3064
 43
1.0000
 50
180.0000
  0
INSERT
  8
17
  2
ROUNDP
 10
7.0000
 20
24.1500
 30
0.0000
 41
1.3064
 42
1.3064
 43
1.0000
 50
180.0000
  0
INSERT
  8
17
  2
ROUNDP
 10
5.0000
 20
26.1500
 30
0.0000
 41
1.3064
 42
1.3064
 43
1.0000
 50
180.0000
  0
INSERT
  8
17
  2
ROUNDP
 10
5.0000
 20
26.1500
 30
0.0000
 41
1.3064
 42
1.3064
 43
1.0000
 50
180.0000
  0
INSERT
  8
17
  2
ROUNDP
 10
5.0000
 20
24.1500
 30
0.0000
 41
1.3064
 42
1.3064
 43
1.0000
 50
180.0000
  0
INSERT
  8
17
  2
ROUNDP
 10
5.0000
 20
24.1500
 30
0.0000
 41
1.3064
 42
1.3064
 43
1.0000
 50
180.0000
  0
POLYLINE
  8
27
 66
1
 10
0.0000
 20
0.0000
 30
0.0000
 40
0.2286
 41
0.2286
 70
0
  0
VERTEX
  8
27
 10
3.8397
 20
21.3443
 30
0.0000
  0
VERTEX
  8
27
 10
3.8397
 20
22.3866
 30
0.0000
  0
SEQEND
  8
0
  0
POLYLINE
  8
27
 66
1
 10
0.0000
 20
0.0000
 30
0.0000
 40
0.1143
 41
0.1143
 70
0
  0
VERTEX
  8
27
 10
3.8969
 20
22.3866
 30
0.0000
 42
1.0000
  0
VERTEX
  8
27
 10
3.7826
 20
22.3866
 30
0.0000
  0
SEQEND
  8
0
  0
POLYLINE
  8
27
 66
1
 10
0.0000
 20
0.0000
 30
0.0000
 40
0.1143
 41
0.1143
 70
0
  0
VERTEX
  8
27
 10
3.7826
 20
21.3443
 30
0.0000
 42
1.0000
  0
VERTEX
  8
27
 10
3.8969
 20
21.3443
 30
0.0000
  0
SEQEND
  8
0
  0
POLYLINE
  8
27
 66
1
 10
0.0000
 20
0.0000
 30
0.0000
 40
0.2286
 41
0.2286
 70
0
  0
VERTEX
  8
27
 10
3.8397
 20
22.3866
 30
0.0000
  0
VERTEX
  8
27
 10
4.5346
 20
22.3866
 30
0.0000
  0
SEQEND
  8
0
  0
POLYLINE
  8
27
 66
1
 10
0.0000
 20
0.0000
 30
0.0000
 40
0.1143
 41
0.1143
 70
0
  0
VERTEX
  8
27
 10
4.5346
 20
22.3294
 30
0.0000
 42
1.0000
  0
VERTEX
  8
27
 10
4.5346
 20
22.4437
 30
0.0000
  0
SEQEND
  8
0
  0
POLYLINE
  8
27
 66
1
 10
0.0000
 20
0.0000
 30
0.0000
 40
0.1143
 41
0.1143
 70
0
  0
VERTEX
  8
27
 10
3.8397
 20
22.4437
 30
0.0000
 42
1.0000
  0
VERTEX
  8
27
 10
3.8397
 20
22.3294
 30
0.0000
  0
SEQEND
  8
0
  0
POLYLINE
  8
27
 66
1
 10
0.0000
 20
0.0000
 30
0.0000
 40
0.2286
 41
0.2286
 70
0
  0
VERTEX
  8
27
 10
3.8397
 20
21.8654
 30
0.0000
  0
VERTEX
  8
27
 10
4.1871
 20
21.8654
 30
0.0000
  0
SEQEND
  8
0
  0
POLYLINE
  8
27
 66
1
 10
0.0000
 20
0.0000
 30
0.0000
 40
0.1143
 41
0.1143
 70
0
  0
VERTEX
  8
27
 10
4.1871
 20
21.8083
 30
0.0000
 42
1.0000
  0
VERTEX
  8
27
 10
4.1871
 20
21.9226
 30
0.0000
  0
SEQEND
  8
0
  0
POLYLINE
  8
27
 66
1
 10
0.0000
 20
0.0000
 30
0.0000
 40
0.1143
 41
0.1143
 70
0
  0
VERTEX
  8
27
 10
3.8397
 20
21.9226
 30
0.0000
 42
1.0000
  0
VERTEX
  8
27
 10
3.8397
 20
21.8083
 30
0.0000
  0
SEQEND
  8
0
  0
POLYLINE
  8
27
 66
1
 10
0.0000
 20
0.0000
 30
0.0000
 40
0.2286
 41
0.2286
 70
0
  0
VERTEX
  8
27
 10
5.1828
 20
21.3443
 30
0.0000
  0
VERTEX
  8
27
 10
5.5302
 20
21.3443
 30
0.0000
  0
SEQEND
  8
0
  0
POLYLINE
  8
27
 66
1
 10
0.0000
 20
0.0000
 30
0.0000
 40
0.1143
 41
0.1143
 70
0
  0
VERTEX
  8
27
 10
5.5302
 20
21.2872
 30
0.0000
 42
1.0000
  0
VERTEX
  8
27
 10
5.5302
 20
21.4015
 30
0.0000
  0
SEQEND
  8
0
  0
POLYLINE
  8
27
 66
1
 10
0.0000
 20
0.0000
 30
0.0000
 40
0.1143
 41
0.1143
 70
0
  0
VERTEX
  8
27
 10
5.1828
 20
21.4015
 30
0.0000
 42
1.0000
  0
VERTEX
  8
27
 10
5.1828
 20
21.2872
 30
0.0000
  0
SEQEND
  8
0
  0
POLYLINE
  8
27
 66
1
 10
0.0000
 20
0.0000
 30
0.0000
 40
0.2286
 41
0.2286
 70
0
  0
VERTEX
  8
27
 10
5.5302
 20
21.3443
 30
0.0000
  0
VERTEX
  8
27
 10
5.7040
 20
21.5180
 30
0.0000
  0
SEQEND
  8
0
  0
POLYLINE
  8
27
 66
1
 10
0.0000
 20
0.0000
 30
0.0000
 40
0.1143
 41
0.1143
 70
0
  0
VERTEX
  8
27
 10
5.7444
 20
21.4776
 30
0.0000
 42
1.0000
  0
VERTEX
  8
27
 10
5.6636
 20
21.5584
 30
0.0000
  0
SEQEND
  8
0
  0
POLYLINE
  8
27
 66
1
 10
0.0000
 20
0.0000
 30
0.0000
 40
0.1143
 41
0.1143
 70
0
  0
VERTEX
  8
27
 10
5.4898
 20
21.3847
 30
0.0000
 42
1.0000
  0
VERTEX
  8
27
 10
5.5707
 20
21.3039
 30
0.0000
  0
SEQEND
  8
0
  0
POLYLINE
  8
27
 66
1
 10
0.0000
 20
0.0000
 30
0.0000
 40
0.2286
 41
0.2286
 70
0
  0
VERTEX
  8
27
 10
5.7040
 20
21.5180
 30
0.0000
  0
VERTEX
  8
27
 10
5.7040
 20
21.8654
 30
0.0000
  0
SEQEND
  8
0
  0
POLYLINE
  8
27
 66
1
 10
0.0000
 20
0.0000
 30
0.0000
 40
0.1143
 41
0.1143
 70
0
  0
VERTEX
  8
27
 10
5.7611
 20
21.8654
 30
0.0000
 42
1.0000
  0
VERTEX
  8
27
 10
5.6468
 20
21.8654
 30
0.0000
  0
SEQEND
  8
0
  0
POLYLINE
  8
27
 66
1
 10
0.0000
 20
0.0000
 30
0.0000
 40
0.1143
 41
0.1143
 70
0
  0
VERTEX
  8
27
 10
5.6468
 20
21.5180
 30
0.0000
 42
1.0000
  0
VERTEX
  8
27
 10
5.7611
 20
21.5180
 30
0.0000
  0
SEQEND
  8
0
  0
POLYLINE
  8
27
 66
1
 10
0.0000
 20
0.0000
 30
0.0000
 40
0.2286
 41
0.2286
 70
0
  0
VERTEX
  8
27
 10
5.7040
 20
21.8654
 30
0.0000
  0
VERTEX
  8
27
 10
5.5302
 20
22.0392
 30
0.0000
  0
SEQEND
  8
0
  0
POLYLINE
  8
27
 66
1
 10
0.0000
 20
0.0000
 30
0.0000
 40
0.1143
 41
0.1143
 70
0
  0
VERTEX
  8
27
 10
5.5707
 20
22.0796
 30
0.0000
 42
1.0000
  0
VERTEX
  8
27
 10
5.4898
 20
21.9987
 30
0.0000
  0
SEQEND
  8
0
  0
POLYLINE
  8
27
 66
1
 10
0.0000
 20
0.0000
 30
0.0000
 40
0.1143
 41
0.1143
 70
0
  0
VERTEX
  8
27
 10
5.6636
 20
21.8250
 30
0.0000
 42
1.0000
  0
VERTEX
  8
27
 10
5.7444
 20
21.9059
 30
0.0000
  0
SEQEND
  8
0
  0
POLYLINE
  8
27
 66
1
 10
0.0000
 20
0.0000
 30
0.0000
 40
0.2286
 41
0.2286
 70
0
  0
VERTEX
  8
27
 10
5.5302
 20
22.0392
 30
0.0000
  0
VERTEX
  8
27
 10
5.1828
 20
22.0392
 30
0.0000
  0
SEQEND
  8
0
  0
POLYLINE
  8
27
 66
1
 10
0.0000
 20
0.0000
 30
0.0000
 40
0.1143
 41
0.1143
 70
0
  0
VERTEX
  8
27
 10
5.1828
 20
22.0963
 30
0.0000
 42
1.0000
  0
VERTEX
  8
27
 10
5.1828
 20
21.9820
 30
0.0000
  0
SEQEND
  8
0
  0
POLYLINE
  8
27
 66
1
 10
0.0000
 20
0.0000
 30
0.0000
 40
0.1143
 41
0.1143
 70
0
  0
VERTEX
  8
27
 10
5.5302
 20
21.9820
 30
0.0000
 42
1.0000
  0
VERTEX
  8
27
 10
5.5302
 20
22.0963
 30
0.0000
  0
SEQEND
  8
0
  0
POLYLINE
  8
27
 66
1
 10
0.0000
 20
0.0000
 30
0.0000
 40
0.2286
 41
0.2286
 70
0
  0
VERTEX
  8
27
 10
5.1828
 20
22.0392
 30
0.0000
  0
VERTEX
  8
27
 10
5.0091
 20
21.8654
 30
0.0000
  0
SEQEND
  8
0
  0
POLYLINE
  8
27
 66
1
 10
0.0000
 20
0.0000
 30
0.0000
 40
0.1143
 41
0.1143
 70
0
  0
VERTEX
  8
27
 10
4.9687
 20
21.9059
 30
0.0000
 42
1.0000
  0
VERTEX
  8
27
 10
5.0495
 20
21.8250
 30
0.0000
  0
SEQEND
  8
0
  0
POLYLINE
  8
27
 66
1
 10
0.0000
 20
0.0000
 30
0.0000
 40
0.1143
 41
0.1143
 70
0
  0
VERTEX
  8
27
 10
5.2232
 20
21.9987
 30
0.0000
 42
1.0000
  0
VERTEX
  8
27
 10
5.1424
 20
22.0796
 30
0.0000
  0
SEQEND
  8
0
  0
POLYLINE
  8
27
 66
1
 10
0.0000
 20
0.0000
 30
0.0000
 40
0.2286
 41
0.2286
 70
0
  0
VERTEX
  8
27
 10
5.0091
 20
21.8654
 30
0.0000
  0
VERTEX
  8
27
 10
5.0091
 20
21.5180
 30
0.0000
  0
SEQEND
  8
0
  0
POLYLINE
  8
27
 66
1
 10
0.0000
 20
0.0000
 30
0.0000
 40
0.1143
 41
0.1143
 70
0
  0
VERTEX
  8
27
 10
4.9520
 20
21.5180
 30
0.0000
 42
1.0000
  0
VERTEX
  8
27
 10
5.0663
 20
21.5180
 30
0.0000
  0
SEQEND
  8
0
  0
POLYLINE
  8
27
 66
1
 10
0.0000
 20
0.0000
 30
0.0000
 40
0.1143
 41
0.1143
 70
0
  0
VERTEX
  8
27
 10
5.0663
 20
21.8654
 30
0.0000
 42
1.0000
  0
VERTEX
  8
27
 10
4.9520
 20
21.8654
 30
0.0000
  0
SEQEND
  8
0
  0
POLYLINE
  8
27
 66
1
 10
0.0000
 20
0.0000
 30
0.0000
 40
0.2286
 41
0.2286
 70
0
  0
VERTEX
  8
27
 10
5.0091
 20
21.5180
 30
0.0000
  0
VERTEX
  8
27
 10
5.1828
 20
21.3443
 30
0.0000
  0
SEQEND
  8
0
  0
POLYLINE
  8
27
 66
1
 10
0.0000
 20
0.0000
 30
0.0000
 40
0.1143
 41
0.1143
 70
0
  0
VERTEX
  8
27
 10
5.1424
 20
21.3039
 30
0.0000
 42
1.0000
  0
VERTEX
  8
27
 10
5.2232
 20
21.3847
 30
0.0000
  0
SEQEND
  8
0
  0
POLYLINE
  8
27
 66
1
 10
0.0000
 20
0.0000
 30
0.0000
 40
0.1143
 41
0.1143
 70
0
  0
VERTEX
  8
27
 10
5.0495
 20
21.5584
 30
0.0000
 42
1.0000
  0
VERTEX
  8
27
 10
4.9687
 20
21.4776
 30
0.0000
  0
SEQEND
  8
0
  0
POLYLINE
  8
27
 66
1
 10
0.0000
 20
0.0000
 30
0.0000
 40
0.2286
 41
0.2286
 70
0
  0
VERTEX
  8
27
 10
6.3522
 20
21.3443
 30
0.0000
  0
VERTEX
  8
27
 10
6.6996
 20
21.3443
 30
0.0000
  0
SEQEND
  8
0
  0
POLYLINE
  8
27
 66
1
 10
0.0000
 20
0.0000
 30
0.0000
 40
0.1143
 41
0.1143
 70
0
  0
VERTEX
  8
27
 10
6.6996
 20
21.2872
 30
0.0000
 42
1.0000
  0
VERTEX
  8
27
 10
6.6996
 20
21.4015
 30
0.0000
  0
SEQEND
  8
0
  0
POLYLINE
  8
27
 66
1
 10
0.0000
 20
0.0000
 30
0.0000
 40
0.1143
 41
0.1143
 70
0
  0
VERTEX
  8
27
 10
6.3522
 20
21.4015
 30
0.0000
 42
1.0000
  0
VERTEX
  8
27
 10
6.3522
 20
21.2872
 30
0.0000
  0
SEQEND
  8
0
  0
POLYLINE
  8
27
 66
1
 10
0.0000
 20
0.0000
 30
0.0000
 40
0.2286
 41
0.2286
 70
0
  0
VERTEX
  8
27
 10
6.6996
 20
21.3443
 30
0.0000
  0
VERTEX
  8
27
 10
6.8734
 20
21.5180
 30
0.0000
  0
SEQEND
  8
0
  0
POLYLINE
  8
27
 66
1
 10
0.0000
 20
0.0000
 30
0.0000
 40
0.1143
 41
0.1143
 70
0
  0
VERTEX
  8
27
 10
6.9138
 20
21.4776
 30
0.0000
 42
1.0000
  0
VERTEX
  8
27
 10
6.8329
 20
21.5584
 30
0.0000
  0
SEQEND
  8
0
  0
POLYLINE
  8
27
 66
1
 10
0.0000
 20
0.0000
 30
0.0000
 40
0.1143
 41
0.1143
 70
0
  0
VERTEX
  8
27
 10
6.6592
 20
21.3847
 30
0.0000
 42
1.0000
  0
VERTEX
  8
27
 10
6.7401
 20
21.3039
 30
0.0000
  0
SEQEND
  8
0
  0
POLYLINE
  8
27
 66
1
 10
0.0000
 20
0.0000
 30
0.0000
 40
0.2286
 41
0.2286
 70
0
  0
VERTEX
  8
27
 10
6.8734
 20
21.5180
 30
0.0000
  0
VERTEX
  8
27
 10
6.8734
 20
21.8654
 30
0.0000
  0
SEQEND
  8
0
  0
POLYLINE
  8
27
 66
1
 10
0.0000
 20
0.0000
 30
0.0000
 40
0.1143
 41
0.1143
 70
0
  0
VERTEX
  8
27
 10
6.9305
 20
21.8654
 30
0.0000
 42
1.0000
  0
VERTEX
  8
27
 10
6.8162
 20
21.8654
 30
0.0000
  0
SEQEND
  8
0
  0
POLYLINE
  8
27
 66
1
 10
0.0000
 20
0.0000
 30
0.0000
 40
0.1143
 41
0.1143
 70
0
  0
VERTEX
  8
27
 10
6.8162
 20
21.5180
 30
0.0000
 42
1.0000
  0
VERTEX
  8
27
 10
6.9305
 20
21.5180
 30
0.0000
  0
SEQEND
  8
0
  0
POLYLINE
  8
27
 66
1
 10
0.0000
 20
0.0000
 30
0.0000
 40
0.2286
 41
0.2286
 70
0
  0
VERTEX
  8
27
 10
6.8734
 20
21.8654
 30
0.0000
  0
VERTEX
  8
27
 10
6.6996
 20
22.0392
 30
0.0000
  0
SEQEND
  8
0
  0
POLYLINE
  8
27
 66
1
 10
0.0000
 20
0.0000
 30
0.0000
 40
0.1143
 41
0.1143
 70
0
  0
VERTEX
  8
27
 10
6.7401
 20
22.0796
 30
0.0000
 42
1.0000
  0
VERTEX
  8
27
 10
6.6592
 20
21.9987
 30
0.0000
  0
SEQEND
  8
0
  0
POLYLINE
  8
27
 66
1
 10
0.0000
 20
0.0000
 30
0.0000
 40
0.1143
 41
0.1143
 70
0
  0
VERTEX
  8
27
 10
6.8329
 20
21.8250
 30
0.0000
 42
1.0000
  0
VERTEX
  8
27
 10
6.9138
 20
21.9059
 30
0.0000
  0
SEQEND
  8
0
  0
POLYLINE
  8
27
 66
1
 10
0.0000
 20
0.0000
 30
0.0000
 40
0.2286
 41
0.2286
 70
0
  0
VERTEX
  8
27
 10
6.6996
 20
22.0392
 30
0.0000
  0
VERTEX
  8
27
 10
6.3522
 20
22.0392
 30
0.0000
  0
SEQEND
  8
0
  0
POLYLINE
  8
27
 66
1
 10
0.0000
 20
0.0000
 30
0.0000
 40
0.1143
 41
0.1143
 70
0
  0
VERTEX
  8
27
 10
6.3522
 20
22.0963
 30
0.0000
 42
1.0000
  0
VERTEX
  8
27
 10
6.3522
 20
21.9820
 30
0.0000
  0
SEQEND
  8
0
  0
POLYLINE
  8
27
 66
1
 10
0.0000
 20
0.0000
 30
0.0000
 40
0.1143
 41
0.1143
 70
0
  0
VERTEX
  8
27
 10
6.6996
 20
21.9820
 30
0.0000
 42
1.0000
  0
VERTEX
  8
27
 10
6.6996
 20
22.0963
 30
0.0000
  0
SEQEND
  8
0
  0
POLYLINE
  8
27
 66
1
 10
0.0000
 20
0.0000
 30
0.0000
 40
0.2286
 41
0.2286
 70
0
  0
VERTEX
  8
27
 10
6.3522
 20
22.0392
 30
0.0000
  0
VERTEX
  8
27
 10
6.1785
 20
21.8654
 30
0.0000
  0
SEQEND
  8
0
  0
POLYLINE
  8
27
 66
1
 10
0.0000
 20
0.0000
 30
0.0000
 40
0.1143
 41
0.1143
 70
0
  0
VERTEX
  8
27
 10
6.1381
 20
21.9059
 30
0.0000
 42
1.0000
  0
VERTEX
  8
27
 10
6.2189
 20
21.8250
 30
0.0000
  0
SEQEND
  8
0
  0
POLYLINE
  8
27
 66
1
 10
0.0000
 20
0.0000
 30
0.0000
 40
0.1143
 41
0.1143
 70
0
  0
VERTEX
  8
27
 10
6.3926
 20
21.9987
 30
0.0000
 42
1.0000
  0
VERTEX
  8
27
 10
6.3118
 20
22.0796
 30
0.0000
  0
SEQEND
  8
0
  0
POLYLINE
  8
27
 66
1
 10
0.0000
 20
0.0000
 30
0.0000
 40
0.2286
 41
0.2286
 70
0
  0
VERTEX
  8
27
 10
6.1785
 20
21.8654
 30
0.0000
  0
VERTEX
  8
27
 10
6.1785
 20
21.5180
 30
0.0000
  0
SEQEND
  8
0
  0
POLYLINE
  8
27
 66
1
 10
0.0000
 20
0.0000
 30
0.0000
 40
0.1143
 41
0.1143
 70
0
  0
VERTEX
  8
27
 10
6.1214
 20
21.5180
 30
0.0000
 42
1.0000
  0
VERTEX
  8
27
 10
6.2357
 20
21.5180
 30
0.0000
  0
SEQEND
  8
0
  0
POLYLINE
  8
27
 66
1
 10
0.0000
 20
0.0000
 30
0.0000
 40
0.1143
 41
0.1143
 70
0
  0
VERTEX
  8
27
 10
6.2357
 20
21.8654
 30
0.0000
 42
1.0000
  0
VERTEX
  8
27
 10
6.1214
 20
21.8654
 30
0.0000
  0
SEQEND
  8
0
  0
POLYLINE
  8
27
 66
1
 10
0.0000
 20
0.0000
 30
0.0000
 40
0.2286
 41
0.2286
 70
0
  0
VERTEX
  8
27
 10
6.1785
 20
21.5180
 30
0.0000
  0
VERTEX
  8
27
 10
6.3522
 20
21.3443
 30
0.0000
  0
SEQEND
  8
0
  0
POLYLINE
  8
27
 66
1
 10
0.0000
 20
0.0000
 30
0.0000
 40
0.1143
 41
0.1143
 70
0
  0
VERTEX
  8
27
 10
6.3118
 20
21.3039
 30
0.0000
 42
1.0000
  0
VERTEX
  8
27
 10
6.3926
 20
21.3847
 30
0.0000
  0
SEQEND
  8
0
  0
POLYLINE
  8
27
 66
1
 10
0.0000
 20
0.0000
 30
0.0000
 40
0.1143
 41
0.1143
 70
0
  0
VERTEX
  8
27
 10
6.2189
 20
21.5584
 30
0.0000
 42
1.0000
  0
VERTEX
  8
27
 10
6.1381
 20
21.4776
 30
0.0000
  0
SEQEND
  8
0
  0
POLYLINE
  8
27
 66
1
 10
0.0000
 20
0.0000
 30
0.0000
 40
0.2286
 41
0.2286
 70
0
  0
VERTEX
  8
27
 10
7.5216
 20
22.2129
 30
0.0000
  0
VERTEX
  8
27
 10
7.5216
 20
21.5180
 30
0.0000
  0
SEQEND
  8
0
  0
POLYLINE
  8
27
 66
1
 10
0.0000
 20
0.0000
 30
0.0000
 40
0.1143
 41
0.1143
 70
0
  0
VERTEX
  8
27
 10
7.4645
 20
21.5180
 30
0.0000
 42
1.0000
  0
VERTEX
  8
27
 10
7.5788
 20
21.5180
 30
0.0000
  0
SEQEND
  8
0
  0
POLYLINE
  8
27
 66
1
 10
0.0000
 20
0.0000
 30
0.0000
 40
0.1143
 41
0.1143
 70
0
  0
VERTEX
  8
27
 10
7.5788
 20
22.2129
 30
0.0000
 42
1.0000
  0
VERTEX
  8
27
 10
7.4645
 20
22.2129
 30
0.0000
  0
SEQEND
  8
0
  0
POLYLINE
  8
27
 66
1
 10
0.0000
 20
0.0000
 30
0.0000
 40
0.2286
 41
0.2286
 70
0
  0
VERTEX
  8
27
 10
7.5216
 20
21.5180
 30
0.0000
  0
VERTEX
  8
27
 10
7.6953
 20
21.3443
 30
0.0000
  0
SEQEND
  8
0
  0
POLYLINE
  8
27
 66
1
 10
0.0000
 20
0.0000
 30
0.0000
 40
0.1143
 41
0.1143
 70
0
  0
VERTEX
  8
27
 10
7.6549
 20
21.3039
 30
0.0000
 42
1.0000
  0
VERTEX
  8
27
 10
7.7357
 20
21.3847
 30
0.0000
  0
SEQEND
  8
0
  0
POLYLINE
  8
27
 66
1
 10
0.0000
 20
0.0000
 30
0.0000
 40
0.1143
 41
0.1143
 70
0
  0
VERTEX
  8
27
 10
7.5620
 20
21.5584
 30
0.0000
 42
1.0000
  0
VERTEX
  8
27
 10
7.4812
 20
21.4776
 30
0.0000
  0
SEQEND
  8
0
  0
POLYLINE
  8
27
 66
1
 10
0.0000
 20
0.0000
 30
0.0000
 40
0.2286
 41
0.2286
 70
0
  0
VERTEX
  8
27
 10
7.3479
 20
22.0392
 30
0.0000
  0
VERTEX
  8
27
 10
7.6953
 20
22.0392
 30
0.0000
  0
SEQEND
  8
0
  0
POLYLINE
  8
27
 66
1
 10
0.0000
 20
0.0000
 30
0.0000
 40
0.1143
 41
0.1143
 70
0
  0
VERTEX
  8
27
 10
7.6953
 20
21.9820
 30
0.0000
 42
1.0000
  0
VERTEX
  8
27
 10
7.6953
 20
22.0963
 30
0.0000
  0
SEQEND
  8
0
  0
POLYLINE
  8
27
 66
1
 10
0.0000
 20
0.0000
 30
0.0000
 40
0.1143
 41
0.1143
 70
0
  0
VERTEX
  8
27
 10
7.3479
 20
22.0963
 30
0.0000
 42
1.0000
  0
VERTEX
  8
27
 10
7.3479
 20
21.9820
 30
0.0000
  0
SEQEND
  8
0
  0
POLYLINE
  8
27
 66
1
 10
0.0000
 20
0.0000
 30
0.0000
 40
0.2286
 41
0.2286
 70
0
  0
VERTEX
  8
27
 10
8.1275
 20
21.3443
 30
0.0000
  0
VERTEX
  8
27
 10
8.6486
 20
21.3443
 30
0.0000
  0
SEQEND
  8
0
  0
POLYLINE
  8
27
 66
1
 10
0.0000
 20
0.0000
 30
0.0000
 40
0.1143
 41
0.1143
 70
0
  0
VERTEX
  8
27
 10
8.6486
 20
21.2872
 30
0.0000
 42
1.0000
  0
VERTEX
  8
27
 10
8.6486
 20
21.4015
 30
0.0000
  0
SEQEND
  8
0
  0
POLYLINE
  8
27
 66
1
 10
0.0000
 20
0.0000
 30
0.0000
 40
0.1143
 41
0.1143
 70
0
  0
VERTEX
  8
27
 10
8.1275
 20
21.4015
 30
0.0000
 42
1.0000
  0
VERTEX
  8
27
 10
8.1275
 20
21.2872
 30
0.0000
  0
SEQEND
  8
0
  0
POLYLINE
  8
27
 66
1
 10
0.0000
 20
0.0000
 30
0.0000
 40
0.2286
 41
0.2286
 70
0
  0
VERTEX
  8
27
 10
8.6486
 20
21.3443
 30
0.0000
  0
VERTEX
  8
27
 10
8.8224
 20
21.5180
 30
0.0000
  0
SEQEND
  8
0
  0
POLYLINE
  8
27
 66
1
 10
0.0000
 20
0.0000
 30
0.0000
 40
0.1143
 41
0.1143
 70
0
  0
VERTEX
  8
27
 10
8.8628
 20
21.4776
 30
0.0000
 42
1.0000
  0
VERTEX
  8
27
 10
8.7819
 20
21.5584
 30
0.0000
  0
SEQEND
  8
0
  0
POLYLINE
  8
27
 66
1
 10
0.0000
 20
0.0000
 30
0.0000
 40
0.1143
 41
0.1143
 70
0
  0
VERTEX
  8
27
 10
8.6082
 20
21.3847
 30
0.0000
 42
1.0000
  0
VERTEX
  8
27
 10
8.6890
 20
21.3039
 30
0.0000
  0
SEQEND
  8
0
  0
POLYLINE
  8
27
 66
1
 10
0.0000
 20
0.0000
 30
0.0000
 40
0.2286
 41
0.2286
 70
0
  0
VERTEX
  8
27
 10
8.8224
 20
21.5180
 30
0.0000
  0
VERTEX
  8
27
 10
8.6486
 20
21.6917
 30
0.0000
  0
SEQEND
  8
0
  0
POLYLINE
  8
27
 66
1
 10
0.0000
 20
0.0000
 30
0.0000
 40
0.1143
 41
0.1143
 70
0
  0
VERTEX
  8
27
 10
8.6890
 20
21.7321
 30
0.0000
 42
1.0000
  0
VERTEX
  8
27
 10
8.6082
 20
21.6513
 30
0.0000
  0
SEQEND
  8
0
  0
POLYLINE
  8
27
 66
1
 10
0.0000
 20
0.0000
 30
0.0000
 40
0.1143
 41
0.1143
 70
0
  0
VERTEX
  8
27
 10
8.7819
 20
21.4776
 30
0.0000
 42
1.0000
  0
VERTEX
  8
27
 10
8.8628
 20
21.5584
 30
0.0000
  0
SEQEND
  8
0
  0
POLYLINE
  8
27
 66
1
 10
0.0000
 20
0.0000
 30
0.0000
 40
0.2286
 41
0.2286
 70
0
  0
VERTEX
  8
27
 10
8.6486
 20
21.6917
 30
0.0000
  0
VERTEX
  8
27
 10
8.3012
 20
21.6917
 30
0.0000
  0
SEQEND
  8
0
  0
POLYLINE
  8
27
 66
1
 10
0.0000
 20
0.0000
 30
0.0000
 40
0.1143
 41
0.1143
 70
0
  0
VERTEX
  8
27
 10
8.3012
 20
21.7489
 30
0.0000
 42
1.0000
  0
VERTEX
  8
27
 10
8.3012
 20
21.6346
 30
0.0000
  0
SEQEND
  8
0
  0
POLYLINE
  8
27
 66
1
 10
0.0000
 20
0.0000
 30
0.0000
 40
0.1143
 41
0.1143
 70
0
  0
VERTEX
  8
27
 10
8.6486
 20
21.6346
 30
0.0000
 42
1.0000
  0
VERTEX
  8
27
 10
8.6486
 20
21.7489
 30
0.0000
  0
SEQEND
  8
0
  0
POLYLINE
  8
27
 66
1
 10
0.0000
 20
0.0000
 30
0.0000
 40
0.2286
 41
0.2286
 70
0
  0
VERTEX
  8
27
 10
8.3012
 20
21.6917
 30
0.0000
  0
VERTEX
  8
27
 10
8.1275
 20
21.8654
 30
0.0000
  0
SEQEND
  8
0
  0
POLYLINE
  8
27
 66
1
 10
0.0000
 20
0.0000
 30
0.0000
 40
0.1143
 41
0.1143
 70
0
  0
VERTEX
  8
27
 10
8.1679
 20
21.9059
 30
0.0000
 42
1.0000
  0
VERTEX
  8
27
 10
8.0871
 20
21.8250
 30
0.0000
  0
SEQEND
  8
0
  0
POLYLINE
  8
27
 66
1
 10
0.0000
 20
0.0000
 30
0.0000
 40
0.1143
 41
0.1143
 70
0
  0
VERTEX
  8
27
 10
8.2608
 20
21.6513
 30
0.0000
 42
1.0000
  0
VERTEX
  8
27
 10
8.3416
 20
21.7321
 30
0.0000
  0
SEQEND
  8
0
  0
POLYLINE
  8
27
 66
1
 10
0.0000
 20
0.0000
 30
0.0000
 40
0.2286
 41
0.2286
 70
0
  0
VERTEX
  8
27
 10
8.1275
 20
21.8654
 30
0.0000
  0
VERTEX
  8
27
 10
8.3012
 20
22.0392
 30
0.0000
  0
SEQEND
  8
0
  0
POLYLINE
  8
27
 66
1
 10
0.0000
 20
0.0000
 30
0.0000
 40
0.1143
 41
0.1143
 70
0
  0
VERTEX
  8
27
 10
8.3416
 20
21.9987
 30
0.0000
 42
1.0000
  0
VERTEX
  8
27
 10
8.2608
 20
22.0796
 30
0.0000
  0
SEQEND
  8
0
  0
POLYLINE
  8
27
 66
1
 10
0.0000
 20
0.0000
 30
0.0000
 40
0.1143
 41
0.1143
 70
0
  0
VERTEX
  8
27
 10
8.0871
 20
21.9059
 30
0.0000
 42
1.0000
  0
VERTEX
  8
27
 10
8.1679
 20
21.8250
 30
0.0000
  0
SEQEND
  8
0
  0
POLYLINE
  8
27
 66
1
 10
0.0000
 20
0.0000
 30
0.0000
 40
0.2286
 41
0.2286
 70
0
  0
VERTEX
  8
27
 10
8.3012
 20
22.0392
 30
0.0000
  0
VERTEX
  8
27
 10
8.8224
 20
22.0392
 30
0.0000
  0
SEQEND
  8
0
  0
POLYLINE
  8
27
 66
1
 10
0.0000
 20
0.0000
 30
0.0000
 40
0.1143
 41
0.1143
 70
0
  0
VERTEX
  8
27
 10
8.8224
 20
21.9820
 30
0.0000
 42
1.0000
  0
VERTEX
  8
27
 10
8.8224
 20
22.0963
 30
0.0000
  0
SEQEND
  8
0
  0
POLYLINE
  8
27
 66
1
 10
0.0000
 20
0.0000
 30
0.0000
 40
0.1143
 41
0.1143
 70
0
  0
VERTEX
  8
27
 10
8.3012
 20
22.0963
 30
0.0000
 42
1.0000
  0
VERTEX
  8
27
 10
8.3012
 20
21.9820
 30
0.0000
  0
SEQEND
  8
0
  0
POLYLINE
  8
27
 66
1
 10
0.0000
 20
0.0000
 30
0.0000
 40
0.2286
 41
0.2286
 70
0
  0
VERTEX
  8
27
 10
9.2969
 20
22.0392
 30
0.0000
  0
VERTEX
  8
27
 10
9.2969
 20
21.5180
 30
0.0000
  0
SEQEND
  8
0
  0
POLYLINE
  8
27
 66
1
 10
0.0000
 20
0.0000
 30
0.0000
 40
0.1143
 41
0.1143
 70
0
  0
VERTEX
  8
27
 10
9.2397
 20
21.5180
 30
0.0000
 42
1.0000
  0
VERTEX
  8
27
 10
9.3540
 20
21.5180
 30
0.0000
  0
SEQEND
  8
0
  0
POLYLINE
  8
27
 66
1
 10
0.0000
 20
0.0000
 30
0.0000
 40
0.1143
 41
0.1143
 70
0
  0
VERTEX
  8
27
 10
9.3540
 20
22.0392
 30
0.0000
 42
1.0000
  0
VERTEX
  8
27
 10
9.2397
 20
22.0392
 30
0.0000
  0
SEQEND
  8
0
  0
POLYLINE
  8
27
 66
1
 10
0.0000
 20
0.0000
 30
0.0000
 40
0.2286
 41
0.2286
 70
0
  0
VERTEX
  8
27
 10
9.2969
 20
21.5180
 30
0.0000
  0
VERTEX
  8
27
 10
9.4706
 20
21.3443
 30
0.0000
  0
SEQEND
  8
0
  0
POLYLINE
  8
27
 66
1
 10
0.0000
 20
0.0000
 30
0.0000
 40
0.1143
 41
0.1143
 70
0
  0
VERTEX
  8
27
 10
9.4302
 20
21.3039
 30
0.0000
 42
1.0000
  0
VERTEX
  8
27
 10
9.5110
 20
21.3847
 30
0.0000
  0
SEQEND
  8
0
  0
POLYLINE
  8
27
 66
1
 10
0.0000
 20
0.0000
 30
0.0000
 40
0.1143
 41
0.1143
 70
0
  0
VERTEX
  8
27
 10
9.3373
 20
21.5584
 30
0.0000
 42
1.0000
  0
VERTEX
  8
27
 10
9.2565
 20
21.4776
 30
0.0000
  0
SEQEND
  8
0
  0
POLYLINE
  8
27
 66
1
 10
0.0000
 20
0.0000
 30
0.0000
 40
0.2286
 41
0.2286
 70
0
  0
VERTEX
  8
27
 10
9.4706
 20
21.3443
 30
0.0000
  0
VERTEX
  8
27
 10
9.6443
 20
21.5180
 30
0.0000
  0
SEQEND
  8
0
  0
POLYLINE
  8
27
 66
1
 10
0.0000
 20
0.0000
 30
0.0000
 40
0.1143
 41
0.1143
 70
0
  0
VERTEX
  8
27
 10
9.6847
 20
21.4776
 30
0.0000
 42
1.0000
  0
VERTEX
  8
27
 10
9.6039
 20
21.5584
 30
0.0000
  0
SEQEND
  8
0
  0
POLYLINE
  8
27
 66
1
 10
0.0000
 20
0.0000
 30
0.0000
 40
0.1143
 41
0.1143
 70
0
  0
VERTEX
  8
27
 10
9.4302
 20
21.3847
 30
0.0000
 42
1.0000
  0
VERTEX
  8
27
 10
9.5110
 20
21.3039
 30
0.0000
  0
SEQEND
  8
0
  0
POLYLINE
  8
27
 66
1
 10
0.0000
 20
0.0000
 30
0.0000
 40
0.2286
 41
0.2286
 70
0
  0
VERTEX
  8
27
 10
9.6443
 20
21.5180
 30
0.0000
  0
VERTEX
  8
27
 10
9.8180
 20
21.3443
 30
0.0000
  0
SEQEND
  8
0
  0
POLYLINE
  8
27
 66
1
 10
0.0000
 20
0.0000
 30
0.0000
 40
0.1143
 41
0.1143
 70
0
  0
VERTEX
  8
27
 10
9.7776
 20
21.3039
 30
0.0000
 42
1.0000
  0
VERTEX
  8
27
 10
9.8584
 20
21.3847
 30
0.0000
  0
SEQEND
  8
0
  0
POLYLINE
  8
27
 66
1
 10
0.0000
 20
0.0000
 30
0.0000
 40
0.1143
 41
0.1143
 70
0
  0
VERTEX
  8
27
 10
9.6847
 20
21.5584
 30
0.0000
 42
1.0000
  0
VERTEX
  8
27
 10
9.6039
 20
21.4776
 30
0.0000
  0
SEQEND
  8
0
  0
POLYLINE
  8
27
 66
1
 10
0.0000
 20
0.0000
 30
0.0000
 40
0.2286
 41
0.2286
 70
0
  0
VERTEX
  8
27
 10
9.8180
 20
21.3443
 30
0.0000
  0
VERTEX
  8
27
 10
9.9917
 20
21.5180
 30
0.0000
  0
SEQEND
  8
0
  0
POLYLINE
  8
27
 66
1
 10
0.0000
 20
0.0000
 30
0.0000
 40
0.1143
 41
0.1143
 70
0
  0
VERTEX
  8
27
 10
10.0322
 20
21.4776
 30
0.0000
 42
1.0000
  0
VERTEX
  8
27
 10
9.9513
 20
21.5584
 30
0.0000
  0
SEQEND
  8
0
  0
POLYLINE
  8
27
 66
1
 10
0.0000
 20
0.0000
 30
0.0000
 40
0.1143
 41
0.1143
 70
0
  0
VERTEX
  8
27
 10
9.7776
 20
21.3847
 30
0.0000
 42
1.0000
  0
VERTEX
  8
27
 10
9.8584
 20
21.3039
 30
0.0000
  0
SEQEND
  8
0
  0
POLYLINE
  8
27
 66
1
 10
0.0000
 20
0.0000
 30
0.0000
 40
0.2286
 41
0.2286
 70
0
  0
VERTEX
  8
27
 10
9.9917
 20
21.5180
 30
0.0000
  0
VERTEX
  8
27
 10
9.9917
 20
22.0392
 30
0.0000
  0
SEQEND
  8
0
  0
POLYLINE
  8
27
 66
1
 10
0.0000
 20
0.0000
 30
0.0000
 40
0.1143
 41
0.1143
 70
0
  0
VERTEX
  8
27
 10
10.0489
 20
22.0392
 30
0.0000
 42
1.0000
  0
VERTEX
  8
27
 10
9.9346
 20
22.0392
 30
0.0000
  0
SEQEND
  8
0
  0
POLYLINE
  8
27
 66
1
 10
0.0000
 20
0.0000
 30
0.0000
 40
0.1143
 41
0.1143
 70
0
  0
VERTEX
  8
27
 10
9.9346
 20
21.5180
 30
0.0000
 42
1.0000
  0
VERTEX
  8
27
 10
10.0489
 20
21.5180
 30
0.0000
  0
SEQEND
  8
0
  0
POLYLINE
  8
27
 66
1
 10
0.0000
 20
0.0000
 30
0.0000
 40
0.2286
 41
0.2286
 70
0
  0
VERTEX
  8
27
 10
10.4663
 20
22.0392
 30
0.0000
  0
VERTEX
  8
27
 10
10.6400
 20
22.0392
 30
0.0000
  0
SEQEND
  8
0
  0
POLYLINE
  8
27
 66
1
 10
0.0000
 20
0.0000
 30
0.0000
 40
0.1143
 41
0.1143
 70
0
  0
VERTEX
  8
27
 10
10.6400
 20
21.9820
 30
0.0000
 42
1.0000
  0
VERTEX
  8
27
 10
10.6400
 20
22.0963
 30
0.0000
  0
SEQEND
  8
0
  0
POLYLINE
  8
27
 66
1
 10
0.0000
 20
0.0000
 30
0.0000
 40
0.1143
 41
0.1143
 70
0
  0
VERTEX
  8
27
 10
10.4663
 20
22.0963
 30
0.0000
 42
1.0000
  0
VERTEX
  8
27
 10
10.4663
 20
21.9820
 30
0.0000
  0
SEQEND
  8
0
  0
POLYLINE
  8
27
 66
1
 10
0.0000
 20
0.0000
 30
0.0000
 40
0.2286
 41
0.2286
 70
0
  0
VERTEX
  8
27
 10
10.6400
 20
22.0392
 30
0.0000
  0
VERTEX
  8
27
 10
10.6400
 20
21.3443
 30
0.0000
  0
SEQEND
  8
0
  0
POLYLINE
  8
27
 66
1
 10
0.0000
 20
0.0000
 30
0.0000
 40
0.1143
 41
0.1143
 70
0
  0
VERTEX
  8
27
 10
10.5829
 20
21.3443
 30
0.0000
 42
1.0000
  0
VERTEX
  8
27
 10
10.6972
 20
21.3443
 30
0.0000
  0
SEQEND
  8
0
  0
POLYLINE
  8
27
 66
1
 10
0.0000
 20
0.0000
 30
0.0000
 40
0.1143
 41
0.1143
 70
0
  0
VERTEX
  8
27
 10
10.6972
 20
22.0392
 30
0.0000
 42
1.0000
  0
VERTEX
  8
27
 10
10.5829
 20
22.0392
 30
0.0000
  0
SEQEND
  8
0
  0
POLYLINE
  8
27
 66
1
 10
0.0000
 20
0.0000
 30
0.0000
 40
0.2286
 41
0.2286
 70
0
  0
VERTEX
  8
27
 10
10.4663
 20
21.3443
 30
0.0000
  0
VERTEX
  8
27
 10
10.8137
 20
21.3443
 30
0.0000
  0
SEQEND
  8
0
  0
POLYLINE
  8
27
 66
1
 10
0.0000
 20
0.0000
 30
0.0000
 40
0.1143
 41
0.1143
 70
0
  0
VERTEX
  8
27
 10
10.8137
 20
21.2872
 30
0.0000
 42
1.0000
  0
VERTEX
  8
27
 10
10.8137
 20
21.4015
 30
0.0000
  0
SEQEND
  8
0
  0
POLYLINE
  8
27
 66
1
 10
0.0000
 20
0.0000
 30
0.0000
 40
0.1143
 41
0.1143
 70
0
  0
VERTEX
  8
27
 10
10.4663
 20
21.4015
 30
0.0000
 42
1.0000
  0
VERTEX
  8
27
 10
10.4663
 20
21.2872
 30
0.0000
  0
SEQEND
  8
0
  0
POLYLINE
  8
27
 66
1
 10
0.0000
 20
0.0000
 30
0.0000
 40
0.2286
 41
0.2286
 70
0
  0
VERTEX
  8
27
 10
10.6400
 20
22.5603
 30
0.0000
  0
VERTEX
  8
27
 10
10.6400
 20
22.3866
 30
0.0000
  0
SEQEND
  8
0
  0
POLYLINE
  8
27
 66
1
 10
0.0000
 20
0.0000
 30
0.0000
 40
0.1143
 41
0.1143
 70
0
  0
VERTEX
  8
27
 10
10.5829
 20
22.3866
 30
0.0000
 42
1.0000
  0
VERTEX
  8
27
 10
10.6972
 20
22.3866
 30
0.0000
  0
SEQEND
  8
0
  0
POLYLINE
  8
27
 66
1
 10
0.0000
 20
0.0000
 30
0.0000
 40
0.1143
 41
0.1143
 70
0
  0
VERTEX
  8
27
 10
10.6972
 20
22.5603
 30
0.0000
 42
1.0000
  0
VERTEX
  8
27
 10
10.5829
 20
22.5603
 30
0.0000
  0
SEQEND
  8
0
  0
POLYLINE
  8
27
 66
1
 10
0.0000
 20
0.0000
 30
0.0000
 40
0.2286
 41
0.2286
 70
0
  0
VERTEX
  8
27
 10
11.4196
 20
22.2129
 30
0.0000
  0
VERTEX
  8
27
 10
11.4196
 20
21.5180
 30
0.0000
  0
SEQEND
  8
0
  0
POLYLINE
  8
27
 66
1
 10
0.0000
 20
0.0000
 30
0.0000
 40
0.1143
 41
0.1143
 70
0
  0
VERTEX
  8
27
 10
11.3624
 20
21.5180
 30
0.0000
 42
1.0000
  0
VERTEX
  8
27
 10
11.4767
 20
21.5180
 30
0.0000
  0
SEQEND
  8
0
  0
POLYLINE
  8
27
 66
1
 10
0.0000
 20
0.0000
 30
0.0000
 40
0.1143
 41
0.1143
 70
0
  0
VERTEX
  8
27
 10
11.4767
 20
22.2129
 30
0.0000
 42
1.0000
  0
VERTEX
  8
27
 10
11.3624
 20
22.2129
 30
0.0000
  0
SEQEND
  8
0
  0
POLYLINE
  8
27
 66
1
 10
0.0000
 20
0.0000
 30
0.0000
 40
0.2286
 41
0.2286
 70
0
  0
VERTEX
  8
27
 10
11.4196
 20
21.5180
 30
0.0000
  0
VERTEX
  8
27
 10
11.5933
 20
21.3443
 30
0.0000
  0
SEQEND
  8
0
  0
POLYLINE
  8
27
 66
1
 10
0.0000
 20
0.0000
 30
0.0000
 40
0.1143
 41
0.1143
 70
0
  0
VERTEX
  8
27
 10
11.5529
 20
21.3039
 30
0.0000
 42
1.0000
  0
VERTEX
  8
27
 10
11.6337
 20
21.3847
 30
0.0000
  0
SEQEND
  8
0
  0
POLYLINE
  8
27
 66
1
 10
0.0000
 20
0.0000
 30
0.0000
 40
0.1143
 41
0.1143
 70
0
  0
VERTEX
  8
27
 10
11.4600
 20
21.5584
 30
0.0000
 42
1.0000
  0
VERTEX
  8
27
 10
11.3792
 20
21.4776
 30
0.0000
  0
SEQEND
  8
0
  0
POLYLINE
  8
27
 66
1
 10
0.0000
 20
0.0000
 30
0.0000
 40
0.2286
 41
0.2286
 70
0
  0
VERTEX
  8
27
 10
11.2459
 20
22.0392
 30
0.0000
  0
VERTEX
  8
27
 10
11.5933
 20
22.0392
 30
0.0000
  0
SEQEND
  8
0
  0
POLYLINE
  8
27
 66
1
 10
0.0000
 20
0.0000
 30
0.0000
 40
0.1143
 41
0.1143
 70
0
  0
VERTEX
  8
27
 10
11.5933
 20
21.9820
 30
0.0000
 42
1.0000
  0
VERTEX
  8
27
 10
11.5933
 20
22.0963
 30
0.0000
  0
SEQEND
  8
0
  0
POLYLINE
  8
27
 66
1
 10
0.0000
 20
0.0000
 30
0.0000
 40
0.1143
 41
0.1143
 70
0
  0
VERTEX
  8
27
 10
11.2459
 20
22.0963
 30
0.0000
 42
1.0000
  0
VERTEX
  8
27
 10
11.2459
 20
21.9820
 30
0.0000
  0
SEQEND
  8
0
  0
POLYLINE
  8
27
 66
1
 10
0.0000
 20
0.0000
 30
0.0000
 40
0.2286
 41
0.2286
 70
0
  0
VERTEX
  8
27
 10
12.7203
 20
22.0392
 30
0.0000
  0
VERTEX
  8
27
 10
12.1992
 20
22.0392
 30
0.0000
  0
SEQEND
  8
0
  0
POLYLINE
  8
27
 66
1
 10
0.0000
 20
0.0000
 30
0.0000
 40
0.1143
 41
0.1143
 70
0
  0
VERTEX
  8
27
 10
12.1992
 20
22.0963
 30
0.0000
 42
1.0000
  0
VERTEX
  8
27
 10
12.1992
 20
21.9820
 30
0.0000
  0
SEQEND
  8
0
  0
POLYLINE
  8
27
 66
1
 10
0.0000
 20
0.0000
 30
0.0000
 40
0.1143
 41
0.1143
 70
0
  0
VERTEX
  8
27
 10
12.7203
 20
21.9820
 30
0.0000
 42
1.0000
  0
VERTEX
  8
27
 10
12.7203
 20
22.0963
 30
0.0000
  0
SEQEND
  8
0
  0
POLYLINE
  8
27
 66
1
 10
0.0000
 20
0.0000
 30
0.0000
 40
0.2286
 41
0.2286
 70
0
  0
VERTEX
  8
27
 10
12.1992
 20
22.0392
 30
0.0000
  0
VERTEX
  8
27
 10
12.0255
 20
21.8654
 30
0.0000
  0
SEQEND
  8
0
  0
POLYLINE
  8
27
 66
1
 10
0.0000
 20
0.0000
 30
0.0000
 40
0.1143
 41
0.1143
 70
0
  0
VERTEX
  8
27
 10
11.9851
 20
21.9059
 30
0.0000
 42
1.0000
  0
VERTEX
  8
27
 10
12.0659
 20
21.8250
 30
0.0000
  0
SEQEND
  8
0
  0
POLYLINE
  8
27
 66
1
 10
0.0000
 20
0.0000
 30
0.0000
 40
0.1143
 41
0.1143
 70
0
  0
VERTEX
  8
27
 10
12.2396
 20
21.9987
 30
0.0000
 42
1.0000
  0
VERTEX
  8
27
 10
12.1588
 20
22.0796
 30
0.0000
  0
SEQEND
  8
0
  0
POLYLINE
  8
27
 66
1
 10
0.0000
 20
0.0000
 30
0.0000
 40
0.2286
 41
0.2286
 70
0
  0
VERTEX
  8
27
 10
12.0255
 20
21.8654
 30
0.0000
  0
VERTEX
  8
27
 10
12.0255
 20
21.5180
 30
0.0000
  0
SEQEND
  8
0
  0
POLYLINE
  8
27
 66
1
 10
0.0000
 20
0.0000
 30
0.0000
 40
0.1143
 41
0.1143
 70
0
  0
VERTEX
  8
27
 10
11.9683
 20
21.5180
 30
0.0000
 42
1.0000
  0
VERTEX
  8
27
 10
12.0826
 20
21.5180
 30
0.0000
  0
SEQEND
  8
0
  0
POLYLINE
  8
27
 66
1
 10
0.0000
 20
0.0000
 30
0.0000
 40
0.1143
 41
0.1143
 70
0
  0
VERTEX
  8
27
 10
12.0826
 20
21.8654
 30
0.0000
 42
1.0000
  0
VERTEX
  8
27
 10
11.9683
 20
21.8654
 30
0.0000
  0
SEQEND
  8
0
  0
POLYLINE
  8
27
 66
1
 10
0.0000
 20
0.0000
 30
0.0000
 40
0.2286
 41
0.2286
 70
0
  0
VERTEX
  8
27
 10
12.0255
 20
21.5180
 30
0.0000
  0
VERTEX
  8
27
 10
12.1992
 20
21.3443
 30
0.0000
  0
SEQEND
  8
0
  0
POLYLINE
  8
27
 66
1
 10
0.0000
 20
0.0000
 30
0.0000
 40
0.1143
 41
0.1143
 70
0
  0
VERTEX
  8
27
 10
12.1588
 20
21.3039
 30
0.0000
 42
1.0000
  0
VERTEX
  8
27
 10
12.2396
 20
21.3847
 30
0.0000
  0
SEQEND
  8
0
  0
POLYLINE
  8
27
 66
1
 10
0.0000
 20
0.0000
 30
0.0000
 40
0.1143
 41
0.1143
 70
0
  0
VERTEX
  8
27
 10
12.0659
 20
21.5584
 30
0.0000
 42
1.0000
  0
VERTEX
  8
27
 10
11.9851
 20
21.4776
 30
0.0000
  0
SEQEND
  8
0
  0
POLYLINE
  8
27
 66
1
 10
0.0000
 20
0.0000
 30
0.0000
 40
0.2286
 41
0.2286
 70
0
  0
VERTEX
  8
27
 10
12.1992
 20
21.3443
 30
0.0000
  0
VERTEX
  8
27
 10
12.7203
 20
21.3443
 30
0.0000
  0
SEQEND
  8
0
  0
POLYLINE
  8
27
 66
1
 10
0.0000
 20
0.0000
 30
0.0000
 40
0.1143
 41
0.1143
 70
0
  0
VERTEX
  8
27
 10
12.7203
 20
21.2872
 30
0.0000
 42
1.0000
  0
VERTEX
  8
27
 10
12.7203
 20
21.4015
 30
0.0000
  0
SEQEND
  8
0
  0
POLYLINE
  8
27
 66
1
 10
0.0000
 20
0.0000
 30
0.0000
 40
0.1143
 41
0.1143
 70
0
  0
VERTEX
  8
27
 10
12.1992
 20
21.4015
 30
0.0000
 42
1.0000
  0
VERTEX
  8
27
 10
12.1992
 20
21.2872
 30
0.0000
  0
SEQEND
  8
0
  0
POLYLINE
  8
27
 66
1
 10
0.0000
 20
0.0000
 30
0.0000
 40
0.2286
 41
0.2286
 70
0
  0
VERTEX
  8
27
 10
13.1949
 20
22.3866
 30
0.0000
  0
VERTEX
  8
27
 10
13.1949
 20
21.3443
 30
0.0000
  0
SEQEND
  8
0
  0
POLYLINE
  8
27
 66
1
 10
0.0000
 20
0.0000
 30
0.0000
 40
0.1143
 41
0.1143
 70
0
  0
VERTEX
  8
27
 10
13.1377
 20
21.3443
 30
0.0000
 42
1.0000
  0
VERTEX
  8
27
 10
13.2520
 20
21.3443
 30
0.0000
  0
SEQEND
  8
0
  0
POLYLINE
  8
27
 66
1
 10
0.0000
 20
0.0000
 30
0.0000
 40
0.1143
 41
0.1143
 70
0
  0
VERTEX
  8
27
 10
13.2520
 20
22.3866
 30
0.0000
 42
1.0000
  0
VERTEX
  8
27
 10
13.1377
 20
22.3866
 30
0.0000
  0
SEQEND
  8
0
  0
POLYLINE
  8
27
 66
1
 10
0.0000
 20
0.0000
 30
0.0000
 40
0.2286
 41
0.2286
 70
0
  0
VERTEX
  8
27
 10
13.1949
 20
21.8654
 30
0.0000
  0
VERTEX
  8
27
 10
13.3686
 20
22.0392
 30
0.0000
  0
SEQEND
  8
0
  0
POLYLINE
  8
27
 66
1
 10
0.0000
 20
0.0000
 30
0.0000
 40
0.1143
 41
0.1143
 70
0
  0
VERTEX
  8
27
 10
13.4090
 20
21.9987
 30
0.0000
 42
1.0000
  0
VERTEX
  8
27
 10
13.3282
 20
22.0796
 30
0.0000
  0
SEQEND
  8
0
  0
POLYLINE
  8
27
 66
1
 10
0.0000
 20
0.0000
 30
0.0000
 40
0.1143
 41
0.1143
 70
0
  0
VERTEX
  8
27
 10
13.1545
 20
21.9059
 30
0.0000
 42
1.0000
  0
VERTEX
  8
27
 10
13.2353
 20
21.8250
 30
0.0000
  0
SEQEND
  8
0
  0
POLYLINE
  8
27
 66
1
 10
0.0000
 20
0.0000
 30
0.0000
 40
0.2286
 41
0.2286
 70
0
  0
VERTEX
  8
27
 10
13.3686
 20
22.0392
 30
0.0000
  0
VERTEX
  8
27
 10
13.7160
 20
22.0392
 30
0.0000
  0
SEQEND
  8
0
  0
POLYLINE
  8
27
 66
1
 10
0.0000
 20
0.0000
 30
0.0000
 40
0.1143
 41
0.1143
 70
0
  0
VERTEX
  8
27
 10
13.7160
 20
21.9820
 30
0.0000
 42
1.0000
  0
VERTEX
  8
27
 10
13.7160
 20
22.0963
 30
0.0000
  0
SEQEND
  8
0
  0
POLYLINE
  8
27
 66
1
 10
0.0000
 20
0.0000
 30
0.0000
 40
0.1143
 41
0.1143
 70
0
  0
VERTEX
  8
27
 10
13.3686
 20
22.0963
 30
0.0000
 42
1.0000
  0
VERTEX
  8
27
 10
13.3686
 20
21.9820
 30
0.0000
  0
SEQEND
  8
0
  0
POLYLINE
  8
27
 66
1
 10
0.0000
 20
0.0000
 30
0.0000
 40
0.2286
 41
0.2286
 70
0
  0
VERTEX
  8
27
 10
13.7160
 20
22.0392
 30
0.0000
  0
VERTEX
  8
27
 10
13.8897
 20
21.8654
 30
0.0000
  0
SEQEND
  8
0
  0
POLYLINE
  8
27
 66
1
 10
0.0000
 20
0.0000
 30
0.0000
 40
0.1143
 41
0.1143
 70
0
  0
VERTEX
  8
27
 10
13.8493
 20
21.8250
 30
0.0000
 42
1.0000
  0
VERTEX
  8
27
 10
13.9301
 20
21.9059
 30
0.0000
  0
SEQEND
  8
0
  0
POLYLINE
  8
27
 66
1
 10
0.0000
 20
0.0000
 30
0.0000
 40
0.1143
 41
0.1143
 70
0
  0
VERTEX
  8
27
 10
13.7564
 20
22.0796
 30
0.0000
 42
1.0000
  0
VERTEX
  8
27
 10
13.6756
 20
21.9987
 30
0.0000
  0
SEQEND
  8
0
  0
POLYLINE
  8
27
 66
1
 10
0.0000
 20
0.0000
 30
0.0000
 40
0.2286
 41
0.2286
 70
0
  0
VERTEX
  8
27
 10
13.8897
 20
21.8654
 30
0.0000
  0
VERTEX
  8
27
 10
13.8897
 20
21.3443
 30
0.0000
  0
SEQEND
  8
0
  0
POLYLINE
  8
27
 66
1
 10
0.0000
 20
0.0000
 30
0.0000
 40
0.1143
 41
0.1143
 70
0
  0
VERTEX
  8
27
 10
13.8326
 20
21.3443
 30
0.0000
 42
1.0000
  0
VERTEX
  8
27
 10
13.9469
 20
21.3443
 30
0.0000
  0
SEQEND
  8
0
  0
POLYLINE
  8
27
 66
1
 10
0.0000
 20
0.0000
 30
0.0000
 40
0.1143
 41
0.1143
 70
0
  0
VERTEX
  8
27
 10
13.9469
 20
21.8654
 30
0.0000
 42
1.0000
  0
VERTEX
  8
27
 10
13.8326
 20
21.8654
 30
0.0000
  0
SEQEND
  8
0
  0
POLYLINE
  8
1
 66
1
 10
0.0000
 20
0.0000
 30
0.0000
 40
0.6096
 41
0.6096
 70
0
  0
VERTEX
  8
1
 10
18.5500
 20
29.0500
 30
0.0000
  0
VERTEX
  8
1
 10
18.5500
 20
-1.0500
 30
0.0000
  0
SEQEND
  8
0
  0
POLYLINE
  8
1
 66
1
 10
0.0000
 20
0.0000
 30
0.0000
 40
0.3048
 41
0.3048
 70
0
  0
VERTEX
  8
1
 10
18.3976
 20
-1.0500
 30
0.0000
 42
1.0000
  0
VERTEX
  8
1
 10
18.7024
 20
-1.0500
 30
0.0000
  0
SEQEND
  8
0
  0
POLYLINE
  8
1
 66
1
 10
0.0000
 20
0.0000
 30
0.0000
 40
0.3048
 41
0.3048
 70
0
  0
VERTEX
  8
1
 10
18.7024
 20
29.0500
 30
0.0000
 42
1.0000
  0
VERTEX
  8
1
 10
18.3976
 20
29.0500
 30
0.0000
  0
SEQEND
  8
0
  0
POLYLINE
  8
1
 66
1
 10
0.0000
 20
0.0000
 30
0.0000
 40
0.6096
 41
0.6096
 70
0
  0
VERTEX
  8
1
 10
18.5500
 20
-1.0500
 30
0.0000
  0
VERTEX
  8
1
 10
-0.5500
 20
-1.0500
 30
0.0000
  0
SEQEND
  8
0
  0
POLYLINE
  8
1
 66
1
 10
0.0000
 20
0.0000
 30
0.0000
 40
0.3048
 41
0.3048
 70
0
  0
VERTEX
  8
1
 10
-0.5500
 20
-0.8976
 30
0.0000
 42
1.0000
  0
VERTEX
  8
1
 10
-0.5500
 20
-1.2024
 30
0.0000
  0
SEQEND
  8
0
  0
POLYLINE
  8
1
 66
1
 10
0.0000
 20
0.0000
 30
0.0000
 40
0.3048
 41
0.3048
 70
0
  0
VERTEX
  8
1
 10
18.5500
 20
-1.2024
 30
0.0000
 42
1.0000
  0
VERTEX
  8
1
 10
18.5500
 20
-0.8976
 30
0.0000
  0
SEQEND
  8
0
  0
POLYLINE
  8
1
 66
1
 10
0.0000
 20
0.0000
 30
0.0000
 40
0.6096
 41
0.6096
 70
0
  0
VERTEX
  8
1
 10
-0.5500
 20
-1.0500
 30
0.0000
  0
VERTEX
  8
1
 10
-0.5500
 20
29.0500
 30
0.0000
  0
SEQEND
  8
0
  0
POLYLINE
  8
1
 66
1
 10
0.0000
 20
0.0000
 30
0.0000
 40
0.3048
 41
0.3048
 70
0
  0
VERTEX
  8
1
 10
-0.3976
 20
29.0500
 30
0.0000
 42
1.0000
  0
VERTEX
  8
1
 10
-0.7024
 20
29.0500
 30
0.0000
  0
SEQEND
  8
0
  0
POLYLINE
  8
1
 66
1
 10
0.0000
 20
0.0000
 30
0.0000
 40
0.3048
 41
0.3048
 70
0
  0
VERTEX
  8
1
 10
-0.7024
 20
-1.0500
 30
0.0000
 42
1.0000
  0
VERTEX
  8
1
 10
-0.3976
 20
-1.0500
 30
0.0000
  0
SEQEND
  8
0
  0
POLYLINE
  8
1
 66
1
 10
0.0000
 20
0.0000
 30
0.0000
 40
0.6096
 41
0.6096
 70
0
  0
VERTEX
  8
1
 10
-0.5500
 20
29.0500
 30
0.0000
  0
VERTEX
  8
1
 10
18.5500
 20
29.0500
 30
0.0000
  0
SEQEND
  8
0
  0
POLYLINE
  8
1
 66
1
 10
0.0000
 20
0.0000
 30
0.0000
 40
0.3048
 41
0.3048
 70
0
  0
VERTEX
  8
1
 10
18.5500
 20
28.8976
 30
0.0000
 42
1.0000
  0
VERTEX
  8
1
 10
18.5500
 20
29.2024
 30
0.0000
  0
SEQEND
  8
0
  0
POLYLINE
  8
1
 66
1
 10
0.0000
 20
0.0000
 30
0.0000
 40
0.3048
 41
0.3048
 70
0
  0
VERTEX
  8
1
 10
-0.5500
 20
29.2024
 30
0.0000
 42
1.0000
  0
VERTEX
  8
1
 10
-0.5500
 20
28.8976
 30
0.0000
  0
SEQEND
  8
0
  0
POLYLINE
  8
16
 66
1
 10
0.0000
 20
0.0000
 30
0.0000
 40
0.6096
 41
0.6096
 70
0
  0
VERTEX
  8
16
 10
-0.5500
 20
29.0500
 30
0.0000
  0
VERTEX
  8
16
 10
18.5500
 20
29.0500
 30
0.0000
  0
SEQEND
  8
0
  0
POLYLINE
  8
16
 66
1
 10
0.0000
 20
0.0000
 30
0.0000
 40
0.3048
 41
0.3048
 70
0
  0
VERTEX
  8
16
 10
18.5500
 20
28.8976
 30
0.0000
 42
1.0000
  0
VERTEX
  8
16
 10
18.5500
 20
29.2024
 30
0.0000
  0
SEQEND
  8
0
  0
POLYLINE
  8
16
 66
1
 10
0.0000
 20
0.0000
 30
0.0000
 40
0.3048
 41
0.3048
 70
0
  0
VERTEX
  8
16
 10
-0.5500
 20
29.2024
 30
0.0000
 42
1.0000
  0
VERTEX
  8
16
 10
-0.5500
 20
28.8976
 30
0.0000
  0
SEQEND
  8
0
  0
POLYLINE
  8
16
 66
1
 10
0.0000
 20
0.0000
 30
0.0000
 40
0.6096
 41
0.6096
 70
0
  0
VERTEX
  8
16
 10
18.5500
 20
29.0500
 30
0.0000
  0
VERTEX
  8
16
 10
18.5500
 20
-1.0500
 30
0.0000
  0
SEQEND
  8
0
  0
POLYLINE
  8
16
 66
1
 10
0.0000
 20
0.0000
 30
0.0000
 40
0.3048
 41
0.3048
 70
0
  0
VERTEX
  8
16
 10
18.3976
 20
-1.0500
 30
0.0000
 42
1.0000
  0
VERTEX
  8
16
 10
18.7024
 20
-1.0500
 30
0.0000
  0
SEQEND
  8
0
  0
POLYLINE
  8
16
 66
1
 10
0.0000
 20
0.0000
 30
0.0000
 40
0.3048
 41
0.3048
 70
0
  0
VERTEX
  8
16
 10
18.7024
 20
29.0500
 30
0.0000
 42
1.0000
  0
VERTEX
  8
16
 10
18.3976
 20
29.0500
 30
0.0000
  0
SEQEND
  8
0
  0
POLYLINE
  8
16
 66
1
 10
0.0000
 20
0.0000
 30
0.0000
 40
0.6096
 41
0.6096
 70
0
  0
VERTEX
  8
16
 10
18.5500
 20
-1.0500
 30
0.0000
  0
VERTEX
  8
16
 10
-0.5500
 20
-1.0500
 30
0.0000
  0
SEQEND
  8
0
  0
POLYLINE
  8
16
 66
1
 10
0.0000
 20
0.0000
 30
0.0000
 40
0.3048
 41
0.3048
 70
0
  0
VERTEX
  8
16
 10
-0.5500
 20
-0.8976
 30
0.0000
 42
1.0000
  0
VERTEX
  8
16
 10
-0.5500
 20
-1.2024
 30
0.0000
  0
SEQEND
  8
0
  0
POLYLINE
  8
16
 66
1
 10
0.0000
 20
0.0000
 30
0.0000
 40
0.3048
 41
0.3048
 70
0
  0
VERTEX
  8
16
 10
18.5500
 20
-1.2024
 30
0.0000
 42
1.0000
  0
VERTEX
  8
16
 10
18.5500
 20
-0.8976
 30
0.0000
  0
SEQEND
  8
0
  0
POLYLINE
  8
16
 66
1
 10
0.0000
 20
0.0000
 30
0.0000
 40
0.6096
 41
0.6096
 70
0
  0
VERTEX
  8
16
 10
-0.5500
 20
-1.0500
 30
0.0000
  0
VERTEX
  8
16
 10
-0.5500
 20
29.0500
 30
0.0000
  0
SEQEND
  8
0
  0
POLYLINE
  8
16
 66
1
 10
0.0000
 20
0.0000
 30
0.0000
 40
0.3048
 41
0.3048
 70
0
  0
VERTEX
  8
16
 10
-0.3976
 20
29.0500
 30
0.0000
 42
1.0000
  0
VERTEX
  8
16
 10
-0.7024
 20
29.0500
 30
0.0000
  0
SEQEND
  8
0
  0
POLYLINE
  8
16
 66
1
 10
0.0000
 20
0.0000
 30
0.0000
 40
0.3048
 41
0.3048
 70
0
  0
VERTEX
  8
16
 10
-0.7024
 20
-1.0500
 30
0.0000
 42
1.0000
  0
VERTEX
  8
16
 10
-0.3976
 20
-1.0500
 30
0.0000
  0
SEQEND
  8
0
  0
POLYLINE
  8
16
 66
1
 10
0.0000
 20
0.0000
 30
0.0000
 40
0.1524
 41
0.1524
 70
0
  0
VERTEX
  8
16
 10
9.9500
 20
23.6500
 30
0.0000
  0
VERTEX
  8
16
 10
9.9413
 20
23.5210
 30
0.0000
  0
SEQEND
  8
0
  0
POLYLINE
  8
16
 66
1
 10
0.0000
 20
0.0000
 30
0.0000
 40
0.0762
 41
0.0762
 70
0
  0
VERTEX
  8
16
 10
9.9033
 20
23.5236
 30
0.0000
 42
1.0000
  0
VERTEX
  8
16
 10
9.9794
 20
23.5185
 30
0.0000
  0
SEQEND
  8
0
  0
POLYLINE
  8
16
 66
1
 10
0.0000
 20
0.0000
 30
0.0000
 40
0.0762
 41
0.0762
 70
0
  0
VERTEX
  8
16
 10
9.9880
 20
23.6475
 30
0.0000
 42
1.0000
  0
VERTEX
  8
16
 10
9.9120
 20
23.6525
 30
0.0000
  0
SEQEND
  8
0
  0
POLYLINE
  8
16
 66
1
 10
0.0000
 20
0.0000
 30
0.0000
 40
0.1524
 41
0.1524
 70
0
  0
VERTEX
  8
16
 10
10.2000
 20
23.5000
 30
0.0000
  0
VERTEX
  8
16
 10
9.9413
 20
23.5210
 30
0.0000
  0
SEQEND
  8
0
  0
POLYLINE
  8
16
 66
1
 10
0.0000
 20
0.0000
 30
0.0000
 40
0.0762
 41
0.0762
 70
0
  0
VERTEX
  8
16
 10
9.9444
 20
23.5590
 30
0.0000
 42
1.0000
  0
VERTEX
  8
16
 10
9.9383
 20
23.4830
 30
0.0000
  0
SEQEND
  8
0
  0
POLYLINE
  8
16
 66
1
 10
0.0000
 20
0.0000
 30
0.0000
 40
0.0762
 41
0.0762
 70
0
  0
VERTEX
  8
16
 10
10.1969
 20
23.4620
 30
0.0000
 42
1.0000
  0
VERTEX
  8
16
 10
10.2031
 20
23.5380
 30
0.0000
  0
SEQEND
  8
0
  0
INSERT
  8
18
  2
ROUNDV
 10
0.6875
 20
0.2188
 30
0.0000
 41
0.9048
 42
0.9048
 43
1.0000
 50
0.0000
  0
INSERT
  8
18
  2
ROUNDV
 10
0.6875
 20
0.2188
 30
0.0000
 41
0.9048
 42
0.9048
 43
1.0000
 50
0.0000
  0
INSERT
  8
18
  2
ROUNDV
 10
17.3125
 20
0.2812
 30
0.0000
 41
0.9048
 42
0.9048
 43
1.0000
 50
0.0000
  0
INSERT
  8
18
  2
ROUNDV
 10
17.3125
 20
0.2812
 30
0.0000
 41
0.9048
 42
0.9048
 43
1.0000
 50
0.0000
  0
INSERT
  8
18
  2
ROUNDV
 10
13.2812
 20
20.5000
 30
0.0000
 41
0.9048
 42
0.9048
 43
1.0000
 50
0.0000
  0
INSERT
  8
18
  2
ROUNDV
 10
13.2812
 20
20.5000
 30
0.0000
 41
0.9048
 42
0.9048
 43
1.0000
 50
0.0000
  0
INSERT
  8
18
  2
ROUNDV
 10
17.4563
 20
27.9563
 30
0.0000
 41
0.9048
 42
0.9048
 43
1.0000
 50
0.0000
  0
INSERT
  8
18
  2
ROUNDV
 10
17.4563
 20
27.9563
 30
0.0000
 41
0.9048
 42
0.9048
 43
1.0000
 50
0.0000
  0
INSERT
  8
18
  2
ROUNDV
 10
0.5813
 20
27.8313
 30
0.0000
 41
0.9048
 42
0.9048
 43
1.0000
 50
0.0000
  0
INSERT
  8
18
  2
ROUNDV
 10
0.5813
 20
27.8313
 30
0.0000
 41
0.9048
 42
0.9048
 43
1.0000
 50
0.0000
  0
POLYLINE
  8
1
 66
1
 10
0.0000
 20
0.0000
 30
0.0000
 40
0.6096
 41
0.6096
 70
0
  0
VERTEX
  8
1
 10
13.0000
 20
26.1500
 30
0.0000
  0
VERTEX
  8
1
 10
14.0000
 20
26.1500
 30
0.0000
  0
SEQEND
  8
0
  0
POLYLINE
  8
1
 66
1
 10
0.0000
 20
0.0000
 30
0.0000
 40
0.3048
 41
0.3048
 70
0
  0
VERTEX
  8
1
 10
14.0000
 20
25.9976
 30
0.0000
 42
1.0000
  0
VERTEX
  8
1
 10
14.0000
 20
26.3024
 30
0.0000
  0
SEQEND
  8
0
  0
POLYLINE
  8
1
 66
1
 10
0.0000
 20
0.0000
 30
0.0000
 40
0.3048
 41
0.3048
 70
0
  0
VERTEX
  8
1
 10
13.0000
 20
26.3024
 30
0.0000
 42
1.0000
  0
VERTEX
  8
1
 10
13.0000
 20
25.9976
 30
0.0000
  0
SEQEND
  8
0
  0
POLYLINE
  8
1
 66
1
 10
0.0000
 20
0.0000
 30
0.0000
 40
0.6096
 41
0.6096
 70
0
  0
VERTEX
  8
1
 10
14.0000
 20
26.1500
 30
0.0000
  0
VERTEX
  8
1
 10
15.0000
 20
25.0000
 30
0.0000
  0
SEQEND
  8
0
  0
POLYLINE
  8
1
 66
1
 10
0.0000
 20
0.0000
 30
0.0000
 40
0.3048
 41
0.3048
 70
0
  0
VERTEX
  8
1
 10
14.8850
 20
24.9000
 30
0.0000
 42
1.0000
  0
VERTEX
  8
1
 10
15.1150
 20
25.1000
 30
0.0000
  0
SEQEND
  8
0
  0
POLYLINE
  8
1
 66
1
 10
0.0000
 20
0.0000
 30
0.0000
 40
0.3048
 41
0.3048
 70
0
  0
VERTEX
  8
1
 10
14.1150
 20
26.2500
 30
0.0000
 42
1.0000
  0
VERTEX
  8
1
 10
13.8850
 20
26.0500
 30
0.0000
  0
SEQEND
  8
0
  0
POLYLINE
  8
1
 66
1
 10
0.0000
 20
0.0000
 30
0.0000
 40
0.6096
 41
0.6096
 70
0
  0
VERTEX
  8
1
 10
15.0000
 20
25.0000
 30
0.0000
  0
VERTEX
  8
1
 10
15.0000
 20
17.0000
 30
0.0000
  0
SEQEND
  8
0
  0
POLYLINE
  8
1
 66
1
 10
0.0000
 20
0.0000
 30
0.0000
 40
0.3048
 41
0.3048
 70
0
  0
VERTEX
  8
1
 10
14.8476
 20
17.0000
 30
0.0000
 42
1.0000
  0
VERTEX
  8
1
 10
15.1524
 20
17.0000
 30
0.0000
  0
SEQEND
  8
0
  0
POLYLINE
  8
1
 66
1
 10
0.0000
 20
0.0000
 30
0.0000
 40
0.3048
 41
0.3048
 70
0
  0
VERTEX
  8
1
 10
15.1524
 20
25.0000
 30
0.0000
 42
1.0000
  0
VERTEX
  8
1
 10
14.8476
 20
25.0000
 30
0.0000
  0
SEQEND
  8
0
  0
POLYLINE
  8
1
 66
1
 10
0.0000
 20
0.0000
 30
0.0000
 40
0.6096
 41
0.6096
 70
0
  0
VERTEX
  8
1
 10
15.0000
 20
17.0000
 30
0.0000
  0
VERTEX
  8
1
 10
14.0000
 20
16.0000
 30
0.0000
  0
SEQEND
  8
0
  0
POLYLINE
  8
1
 66
1
 10
0.0000
 20
0.0000
 30
0.0000
 40
0.3048
 41
0.3048
 70
0
  0
VERTEX
  8
1
 10
13.8922
 20
16.1078
 30
0.0000
 42
1.0000
  0
VERTEX
  8
1
 10
14.1078
 20
15.8922
 30
0.0000
  0
SEQEND
  8
0
  0
POLYLINE
  8
1
 66
1
 10
0.0000
 20
0.0000
 30
0.0000
 40
0.3048
 41
0.3048
 70
0
  0
VERTEX
  8
1
 10
15.1078
 20
16.8922
 30
0.0000
 42
1.0000
  0
VERTEX
  8
1
 10
14.8922
 20
17.1078
 30
0.0000
  0
SEQEND
  8
0
  0
POLYLINE
  8
1
 66
1
 10
0.0000
 20
0.0000
 30
0.0000
 40
0.1524
 41
0.1524
 70
0
  0
VERTEX
  8
1
 10
13.7000
 20
15.9500
 30
0.0000
  0
VERTEX
  8
1
 10
14.0000
 20
16.0000
 30
0.0000
  0
SEQEND
  8
0
  0
POLYLINE
  8
1
 66
1
 10
0.0000
 20
0.0000
 30
0.0000
 40
0.0762
 41
0.0762
 70
0
  0
VERTEX
  8
1
 10
14.0063
 20
15.9624
 30
0.0000
 42
1.0000
  0
VERTEX
  8
1
 10
13.9937
 20
16.0376
 30
0.0000
  0
SEQEND
  8
0
  0
POLYLINE
  8
1
 66
1
 10
0.0000
 20
0.0000
 30
0.0000
 40
0.0762
 41
0.0762
 70
0
  0
VERTEX
  8
1
 10
13.6937
 20
15.9876
 30
0.0000
 42
1.0000
  0
VERTEX
  8
1
 10
13.7063
 20
15.9124
 30
0.0000
  0
SEQEND
  8
0
  0
POLYLINE
  8
1
 66
1
 10
0.0000
 20
0.0000
 30
0.0000
 40
0.6096
 41
0.6096
 70
0
  0
VERTEX
  8
1
 10
11.0000
 20
26.1500
 30
0.0000
  0
VERTEX
  8
1
 10
11.0000
 20
27.1875
 30
0.0000
  0
SEQEND
  8
0
  0
POLYLINE
  8
1
 66
1
 10
0.0000
 20
0.0000
 30
0.0000
 40
0.3048
 41
0.3048
 70
0
  0
VERTEX
  8
1
 10
11.1524
 20
27.1875
 30
0.0000
 42
1.0000
  0
VERTEX
  8
1
 10
10.8476
 20
27.1875
 30
0.0000
  0
SEQEND
  8
0
  0
POLYLINE
  8
1
 66
1
 10
0.0000
 20
0.0000
 30
0.0000
 40
0.3048
 41
0.3048
 70
0
  0
VERTEX
  8
1
 10
10.8476
 20
26.1500
 30
0.0000
 42
1.0000
  0
VERTEX
  8
1
 10
11.1524
 20
26.1500
 30
0.0000
  0
SEQEND
  8
0
  0
POLYLINE
  8
1
 66
1
 10
0.0000
 20
0.0000
 30
0.0000
 40
0.6096
 41
0.6096
 70
0
  0
VERTEX
  8
1
 10
11.0000
 20
27.1875
 30
0.0000
  0
VERTEX
  8
1
 10
11.3438
 20
27.5938
 30
0.0000
  0
SEQEND
  8
0
  0
POLYLINE
  8
1
 66
1
 10
0.0000
 20
0.0000
 30
0.0000
 40
0.3048
 41
0.3048
 70
0
  0
VERTEX
  8
1
 10
11.4601
 20
27.4953
 30
0.0000
 42
1.0000
  0
VERTEX
  8
1
 10
11.2274
 20
27.6922
 30
0.0000
  0
SEQEND
  8
0
  0
POLYLINE
  8
1
 66
1
 10
0.0000
 20
0.0000
 30
0.0000
 40
0.3048
 41
0.3048
 70
0
  0
VERTEX
  8
1
 10
10.8837
 20
27.2859
 30
0.0000
 42
1.0000
  0
VERTEX
  8
1
 10
11.1163
 20
27.0891
 30
0.0000
  0
SEQEND
  8
0
  0
POLYLINE
  8
1
 66
1
 10
0.0000
 20
0.0000
 30
0.0000
 40
0.6096
 41
0.6096
 70
0
  0
VERTEX
  8
1
 10
11.3438
 20
27.5938
 30
0.0000
  0
VERTEX
  8
1
 10
15.0312
 20
27.5938
 30
0.0000
  0
SEQEND
  8
0
  0
POLYLINE
  8
1
 66
1
 10
0.0000
 20
0.0000
 30
0.0000
 40
0.3048
 41
0.3048
 70
0
  0
VERTEX
  8
1
 10
15.0312
 20
27.4413
 30
0.0000
 42
1.0000
  0
VERTEX
  8
1
 10
15.0312
 20
27.7462
 30
0.0000
  0
SEQEND
  8
0
  0
POLYLINE
  8
1
 66
1
 10
0.0000
 20
0.0000
 30
0.0000
 40
0.3048
 41
0.3048
 70
0
  0
VERTEX
  8
1
 10
11.3438
 20
27.7462
 30
0.0000
 42
1.0000
  0
VERTEX
  8
1
 10
11.3438
 20
27.4413
 30
0.0000
  0
SEQEND
  8
0
  0
POLYLINE
  8
1
 66
1
 10
0.0000
 20
0.0000
 30
0.0000
 40
0.6096
 41
0.6096
 70
0
  0
VERTEX
  8
1
 10
15.0312
 20
27.5938
 30
0.0000
  0
VERTEX
  8
1
 10
16.7500
 20
25.5000
 30
0.0000
  0
SEQEND
  8
0
  0
POLYLINE
  8
1
 66
1
 10
0.0000
 20
0.0000
 30
0.0000
 40
0.3048
 41
0.3048
 70
0
  0
VERTEX
  8
1
 10
16.6322
 20
25.4033
 30
0.0000
 42
1.0000
  0
VERTEX
  8
1
 10
16.8678
 20
25.5967
 30
0.0000
  0
SEQEND
  8
0
  0
POLYLINE
  8
1
 66
1
 10
0.0000
 20
0.0000
 30
0.0000
 40
0.3048
 41
0.3048
 70
0
  0
VERTEX
  8
1
 10
15.1490
 20
27.6904
 30
0.0000
 42
1.0000
  0
VERTEX
  8
1
 10
14.9135
 20
27.4971
 30
0.0000
  0
SEQEND
  8
0
  0
POLYLINE
  8
1
 66
1
 10
0.0000
 20
0.0000
 30
0.0000
 40
0.6096
 41
0.6096
 70
0
  0
VERTEX
  8
1
 10
16.7500
 20
25.5000
 30
0.0000
  0
VERTEX
  8
1
 10
16.7500
 20
7.5312
 30
0.0000
  0
SEQEND
  8
0
  0
POLYLINE
  8
1
 66
1
 10
0.0000
 20
0.0000
 30
0.0000
 40
0.3048
 41
0.3048
 70
0
  0
VERTEX
  8
1
 10
16.5976
 20
7.5312
 30
0.0000
 42
1.0000
  0
VERTEX
  8
1
 10
16.9024
 20
7.5312
 30
0.0000
  0
SEQEND
  8
0
  0
POLYLINE
  8
1
 66
1
 10
0.0000
 20
0.0000
 30
0.0000
 40
0.3048
 41
0.3048
 70
0
  0
VERTEX
  8
1
 10
16.9024
 20
25.5000
 30
0.0000
 42
1.0000
  0
VERTEX
  8
1
 10
16.5976
 20
25.5000
 30
0.0000
  0
SEQEND
  8
0
  0
POLYLINE
  8
1
 66
1
 10
0.0000
 20
0.0000
 30
0.0000
 40
0.6096
 41
0.6096
 70
0
  0
VERTEX
  8
1
 10
16.7500
 20
7.5312
 30
0.0000
  0
VERTEX
  8
1
 10
15.9750
 20
6.9375
 30
0.0000
  0
SEQEND
  8
0
  0
POLYLINE
  8
1
 66
1
 10
0.0000
 20
0.0000
 30
0.0000
 40
0.3048
 41
0.3048
 70
0
  0
VERTEX
  8
1
 10
15.8823
 20
7.0585
 30
0.0000
 42
1.0000
  0
VERTEX
  8
1
 10
16.0677
 20
6.8165
 30
0.0000
  0
SEQEND
  8
0
  0
POLYLINE
  8
1
 66
1
 10
0.0000
 20
0.0000
 30
0.0000
 40
0.3048
 41
0.3048
 70
0
  0
VERTEX
  8
1
 10
16.8427
 20
7.4103
 30
0.0000
 42
1.0000
  0
VERTEX
  8
1
 10
16.6573
 20
7.6522
 30
0.0000
  0
SEQEND
  8
0
  0
POLYLINE
  8
1
 66
1
 10
0.0000
 20
0.0000
 30
0.0000
 40
0.6096
 41
0.6096
 70
0
  0
VERTEX
  8
1
 10
15.9750
 20
6.9375
 30
0.0000
  0
VERTEX
  8
1
 10
13.7000
 20
5.3500
 30
0.0000
  0
SEQEND
  8
0
  0
POLYLINE
  8
1
 66
1
 10
0.0000
 20
0.0000
 30
0.0000
 40
0.3048
 41
0.3048
 70
0
  0
VERTEX
  8
1
 10
13.6128
 20
5.4750
 30
0.0000
 42
1.0000
  0
VERTEX
  8
1
 10
13.7872
 20
5.2250
 30
0.0000
  0
SEQEND
  8
0
  0
POLYLINE
  8
1
 66
1
 10
0.0000
 20
0.0000
 30
0.0000
 40
0.3048
 41
0.3048
 70
0
  0
VERTEX
  8
1
 10
16.0622
 20
6.8125
 30
0.0000
 42
1.0000
  0
VERTEX
  8
1
 10
15.8878
 20
7.0625
 30
0.0000
  0
SEQEND
  8
0
  0
POLYLINE
  8
16
 66
1
 10
0.0000
 20
0.0000
 30
0.0000
 40
0.6096
 41
0.6096
 70
0
  0
VERTEX
  8
16
 10
13.0000
 20
24.1500
 30
0.0000
  0
VERTEX
  8
16
 10
15.8500
 20
24.1500
 30
0.0000
  0
SEQEND
  8
0
  0
POLYLINE
  8
16
 66
1
 10
0.0000
 20
0.0000
 30
0.0000
 40
0.3048
 41
0.3048
 70
0
  0
VERTEX
  8
16
 10
15.8500
 20
23.9976
 30
0.0000
 42
1.0000
  0
VERTEX
  8
16
 10
15.8500
 20
24.3024
 30
0.0000
  0
SEQEND
  8
0
  0
POLYLINE
  8
16
 66
1
 10
0.0000
 20
0.0000
 30
0.0000
 40
0.3048
 41
0.3048
 70
0
  0
VERTEX
  8
16
 10
13.0000
 20
24.3024
 30
0.0000
 42
1.0000
  0
VERTEX
  8
16
 10
13.0000
 20
23.9976
 30
0.0000
  0
SEQEND
  8
0
  0
POLYLINE
  8
16
 66
1
 10
0.0000
 20
0.0000
 30
0.0000
 40
0.6096
 41
0.6096
 70
0
  0
VERTEX
  8
16
 10
15.8500
 20
24.1500
 30
0.0000
  0
VERTEX
  8
16
 10
16.7500
 20
22.9062
 30
0.0000
  0
SEQEND
  8
0
  0
POLYLINE
  8
16
 66
1
 10
0.0000
 20
0.0000
 30
0.0000
 40
0.3048
 41
0.3048
 70
0
  0
VERTEX
  8
16
 10
16.6265
 20
22.8169
 30
0.0000
 42
1.0000
  0
VERTEX
  8
16
 10
16.8735
 20
22.9956
 30
0.0000
  0
SEQEND
  8
0
  0
POLYLINE
  8
16
 66
1
 10
0.0000
 20
0.0000
 30
0.0000
 40
0.3048
 41
0.3048
 70
0
  0
VERTEX
  8
16
 10
15.9735
 20
24.2393
 30
0.0000
 42
1.0000
  0
VERTEX
  8
16
 10
15.7265
 20
24.0607
 30
0.0000
  0
SEQEND
  8
0
  0
POLYLINE
  8
16
 66
1
 10
0.0000
 20
0.0000
 30
0.0000
 40
0.6096
 41
0.6096
 70
0
  0
VERTEX
  8
16
 10
16.7500
 20
22.9062
 30
0.0000
  0
VERTEX
  8
16
 10
16.7500
 20
13.2313
 30
0.0000
  0
SEQEND
  8
0
  0
POLYLINE
  8
16
 66
1
 10
0.0000
 20
0.0000
 30
0.0000
 40
0.3048
 41
0.3048
 70
0
  0
VERTEX
  8
16
 10
16.5976
 20
13.2313
 30
0.0000
 42
1.0000
  0
VERTEX
  8
16
 10
16.9024
 20
13.2313
 30
0.0000
  0
SEQEND
  8
0
  0
POLYLINE
  8
16
 66
1
 10
0.0000
 20
0.0000
 30
0.0000
 40
0.3048
 41
0.3048
 70
0
  0
VERTEX
  8
16
 10
16.9024
 20
22.9062
 30
0.0000
 42
1.0000
  0
VERTEX
  8
16
 10
16.5976
 20
22.9062
 30
0.0000
  0
SEQEND
  8
0
  0
POLYLINE
  8
16
 66
1
 10
0.0000
 20
0.0000
 30
0.0000
 40
0.6096
 41
0.6096
 70
0
  0
VERTEX
  8
16
 10
16.7500
 20
13.2313
 30
0.0000
  0
VERTEX
  8
16
 10
13.7000
 20
10.6500
 30
0.0000
  0
SEQEND
  8
0
  0
POLYLINE
  8
16
 66
1
 10
0.0000
 20
0.0000
 30
0.0000
 40
0.3048
 41
0.3048
 70
0
  0
VERTEX
  8
16
 10
13.6015
 20
10.7663
 30
0.0000
 42
1.0000
  0
VERTEX
  8
16
 10
13.7985
 20
10.5337
 30
0.0000
  0
SEQEND
  8
0
  0
POLYLINE
  8
16
 66
1
 10
0.0000
 20
0.0000
 30
0.0000
 40
0.3048
 41
0.3048
 70
0
  0
VERTEX
  8
16
 10
16.8485
 20
13.1149
 30
0.0000
 42
1.0000
  0
VERTEX
  8
16
 10
16.6515
 20
13.3476
 30
0.0000
  0
SEQEND
  8
0
  0
POLYLINE
  8
1
 66
1
 10
0.0000
 20
0.0000
 30
0.0000
 40
0.6096
 41
0.6096
 70
0
  0
VERTEX
  8
1
 10
11.0000
 20
24.1500
 30
0.0000
  0
VERTEX
  8
1
 10
11.0000
 20
19.5000
 30
0.0000
  0
SEQEND
  8
0
  0
POLYLINE
  8
1
 66
1
 10
0.0000
 20
0.0000
 30
0.0000
 40
0.3048
 41
0.3048
 70
0
  0
VERTEX
  8
1
 10
10.8476
 20
19.5000
 30
0.0000
 42
1.0000
  0
VERTEX
  8
1
 10
11.1524
 20
19.5000
 30
0.0000
  0
SEQEND
  8
0
  0
POLYLINE
  8
1
 66
1
 10
0.0000
 20
0.0000
 30
0.0000
 40
0.3048
 41
0.3048
 70
0
  0
VERTEX
  8
1
 10
11.1524
 20
24.1500
 30
0.0000
 42
1.0000
  0
VERTEX
  8
1
 10
10.8476
 20
24.1500
 30
0.0000
  0
SEQEND
  8
0
  0
POLYLINE
  8
1
 66
1
 10
0.0000
 20
0.0000
 30
0.0000
 40
0.6096
 41
0.6096
 70
0
  0
VERTEX
  8
1
 10
11.0000
 20
19.5000
 30
0.0000
  0
VERTEX
  8
1
 10
10.0000
 20
18.5000
 30
0.0000
  0
SEQEND
  8
0
  0
POLYLINE
  8
1
 66
1
 10
0.0000
 20
0.0000
 30
0.0000
 40
0.3048
 41
0.3048
 70
0
  0
VERTEX
  8
1
 10
9.8922
 20
18.6078
 30
0.0000
 42
1.0000
  0
VERTEX
  8
1
 10
10.1078
 20
18.3922
 30
0.0000
  0
SEQEND
  8
0
  0
POLYLINE
  8
1
 66
1
 10
0.0000
 20
0.0000
 30
0.0000
 40
0.3048
 41
0.3048
 70
0
  0
VERTEX
  8
1
 10
11.1078
 20
19.3922
 30
0.0000
 42
1.0000
  0
VERTEX
  8
1
 10
10.8922
 20
19.6078
 30
0.0000
  0
SEQEND
  8
0
  0
POLYLINE
  8
1
 66
1
 10
0.0000
 20
0.0000
 30
0.0000
 40
0.6096
 41
0.6096
 70
0
  0
VERTEX
  8
1
 10
10.0000
 20
18.5000
 30
0.0000
  0
VERTEX
  8
1
 10
10.0000
 20
16.9500
 30
0.0000
  0
SEQEND
  8
0
  0
POLYLINE
  8
1
 66
1
 10
0.0000
 20
0.0000
 30
0.0000
 40
0.3048
 41
0.3048
 70
0
  0
VERTEX
  8
1
 10
9.8476
 20
16.9500
 30
0.0000
 42
1.0000
  0
VERTEX
  8
1
 10
10.1524
 20
16.9500
 30
0.0000
  0
SEQEND
  8
0
  0
POLYLINE
  8
1
 66
1
 10
0.0000
 20
0.0000
 30
0.0000
 40
0.3048
 41
0.3048
 70
0
  0
VERTEX
  8
1
 10
10.1524
 20
18.5000
 30
0.0000
 42
1.0000
  0
VERTEX
  8
1
 10
9.8476
 20
18.5000
 30
0.0000
  0
SEQEND
  8
0
  0
POLYLINE
  8
1
 66
1
 10
0.0000
 20
0.0000
 30
0.0000
 40
0.6096
 41
0.6096
 70
0
  0
VERTEX
  8
1
 10
10.0000
 20
16.9500
 30
0.0000
  0
VERTEX
  8
1
 10
9.0000
 20
15.9500
 30
0.0000
  0
SEQEND
  8
0
  0
POLYLINE
  8
1
 66
1
 10
0.0000
 20
0.0000
 30
0.0000
 40
0.3048
 41
0.3048
 70
0
  0
VERTEX
  8
1
 10
8.8922
 20
16.0578
 30
0.0000
 42
1.0000
  0
VERTEX
  8
1
 10
9.1078
 20
15.8422
 30
0.0000
  0
SEQEND
  8
0
  0
POLYLINE
  8
1
 66
1
 10
0.0000
 20
0.0000
 30
0.0000
 40
0.3048
 41
0.3048
 70
0
  0
VERTEX
  8
1
 10
10.1078
 20
16.8422
 30
0.0000
 42
1.0000
  0
VERTEX
  8
1
 10
9.8922
 20
17.0578
 30
0.0000
  0
SEQEND
  8
0
  0
POLYLINE
  8
16
 66
1
 10
0.0000
 20
0.0000
 30
0.0000
 40
0.6096
 41
0.6096
 70
0
  0
VERTEX
  8
16
 10
9.0000
 20
5.3500
 30
0.0000
  0
VERTEX
  8
16
 10
11.3438
 20
7.5375
 30
0.0000
  0
SEQEND
  8
0
  0
POLYLINE
  8
16
 66
1
 10
0.0000
 20
0.0000
 30
0.0000
 40
0.3048
 41
0.3048
 70
0
  0
VERTEX
  8
16
 10
11.4477
 20
7.4261
 30
0.0000
 42
1.0000
  0
VERTEX
  8
16
 10
11.2398
 20
7.6489
 30
0.0000
  0
SEQEND
  8
0
  0
POLYLINE
  8
16
 66
1
 10
0.0000
 20
0.0000
 30
0.0000
 40
0.3048
 41
0.3048
 70
0
  0
VERTEX
  8
16
 10
8.8960
 20
5.4614
 30
0.0000
 42
1.0000
  0
VERTEX
  8
16
 10
9.1040
 20
5.2386
 30
0.0000
  0
SEQEND
  8
0
  0
POLYLINE
  8
16
 66
1
 10
0.0000
 20
0.0000
 30
0.0000
 40
0.6096
 41
0.6096
 70
0
  0
VERTEX
  8
16
 10
11.3438
 20
7.5375
 30
0.0000
  0
VERTEX
  8
16
 10
11.3438
 20
9.0625
 30
0.0000
  0
SEQEND
  8
0
  0
POLYLINE
  8
16
 66
1
 10
0.0000
 20
0.0000
 30
0.0000
 40
0.3048
 41
0.3048
 70
0
  0
VERTEX
  8
16
 10
11.4962
 20
9.0625
 30
0.0000
 42
1.0000
  0
VERTEX
  8
16
 10
11.1913
 20
9.0625
 30
0.0000
  0
SEQEND
  8
0
  0
POLYLINE
  8
16
 66
1
 10
0.0000
 20
0.0000
 30
0.0000
 40
0.3048
 41
0.3048
 70
0
  0
VERTEX
  8
16
 10
11.1913
 20
7.5375
 30
0.0000
 42
1.0000
  0
VERTEX
  8
16
 10
11.4962
 20
7.5375
 30
0.0000
  0
SEQEND
  8
0
  0
POLYLINE
  8
16
 66
1
 10
0.0000
 20
0.0000
 30
0.0000
 40
0.4064
 41
0.4064
 70
0
  0
VERTEX
  8
16
 10
11.3438
 20
9.0625
 30
0.0000
  0
VERTEX
  8
16
 10
11.3438
 20
11.9062
 30
0.0000
  0
SEQEND
  8
0
  0
POLYLINE
  8
16
 66
1
 10
0.0000
 20
0.0000
 30
0.0000
 40
0.2032
 41
0.2032
 70
0
  0
VERTEX
  8
16
 10
11.4453
 20
11.9062
 30
0.0000
 42
1.0000
  0
VERTEX
  8
16
 10
11.2422
 20
11.9062
 30
0.0000
  0
SEQEND
  8
0
  0
POLYLINE
  8
16
 66
1
 10
0.0000
 20
0.0000
 30
0.0000
 40
0.2032
 41
0.2032
 70
0
  0
VERTEX
  8
16
 10
11.2422
 20
9.0625
 30
0.0000
 42
1.0000
  0
VERTEX
  8
16
 10
11.4453
 20
9.0625
 30
0.0000
  0
SEQEND
  8
0
  0
POLYLINE
  8
16
 66
1
 10
0.0000
 20
0.0000
 30
0.0000
 40
0.6096
 41
0.6096
 70
0
  0
VERTEX
  8
16
 10
11.3438
 20
11.9062
 30
0.0000
  0
VERTEX
  8
16
 10
11.3438
 20
14.2812
 30
0.0000
  0
SEQEND
  8
0
  0
POLYLINE
  8
16
 66
1
 10
0.0000
 20
0.0000
 30
0.0000
 40
0.3048
 41
0.3048
 70
0
  0
VERTEX
  8
16
 10
11.4962
 20
14.2812
 30
0.0000
 42
1.0000
  0
VERTEX
  8
16
 10
11.1913
 20
14.2812
 30
0.0000
  0
SEQEND
  8
0
  0
POLYLINE
  8
16
 66
1
 10
0.0000
 20
0.0000
 30
0.0000
 40
0.3048
 41
0.3048
 70
0
  0
VERTEX
  8
16
 10
11.1913
 20
11.9062
 30
0.0000
 42
1.0000
  0
VERTEX
  8
16
 10
11.4962
 20
11.9062
 30
0.0000
  0
SEQEND
  8
0
  0
POLYLINE
  8
16
 66
1
 10
0.0000
 20
0.0000
 30
0.0000
 40
0.4064
 41
0.4064
 70
0
  0
VERTEX
  8
16
 10
11.3438
 20
14.2812
 30
0.0000
  0
VERTEX
  8
16
 10
11.3438
 20
17.6562
 30
0.0000
  0
SEQEND
  8
0
  0
POLYLINE
  8
16
 66
1
 10
0.0000
 20
0.0000
 30
0.0000
 40
0.2032
 41
0.2032
 70
0
  0
VERTEX
  8
16
 10
11.4453
 20
17.6562
 30
0.0000
 42
1.0000
  0
VERTEX
  8
16
 10
11.2422
 20
17.6562
 30
0.0000
  0
SEQEND
  8
0
  0
POLYLINE
  8
16
 66
1
 10
0.0000
 20
0.0000
 30
0.0000
 40
0.2032
 41
0.2032
 70
0
  0
VERTEX
  8
16
 10
11.2422
 20
14.2812
 30
0.0000
 42
1.0000
  0
VERTEX
  8
16
 10
11.4453
 20
14.2812
 30
0.0000
  0
SEQEND
  8
0
  0
POLYLINE
  8
16
 66
1
 10
0.0000
 20
0.0000
 30
0.0000
 40
0.6096
 41
0.6096
 70
0
  0
VERTEX
  8
16
 10
11.3438
 20
17.6562
 30
0.0000
  0
VERTEX
  8
16
 10
11.3438
 20
19.8125
 30
0.0000
  0
SEQEND
  8
0
  0
POLYLINE
  8
16
 66
1
 10
0.0000
 20
0.0000
 30
0.0000
 40
0.3048
 41
0.3048
 70
0
  0
VERTEX
  8
16
 10
11.4962
 20
19.8125
 30
0.0000
 42
1.0000
  0
VERTEX
  8
16
 10
11.1913
 20
19.8125
 30
0.0000
  0
SEQEND
  8
0
  0
POLYLINE
  8
16
 66
1
 10
0.0000
 20
0.0000
 30
0.0000
 40
0.3048
 41
0.3048
 70
0
  0
VERTEX
  8
16
 10
11.1913
 20
17.6562
 30
0.0000
 42
1.0000
  0
VERTEX
  8
16
 10
11.4962
 20
17.6562
 30
0.0000
  0
SEQEND
  8
0
  0
POLYLINE
  8
16
 66
1
 10
0.0000
 20
0.0000
 30
0.0000
 40
0.6096
 41
0.6096
 70
0
  0
VERTEX
  8
16
 10
11.3438
 20
19.8125
 30
0.0000
  0
VERTEX
  8
16
 10
9.0000
 20
21.5000
 30
0.0000
  0
SEQEND
  8
0
  0
POLYLINE
  8
16
 66
1
 10
0.0000
 20
0.0000
 30
0.0000
 40
0.3048
 41
0.3048
 70
0
  0
VERTEX
  8
16
 10
9.0890
 20
21.6237
 30
0.0000
 42
1.0000
  0
VERTEX
  8
16
 10
8.9110
 20
21.3763
 30
0.0000
  0
SEQEND
  8
0
  0
POLYLINE
  8
16
 66
1
 10
0.0000
 20
0.0000
 30
0.0000
 40
0.3048
 41
0.3048
 70
0
  0
VERTEX
  8
16
 10
11.2547
 20
19.6888
 30
0.0000
 42
1.0000
  0
VERTEX
  8
16
 10
11.4328
 20
19.9362
 30
0.0000
  0
SEQEND
  8
0
  0
POLYLINE
  8
16
 66
1
 10
0.0000
 20
0.0000
 30
0.0000
 40
0.6096
 41
0.6096
 70
0
  0
VERTEX
  8
16
 10
9.0000
 20
21.5000
 30
0.0000
  0
VERTEX
  8
16
 10
9.0000
 20
24.1500
 30
0.0000
  0
SEQEND
  8
0
  0
POLYLINE
  8
16
 66
1
 10
0.0000
 20
0.0000
 30
0.0000
 40
0.3048
 41
0.3048
 70
0
  0
VERTEX
  8
16
 10
9.1524
 20
24.1500
 30
0.0000
 42
1.0000
  0
VERTEX
  8
16
 10
8.8476
 20
24.1500
 30
0.0000
  0
SEQEND
  8
0
  0
POLYLINE
  8
16
 66
1
 10
0.0000
 20
0.0000
 30
0.0000
 40
0.3048
 41
0.3048
 70
0
  0
VERTEX
  8
16
 10
8.8476
 20
21.5000
 30
0.0000
 42
1.0000
  0
VERTEX
  8
16
 10
9.1524
 20
21.5000
 30
0.0000
  0
SEQEND
  8
0
  0
POLYLINE
  8
1
 66
1
 10
0.0000
 20
0.0000
 30
0.0000
 40
0.6096
 41
0.6096
 70
0
  0
VERTEX
  8
1
 10
4.3000
 20
5.3500
 30
0.0000
  0
VERTEX
  8
1
 10
3.1500
 20
5.3500
 30
0.0000
  0
SEQEND
  8
0
  0
POLYLINE
  8
1
 66
1
 10
0.0000
 20
0.0000
 30
0.0000
 40
0.3048
 41
0.3048
 70
0
  0
VERTEX
  8
1
 10
3.1500
 20
5.5024
 30
0.0000
 42
1.0000
  0
VERTEX
  8
1
 10
3.1500
 20
5.1976
 30
0.0000
  0
SEQEND
  8
0
  0
POLYLINE
  8
1
 66
1
 10
0.0000
 20
0.0000
 30
0.0000
 40
0.3048
 41
0.3048
 70
0
  0
VERTEX
  8
1
 10
4.3000
 20
5.1976
 30
0.0000
 42
1.0000
  0
VERTEX
  8
1
 10
4.3000
 20
5.5024
 30
0.0000
  0
SEQEND
  8
0
  0
POLYLINE
  8
1
 66
1
 10
0.0000
 20
0.0000
 30
0.0000
 40
0.6096
 41
0.6096
 70
0
  0
VERTEX
  8
1
 10
3.1500
 20
5.3500
 30
0.0000
  0
VERTEX
  8
1
 10
1.3125
 20
7.0000
 30
0.0000
  0
SEQEND
  8
0
  0
POLYLINE
  8
1
 66
1
 10
0.0000
 20
0.0000
 30
0.0000
 40
0.3048
 41
0.3048
 70
0
  0
VERTEX
  8
1
 10
1.4143
 20
7.1134
 30
0.0000
 42
1.0000
  0
VERTEX
  8
1
 10
1.2107
 20
6.8866
 30
0.0000
  0
SEQEND
  8
0
  0
POLYLINE
  8
1
 66
1
 10
0.0000
 20
0.0000
 30
0.0000
 40
0.3048
 41
0.3048
 70
0
  0
VERTEX
  8
1
 10
3.0482
 20
5.2366
 30
0.0000
 42
1.0000
  0
VERTEX
  8
1
 10
3.2518
 20
5.4634
 30
0.0000
  0
SEQEND
  8
0
  0
POLYLINE
  8
1
 66
1
 10
0.0000
 20
0.0000
 30
0.0000
 40
0.6096
 41
0.6096
 70
0
  0
VERTEX
  8
1
 10
1.3125
 20
7.0000
 30
0.0000
  0
VERTEX
  8
1
 10
1.3125
 20
25.2500
 30
0.0000
  0
SEQEND
  8
0
  0
POLYLINE
  8
1
 66
1
 10
0.0000
 20
0.0000
 30
0.0000
 40
0.3048
 41
0.3048
 70
0
  0
VERTEX
  8
1
 10
1.4649
 20
25.2500
 30
0.0000
 42
1.0000
  0
VERTEX
  8
1
 10
1.1601
 20
25.2500
 30
0.0000
  0
SEQEND
  8
0
  0
POLYLINE
  8
1
 66
1
 10
0.0000
 20
0.0000
 30
0.0000
 40
0.3048
 41
0.3048
 70
0
  0
VERTEX
  8
1
 10
1.1601
 20
7.0000
 30
0.0000
 42
1.0000
  0
VERTEX
  8
1
 10
1.4649
 20
7.0000
 30
0.0000
  0
SEQEND
  8
0
  0
POLYLINE
  8
1
 66
1
 10
0.0000
 20
0.0000
 30
0.0000
 40
0.6096
 41
0.6096
 70
0
  0
VERTEX
  8
1
 10
1.3125
 20
25.2500
 30
0.0000
  0
VERTEX
  8
1
 10
2.0000
 20
26.0000
 30
0.0000
  0
SEQEND
  8
0
  0
POLYLINE
  8
1
 66
1
 10
0.0000
 20
0.0000
 30
0.0000
 40
0.3048
 41
0.3048
 70
0
  0
VERTEX
  8
1
 10
2.1123
 20
25.8970
 30
0.0000
 42
1.0000
  0
VERTEX
  8
1
 10
1.8877
 20
26.1030
 30
0.0000
  0
SEQEND
  8
0
  0
POLYLINE
  8
1
 66
1
 10
0.0000
 20
0.0000
 30
0.0000
 40
0.3048
 41
0.3048
 70
0
  0
VERTEX
  8
1
 10
1.2002
 20
25.3530
 30
0.0000
 42
1.0000
  0
VERTEX
  8
1
 10
1.4248
 20
25.1470
 30
0.0000
  0
SEQEND
  8
0
  0
POLYLINE
  8
1
 66
1
 10
0.0000
 20
0.0000
 30
0.0000
 40
0.6096
 41
0.6096
 70
0
  0
VERTEX
  8
1
 10
2.0000
 20
26.0000
 30
0.0000
  0
VERTEX
  8
1
 10
4.8500
 20
26.0000
 30
0.0000
  0
SEQEND
  8
0
  0
POLYLINE
  8
1
 66
1
 10
0.0000
 20
0.0000
 30
0.0000
 40
0.3048
 41
0.3048
 70
0
  0
VERTEX
  8
1
 10
4.8500
 20
25.8476
 30
0.0000
 42
1.0000
  0
VERTEX
  8
1
 10
4.8500
 20
26.1524
 30
0.0000
  0
SEQEND
  8
0
  0
POLYLINE
  8
1
 66
1
 10
0.0000
 20
0.0000
 30
0.0000
 40
0.3048
 41
0.3048
 70
0
  0
VERTEX
  8
1
 10
2.0000
 20
26.1524
 30
0.0000
 42
1.0000
  0
VERTEX
  8
1
 10
2.0000
 20
25.8476
 30
0.0000
  0
SEQEND
  8
0
  0
POLYLINE
  8
1
 66
1
 10
0.0000
 20
0.0000
 30
0.0000
 40
0.6096
 41
0.6096
 70
0
  0
VERTEX
  8
1
 10
4.8500
 20
26.0000
 30
0.0000
  0
VERTEX
  8
1
 10
5.0000
 20
26.1500
 30
0.0000
  0
SEQEND
  8
0
  0
POLYLINE
  8
1
 66
1
 10
0.0000
 20
0.0000
 30
0.0000
 40
0.3048
 41
0.3048
 70
0
  0
VERTEX
  8
1
 10
5.1078
 20
26.0422
 30
0.0000
 42
1.0000
  0
VERTEX
  8
1
 10
4.8922
 20
26.2578
 30
0.0000
  0
SEQEND
  8
0
  0
POLYLINE
  8
1
 66
1
 10
0.0000
 20
0.0000
 30
0.0000
 40
0.3048
 41
0.3048
 70
0
  0
VERTEX
  8
1
 10
4.7422
 20
26.1078
 30
0.0000
 42
1.0000
  0
VERTEX
  8
1
 10
4.9578
 20
25.8922
 30
0.0000
  0
SEQEND
  8
0
  0
POLYLINE
  8
1
 66
1
 10
0.0000
 20
0.0000
 30
0.0000
 40
0.6096
 41
0.6096
 70
0
  0
VERTEX
  8
1
 10
4.3000
 20
15.9500
 30
0.0000
  0
VERTEX
  8
1
 10
4.3000
 20
20.7000
 30
0.0000
  0
SEQEND
  8
0
  0
POLYLINE
  8
1
 66
1
 10
0.0000
 20
0.0000
 30
0.0000
 40
0.3048
 41
0.3048
 70
0
  0
VERTEX
  8
1
 10
4.4524
 20
20.7000
 30
0.0000
 42
1.0000
  0
VERTEX
  8
1
 10
4.1476
 20
20.7000
 30
0.0000
  0
SEQEND
  8
0
  0
POLYLINE
  8
1
 66
1
 10
0.0000
 20
0.0000
 30
0.0000
 40
0.3048
 41
0.3048
 70
0
  0
VERTEX
  8
1
 10
4.1476
 20
15.9500
 30
0.0000
 42
1.0000
  0
VERTEX
  8
1
 10
4.4524
 20
15.9500
 30
0.0000
  0
SEQEND
  8
0
  0
POLYLINE
  8
1
 66
1
 10
0.0000
 20
0.0000
 30
0.0000
 40
0.6096
 41
0.6096
 70
0
  0
VERTEX
  8
1
 10
4.3000
 20
20.7000
 30
0.0000
  0
VERTEX
  8
1
 10
2.7500
 20
22.2500
 30
0.0000
  0
SEQEND
  8
0
  0
POLYLINE
  8
1
 66
1
 10
0.0000
 20
0.0000
 30
0.0000
 40
0.3048
 41
0.3048
 70
0
  0
VERTEX
  8
1
 10
2.8578
 20
22.3578
 30
0.0000
 42
1.0000
  0
VERTEX
  8
1
 10
2.6422
 20
22.1422
 30
0.0000
  0
SEQEND
  8
0
  0
POLYLINE
  8
1
 66
1
 10
0.0000
 20
0.0000
 30
0.0000
 40
0.3048
 41
0.3048
 70
0
  0
VERTEX
  8
1
 10
4.1922
 20
20.5922
 30
0.0000
 42
1.0000
  0
VERTEX
  8
1
 10
4.4078
 20
20.8078
 30
0.0000
  0
SEQEND
  8
0
  0
POLYLINE
  8
1
 66
1
 10
0.0000
 20
0.0000
 30
0.0000
 40
0.6096
 41
0.6096
 70
0
  0
VERTEX
  8
1
 10
2.7500
 20
22.2500
 30
0.0000
  0
VERTEX
  8
1
 10
2.7500
 20
23.7500
 30
0.0000
  0
SEQEND
  8
0
  0
POLYLINE
  8
1
 66
1
 10
0.0000
 20
0.0000
 30
0.0000
 40
0.3048
 41
0.3048
 70
0
  0
VERTEX
  8
1
 10
2.9024
 20
23.7500
 30
0.0000
 42
1.0000
  0
VERTEX
  8
1
 10
2.5976
 20
23.7500
 30
0.0000
  0
SEQEND
  8
0
  0
POLYLINE
  8
1
 66
1
 10
0.0000
 20
0.0000
 30
0.0000
 40
0.3048
 41
0.3048
 70
0
  0
VERTEX
  8
1
 10
2.5976
 20
22.2500
 30
0.0000
 42
1.0000
  0
VERTEX
  8
1
 10
2.9024
 20
22.2500
 30
0.0000
  0
SEQEND
  8
0
  0
POLYLINE
  8
1
 66
1
 10
0.0000
 20
0.0000
 30
0.0000
 40
0.6096
 41
0.6096
 70
0
  0
VERTEX
  8
1
 10
2.7500
 20
23.7500
 30
0.0000
  0
VERTEX
  8
1
 10
3.0000
 20
24.0000
 30
0.0000
  0
SEQEND
  8
0
  0
POLYLINE
  8
1
 66
1
 10
0.0000
 20
0.0000
 30
0.0000
 40
0.3048
 41
0.3048
 70
0
  0
VERTEX
  8
1
 10
3.1078
 20
23.8922
 30
0.0000
 42
1.0000
  0
VERTEX
  8
1
 10
2.8922
 20
24.1078
 30
0.0000
  0
SEQEND
  8
0
  0
POLYLINE
  8
1
 66
1
 10
0.0000
 20
0.0000
 30
0.0000
 40
0.3048
 41
0.3048
 70
0
  0
VERTEX
  8
1
 10
2.6422
 20
23.8578
 30
0.0000
 42
1.0000
  0
VERTEX
  8
1
 10
2.8578
 20
23.6422
 30
0.0000
  0
SEQEND
  8
0
  0
POLYLINE
  8
16
 66
1
 10
0.0000
 20
0.0000
 30
0.0000
 40
0.6096
 41
0.6096
 70
0
  0
VERTEX
  8
16
 10
3.0000
 20
24.0000
 30
0.0000
  0
VERTEX
  8
16
 10
3.0000
 20
27.0000
 30
0.0000
  0
SEQEND
  8
0
  0
POLYLINE
  8
16
 66
1
 10
0.0000
 20
0.0000
 30
0.0000
 40
0.3048
 41
0.3048
 70
0
  0
VERTEX
  8
16
 10
3.1524
 20
27.0000
 30
0.0000
 42
1.0000
  0
VERTEX
  8
16
 10
2.8476
 20
27.0000
 30
0.0000
  0
SEQEND
  8
0
  0
POLYLINE
  8
16
 66
1
 10
0.0000
 20
0.0000
 30
0.0000
 40
0.3048
 41
0.3048
 70
0
  0
VERTEX
  8
16
 10
2.8476
 20
24.0000
 30
0.0000
 42
1.0000
  0
VERTEX
  8
16
 10
3.1524
 20
24.0000
 30
0.0000
  0
SEQEND
  8
0
  0
POLYLINE
  8
16
 66
1
 10
0.0000
 20
0.0000
 30
0.0000
 40
0.6096
 41
0.6096
 70
0
  0
VERTEX
  8
16
 10
3.0000
 20
27.0000
 30
0.0000
  0
VERTEX
  8
16
 10
3.5000
 20
27.5625
 30
0.0000
  0
SEQEND
  8
0
  0
POLYLINE
  8
16
 66
1
 10
0.0000
 20
0.0000
 30
0.0000
 40
0.3048
 41
0.3048
 70
0
  0
VERTEX
  8
16
 10
3.6139
 20
27.4613
 30
0.0000
 42
1.0000
  0
VERTEX
  8
16
 10
3.3861
 20
27.6637
 30
0.0000
  0
SEQEND
  8
0
  0
POLYLINE
  8
16
 66
1
 10
0.0000
 20
0.0000
 30
0.0000
 40
0.3048
 41
0.3048
 70
0
  0
VERTEX
  8
16
 10
2.8861
 20
27.1012
 30
0.0000
 42
1.0000
  0
VERTEX
  8
16
 10
3.1139
 20
26.8988
 30
0.0000
  0
SEQEND
  8
0
  0
POLYLINE
  8
16
 66
1
 10
0.0000
 20
0.0000
 30
0.0000
 40
0.6096
 41
0.6096
 70
0
  0
VERTEX
  8
16
 10
3.5000
 20
27.5625
 30
0.0000
  0
VERTEX
  8
16
 10
6.5000
 20
27.5625
 30
0.0000
  0
SEQEND
  8
0
  0
POLYLINE
  8
16
 66
1
 10
0.0000
 20
0.0000
 30
0.0000
 40
0.3048
 41
0.3048
 70
0
  0
VERTEX
  8
16
 10
6.5000
 20
27.4101
 30
0.0000
 42
1.0000
  0
VERTEX
  8
16
 10
6.5000
 20
27.7149
 30
0.0000
  0
SEQEND
  8
0
  0
POLYLINE
  8
16
 66
1
 10
0.0000
 20
0.0000
 30
0.0000
 40
0.3048
 41
0.3048
 70
0
  0
VERTEX
  8
16
 10
3.5000
 20
27.7149
 30
0.0000
 42
1.0000
  0
VERTEX
  8
16
 10
3.5000
 20
27.4101
 30
0.0000
  0
SEQEND
  8
0
  0
POLYLINE
  8
16
 66
1
 10
0.0000
 20
0.0000
 30
0.0000
 40
0.6096
 41
0.6096
 70
0
  0
VERTEX
  8
16
 10
6.5000
 20
27.5625
 30
0.0000
  0
VERTEX
  8
16
 10
7.0312
 20
27.0938
 30
0.0000
  0
SEQEND
  8
0
  0
POLYLINE
  8
16
 66
1
 10
0.0000
 20
0.0000
 30
0.0000
 40
0.3048
 41
0.3048
 70
0
  0
VERTEX
  8
16
 10
6.9304
 20
26.9795
 30
0.0000
 42
1.0000
  0
VERTEX
  8
16
 10
7.1321
 20
27.2080
 30
0.0000
  0
SEQEND
  8
0
  0
POLYLINE
  8
16
 66
1
 10
0.0000
 20
0.0000
 30
0.0000
 40
0.3048
 41
0.3048
 70
0
  0
VERTEX
  8
16
 10
6.6008
 20
27.6768
 30
0.0000
 42
1.0000
  0
VERTEX
  8
16
 10
6.3992
 20
27.4482
 30
0.0000
  0
SEQEND
  8
0
  0
POLYLINE
  8
16
 66
1
 10
0.0000
 20
0.0000
 30
0.0000
 40
0.6096
 41
0.6096
 70
0
  0
VERTEX
  8
16
 10
7.0312
 20
27.0938
 30
0.0000
  0
VERTEX
  8
16
 10
7.0000
 20
26.1500
 30
0.0000
  0
SEQEND
  8
0
  0
POLYLINE
  8
16
 66
1
 10
0.0000
 20
0.0000
 30
0.0000
 40
0.3048
 41
0.3048
 70
0
  0
VERTEX
  8
16
 10
6.8477
 20
26.1550
 30
0.0000
 42
1.0000
  0
VERTEX
  8
16
 10
7.1523
 20
26.1450
 30
0.0000
  0
SEQEND
  8
0
  0
POLYLINE
  8
16
 66
1
 10
0.0000
 20
0.0000
 30
0.0000
 40
0.3048
 41
0.3048
 70
0
  0
VERTEX
  8
16
 10
7.1836
 20
27.0887
 30
0.0000
 42
1.0000
  0
VERTEX
  8
16
 10
6.8789
 20
27.0988
 30
0.0000
  0
SEQEND
  8
0
  0
INSERT
  8
18
  2
ROUNDV
 10
3.0000
 20
24.0000
 30
0.0000
 41
0.9048
 42
0.9048
 43
1.0000
 50
0.0000
  0
INSERT
  8
18
  2
ROUNDV
 10
3.0000
 20
24.0000
 30
0.0000
 41
0.9048
 42
0.9048
 43
1.0000
 50
0.0000
  0
POLYLINE
  8
16
 66
1
 10
0.0000
 20
0.0000
 30
0.0000
 40
0.6096
 41
0.6096
 70
0
  0
VERTEX
  8
16
 10
7.0000
 20
24.1500
 30
0.0000
  0
VERTEX
  8
16
 10
7.0000
 20
19.9688
 30
0.0000
  0
SEQEND
  8
0
  0
POLYLINE
  8
16
 66
1
 10
0.0000
 20
0.0000
 30
0.0000
 40
0.3048
 41
0.3048
 70
0
  0
VERTEX
  8
16
 10
6.8476
 20
19.9688
 30
0.0000
 42
1.0000
  0
VERTEX
  8
16
 10
7.1524
 20
19.9688
 30
0.0000
  0
SEQEND
  8
0
  0
POLYLINE
  8
16
 66
1
 10
0.0000
 20
0.0000
 30
0.0000
 40
0.3048
 41
0.3048
 70
0
  0
VERTEX
  8
16
 10
7.1524
 20
24.1500
 30
0.0000
 42
1.0000
  0
VERTEX
  8
16
 10
6.8476
 20
24.1500
 30
0.0000
  0
SEQEND
  8
0
  0
POLYLINE
  8
16
 66
1
 10
0.0000
 20
0.0000
 30
0.0000
 40
0.6096
 41
0.6096
 70
0
  0
VERTEX
  8
16
 10
7.0000
 20
19.9688
 30
0.0000
  0
VERTEX
  8
16
 10
2.1875
 20
19.9688
 30
0.0000
  0
SEQEND
  8
0
  0
POLYLINE
  8
16
 66
1
 10
0.0000
 20
0.0000
 30
0.0000
 40
0.3048
 41
0.3048
 70
0
  0
VERTEX
  8
16
 10
2.1875
 20
20.1212
 30
0.0000
 42
1.0000
  0
VERTEX
  8
16
 10
2.1875
 20
19.8163
 30
0.0000
  0
SEQEND
  8
0
  0
POLYLINE
  8
16
 66
1
 10
0.0000
 20
0.0000
 30
0.0000
 40
0.3048
 41
0.3048
 70
0
  0
VERTEX
  8
16
 10
7.0000
 20
19.8163
 30
0.0000
 42
1.0000
  0
VERTEX
  8
16
 10
7.0000
 20
20.1212
 30
0.0000
  0
SEQEND
  8
0
  0
POLYLINE
  8
16
 66
1
 10
0.0000
 20
0.0000
 30
0.0000
 40
0.6096
 41
0.6096
 70
0
  0
VERTEX
  8
16
 10
2.1875
 20
19.9688
 30
0.0000
  0
VERTEX
  8
16
 10
1.2812
 20
18.6875
 30
0.0000
  0
SEQEND
  8
0
  0
POLYLINE
  8
16
 66
1
 10
0.0000
 20
0.0000
 30
0.0000
 40
0.3048
 41
0.3048
 70
0
  0
VERTEX
  8
16
 10
1.1568
 20
18.7755
 30
0.0000
 42
1.0000
  0
VERTEX
  8
16
 10
1.4057
 20
18.5995
 30
0.0000
  0
SEQEND
  8
0
  0
POLYLINE
  8
16
 66
1
 10
0.0000
 20
0.0000
 30
0.0000
 40
0.3048
 41
0.3048
 70
0
  0
VERTEX
  8
16
 10
2.3119
 20
19.8807
 30
0.0000
 42
1.0000
  0
VERTEX
  8
16
 10
2.0631
 20
20.0568
 30
0.0000
  0
SEQEND
  8
0
  0
POLYLINE
  8
16
 66
1
 10
0.0000
 20
0.0000
 30
0.0000
 40
0.6096
 41
0.6096
 70
0
  0
VERTEX
  8
16
 10
1.2812
 20
18.6875
 30
0.0000
  0
VERTEX
  8
16
 10
1.3125
 20
12.5312
 30
0.0000
  0
SEQEND
  8
0
  0
POLYLINE
  8
16
 66
1
 10
0.0000
 20
0.0000
 30
0.0000
 40
0.3048
 41
0.3048
 70
0
  0
VERTEX
  8
16
 10
1.1601
 20
12.5305
 30
0.0000
 42
1.0000
  0
VERTEX
  8
16
 10
1.4649
 20
12.5320
 30
0.0000
  0
SEQEND
  8
0
  0
POLYLINE
  8
16
 66
1
 10
0.0000
 20
0.0000
 30
0.0000
 40
0.3048
 41
0.3048
 70
0
  0
VERTEX
  8
16
 10
1.4336
 20
18.6883
 30
0.0000
 42
1.0000
  0
VERTEX
  8
16
 10
1.1289
 20
18.6867
 30
0.0000
  0
SEQEND
  8
0
  0
POLYLINE
  8
16
 66
1
 10
0.0000
 20
0.0000
 30
0.0000
 40
0.6096
 41
0.6096
 70
0
  0
VERTEX
  8
16
 10
1.3125
 20
12.5312
 30
0.0000
  0
VERTEX
  8
16
 10
1.5000
 20
12.2500
 30
0.0000
  0
SEQEND
  8
0
  0
POLYLINE
  8
16
 66
1
 10
0.0000
 20
0.0000
 30
0.0000
 40
0.3048
 41
0.3048
 70
0
  0
VERTEX
  8
16
 10
1.3732
 20
12.1655
 30
0.0000
 42
1.0000
  0
VERTEX
  8
16
 10
1.6268
 20
12.3345
 30
0.0000
  0
SEQEND
  8
0
  0
POLYLINE
  8
16
 66
1
 10
0.0000
 20
0.0000
 30
0.0000
 40
0.3048
 41
0.3048
 70
0
  0
VERTEX
  8
16
 10
1.4393
 20
12.6158
 30
0.0000
 42
1.0000
  0
VERTEX
  8
16
 10
1.1857
 20
12.4467
 30
0.0000
  0
SEQEND
  8
0
  0
POLYLINE
  8
16
 66
1
 10
0.0000
 20
0.0000
 30
0.0000
 40
0.6096
 41
0.6096
 70
0
  0
VERTEX
  8
16
 10
1.5000
 20
12.2500
 30
0.0000
  0
VERTEX
  8
16
 10
2.7000
 20
12.2500
 30
0.0000
  0
SEQEND
  8
0
  0
POLYLINE
  8
16
 66
1
 10
0.0000
 20
0.0000
 30
0.0000
 40
0.3048
 41
0.3048
 70
0
  0
VERTEX
  8
16
 10
2.7000
 20
12.0976
 30
0.0000
 42
1.0000
  0
VERTEX
  8
16
 10
2.7000
 20
12.4024
 30
0.0000
  0
SEQEND
  8
0
  0
POLYLINE
  8
16
 66
1
 10
0.0000
 20
0.0000
 30
0.0000
 40
0.3048
 41
0.3048
 70
0
  0
VERTEX
  8
16
 10
1.5000
 20
12.4024
 30
0.0000
 42
1.0000
  0
VERTEX
  8
16
 10
1.5000
 20
12.0976
 30
0.0000
  0
SEQEND
  8
0
  0
POLYLINE
  8
16
 66
1
 10
0.0000
 20
0.0000
 30
0.0000
 40
0.6096
 41
0.6096
 70
0
  0
VERTEX
  8
16
 10
2.7000
 20
12.2500
 30
0.0000
  0
VERTEX
  8
16
 10
4.3000
 20
10.6500
 30
0.0000
  0
SEQEND
  8
0
  0
POLYLINE
  8
16
 66
1
 10
0.0000
 20
0.0000
 30
0.0000
 40
0.3048
 41
0.3048
 70
0
  0
VERTEX
  8
16
 10
4.1922
 20
10.5422
 30
0.0000
 42
1.0000
  0
VERTEX
  8
16
 10
4.4078
 20
10.7578
 30
0.0000
  0
SEQEND
  8
0
  0
POLYLINE
  8
16
 66
1
 10
0.0000
 20
0.0000
 30
0.0000
 40
0.3048
 41
0.3048
 70
0
  0
VERTEX
  8
16
 10
2.8078
 20
12.3578
 30
0.0000
 42
1.0000
  0
VERTEX
  8
16
 10
2.5922
 20
12.1422
 30
0.0000
  0
SEQEND
  8
0
  0
ENDSEC
  0
EOF
