G75*
G70*
%OFA0B0*%
%FSLAX24Y24*%
%IPPOS*%
%LPD*%
%AMOC8*
5,1,8,0,0,1.08239X$1,22.5*
%
%ADD10C,0.0000*%
%ADD11R,0.0514X0.0514*%
%ADD12C,0.0514*%
%ADD13OC8,0.1500*%
%ADD14C,0.1500*%
%ADD15C,0.0240*%
%ADD16C,0.0160*%
%ADD17C,0.0356*%
%ADD18C,0.0060*%
D10*
X000220Y000220D02*
X000220Y012070D01*
X007740Y012070D01*
X007740Y000220D01*
X000220Y000220D01*
D11*
X005555Y010929D03*
D12*
X005555Y010141D03*
X004767Y010141D03*
X004767Y010929D03*
X003980Y010929D03*
X003980Y010141D03*
X003192Y010141D03*
X003192Y010929D03*
X002405Y010929D03*
X002405Y010141D03*
D13*
X005830Y006913D03*
D14*
X005830Y004826D03*
X005830Y002740D03*
X003980Y002740D03*
X003980Y004826D03*
X003980Y006913D03*
X002129Y006913D03*
X002129Y004826D03*
X002129Y002740D03*
D15*
X001599Y003495D02*
X000540Y003495D01*
X000540Y003257D02*
X001361Y003257D01*
X001359Y003255D02*
X001220Y002921D01*
X001220Y002559D01*
X001359Y002225D01*
X001614Y001969D01*
X001949Y001830D01*
X002310Y001830D01*
X002645Y001969D01*
X002900Y002225D01*
X003039Y002559D01*
X003039Y002921D01*
X002900Y003255D01*
X002645Y003511D01*
X002310Y003649D01*
X001949Y003649D01*
X001614Y003511D01*
X001359Y003255D01*
X001261Y003018D02*
X000540Y003018D01*
X000540Y002780D02*
X001220Y002780D01*
X001227Y002541D02*
X000540Y002541D01*
X000540Y002303D02*
X001326Y002303D01*
X001519Y002064D02*
X000540Y002064D01*
X000540Y001826D02*
X007420Y001826D01*
X007420Y002064D02*
X006441Y002064D01*
X006345Y001969D02*
X006601Y002225D01*
X006740Y002559D01*
X006740Y002921D01*
X006601Y003255D01*
X006345Y003511D01*
X006011Y003649D01*
X005649Y003649D01*
X005315Y003511D01*
X005059Y003255D01*
X004921Y002921D01*
X004921Y002559D01*
X005059Y002225D01*
X005315Y001969D01*
X005649Y001830D01*
X006011Y001830D01*
X006345Y001969D01*
X006634Y002303D02*
X007420Y002303D01*
X007420Y002541D02*
X006732Y002541D01*
X006740Y002780D02*
X007420Y002780D01*
X007420Y003018D02*
X006699Y003018D01*
X006599Y003257D02*
X007420Y003257D01*
X007420Y003495D02*
X006361Y003495D01*
X006145Y003972D02*
X007420Y003972D01*
X007420Y003734D02*
X005182Y003734D01*
X005182Y003651D02*
X005182Y004189D01*
X005315Y004055D01*
X005649Y003917D01*
X006011Y003917D01*
X006345Y004055D01*
X006601Y004311D01*
X006740Y004645D01*
X006740Y005007D01*
X006671Y005172D01*
X007178Y005601D01*
X007189Y005606D01*
X007220Y005637D01*
X007254Y005665D01*
X007259Y005676D01*
X007268Y005684D01*
X007285Y005725D01*
X007305Y005764D01*
X007306Y005776D01*
X007310Y005787D01*
X007310Y005831D01*
X007314Y005875D01*
X007310Y005886D01*
X007310Y009629D01*
X007316Y009662D01*
X007310Y009684D01*
X007310Y009707D01*
X007298Y009738D01*
X007290Y009770D01*
X007277Y009789D01*
X007268Y009810D01*
X007244Y009833D01*
X006922Y010278D01*
X006914Y010300D01*
X006890Y010323D01*
X006870Y010350D01*
X006851Y010362D01*
X006835Y010378D01*
X006804Y010391D01*
X006776Y010408D01*
X006753Y010412D01*
X006732Y010421D01*
X006699Y010421D01*
X006666Y010426D01*
X006644Y010421D01*
X005864Y010421D01*
X005791Y010494D01*
X005748Y010512D01*
X005878Y010512D01*
X005971Y010605D01*
X005971Y011252D01*
X005878Y011345D01*
X005231Y011345D01*
X005138Y011252D01*
X005138Y011122D01*
X005120Y011165D01*
X005003Y011282D01*
X004850Y011345D01*
X004684Y011345D01*
X004531Y011282D01*
X004414Y011165D01*
X004351Y011012D01*
X004351Y010997D01*
X004343Y011039D01*
X004314Y011107D01*
X004273Y011169D01*
X004220Y011222D01*
X004158Y011263D01*
X004090Y011291D01*
X004017Y011306D01*
X003980Y011306D01*
X003980Y010929D01*
X003980Y010929D01*
X003980Y011306D01*
X003943Y011306D01*
X003870Y011291D01*
X003801Y011263D01*
X003739Y011222D01*
X003687Y011169D01*
X003646Y011107D01*
X003617Y011039D01*
X003609Y010997D01*
X003609Y011012D01*
X003546Y011165D01*
X003482Y011228D01*
X003483Y011249D01*
X003487Y011262D01*
X003484Y011304D01*
X003486Y011347D01*
X003481Y011359D01*
X003480Y011373D01*
X003462Y011411D01*
X003447Y011451D01*
X003437Y011461D01*
X003431Y011473D01*
X003400Y011501D01*
X003371Y011532D01*
X003358Y011537D01*
X003187Y011688D01*
X003154Y011722D01*
X003146Y011725D01*
X003139Y011731D01*
X003094Y011746D01*
X003084Y011750D01*
X007420Y011750D01*
X007420Y000540D01*
X000540Y000540D01*
X000540Y011750D01*
X001722Y011750D01*
X001700Y011740D01*
X001656Y011722D01*
X001650Y011716D01*
X001643Y011712D01*
X001611Y011676D01*
X001578Y011643D01*
X001574Y011635D01*
X001414Y011455D01*
X001381Y011422D01*
X001378Y011414D01*
X001372Y011407D01*
X001356Y011363D01*
X001338Y011319D01*
X001338Y011310D01*
X001335Y011302D01*
X001338Y011255D01*
X001338Y010280D01*
X001332Y010273D01*
X001280Y010149D01*
X001280Y010015D01*
X001332Y009891D01*
X001426Y009796D01*
X001551Y009745D01*
X001685Y009745D01*
X001809Y009796D01*
X001904Y009891D01*
X001955Y010015D01*
X001955Y010149D01*
X001904Y010273D01*
X001897Y010280D01*
X001897Y011157D01*
X001940Y011205D01*
X002093Y011205D01*
X002052Y011165D01*
X001989Y011012D01*
X001989Y010846D01*
X002052Y010693D01*
X002169Y010576D01*
X002322Y010512D01*
X002336Y010512D01*
X002295Y010504D01*
X002226Y010475D01*
X002165Y010434D01*
X002112Y010382D01*
X002071Y010320D01*
X002042Y010251D01*
X002028Y010178D01*
X002028Y010141D01*
X002028Y010104D01*
X002042Y010031D01*
X002071Y009963D01*
X002112Y009901D01*
X002165Y009848D01*
X002226Y009807D01*
X002295Y009779D01*
X002368Y009764D01*
X002405Y009764D01*
X002405Y010141D01*
X002405Y010141D01*
X002405Y009764D01*
X002442Y009764D01*
X002515Y009779D01*
X002584Y009807D01*
X002645Y009848D01*
X002698Y009901D01*
X002739Y009963D01*
X002768Y010031D01*
X002776Y010072D01*
X002776Y010058D01*
X002839Y009905D01*
X002913Y009832D01*
X002913Y008774D01*
X001329Y008774D01*
X001305Y008780D01*
X001274Y008774D01*
X001242Y008774D01*
X001220Y008765D01*
X001196Y008761D01*
X001169Y008744D01*
X001140Y008732D01*
X001122Y008715D01*
X001102Y008702D01*
X001083Y008676D01*
X001061Y008653D01*
X001052Y008631D01*
X000726Y008171D01*
X000703Y008148D01*
X000694Y008126D01*
X000681Y008107D01*
X000674Y008075D01*
X000661Y008045D01*
X000661Y008021D01*
X000656Y007998D01*
X000662Y007966D01*
X000674Y005594D01*
X000668Y005567D01*
X000674Y005539D01*
X000674Y005510D01*
X000685Y005485D01*
X000690Y005458D01*
X000706Y005434D01*
X000717Y005407D01*
X000737Y005388D01*
X000779Y005324D01*
X000790Y005298D01*
X000810Y005278D01*
X000825Y005255D01*
X000849Y005239D01*
X000869Y005219D01*
X000895Y005209D01*
X000918Y005193D01*
X000945Y005188D01*
X000972Y005177D01*
X000999Y005177D01*
X001027Y005171D01*
X001054Y005177D01*
X001290Y005177D01*
X001220Y005007D01*
X001220Y004645D01*
X001359Y004311D01*
X001614Y004055D01*
X001949Y003917D01*
X002310Y003917D01*
X002645Y004055D01*
X002900Y004311D01*
X003039Y004645D01*
X003039Y005007D01*
X002900Y005341D01*
X002645Y005597D01*
X002310Y005736D01*
X001949Y005736D01*
X001713Y005638D01*
X001658Y005693D01*
X001555Y005736D01*
X001232Y005736D01*
X001227Y006716D01*
X001359Y006398D01*
X001614Y006142D01*
X001949Y006004D01*
X002310Y006004D01*
X002645Y006142D01*
X002900Y006398D01*
X003039Y006732D01*
X003039Y007094D01*
X002900Y007428D01*
X002645Y007684D01*
X002310Y007822D01*
X001949Y007822D01*
X001614Y007684D01*
X001359Y007428D01*
X001225Y007105D01*
X001221Y007902D01*
X001442Y008216D01*
X003248Y008216D01*
X003351Y008258D01*
X003429Y008337D01*
X003472Y008440D01*
X003472Y009832D01*
X003546Y009905D01*
X003586Y010003D01*
X003627Y009905D01*
X003700Y009832D01*
X003700Y009130D01*
X003695Y009108D01*
X003700Y009075D01*
X003700Y009042D01*
X003709Y009021D01*
X003713Y008998D01*
X003730Y008970D01*
X003743Y008940D01*
X003759Y008923D01*
X003772Y008904D01*
X003798Y008884D01*
X003822Y008861D01*
X003843Y008852D01*
X004623Y008290D01*
X004623Y007556D01*
X004495Y007684D01*
X004161Y007822D01*
X003799Y007822D01*
X003465Y007684D01*
X003209Y007428D01*
X003070Y007094D01*
X003070Y006732D01*
X003209Y006398D01*
X003465Y006142D01*
X003799Y006004D01*
X004161Y006004D01*
X004495Y006142D01*
X004623Y006270D01*
X004623Y005413D01*
X004555Y005482D01*
X004464Y005551D01*
X004365Y005608D01*
X004260Y005652D01*
X004150Y005681D01*
X004086Y005690D01*
X004086Y004933D01*
X003873Y004933D01*
X003873Y004720D01*
X003116Y004720D01*
X003125Y004656D01*
X003154Y004546D01*
X003198Y004441D01*
X003255Y004342D01*
X003324Y004251D01*
X003405Y004171D01*
X003495Y004101D01*
X003594Y004044D01*
X003700Y004001D01*
X003810Y003971D01*
X003873Y003963D01*
X003873Y004720D01*
X004086Y004720D01*
X004086Y003963D01*
X004150Y003971D01*
X004260Y004001D01*
X004365Y004044D01*
X004464Y004101D01*
X004555Y004171D01*
X004623Y004239D01*
X004623Y003722D01*
X004427Y003539D01*
X004161Y003649D01*
X003799Y003649D01*
X003465Y003511D01*
X003209Y003255D01*
X003070Y002921D01*
X003070Y002559D01*
X003209Y002225D01*
X003465Y001969D01*
X003799Y001830D01*
X004161Y001830D01*
X004495Y001969D01*
X004751Y002225D01*
X004889Y002559D01*
X004889Y002921D01*
X004804Y003127D01*
X005056Y003362D01*
X005061Y003364D01*
X005097Y003400D01*
X005134Y003435D01*
X005136Y003439D01*
X005139Y003443D01*
X005159Y003490D01*
X005180Y003536D01*
X005180Y003541D01*
X005182Y003545D01*
X005182Y003596D01*
X005184Y003647D01*
X005182Y003651D01*
X005161Y003495D02*
X005300Y003495D01*
X005061Y003257D02*
X004943Y003257D01*
X004961Y003018D02*
X004849Y003018D01*
X004889Y002780D02*
X004921Y002780D01*
X004928Y002541D02*
X004882Y002541D01*
X004783Y002303D02*
X005027Y002303D01*
X005219Y002064D02*
X004591Y002064D01*
X003980Y002740D02*
X004903Y003601D01*
X004903Y004201D01*
X004623Y004211D02*
X004595Y004211D01*
X004623Y003972D02*
X004154Y003972D01*
X004086Y003972D02*
X003873Y003972D01*
X003805Y003972D02*
X002444Y003972D01*
X002660Y003495D02*
X003450Y003495D01*
X003211Y003257D02*
X002898Y003257D01*
X002998Y003018D02*
X003111Y003018D01*
X003070Y002780D02*
X003039Y002780D01*
X003032Y002541D02*
X003078Y002541D01*
X003176Y002303D02*
X002933Y002303D01*
X002740Y002064D02*
X003369Y002064D01*
X004623Y003734D02*
X000540Y003734D01*
X000540Y003972D02*
X001815Y003972D01*
X001459Y004211D02*
X000540Y004211D01*
X000540Y004449D02*
X001301Y004449D01*
X001220Y004688D02*
X000540Y004688D01*
X000540Y004926D02*
X001220Y004926D01*
X001285Y005165D02*
X000540Y005165D01*
X000540Y005403D02*
X000721Y005403D01*
X000674Y005642D02*
X000540Y005642D01*
X000540Y005880D02*
X000672Y005880D01*
X000671Y006119D02*
X000540Y006119D01*
X000540Y006357D02*
X000670Y006357D01*
X000669Y006596D02*
X000540Y006596D01*
X000540Y006834D02*
X000667Y006834D01*
X000666Y007073D02*
X000540Y007073D01*
X000540Y007311D02*
X000665Y007311D01*
X000664Y007550D02*
X000540Y007550D01*
X000540Y007788D02*
X000663Y007788D01*
X000661Y008027D02*
X000540Y008027D01*
X000540Y008265D02*
X000793Y008265D01*
X000941Y007991D02*
X000953Y005567D01*
X001027Y005456D01*
X001500Y005456D01*
X002129Y004826D01*
X001722Y005642D02*
X001709Y005642D01*
X001670Y006119D02*
X001230Y006119D01*
X001229Y006357D02*
X001399Y006357D01*
X001276Y006596D02*
X001227Y006596D01*
X001224Y007311D02*
X001310Y007311D01*
X001223Y007550D02*
X001480Y007550D01*
X001221Y007788D02*
X001867Y007788D01*
X002392Y007788D02*
X003717Y007788D01*
X003358Y008265D02*
X004623Y008265D01*
X004623Y008027D02*
X001309Y008027D01*
X000941Y007991D02*
X001298Y008495D01*
X003192Y008495D01*
X003192Y010141D01*
X003558Y009935D02*
X003614Y009935D01*
X003700Y009696D02*
X003472Y009696D01*
X003472Y009458D02*
X003700Y009458D01*
X003700Y009219D02*
X003472Y009219D01*
X003472Y008981D02*
X003724Y008981D01*
X003472Y008742D02*
X003996Y008742D01*
X003980Y009098D02*
X003980Y010141D01*
X004259Y009832D02*
X004333Y009905D01*
X004374Y010003D01*
X004414Y009905D01*
X004531Y009788D01*
X004684Y009725D01*
X004850Y009725D01*
X005003Y009788D01*
X005120Y009905D01*
X005161Y010003D01*
X005202Y009905D01*
X005319Y009788D01*
X005472Y009725D01*
X005638Y009725D01*
X005791Y009788D01*
X005864Y009862D01*
X006534Y009862D01*
X006752Y009561D01*
X006752Y005972D01*
X006321Y005607D01*
X006011Y005736D01*
X005649Y005736D01*
X005315Y005597D01*
X005182Y005464D01*
X005182Y006275D01*
X005454Y006004D01*
X006207Y006004D01*
X006740Y006536D01*
X006740Y007290D01*
X006207Y007822D01*
X005454Y007822D01*
X005182Y007551D01*
X005182Y008401D01*
X005187Y008424D01*
X005182Y008456D01*
X005182Y008489D01*
X005173Y008511D01*
X005169Y008533D01*
X005152Y008561D01*
X005139Y008592D01*
X005123Y008608D01*
X005111Y008628D01*
X005084Y008647D01*
X005061Y008670D01*
X005039Y008679D01*
X004259Y009241D01*
X004259Y009832D01*
X004345Y009935D02*
X004402Y009935D01*
X004259Y009696D02*
X006654Y009696D01*
X006752Y009458D02*
X004259Y009458D01*
X004289Y009219D02*
X006752Y009219D01*
X006752Y008981D02*
X004621Y008981D01*
X004952Y008742D02*
X006752Y008742D01*
X006752Y008504D02*
X005176Y008504D01*
X005182Y008265D02*
X006752Y008265D01*
X006752Y008027D02*
X005182Y008027D01*
X005182Y007788D02*
X005420Y007788D01*
X004903Y007585D02*
X004903Y008434D01*
X003980Y009098D01*
X004327Y008504D02*
X003472Y008504D01*
X002913Y008981D02*
X000540Y008981D01*
X000540Y009219D02*
X002913Y009219D01*
X002913Y009458D02*
X000540Y009458D01*
X000540Y009696D02*
X002913Y009696D01*
X002827Y009935D02*
X002721Y009935D01*
X002405Y009935D02*
X002405Y009935D01*
X002405Y010141D02*
X002028Y010141D01*
X002405Y010141D01*
X002405Y010141D01*
X002089Y009935D02*
X001922Y009935D01*
X001945Y010173D02*
X002028Y010173D01*
X002142Y010412D02*
X001897Y010412D01*
X001897Y010650D02*
X002094Y010650D01*
X001989Y010889D02*
X001897Y010889D01*
X001897Y011127D02*
X002037Y011127D01*
X001814Y011485D02*
X002996Y011485D01*
X003205Y011300D01*
X003192Y010929D01*
X003561Y011127D02*
X003659Y011127D01*
X003481Y011366D02*
X007420Y011366D01*
X007420Y011604D02*
X003282Y011604D01*
X003980Y011127D02*
X003980Y011127D01*
X004301Y011127D02*
X004399Y011127D01*
X005136Y011127D02*
X005138Y011127D01*
X005555Y010141D02*
X006677Y010141D01*
X007031Y009652D01*
X007031Y005843D01*
X005830Y004826D01*
X005423Y005642D02*
X005182Y005642D01*
X005182Y005880D02*
X006643Y005880D01*
X006752Y006119D02*
X006322Y006119D01*
X006561Y006357D02*
X006752Y006357D01*
X006740Y006596D02*
X006752Y006596D01*
X006740Y006834D02*
X006752Y006834D01*
X006740Y007073D02*
X006752Y007073D01*
X006752Y007311D02*
X006718Y007311D01*
X006752Y007550D02*
X006479Y007550D01*
X006241Y007788D02*
X006752Y007788D01*
X007310Y007788D02*
X007420Y007788D01*
X007420Y007550D02*
X007310Y007550D01*
X007310Y007311D02*
X007420Y007311D01*
X007420Y007073D02*
X007310Y007073D01*
X007310Y006834D02*
X007420Y006834D01*
X007420Y006596D02*
X007310Y006596D01*
X007310Y006357D02*
X007420Y006357D01*
X007420Y006119D02*
X007310Y006119D01*
X007312Y005880D02*
X007420Y005880D01*
X007420Y005642D02*
X007226Y005642D01*
X007420Y005403D02*
X006945Y005403D01*
X006740Y004926D02*
X007420Y004926D01*
X007420Y004688D02*
X006740Y004688D01*
X006658Y004449D02*
X007420Y004449D01*
X007420Y004211D02*
X006501Y004211D01*
X006674Y005165D02*
X007420Y005165D01*
X006361Y005642D02*
X006238Y005642D01*
X005338Y006119D02*
X005182Y006119D01*
X004903Y006256D02*
X004903Y005321D01*
X004623Y005642D02*
X004284Y005642D01*
X004086Y005642D02*
X003873Y005642D01*
X003873Y005690D02*
X003810Y005681D01*
X003700Y005652D01*
X003594Y005608D01*
X003495Y005551D01*
X003405Y005482D01*
X003324Y005401D01*
X003255Y005311D01*
X003198Y005212D01*
X003154Y005107D01*
X003125Y004996D01*
X003116Y004933D01*
X003873Y004933D01*
X003873Y005690D01*
X003675Y005642D02*
X002537Y005642D01*
X002838Y005403D02*
X003327Y005403D01*
X003178Y005165D02*
X002973Y005165D01*
X003039Y004926D02*
X003873Y004926D01*
X003873Y004688D02*
X004086Y004688D01*
X004086Y004449D02*
X003873Y004449D01*
X003873Y004211D02*
X004086Y004211D01*
X004086Y005165D02*
X003873Y005165D01*
X003873Y005403D02*
X004086Y005403D01*
X004439Y006119D02*
X004623Y006119D01*
X004623Y005880D02*
X001231Y005880D01*
X002589Y006119D02*
X003520Y006119D01*
X003249Y006357D02*
X002860Y006357D01*
X002982Y006596D02*
X003127Y006596D01*
X003070Y006834D02*
X003039Y006834D01*
X003039Y007073D02*
X003070Y007073D01*
X003161Y007311D02*
X002949Y007311D01*
X002779Y007550D02*
X003331Y007550D01*
X004243Y007788D02*
X004623Y007788D01*
X005133Y009935D02*
X005189Y009935D01*
X005971Y010650D02*
X007420Y010650D01*
X007420Y010412D02*
X006753Y010412D01*
X006998Y010173D02*
X007420Y010173D01*
X007420Y009935D02*
X007171Y009935D01*
X007310Y009696D02*
X007420Y009696D01*
X007420Y009458D02*
X007310Y009458D01*
X007310Y009219D02*
X007420Y009219D01*
X007420Y008981D02*
X007310Y008981D01*
X007310Y008742D02*
X007420Y008742D01*
X007420Y008504D02*
X007310Y008504D01*
X007310Y008265D02*
X007420Y008265D01*
X007420Y008027D02*
X007310Y008027D01*
X007420Y010889D02*
X005971Y010889D01*
X005971Y011127D02*
X007420Y011127D01*
X003121Y004688D02*
X003039Y004688D01*
X002958Y004449D02*
X003194Y004449D01*
X003365Y004211D02*
X002800Y004211D01*
X000540Y001587D02*
X007420Y001587D01*
X007420Y001349D02*
X000540Y001349D01*
X000540Y001110D02*
X007420Y001110D01*
X007420Y000872D02*
X000540Y000872D01*
X000540Y000633D02*
X007420Y000633D01*
X005515Y003972D02*
X005182Y003972D01*
X001313Y009935D02*
X000540Y009935D01*
X000540Y010173D02*
X001290Y010173D01*
X001338Y010412D02*
X000540Y010412D01*
X000540Y010650D02*
X001338Y010650D01*
X001338Y010889D02*
X000540Y010889D01*
X000540Y011127D02*
X001338Y011127D01*
X001358Y011366D02*
X000540Y011366D01*
X000540Y011604D02*
X001547Y011604D01*
X001814Y011485D02*
X001618Y011263D01*
X001618Y010082D01*
X001165Y008742D02*
X000540Y008742D01*
X000540Y008504D02*
X000962Y008504D01*
D16*
X004903Y007585D02*
X004903Y006256D01*
X004903Y005321D02*
X004903Y004201D01*
D17*
X007252Y000744D03*
X005665Y008704D03*
X007309Y011640D03*
X001618Y010082D03*
X000665Y011591D03*
X000707Y000720D03*
D18*
X004350Y009894D02*
X004452Y009885D01*
X004350Y009894D02*
X004354Y009944D01*
M02*
