%
M48
M72
T01C0.0236
T02C0.0354
T03C0.0906
%
T01
X707Y720
X5665Y8704
X7309Y11640
X1618Y10082
X665Y11591
X7252Y744
T02
X5555Y10141
X5555Y10929
X4767Y10929
X4767Y10141
X3980Y10141
X3980Y10929
X3192Y10929
X3192Y10141
X2405Y10141
X2405Y10929
T03
X2129Y6913
X2129Y4826
X2129Y2740
X3980Y2740
X3980Y4826
X3980Y6913
X5830Y6913
X5830Y4826
X5830Y2740
M30
