G75*
G70*
%OFA0B0*%
%FSLAX24Y24*%
%IPPOS*%
%LPD*%
%AMOC8*
5,1,8,0,0,1.08239X$1,22.5*
%
%ADD10C,0.0000*%
%ADD11R,0.0514X0.0514*%
%ADD12C,0.0514*%
%ADD13OC8,0.1500*%
%ADD14C,0.1500*%
%ADD15C,0.0240*%
%ADD16C,0.0060*%
%ADD17C,0.0356*%
D10*
X000220Y000220D02*
X000220Y012070D01*
X007740Y012070D01*
X007740Y000220D01*
X000220Y000220D01*
D11*
X005555Y010929D03*
D12*
X005555Y010141D03*
X004767Y010141D03*
X004767Y010929D03*
X003980Y010929D03*
X003980Y010141D03*
X003192Y010141D03*
X003192Y010929D03*
X002405Y010929D03*
X002405Y010141D03*
D13*
X005830Y006913D03*
D14*
X005830Y004826D03*
X005830Y002740D03*
X003980Y002740D03*
X003980Y004826D03*
X003980Y006913D03*
X002129Y006913D03*
X002129Y004826D03*
X002129Y002740D03*
D15*
X001677Y002740D01*
X000953Y003389D01*
X000953Y010574D01*
X001224Y010870D01*
X002346Y010870D01*
X002405Y010929D01*
X002154Y010590D02*
X002169Y010576D01*
X002322Y010512D01*
X002336Y010512D01*
X002295Y010504D01*
X002226Y010475D01*
X002165Y010434D01*
X002112Y010382D01*
X002071Y010320D01*
X002042Y010251D01*
X002028Y010178D01*
X002028Y010141D01*
X002028Y010104D01*
X002042Y010031D01*
X002071Y009963D01*
X002112Y009901D01*
X002165Y009848D01*
X002226Y009807D01*
X002295Y009779D01*
X002368Y009764D01*
X002405Y009764D01*
X002405Y010141D01*
X002405Y010141D01*
X002405Y009764D01*
X002442Y009764D01*
X002515Y009779D01*
X002584Y009807D01*
X002645Y009848D01*
X002698Y009901D01*
X002739Y009963D01*
X002768Y010031D01*
X002776Y010072D01*
X002776Y010058D01*
X002839Y009905D01*
X002956Y009788D01*
X003110Y009725D01*
X003275Y009725D01*
X003428Y009788D01*
X003546Y009905D01*
X003586Y010003D01*
X003627Y009905D01*
X003744Y009788D01*
X003897Y009725D01*
X004063Y009725D01*
X004216Y009788D01*
X004333Y009905D01*
X004374Y010003D01*
X004414Y009905D01*
X004488Y009832D01*
X004488Y008426D01*
X004215Y008154D01*
X004137Y008075D01*
X004094Y007972D01*
X004094Y007822D01*
X003799Y007822D01*
X003465Y007684D01*
X003209Y007428D01*
X003070Y007094D01*
X003070Y006732D01*
X003209Y006398D01*
X003465Y006142D01*
X003799Y006004D01*
X004161Y006004D01*
X004495Y006142D01*
X004751Y006398D01*
X004889Y006732D01*
X004889Y007094D01*
X004751Y007428D01*
X004653Y007526D01*
X004653Y007801D01*
X005004Y008152D01*
X005047Y008255D01*
X005047Y009832D01*
X005120Y009905D01*
X005161Y010003D01*
X005202Y009905D01*
X005319Y009788D01*
X005472Y009725D01*
X005638Y009725D01*
X005791Y009788D01*
X005908Y009905D01*
X005971Y010058D01*
X005971Y010224D01*
X005908Y010377D01*
X005791Y010494D01*
X005748Y010512D01*
X005878Y010512D01*
X005911Y010546D01*
X006063Y010371D01*
X006063Y007822D01*
X005454Y007822D01*
X004921Y007290D01*
X004921Y006536D01*
X005454Y006004D01*
X006207Y006004D01*
X006740Y006536D01*
X006740Y007290D01*
X006621Y007408D01*
X006621Y010466D01*
X006625Y010512D01*
X006621Y010521D01*
X006621Y010531D01*
X006604Y010574D01*
X006589Y010617D01*
X006583Y010625D01*
X006579Y010634D01*
X006546Y010667D01*
X006189Y011078D01*
X006185Y011087D01*
X006153Y011119D01*
X006123Y011154D01*
X006114Y011158D01*
X006107Y011165D01*
X006064Y011183D01*
X006023Y011203D01*
X006013Y011204D01*
X006004Y011208D01*
X005971Y011208D01*
X005971Y011218D01*
X006222Y011218D01*
X006752Y010573D01*
X006752Y003736D01*
X006561Y003590D01*
X006387Y003469D01*
X006345Y003511D01*
X006011Y003649D01*
X005649Y003649D01*
X005315Y003511D01*
X005059Y003255D01*
X004921Y002921D01*
X004921Y002559D01*
X005059Y002225D01*
X005315Y001969D01*
X005649Y001830D01*
X006011Y001830D01*
X006345Y001969D01*
X006601Y002225D01*
X006740Y002559D01*
X006740Y002921D01*
X006703Y003008D01*
X006845Y003107D01*
X006852Y003109D01*
X006891Y003139D01*
X006931Y003167D01*
X006935Y003173D01*
X007172Y003354D01*
X007189Y003362D01*
X007216Y003388D01*
X007245Y003410D01*
X007254Y003427D01*
X007268Y003440D01*
X007282Y003475D01*
X007301Y003507D01*
X007303Y003525D01*
X007310Y003543D01*
X007310Y003580D01*
X007315Y003617D01*
X007310Y003635D01*
X007310Y010659D01*
X007314Y010701D01*
X007310Y010714D01*
X007310Y010728D01*
X007294Y010767D01*
X007282Y010807D01*
X007273Y010818D01*
X007268Y010831D01*
X007238Y010861D01*
X006597Y011642D01*
X006591Y011655D01*
X006562Y011685D01*
X006535Y011717D01*
X006523Y011724D01*
X006513Y011734D01*
X006474Y011750D01*
X006473Y011750D01*
X007420Y011750D01*
X007420Y000540D01*
X000540Y000540D01*
X000540Y011750D01*
X004784Y011750D01*
X004744Y011734D01*
X004736Y011725D01*
X004725Y011720D01*
X004697Y011686D01*
X004666Y011655D01*
X004661Y011644D01*
X004561Y011526D01*
X004530Y011495D01*
X004526Y011484D01*
X004518Y011475D01*
X004505Y011433D01*
X004488Y011393D01*
X004488Y011381D01*
X004484Y011369D01*
X004488Y011325D01*
X004488Y011238D01*
X004414Y011165D01*
X004351Y011012D01*
X004351Y010997D01*
X004343Y011039D01*
X004314Y011107D01*
X004273Y011169D01*
X004220Y011222D01*
X004158Y011263D01*
X004090Y011291D01*
X004017Y011306D01*
X003980Y011306D01*
X003980Y010929D01*
X003980Y010929D01*
X003980Y011306D01*
X003943Y011306D01*
X003870Y011291D01*
X003801Y011263D01*
X003739Y011222D01*
X003687Y011169D01*
X003646Y011107D01*
X003617Y011039D01*
X003609Y010997D01*
X003609Y011012D01*
X003546Y011165D01*
X003428Y011282D01*
X003275Y011345D01*
X003110Y011345D01*
X002956Y011282D01*
X002839Y011165D01*
X002799Y011067D01*
X002758Y011165D01*
X002641Y011282D01*
X002488Y011345D01*
X002322Y011345D01*
X002169Y011282D01*
X002052Y011165D01*
X002045Y011149D01*
X001273Y011149D01*
X001267Y011151D01*
X001218Y011149D01*
X001168Y011149D01*
X001163Y011147D01*
X001156Y011146D01*
X001111Y011125D01*
X001066Y011106D01*
X001061Y011102D01*
X001056Y011099D01*
X001022Y011063D01*
X000987Y011028D01*
X000985Y011022D01*
X000751Y010768D01*
X000716Y010733D01*
X000714Y010727D01*
X000710Y010722D01*
X000693Y010676D01*
X000674Y010630D01*
X000674Y010624D01*
X000672Y010618D01*
X000674Y010568D01*
X000674Y003437D01*
X000671Y003430D01*
X000674Y003382D01*
X000674Y003334D01*
X000677Y003327D01*
X000677Y003319D01*
X000698Y003275D01*
X000716Y003231D01*
X000722Y003226D01*
X000725Y003219D01*
X000761Y003186D01*
X000795Y003152D01*
X000802Y003149D01*
X001220Y002774D01*
X001220Y002559D01*
X001359Y002225D01*
X001614Y001969D01*
X001949Y001830D01*
X002310Y001830D01*
X002645Y001969D01*
X002900Y002225D01*
X003039Y002559D01*
X003039Y002921D01*
X002900Y003255D01*
X002645Y003511D01*
X002310Y003649D01*
X001949Y003649D01*
X001614Y003511D01*
X001435Y003332D01*
X001233Y003514D01*
X001233Y004615D01*
X001359Y004311D01*
X001614Y004055D01*
X001949Y003917D01*
X002310Y003917D01*
X002645Y004055D01*
X002900Y004311D01*
X003039Y004645D01*
X003039Y005007D01*
X002900Y005341D01*
X002645Y005597D01*
X002310Y005736D01*
X001949Y005736D01*
X001614Y005597D01*
X001359Y005341D01*
X001233Y005037D01*
X001233Y006702D01*
X001359Y006398D01*
X001614Y006142D01*
X001949Y006004D01*
X002310Y006004D01*
X002645Y006142D01*
X002900Y006398D01*
X003039Y006732D01*
X003039Y007094D01*
X002900Y007428D01*
X002645Y007684D01*
X002409Y007781D01*
X002409Y008839D01*
X002366Y008941D01*
X001799Y009509D01*
X001799Y009792D01*
X001809Y009796D01*
X001904Y009891D01*
X001955Y010015D01*
X001955Y010149D01*
X001904Y010273D01*
X001809Y010368D01*
X001685Y010420D01*
X001551Y010420D01*
X001426Y010368D01*
X001332Y010273D01*
X001280Y010149D01*
X001280Y010137D01*
X001240Y010039D01*
X001240Y009338D01*
X001282Y009235D01*
X001361Y009156D01*
X001850Y008667D01*
X001850Y007781D01*
X001614Y007684D01*
X001359Y007428D01*
X001233Y007124D01*
X001233Y010466D01*
X001347Y010590D01*
X002154Y010590D01*
X002142Y010412D02*
X001704Y010412D01*
X001532Y010412D02*
X001233Y010412D01*
X001233Y010173D02*
X001290Y010173D01*
X001240Y009935D02*
X001233Y009935D01*
X001233Y009696D02*
X001240Y009696D01*
X001233Y009458D02*
X001240Y009458D01*
X001233Y009219D02*
X001298Y009219D01*
X001233Y008981D02*
X001536Y008981D01*
X001775Y008742D02*
X001233Y008742D01*
X001233Y008504D02*
X001850Y008504D01*
X001850Y008265D02*
X001233Y008265D01*
X001233Y008027D02*
X001850Y008027D01*
X001850Y007788D02*
X001233Y007788D01*
X001233Y007550D02*
X001480Y007550D01*
X001310Y007311D02*
X001233Y007311D01*
X001233Y006596D02*
X001276Y006596D01*
X001233Y006357D02*
X001399Y006357D01*
X001233Y006119D02*
X001670Y006119D01*
X001722Y005642D02*
X001233Y005642D01*
X001233Y005880D02*
X006752Y005880D01*
X006752Y005642D02*
X006238Y005642D01*
X006345Y005597D02*
X006011Y005736D01*
X005649Y005736D01*
X005315Y005597D01*
X005059Y005341D01*
X004921Y005007D01*
X004921Y004645D01*
X005059Y004311D01*
X005315Y004055D01*
X005649Y003917D01*
X006011Y003917D01*
X006345Y004055D01*
X006601Y004311D01*
X006740Y004645D01*
X006740Y005007D01*
X006601Y005341D01*
X006345Y005597D01*
X006539Y005403D02*
X006752Y005403D01*
X006752Y005165D02*
X006674Y005165D01*
X006740Y004926D02*
X006752Y004926D01*
X006740Y004688D02*
X006752Y004688D01*
X006752Y004449D02*
X006658Y004449D01*
X006752Y004211D02*
X006501Y004211D01*
X006752Y003972D02*
X006145Y003972D01*
X006361Y003495D02*
X006425Y003495D01*
X006726Y003365D02*
X005830Y002740D01*
X006441Y002064D02*
X007420Y002064D01*
X007420Y001826D02*
X000540Y001826D01*
X000540Y002064D02*
X001519Y002064D01*
X001326Y002303D02*
X000540Y002303D01*
X000540Y002541D02*
X001227Y002541D01*
X001214Y002780D02*
X000540Y002780D01*
X000540Y003018D02*
X000948Y003018D01*
X000706Y003257D02*
X000540Y003257D01*
X000540Y003495D02*
X000674Y003495D01*
X000674Y003734D02*
X000540Y003734D01*
X000540Y003972D02*
X000674Y003972D01*
X000674Y004211D02*
X000540Y004211D01*
X000540Y004449D02*
X000674Y004449D01*
X000674Y004688D02*
X000540Y004688D01*
X000540Y004926D02*
X000674Y004926D01*
X000674Y005165D02*
X000540Y005165D01*
X000540Y005403D02*
X000674Y005403D01*
X000674Y005642D02*
X000540Y005642D01*
X000540Y005880D02*
X000674Y005880D01*
X000674Y006119D02*
X000540Y006119D01*
X000540Y006357D02*
X000674Y006357D01*
X000674Y006596D02*
X000540Y006596D01*
X000540Y006834D02*
X000674Y006834D01*
X000674Y007073D02*
X000540Y007073D01*
X000540Y007311D02*
X000674Y007311D01*
X000674Y007550D02*
X000540Y007550D01*
X000540Y007788D02*
X000674Y007788D01*
X000674Y008027D02*
X000540Y008027D01*
X000540Y008265D02*
X000674Y008265D01*
X000674Y008504D02*
X000540Y008504D01*
X000540Y008742D02*
X000674Y008742D01*
X000674Y008981D02*
X000540Y008981D01*
X000540Y009219D02*
X000674Y009219D01*
X000674Y009458D02*
X000540Y009458D01*
X000540Y009696D02*
X000674Y009696D01*
X000674Y009935D02*
X000540Y009935D01*
X000540Y010173D02*
X000674Y010173D01*
X000674Y010412D02*
X000540Y010412D01*
X000540Y010650D02*
X000682Y010650D01*
X000540Y010889D02*
X000863Y010889D01*
X001116Y011127D02*
X000540Y011127D01*
X000540Y011366D02*
X004485Y011366D01*
X004399Y011127D02*
X004301Y011127D01*
X003980Y011127D02*
X003980Y011127D01*
X003659Y011127D02*
X003561Y011127D01*
X002824Y011127D02*
X002774Y011127D01*
X002405Y010141D02*
X002405Y010141D01*
X002028Y010141D01*
X002405Y010141D01*
X002405Y009935D02*
X002405Y009935D01*
X002089Y009935D02*
X001922Y009935D01*
X001945Y010173D02*
X002028Y010173D01*
X001799Y009696D02*
X004488Y009696D01*
X004488Y009458D02*
X001850Y009458D01*
X002088Y009219D02*
X004488Y009219D01*
X004488Y008981D02*
X002327Y008981D01*
X002409Y008742D02*
X004488Y008742D01*
X004488Y008504D02*
X002409Y008504D01*
X002409Y008265D02*
X004327Y008265D01*
X004117Y008027D02*
X002409Y008027D01*
X002409Y007788D02*
X003717Y007788D01*
X003331Y007550D02*
X002779Y007550D01*
X002949Y007311D02*
X003161Y007311D01*
X003070Y007073D02*
X003039Y007073D01*
X003039Y006834D02*
X003070Y006834D01*
X003127Y006596D02*
X002982Y006596D01*
X002860Y006357D02*
X003249Y006357D01*
X003520Y006119D02*
X002589Y006119D01*
X002537Y005642D02*
X003675Y005642D01*
X003700Y005652D02*
X003594Y005608D01*
X003495Y005551D01*
X003405Y005482D01*
X003324Y005401D01*
X003255Y005311D01*
X003198Y005212D01*
X003154Y005107D01*
X003125Y004996D01*
X003116Y004933D01*
X003873Y004933D01*
X003873Y004720D01*
X003116Y004720D01*
X003125Y004656D01*
X003154Y004546D01*
X003198Y004441D01*
X003255Y004342D01*
X003324Y004251D01*
X003405Y004171D01*
X003495Y004101D01*
X003594Y004044D01*
X003700Y004001D01*
X003810Y003971D01*
X003873Y003963D01*
X003873Y004720D01*
X004086Y004720D01*
X004086Y003963D01*
X004150Y003971D01*
X004260Y004001D01*
X004365Y004044D01*
X004464Y004101D01*
X004555Y004171D01*
X004635Y004251D01*
X004705Y004342D01*
X004762Y004441D01*
X004805Y004546D01*
X004835Y004656D01*
X004843Y004720D01*
X004086Y004720D01*
X004086Y004933D01*
X003873Y004933D01*
X003873Y005690D01*
X003810Y005681D01*
X003700Y005652D01*
X003873Y005642D02*
X004086Y005642D01*
X004086Y005690D02*
X004086Y004933D01*
X004843Y004933D01*
X004835Y004996D01*
X004805Y005107D01*
X004762Y005212D01*
X004705Y005311D01*
X004635Y005401D01*
X004555Y005482D01*
X004464Y005551D01*
X004365Y005608D01*
X004260Y005652D01*
X004150Y005681D01*
X004086Y005690D01*
X004284Y005642D02*
X005423Y005642D01*
X005121Y005403D02*
X004633Y005403D01*
X004781Y005165D02*
X004986Y005165D01*
X004921Y004926D02*
X004086Y004926D01*
X004086Y004688D02*
X003873Y004688D01*
X003873Y004926D02*
X003039Y004926D01*
X003039Y004688D02*
X003121Y004688D01*
X003194Y004449D02*
X002958Y004449D01*
X002800Y004211D02*
X003365Y004211D01*
X003805Y003972D02*
X002444Y003972D01*
X002660Y003495D02*
X003450Y003495D01*
X003465Y003511D02*
X003209Y003255D01*
X003070Y002921D01*
X003070Y002559D01*
X003209Y002225D01*
X003465Y001969D01*
X003799Y001830D01*
X004161Y001830D01*
X004495Y001969D01*
X004751Y002225D01*
X004889Y002559D01*
X004889Y002921D01*
X004751Y003255D01*
X004495Y003511D01*
X004161Y003649D01*
X003799Y003649D01*
X003465Y003511D01*
X003211Y003257D02*
X002898Y003257D01*
X002998Y003018D02*
X003111Y003018D01*
X003070Y002780D02*
X003039Y002780D01*
X003032Y002541D02*
X003078Y002541D01*
X003176Y002303D02*
X002933Y002303D01*
X002740Y002064D02*
X003369Y002064D01*
X004510Y003495D02*
X005300Y003495D01*
X005061Y003257D02*
X004749Y003257D01*
X004849Y003018D02*
X004961Y003018D01*
X004921Y002780D02*
X004889Y002780D01*
X004882Y002541D02*
X004928Y002541D01*
X005027Y002303D02*
X004783Y002303D01*
X004591Y002064D02*
X005219Y002064D01*
X005515Y003972D02*
X004154Y003972D01*
X004086Y003972D02*
X003873Y003972D01*
X003873Y004211D02*
X004086Y004211D01*
X004086Y004449D02*
X003873Y004449D01*
X003873Y005165D02*
X004086Y005165D01*
X004086Y005403D02*
X003873Y005403D01*
X003327Y005403D02*
X002838Y005403D01*
X002973Y005165D02*
X003178Y005165D01*
X003980Y006913D02*
X004374Y007307D01*
X004374Y007917D01*
X004767Y008311D01*
X004767Y010141D01*
X004402Y009935D02*
X004345Y009935D01*
X004767Y010929D02*
X004767Y011337D01*
X004903Y011497D01*
X006354Y011497D01*
X007031Y010673D01*
X007031Y003598D01*
X006726Y003365D01*
X006718Y003018D02*
X007420Y003018D01*
X007420Y002780D02*
X006740Y002780D01*
X006732Y002541D02*
X007420Y002541D01*
X007420Y002303D02*
X006634Y002303D01*
X007045Y003257D02*
X007420Y003257D01*
X007420Y003495D02*
X007294Y003495D01*
X007310Y003734D02*
X007420Y003734D01*
X007420Y003972D02*
X007310Y003972D01*
X007310Y004211D02*
X007420Y004211D01*
X007420Y004449D02*
X007310Y004449D01*
X007310Y004688D02*
X007420Y004688D01*
X007420Y004926D02*
X007310Y004926D01*
X007310Y005165D02*
X007420Y005165D01*
X007420Y005403D02*
X007310Y005403D01*
X007310Y005642D02*
X007420Y005642D01*
X007420Y005880D02*
X007310Y005880D01*
X007310Y006119D02*
X007420Y006119D01*
X007420Y006357D02*
X007310Y006357D01*
X007310Y006596D02*
X007420Y006596D01*
X007420Y006834D02*
X007310Y006834D01*
X007310Y007073D02*
X007420Y007073D01*
X007420Y007311D02*
X007310Y007311D01*
X007310Y007550D02*
X007420Y007550D01*
X007420Y007788D02*
X007310Y007788D01*
X007310Y008027D02*
X007420Y008027D01*
X007420Y008265D02*
X007310Y008265D01*
X007310Y008504D02*
X007420Y008504D01*
X007420Y008742D02*
X007310Y008742D01*
X007310Y008981D02*
X007420Y008981D01*
X007420Y009219D02*
X007310Y009219D01*
X007310Y009458D02*
X007420Y009458D01*
X007420Y009696D02*
X007310Y009696D01*
X007310Y009935D02*
X007420Y009935D01*
X007420Y010173D02*
X007310Y010173D01*
X007310Y010412D02*
X007420Y010412D01*
X007420Y010650D02*
X007310Y010650D01*
X007215Y010889D02*
X007420Y010889D01*
X007420Y011127D02*
X007019Y011127D01*
X006823Y011366D02*
X007420Y011366D01*
X007420Y011604D02*
X006628Y011604D01*
X006296Y011127D02*
X006146Y011127D01*
X006353Y010889D02*
X006492Y010889D01*
X006563Y010650D02*
X006688Y010650D01*
X006752Y010412D02*
X006621Y010412D01*
X006621Y010173D02*
X006752Y010173D01*
X006752Y009935D02*
X006621Y009935D01*
X006621Y009696D02*
X006752Y009696D01*
X006752Y009458D02*
X006621Y009458D01*
X006621Y009219D02*
X006752Y009219D01*
X006752Y008981D02*
X006621Y008981D01*
X006621Y008742D02*
X006752Y008742D01*
X006752Y008504D02*
X006621Y008504D01*
X006621Y008265D02*
X006752Y008265D01*
X006752Y008027D02*
X006621Y008027D01*
X006621Y007788D02*
X006752Y007788D01*
X006752Y007550D02*
X006621Y007550D01*
X006718Y007311D02*
X006752Y007311D01*
X006740Y007073D02*
X006752Y007073D01*
X006740Y006834D02*
X006752Y006834D01*
X006740Y006596D02*
X006752Y006596D01*
X006752Y006357D02*
X006561Y006357D01*
X006752Y006119D02*
X006322Y006119D01*
X005948Y006933D02*
X006342Y007326D01*
X006342Y010476D01*
X005948Y010929D01*
X005555Y010929D01*
X005873Y010412D02*
X006027Y010412D01*
X006063Y010173D02*
X005971Y010173D01*
X005920Y009935D02*
X006063Y009935D01*
X006063Y009696D02*
X005047Y009696D01*
X005047Y009458D02*
X006063Y009458D01*
X006063Y009219D02*
X005047Y009219D01*
X005047Y008981D02*
X006063Y008981D01*
X006063Y008742D02*
X005047Y008742D01*
X005047Y008504D02*
X006063Y008504D01*
X006063Y008265D02*
X005047Y008265D01*
X004879Y008027D02*
X006063Y008027D01*
X005420Y007788D02*
X004653Y007788D01*
X004653Y007550D02*
X005181Y007550D01*
X004943Y007311D02*
X004799Y007311D01*
X004889Y007073D02*
X004921Y007073D01*
X004921Y006834D02*
X004889Y006834D01*
X004921Y006596D02*
X004833Y006596D01*
X004710Y006357D02*
X005100Y006357D01*
X005338Y006119D02*
X004439Y006119D01*
X004839Y004688D02*
X004921Y004688D01*
X005002Y004449D02*
X004765Y004449D01*
X004595Y004211D02*
X005160Y004211D01*
X006748Y003734D02*
X001233Y003734D01*
X001233Y003972D02*
X001815Y003972D01*
X001459Y004211D02*
X001233Y004211D01*
X001233Y004449D02*
X001301Y004449D01*
X001285Y005165D02*
X001233Y005165D01*
X001233Y005403D02*
X001420Y005403D01*
X002129Y006913D02*
X002129Y008783D01*
X001519Y009393D01*
X001519Y009984D01*
X001618Y010082D01*
X002721Y009935D02*
X002827Y009935D01*
X003558Y009935D02*
X003614Y009935D01*
X004627Y011604D02*
X000540Y011604D01*
X005133Y009935D02*
X005189Y009935D01*
X001599Y003495D02*
X001253Y003495D01*
X000540Y001587D02*
X007420Y001587D01*
X007420Y001349D02*
X000540Y001349D01*
X000540Y001110D02*
X007420Y001110D01*
X007420Y000872D02*
X000540Y000872D01*
X000540Y000633D02*
X007420Y000633D01*
D16*
X005948Y006933D02*
X005830Y006913D01*
D17*
X005665Y008704D03*
X007309Y011640D03*
X001618Y010082D03*
X000665Y011591D03*
X007252Y000744D03*
X000707Y000720D03*
M02*
