G75*
G70*
%OFA0B0*%
%FSLAX24Y24*%
%IPPOS*%
%LPD*%
%AMOC8*
5,1,8,0,0,1.08239X$1,22.5*
%
%ADD10C,0.0000*%
%ADD11C,0.0080*%
%ADD12C,0.0010*%
%ADD13R,0.0197X0.0197*%
%ADD14C,0.0090*%
%ADD15C,0.0060*%
%ADD16C,0.0100*%
D10*
X000220Y000220D02*
X000220Y012070D01*
X007740Y012070D01*
X007740Y000220D01*
X000220Y000220D01*
D11*
X001657Y004433D02*
X002011Y004433D01*
X002011Y005220D01*
X001647Y005220D01*
X002011Y004826D02*
X002013Y004923D01*
X002020Y005019D01*
X002032Y005115D01*
X002049Y005210D01*
X002070Y005304D01*
X002096Y005398D01*
X002126Y005489D01*
X002161Y005580D01*
X002200Y005668D01*
X002243Y005754D01*
X002291Y005838D01*
X002343Y005920D01*
X002398Y005999D01*
X002458Y006075D01*
X002521Y006148D01*
X002588Y006218D01*
X002658Y006285D01*
X002731Y006348D01*
X002807Y006408D01*
X002886Y006463D01*
X002968Y006515D01*
X003052Y006563D01*
X003138Y006606D01*
X003226Y006645D01*
X003317Y006680D01*
X003408Y006710D01*
X003502Y006736D01*
X003596Y006757D01*
X003691Y006774D01*
X003787Y006786D01*
X003883Y006793D01*
X003980Y006795D01*
X004077Y006793D01*
X004173Y006786D01*
X004269Y006774D01*
X004364Y006757D01*
X004458Y006736D01*
X004552Y006710D01*
X004643Y006680D01*
X004734Y006645D01*
X004822Y006606D01*
X004908Y006563D01*
X004992Y006515D01*
X005074Y006463D01*
X005153Y006408D01*
X005229Y006348D01*
X005302Y006285D01*
X005372Y006218D01*
X005439Y006148D01*
X005502Y006075D01*
X005562Y005999D01*
X005617Y005920D01*
X005669Y005838D01*
X005717Y005754D01*
X005760Y005668D01*
X005799Y005580D01*
X005834Y005489D01*
X005864Y005398D01*
X005890Y005304D01*
X005911Y005210D01*
X005928Y005115D01*
X005940Y005019D01*
X005947Y004923D01*
X005949Y004826D01*
X005947Y004729D01*
X005940Y004633D01*
X005928Y004537D01*
X005911Y004442D01*
X005890Y004348D01*
X005864Y004254D01*
X005834Y004163D01*
X005799Y004072D01*
X005760Y003984D01*
X005717Y003898D01*
X005669Y003814D01*
X005617Y003732D01*
X005562Y003653D01*
X005502Y003577D01*
X005439Y003504D01*
X005372Y003434D01*
X005302Y003367D01*
X005229Y003304D01*
X005153Y003244D01*
X005074Y003189D01*
X004992Y003137D01*
X004908Y003089D01*
X004822Y003046D01*
X004734Y003007D01*
X004643Y002972D01*
X004552Y002942D01*
X004458Y002916D01*
X004364Y002895D01*
X004269Y002878D01*
X004173Y002866D01*
X004077Y002859D01*
X003980Y002857D01*
X003883Y002859D01*
X003787Y002866D01*
X003691Y002878D01*
X003596Y002895D01*
X003502Y002916D01*
X003408Y002942D01*
X003317Y002972D01*
X003226Y003007D01*
X003138Y003046D01*
X003052Y003089D01*
X002968Y003137D01*
X002886Y003189D01*
X002807Y003244D01*
X002731Y003304D01*
X002658Y003367D01*
X002588Y003434D01*
X002521Y003504D01*
X002458Y003577D01*
X002398Y003653D01*
X002343Y003732D01*
X002291Y003814D01*
X002243Y003898D01*
X002200Y003984D01*
X002161Y004072D01*
X002126Y004163D01*
X002096Y004254D01*
X002070Y004348D01*
X002049Y004442D01*
X002032Y004537D01*
X002020Y004633D01*
X002013Y004729D01*
X002011Y004826D01*
X001224Y004826D02*
X001227Y004961D01*
X001237Y005096D01*
X001254Y005230D01*
X001277Y005364D01*
X001307Y005496D01*
X001343Y005626D01*
X001385Y005754D01*
X001434Y005881D01*
X001489Y006004D01*
X001549Y006125D01*
X001616Y006243D01*
X001688Y006357D01*
X001766Y006468D01*
X001850Y006574D01*
X001938Y006677D01*
X002031Y006775D01*
X002129Y006868D01*
X002232Y006956D01*
X002338Y007040D01*
X002449Y007118D01*
X002563Y007190D01*
X002681Y007257D01*
X002802Y007317D01*
X002925Y007372D01*
X003052Y007421D01*
X003180Y007463D01*
X003310Y007499D01*
X003442Y007529D01*
X003576Y007552D01*
X003710Y007569D01*
X003845Y007579D01*
X003980Y007582D01*
X004115Y007579D01*
X004250Y007569D01*
X004384Y007552D01*
X004518Y007529D01*
X004650Y007499D01*
X004780Y007463D01*
X004908Y007421D01*
X005035Y007372D01*
X005158Y007317D01*
X005279Y007257D01*
X005397Y007190D01*
X005511Y007118D01*
X005622Y007040D01*
X005728Y006956D01*
X005831Y006868D01*
X005929Y006775D01*
X006022Y006677D01*
X006110Y006574D01*
X006194Y006468D01*
X006272Y006357D01*
X006344Y006243D01*
X006411Y006125D01*
X006471Y006004D01*
X006526Y005881D01*
X006575Y005754D01*
X006617Y005626D01*
X006653Y005496D01*
X006683Y005364D01*
X006706Y005230D01*
X006723Y005096D01*
X006733Y004961D01*
X006736Y004826D01*
X006733Y004691D01*
X006723Y004556D01*
X006706Y004422D01*
X006683Y004288D01*
X006653Y004156D01*
X006617Y004026D01*
X006575Y003898D01*
X006526Y003771D01*
X006471Y003648D01*
X006411Y003527D01*
X006344Y003409D01*
X006272Y003295D01*
X006194Y003184D01*
X006110Y003078D01*
X006022Y002975D01*
X005929Y002877D01*
X005831Y002784D01*
X005728Y002696D01*
X005622Y002612D01*
X005511Y002534D01*
X005397Y002462D01*
X005279Y002395D01*
X005158Y002335D01*
X005035Y002280D01*
X004908Y002231D01*
X004780Y002189D01*
X004650Y002153D01*
X004518Y002123D01*
X004384Y002100D01*
X004250Y002083D01*
X004115Y002073D01*
X003980Y002070D01*
X003845Y002073D01*
X003710Y002083D01*
X003576Y002100D01*
X003442Y002123D01*
X003310Y002153D01*
X003180Y002189D01*
X003052Y002231D01*
X002925Y002280D01*
X002802Y002335D01*
X002681Y002395D01*
X002563Y002462D01*
X002449Y002534D01*
X002338Y002612D01*
X002232Y002696D01*
X002129Y002784D01*
X002031Y002877D01*
X001938Y002975D01*
X001850Y003078D01*
X001766Y003184D01*
X001688Y003295D01*
X001616Y003409D01*
X001549Y003527D01*
X001489Y003648D01*
X001434Y003771D01*
X001385Y003898D01*
X001343Y004026D01*
X001307Y004156D01*
X001277Y004288D01*
X001254Y004422D01*
X001237Y004556D01*
X001227Y004691D01*
X001224Y004826D01*
X000830Y004826D02*
X000834Y004981D01*
X000845Y005135D01*
X000864Y005288D01*
X000891Y005441D01*
X000924Y005591D01*
X000966Y005740D01*
X001014Y005887D01*
X001070Y006031D01*
X001132Y006173D01*
X001202Y006311D01*
X001278Y006445D01*
X001361Y006576D01*
X001450Y006702D01*
X001545Y006824D01*
X001646Y006941D01*
X001753Y007053D01*
X001865Y007160D01*
X001982Y007261D01*
X002104Y007356D01*
X002230Y007445D01*
X002361Y007528D01*
X002495Y007604D01*
X002633Y007674D01*
X002775Y007736D01*
X002919Y007792D01*
X003066Y007840D01*
X003215Y007882D01*
X003365Y007915D01*
X003518Y007942D01*
X003671Y007961D01*
X003825Y007972D01*
X003980Y007976D01*
X004135Y007972D01*
X004289Y007961D01*
X004442Y007942D01*
X004595Y007915D01*
X004745Y007882D01*
X004894Y007840D01*
X005041Y007792D01*
X005185Y007736D01*
X005327Y007674D01*
X005465Y007604D01*
X005599Y007528D01*
X005730Y007445D01*
X005856Y007356D01*
X005978Y007261D01*
X006095Y007160D01*
X006207Y007053D01*
X006314Y006941D01*
X006415Y006824D01*
X006510Y006702D01*
X006599Y006576D01*
X006682Y006445D01*
X006758Y006311D01*
X006828Y006173D01*
X006890Y006031D01*
X006946Y005887D01*
X006994Y005740D01*
X007036Y005591D01*
X007069Y005441D01*
X007096Y005288D01*
X007115Y005135D01*
X007126Y004981D01*
X007130Y004826D01*
X007126Y004671D01*
X007115Y004517D01*
X007096Y004364D01*
X007069Y004211D01*
X007036Y004061D01*
X006994Y003912D01*
X006946Y003765D01*
X006890Y003621D01*
X006828Y003479D01*
X006758Y003341D01*
X006682Y003207D01*
X006599Y003076D01*
X006510Y002950D01*
X006415Y002828D01*
X006314Y002711D01*
X006207Y002599D01*
X006095Y002492D01*
X005978Y002391D01*
X005856Y002296D01*
X005730Y002207D01*
X005599Y002124D01*
X005465Y002048D01*
X005327Y001978D01*
X005185Y001916D01*
X005041Y001860D01*
X004894Y001812D01*
X004745Y001770D01*
X004595Y001737D01*
X004442Y001710D01*
X004289Y001691D01*
X004135Y001680D01*
X003980Y001676D01*
X003825Y001680D01*
X003671Y001691D01*
X003518Y001710D01*
X003365Y001737D01*
X003215Y001770D01*
X003066Y001812D01*
X002919Y001860D01*
X002775Y001916D01*
X002633Y001978D01*
X002495Y002048D01*
X002361Y002124D01*
X002230Y002207D01*
X002104Y002296D01*
X001982Y002391D01*
X001865Y002492D01*
X001753Y002599D01*
X001646Y002711D01*
X001545Y002828D01*
X001450Y002950D01*
X001361Y003076D01*
X001278Y003207D01*
X001202Y003341D01*
X001132Y003479D01*
X001070Y003621D01*
X001014Y003765D01*
X000966Y003912D01*
X000924Y004061D01*
X000891Y004211D01*
X000864Y004364D01*
X000845Y004517D01*
X000834Y004671D01*
X000830Y004826D01*
X001647Y004432D02*
X001669Y004319D01*
X001696Y004207D01*
X001729Y004096D01*
X001768Y003988D01*
X001811Y003881D01*
X001860Y003776D01*
X001913Y003674D01*
X001972Y003575D01*
X002035Y003478D01*
X002103Y003385D01*
X002176Y003295D01*
X002253Y003209D01*
X002333Y003127D01*
X002418Y003049D01*
X002507Y002975D01*
X002599Y002905D01*
X002694Y002840D01*
X002792Y002780D01*
X002893Y002724D01*
X002997Y002674D01*
X003103Y002628D01*
X003211Y002588D01*
X003321Y002554D01*
X003433Y002524D01*
X003546Y002500D01*
X003660Y002482D01*
X003774Y002469D01*
X003889Y002462D01*
X004005Y002460D01*
X004120Y002464D01*
X004235Y002474D01*
X004349Y002489D01*
X004463Y002510D01*
X004575Y002536D01*
X004686Y002568D01*
X004795Y002605D01*
X004903Y002647D01*
X005008Y002695D01*
X005110Y002747D01*
X005210Y002805D01*
X005307Y002867D01*
X005401Y002934D01*
X005492Y003006D01*
X005579Y003082D01*
X005662Y003162D01*
X005741Y003246D01*
X005816Y003333D01*
X005886Y003425D01*
X005952Y003519D01*
X006014Y003617D01*
X006070Y003718D01*
X006122Y003821D01*
X006168Y003926D01*
X006210Y004034D01*
X006245Y004144D01*
X006276Y004255D01*
X006301Y004367D01*
X006321Y004481D01*
X006335Y004596D01*
X006343Y004711D01*
X006346Y004826D01*
X006343Y004941D01*
X006335Y005056D01*
X006321Y005171D01*
X006301Y005285D01*
X006276Y005397D01*
X006245Y005508D01*
X006210Y005618D01*
X006168Y005726D01*
X006122Y005831D01*
X006070Y005934D01*
X006014Y006035D01*
X005952Y006133D01*
X005886Y006227D01*
X005816Y006319D01*
X005741Y006406D01*
X005662Y006490D01*
X005579Y006570D01*
X005492Y006646D01*
X005401Y006718D01*
X005307Y006785D01*
X005210Y006847D01*
X005110Y006905D01*
X005008Y006957D01*
X004903Y007005D01*
X004795Y007047D01*
X004686Y007084D01*
X004575Y007116D01*
X004463Y007142D01*
X004349Y007163D01*
X004235Y007178D01*
X004120Y007188D01*
X004005Y007192D01*
X003889Y007190D01*
X003774Y007183D01*
X003660Y007170D01*
X003546Y007152D01*
X003433Y007128D01*
X003321Y007098D01*
X003211Y007064D01*
X003103Y007024D01*
X002997Y006978D01*
X002893Y006928D01*
X002792Y006872D01*
X002694Y006812D01*
X002599Y006747D01*
X002507Y006677D01*
X002418Y006603D01*
X002333Y006525D01*
X002253Y006443D01*
X002176Y006357D01*
X002103Y006267D01*
X002035Y006174D01*
X001972Y006077D01*
X001913Y005978D01*
X001860Y005876D01*
X001811Y005771D01*
X001768Y005664D01*
X001729Y005556D01*
X001696Y005445D01*
X001669Y005333D01*
X001647Y005220D01*
X002070Y009787D02*
X005889Y009787D01*
X005889Y010377D01*
X005889Y010378D02*
X005868Y010390D01*
X005849Y010405D01*
X005831Y010422D01*
X005817Y010442D01*
X005805Y010464D01*
X005797Y010487D01*
X005792Y010511D01*
X005790Y010535D01*
X005792Y010559D01*
X005797Y010583D01*
X005805Y010606D01*
X005817Y010628D01*
X005831Y010648D01*
X005849Y010665D01*
X005868Y010680D01*
X005889Y010692D01*
X005889Y011283D01*
X002070Y011283D01*
X002070Y010692D01*
X002071Y010692D02*
X002092Y010680D01*
X002111Y010665D01*
X002129Y010648D01*
X002143Y010628D01*
X002155Y010606D01*
X002163Y010583D01*
X002168Y010559D01*
X002170Y010535D01*
X002168Y010511D01*
X002163Y010487D01*
X002155Y010464D01*
X002143Y010442D01*
X002129Y010422D01*
X002111Y010405D01*
X002092Y010390D01*
X002071Y010378D01*
X002070Y010377D02*
X002070Y009787D01*
D12*
X005705Y011109D02*
X005778Y011109D01*
X005742Y011109D02*
X005742Y011219D01*
X005705Y011182D01*
D13*
X005555Y010929D03*
X005555Y010141D03*
X004767Y010141D03*
X004767Y010929D03*
X003980Y010929D03*
X003980Y010141D03*
X003192Y010141D03*
X003192Y010929D03*
X002405Y010929D03*
X002405Y010141D03*
D14*
X002222Y009447D02*
X001948Y009447D01*
X001948Y009037D01*
X001948Y009242D02*
X002085Y009242D01*
X002409Y009242D02*
X002409Y009105D01*
X002477Y009037D01*
X002614Y009037D01*
X002682Y009105D01*
X002682Y009242D01*
X002614Y009310D01*
X002477Y009310D01*
X002409Y009242D01*
X002869Y009242D02*
X002869Y009105D01*
X002937Y009037D01*
X003074Y009037D01*
X003143Y009105D01*
X003143Y009242D01*
X003074Y009310D01*
X002937Y009310D01*
X002869Y009242D01*
X003329Y009310D02*
X003466Y009310D01*
X003398Y009379D02*
X003398Y009105D01*
X003466Y009037D01*
X003636Y009037D02*
X003842Y009037D01*
X003910Y009105D01*
X003842Y009173D01*
X003705Y009173D01*
X003636Y009242D01*
X003705Y009310D01*
X003910Y009310D01*
X004097Y009310D02*
X004097Y009105D01*
X004165Y009037D01*
X004234Y009105D01*
X004302Y009037D01*
X004370Y009105D01*
X004370Y009310D01*
X004557Y009310D02*
X004626Y009310D01*
X004626Y009037D01*
X004694Y009037D02*
X004557Y009037D01*
X004626Y009447D02*
X004626Y009515D01*
X004864Y009310D02*
X005001Y009310D01*
X004932Y009379D02*
X004932Y009105D01*
X005001Y009037D01*
X005171Y009105D02*
X005171Y009242D01*
X005239Y009310D01*
X005445Y009310D01*
X005631Y009242D02*
X005700Y009310D01*
X005837Y009310D01*
X005905Y009242D01*
X005905Y009037D01*
X005631Y009037D02*
X005631Y009447D01*
X005445Y009037D02*
X005239Y009037D01*
X005171Y009105D01*
D15*
X007366Y008685D02*
X000594Y008685D01*
X000594Y000968D01*
X007366Y000968D01*
X007366Y008685D01*
D16*
X004899Y001636D02*
X004593Y001636D01*
X004746Y001636D02*
X004746Y001176D01*
X004384Y001252D02*
X004384Y001559D01*
X004307Y001636D01*
X004077Y001636D01*
X004077Y001176D01*
X004307Y001176D01*
X004384Y001252D01*
X003868Y001406D02*
X003791Y001329D01*
X003561Y001329D01*
X003561Y001176D02*
X003561Y001636D01*
X003791Y001636D01*
X003868Y001559D01*
X003868Y001406D01*
X003353Y001482D02*
X003276Y001406D01*
X003353Y001329D01*
X003353Y001252D01*
X003276Y001176D01*
X003122Y001176D01*
X003046Y001252D01*
X003199Y001406D02*
X003276Y001406D01*
X003353Y001482D02*
X003353Y001559D01*
X003276Y001636D01*
X003122Y001636D01*
X003046Y001559D01*
M02*
